<svg width="36" height="36" viewBox="0 0 36 36" fill="none" xmlns="http://www.w3.org/2000/svg">
<path d="M18.0017 35.1197C8.66081 35.1197 1.08594 27.4803 1.08594 18.0598C1.08594 8.63939 8.66081 1 18.0017 1C27.3426 1 34.9175 8.63939 34.9175 18.0598C34.9175 27.4803 27.3426 35.1197 18.0017 35.1197V35.1197Z" stroke="white" stroke-width="1.75077" stroke-miterlimit="10"/>
<path d="M22.1046 8.85938H13.8962C11.1125 8.85938 8.85156 11.1356 8.85156 13.947V22.2253C8.85156 25.0327 11.1086 27.3129 13.8962 27.3129H22.1046C24.8883 27.3129 27.1493 25.0367 27.1493 22.2253V13.947C27.1493 11.1396 24.8922 8.85938 22.1046 8.85938ZM25.6683 22.2013C25.6683 24.1981 24.0647 25.8194 22.0809 25.8194H13.916C11.9362 25.8194 10.3285 24.202 10.3285 22.2013V13.9669C10.3285 11.9702 11.9322 10.3489 13.916 10.3489H22.0809C24.0607 10.3489 25.6683 11.9662 25.6683 13.9669V22.2013Z" fill="white"/>
<path d="M18.0064 13.2266C15.3455 13.2266 13.1875 15.403 13.1875 18.0905C13.1875 20.7781 15.3455 22.9505 18.0064 22.9505C20.6673 22.9505 22.8293 20.7741 22.8293 18.0905C22.8293 15.407 20.6713 13.2266 18.0064 13.2266ZM18.0064 21.2613C16.2681 21.2613 14.8624 19.8396 14.8624 18.0905C14.8624 16.3414 16.2721 14.9198 18.0064 14.9198C19.7408 14.9198 21.1504 16.3414 21.1504 18.0905C21.1504 19.8396 19.7408 21.2613 18.0064 21.2613Z" fill="white"/>
<path d="M24.0682 13.059C24.0682 13.662 23.5852 14.1491 22.9872 14.1491C22.3893 14.1491 21.9062 13.662 21.9062 13.059C21.9062 12.456 22.3893 11.9688 22.9872 11.9688C23.5852 11.9688 24.0682 12.456 24.0682 13.059Z" fill="white"/>
</svg>
