<svg width="37" height="36" viewBox="0 0 37 36" fill="none" xmlns="http://www.w3.org/2000/svg">
<path d="M18.5408 35.1197C9.19987 35.1197 1.625 27.4803 1.625 18.0598C1.625 8.63939 9.19987 1 18.5408 1C27.8817 1 35.4565 8.63939 35.4565 18.0598C35.4565 27.4803 27.8817 35.1197 18.5408 35.1197V35.1197Z" stroke="white" stroke-width="1.75077" stroke-miterlimit="10"/>
<path d="M26.727 19.2148V25.1331H23.3256V19.6142C23.3256 18.2285 22.8346 17.282 21.6032 17.282C20.6647 17.282 20.1064 17.921 19.857 18.5359C19.7659 18.7556 19.7461 19.0631 19.7461 19.3706V25.1331H16.3447C16.3447 25.1331 16.3922 15.7845 16.3447 14.8141H19.7461V16.2757C19.7461 16.2757 19.7302 16.2996 19.7223 16.3076H19.7461V16.2757C20.1975 15.5728 21.0053 14.5705 22.8109 14.5705C25.0481 14.5705 26.727 16.0441 26.727 19.2148ZM11.0625 25.1331H14.4639V14.8141H11.0625V25.1331ZM11.0625 25.1331L14.5629 11.3159C14.5629 12.2903 13.7788 13.081 12.8127 13.081C11.8465 13.081 11.0625 12.2903 11.0625 11.3159C11.0625 10.3415 11.8465 9.55078 12.8127 9.55078C13.7788 9.55078 14.5629 10.3415 14.5629 11.3159L11.0625 25.1331Z" fill="white"/>
</svg>
