<svg width="36" height="36" viewBox="0 0 36 36" fill="none" xmlns="http://www.w3.org/2000/svg">
<path d="M17.915 34.8809C8.57453 34.8809 1 27.2949 1 17.9404C1 8.58592 8.57453 1 17.915 1C27.2555 1 34.83 8.58592 34.83 17.9404C34.83 27.2949 27.2555 34.8809 17.915 34.8809Z" stroke="white" stroke-width="1.75077" stroke-miterlimit="10"/>
<g opacity="0.9">
<path d="M12.3736 11.1797C11.0152 11.1797 9.91406 12.2808 9.91406 13.6392V23.4772C9.91406 24.8355 11.0152 25.9367 12.3736 25.9367H22.2116C23.5699 25.9367 24.6711 24.8355 24.6711 23.4772V13.6392C24.6711 12.2808 23.5699 11.1797 22.2116 11.1797H12.3736ZM13.1065 14.3419H15.8954L17.8759 17.1562L20.2791 14.3419H21.1575L18.2725 17.7196L21.83 22.7745H19.0418L16.7436 19.5093L13.9547 22.7745H13.0763L16.3469 18.9459L13.1065 14.3419ZM14.4515 15.0446L19.4082 22.0718H20.485L15.5282 15.0446H14.4515Z" fill="white"/>
</g>
</svg>
