<svg width="76" height="76" viewBox="0 0 76 76" fill="none" xmlns="http://www.w3.org/2000/svg">
<path d="M36.5275 0.471875C37.4084 -0.157292 38.5916 -0.157292 39.4725 0.471875L74.9391 25.8052C75.6049 26.2807 76 27.0485 76 27.8667V73.4667C76 74.8658 74.8658 76 73.4667 76H65.8667V35.4667H10.1333V76H2.53333C1.13421 76 0 74.8658 0 73.4667V27.8667C0 27.0485 0.395113 26.2807 1.06086 25.8052L36.5275 0.471875Z" fill="url(#paint0_linear_2826_1559)"/>
<path fill-rule="evenodd" clip-rule="evenodd" d="M15.2 76H60.8V55.7333H15.2V76ZM45.6 65.8667H30.4V60.8H45.6V65.8667Z" fill="url(#paint1_linear_2826_1559)"/>
<path d="M60.8 50.6667V40.5333H15.2V50.6667H60.8Z" fill="url(#paint2_linear_2826_1559)"/>
<defs>
<linearGradient id="paint0_linear_2826_1559" x1="46.2717" y1="-12.5784" x2="72.5799" y2="73.4301" gradientUnits="userSpaceOnUse">
<stop stop-color="#333186"/>
<stop offset="0.411458" stop-color="#232E69"/>
<stop offset="1" stop-color="#0E3662"/>
</linearGradient>
<linearGradient id="paint1_linear_2826_1559" x1="46.2717" y1="-12.5784" x2="72.5799" y2="73.4301" gradientUnits="userSpaceOnUse">
<stop stop-color="#333186"/>
<stop offset="0.411458" stop-color="#232E69"/>
<stop offset="1" stop-color="#0E3662"/>
</linearGradient>
<linearGradient id="paint2_linear_2826_1559" x1="46.2717" y1="-12.5784" x2="72.5799" y2="73.4301" gradientUnits="userSpaceOnUse">
<stop stop-color="#333186"/>
<stop offset="0.411458" stop-color="#232E69"/>
<stop offset="1" stop-color="#0E3662"/>
</linearGradient>
</defs>
</svg>
