<svg width="82" height="82" viewBox="0 0 82 82" fill="none" xmlns="http://www.w3.org/2000/svg">
<path d="M48.6917 82H33.3099C31.3243 82 29.6062 80.6593 29.1813 78.7774L28.2859 74.7561C27.7685 72.432 26.1292 70.5447 24.0546 69.3761C22.0467 68.2451 19.6822 67.8157 17.4804 68.496L13.2121 69.8148C11.319 70.4005 9.26096 69.6274 8.26796 67.9575L0.560148 55.0384C-0.421973 53.3677 -0.0836123 51.2602 1.37572 49.9585L4.67346 47.0396C6.38089 45.5283 7.19225 43.2787 7.19207 40.9984C7.19189 38.7154 6.37816 36.4632 4.66687 34.952L1.37572 32.0456C-0.0857619 30.7433 -0.424257 28.6333 0.560148 26.9616L8.25105 14.0343C9.24405 12.3644 11.3021 11.5913 13.1952 12.177L17.3124 13.4491C19.6086 14.1586 22.0785 13.7027 24.1738 12.5255C26.1824 11.4264 27.7581 9.61493 28.2574 7.38037L29.1855 3.2267C29.6084 1.34467 31.3246 0.00202701 33.3099 0H48.6917C50.677 0.00202701 52.3932 1.34467 52.816 3.2267L53.707 7.17761C54.2408 9.5447 55.9078 11.4628 58.018 12.6608C59.9894 13.7652 62.3116 14.1921 64.4708 13.5254L68.8106 12.1852C70.7025 11.6016 72.7579 12.3745 73.7505 14.0425L81.4414 26.9698C82.4235 28.6405 82.0852 30.748 80.6259 32.0497L77.33 34.9669C75.6214 36.4793 74.8095 38.7305 74.8095 41.0123C74.8095 43.2941 75.6214 45.5453 77.33 47.0577L80.6259 49.9749C82.0852 51.2766 82.4235 53.3841 81.4414 55.0548L73.7505 67.9821C72.7579 69.6501 70.7025 70.423 68.8106 69.8394L64.5105 68.5115C62.326 67.8369 59.9757 68.2654 57.9842 69.3884C55.8945 70.5631 54.2476 72.4583 53.7179 74.7963L52.816 78.7774C52.3915 80.6578 50.6757 81.9984 48.6917 82ZM40.9839 24.6C31.6486 24.6 24.0808 31.9425 24.0808 41C24.0808 50.0575 31.6486 57.4 40.9839 57.4C50.3192 57.4 57.887 50.0575 57.887 41C57.887 31.9425 50.3192 24.6 40.9839 24.6Z" fill="url(#paint0_linear_2826_1545)"/>
<defs>
<linearGradient id="paint0_linear_2826_1545" x1="49.9247" y1="-13.5714" x2="78.3099" y2="79.2272" gradientUnits="userSpaceOnUse">
<stop stop-color="#333186"/>
<stop offset="0.411458" stop-color="#232E69"/>
<stop offset="1" stop-color="#0E3662"/>
</linearGradient>
</defs>
</svg>
