<svg width="36" height="36" viewBox="0 0 36 36" fill="none" xmlns="http://www.w3.org/2000/svg">
    <circle cx="18" cy="18" r="18" fill="white"/>
    <path d="M15 9C13.6745 9 12.6 10.0745 12.6 11.4V12.6C12.6 13.9255 13.6745 15 15 15C16.3255 15 17.4 13.9255 17.4 12.6V11.4C17.4 10.0745 16.3255 9 15 9Z" fill="#1C3F67"/>
    <path d="M21 9C19.6745 9 18.6 10.0745 18.6 11.4V12.6C18.6 13.9255 19.6745 15 21 15C22.3255 15 23.4 13.9255 23.4 12.6V11.4C23.4 10.0745 22.3255 9 21 9Z" fill="#1C3F67"/>
    <path d="M11.4 15C10.0745 15 9 16.0745 9 17.4V18C9 19.3255 10.0745 20.4 11.4 20.4C12.7255 20.4 13.8 19.3255 13.8 18V17.4C13.8 16.0745 12.7255 15 11.4 15Z" fill="#1C3F67"/>
    <path d="M24.6 15C23.2745 15 22.2 16.0745 22.2 17.4V18C22.2 19.3255 23.2745 20.4 24.6 20.4C25.9255 20.4 27 19.3255 27 18V17.4C27 16.0745 25.9255 15 24.6 15Z" fill="#1C3F67"/>
    <path d="M20.5353 18.3347C19.2215 16.7394 16.7785 16.7394 15.4647 18.3347L11.9633 22.5864C10.5137 24.3467 11.7658 27 14.0462 27C14.372 27 14.6934 26.9241 14.9848 26.7784L15.4164 26.5626C17.0428 25.7494 18.9572 25.7494 20.5836 26.5626L21.0152 26.7784C21.3066 26.9241 21.628 27 21.9538 27C24.2342 27 25.4863 24.3467 24.0367 22.5864L20.5353 18.3347Z" fill="#1C3F67"/>
    </svg>
    