<svg width="61" height="61" viewBox="0 0 61 61" fill="none" xmlns="http://www.w3.org/2000/svg">
    <g filter="url(#filter0_d_3214_651)">
    <circle cx="30.5" cy="26.5" r="20.5" fill="white"/>
    </g>
    <path d="M31.0029 26.8654C31.5005 26.8654 31.9258 26.6882 32.279 26.3339C32.6322 25.9795 32.8089 25.5536 32.8089 25.056C32.8089 24.5584 32.6317 24.133 32.2774 23.7798C31.923 23.4266 31.4971 23.25 30.9995 23.25C30.5019 23.25 30.0765 23.4272 29.7233 23.7815C29.3701 24.1358 29.1935 24.5618 29.1935 25.0594C29.1935 25.557 29.3707 25.9824 29.725 26.3356C30.0793 26.6888 30.5053 26.8654 31.0029 26.8654ZM31.0012 34.5135C32.9576 32.7622 34.4547 31.0824 35.4925 29.474C36.5303 27.8657 37.0492 26.457 37.0492 25.2481C37.0492 23.425 36.4701 21.9263 35.3117 20.7519C34.1534 19.5775 32.7166 18.9904 31.0012 18.9904C29.2858 18.9904 27.8489 19.5775 26.6906 20.7519C25.5323 21.9263 24.9531 23.425 24.9531 25.2481C24.9531 26.457 25.472 27.8657 26.5098 29.474C27.5477 31.0824 29.0448 32.7622 31.0012 34.5135ZM31.0012 36.5096C28.4845 34.3288 26.5973 32.2993 25.3397 30.4211C24.082 28.5429 23.4531 26.8186 23.4531 25.2481C23.4531 22.9404 24.1996 21.0721 25.6925 19.6433C27.1855 18.2144 28.955 17.5 31.0012 17.5C33.0473 17.5 34.8169 18.2144 36.3098 19.6433C37.8027 21.0721 38.5492 22.9404 38.5492 25.2481C38.5492 26.8186 37.9204 28.5429 36.6627 30.4211C35.405 32.2993 33.5178 34.3288 31.0012 36.5096Z" fill="#1C3F67"/>
    <defs>
    <filter id="filter0_d_3214_651" x="0" y="0" width="61" height="61" filterUnits="userSpaceOnUse" color-interpolation-filters="sRGB">
    <feFlood flood-opacity="0" result="BackgroundImageFix"/>
    <feColorMatrix in="SourceAlpha" type="matrix" values="0 0 0 0 0 0 0 0 0 0 0 0 0 0 0 0 0 0 127 0" result="hardAlpha"/>
    <feOffset dy="4"/>
    <feGaussianBlur stdDeviation="5"/>
    <feComposite in2="hardAlpha" operator="out"/>
    <feColorMatrix type="matrix" values="0 0 0 0 0 0 0 0 0 0 0 0 0 0 0 0 0 0 0.15 0"/>
    <feBlend mode="normal" in2="BackgroundImageFix" result="effect1_dropShadow_3214_651"/>
    <feBlend mode="normal" in="SourceGraphic" in2="effect1_dropShadow_3214_651" result="shape"/>
    </filter>
    </defs>
    </svg>
    