<svg width="61" height="61" viewBox="0 0 61 61" fill="none" xmlns="http://www.w3.org/2000/svg">
    <g filter="url(#filter0_d_3214_657)">
    <circle cx="30.5" cy="26.5" r="20.5" fill="white"/>
    </g>
    <path d="M23.0156 35.5769V22.077H28.2464V19.4423L30.9963 16.75L33.7463 19.4423V26.077H38.977V35.5769H23.0156ZM24.5156 34.077H27.0156V31.5769H24.5156V34.077ZM24.5156 30.077H27.0156V27.5769H24.5156V30.077ZM24.5156 26.077H27.0156V23.5769H24.5156V26.077ZM29.7463 34.077H32.2463V31.5769H29.7463V34.077ZM29.7463 30.077H32.2463V27.5769H29.7463V30.077ZM29.7463 26.077H32.2463V23.5769H29.7463V26.077ZM29.7463 22.077H32.2463V19.5769H29.7463V22.077ZM34.977 34.077H37.4771V31.5769H34.977V34.077ZM34.977 30.077H37.4771V27.5769H34.977V30.077Z" fill="#1C3F67"/>
    <defs>
    <filter id="filter0_d_3214_657" x="0" y="0" width="61" height="61" filterUnits="userSpaceOnUse" color-interpolation-filters="sRGB">
    <feFlood flood-opacity="0" result="BackgroundImageFix"/>
    <feColorMatrix in="SourceAlpha" type="matrix" values="0 0 0 0 0 0 0 0 0 0 0 0 0 0 0 0 0 0 127 0" result="hardAlpha"/>
    <feOffset dy="4"/>
    <feGaussianBlur stdDeviation="5"/>
    <feComposite in2="hardAlpha" operator="out"/>
    <feColorMatrix type="matrix" values="0 0 0 0 0 0 0 0 0 0 0 0 0 0 0 0 0 0 0.15 0"/>
    <feBlend mode="normal" in2="BackgroundImageFix" result="effect1_dropShadow_3214_657"/>
    <feBlend mode="normal" in="SourceGraphic" in2="effect1_dropShadow_3214_657" result="shape"/>
    </filter>
    </defs>
    </svg>
    