<svg width="61" height="61" viewBox="0 0 61 61" fill="none" xmlns="http://www.w3.org/2000/svg">
    <g filter="url(#filter0_d_3214_663)">
    <circle cx="30.5" cy="26.5" r="20.5" fill="white"/>
    </g>
    <path d="M30.25 32.7484H30.8653L34.3365 27.1523H31.7499V23.2485H31.1346L27.6635 28.8446H30.25V32.7484ZM30.9982 36.4984C28.8571 36.4984 27.0721 35.7629 25.6433 34.2917C24.2144 32.8206 23.5 30.9895 23.5 28.7984C23.5 27.2472 24.1208 25.5469 25.3625 23.6975C26.6042 21.8482 28.4833 19.8331 31 17.6523C33.5166 19.8331 35.3958 21.8482 36.6375 23.6975C37.8791 25.5469 38.5 27.2472 38.5 28.7984C38.5 30.9895 37.7849 32.8206 36.3549 34.2917C34.9249 35.7629 33.1393 36.4984 30.9982 36.4984ZM31 34.9984C32.7333 34.9984 34.1666 34.4109 35.3 33.2359C36.4333 32.0609 37 30.5818 37 28.7984C37 27.5818 36.4958 26.2068 35.4875 24.6734C34.4791 23.1401 32.9833 21.4651 31 19.6484C29.0166 21.4651 27.5208 23.1401 26.5125 24.6734C25.5041 26.2068 25 27.5818 25 28.7984C25 30.5818 25.5666 32.0609 26.7 33.2359C27.8333 34.4109 29.2666 34.9984 31 34.9984Z" fill="#1C3F67"/>
    <defs>
    <filter id="filter0_d_3214_663" x="0" y="0" width="61" height="61" filterUnits="userSpaceOnUse" color-interpolation-filters="sRGB">
    <feFlood flood-opacity="0" result="BackgroundImageFix"/>
    <feColorMatrix in="SourceAlpha" type="matrix" values="0 0 0 0 0 0 0 0 0 0 0 0 0 0 0 0 0 0 127 0" result="hardAlpha"/>
    <feOffset dy="4"/>
    <feGaussianBlur stdDeviation="5"/>
    <feComposite in2="hardAlpha" operator="out"/>
    <feColorMatrix type="matrix" values="0 0 0 0 0 0 0 0 0 0 0 0 0 0 0 0 0 0 0.15 0"/>
    <feBlend mode="normal" in2="BackgroundImageFix" result="effect1_dropShadow_3214_663"/>
    <feBlend mode="normal" in="SourceGraphic" in2="effect1_dropShadow_3214_663" result="shape"/>
    </filter>
    </defs>
    </svg>
    