<svg width="36" height="36" viewBox="0 0 36 36" fill="none" xmlns="http://www.w3.org/2000/svg">
    <circle cx="18" cy="18" r="18" fill="white"/>
    <path d="M17.6513 9.11176C17.8599 8.96275 18.1401 8.96275 18.3487 9.11176L26.7487 15.1118C26.9064 15.2244 27 15.4062 27 15.6V26.4C27 26.7314 26.7314 27 26.4 27H24.6V17.4H11.4V27H9.6C9.26863 27 9 26.7314 9 26.4V15.6C9 15.4062 9.09358 15.2244 9.25126 15.1118L17.6513 9.11176Z" fill="#BABABA"/>
    <path fill-rule="evenodd" clip-rule="evenodd" d="M12.6 27H23.4V22.2H12.6V27ZM19.8 24.6H16.2V23.4H19.8V24.6Z" fill="#BABABA"/>
    <path d="M23.4 21V18.6H12.6V21H23.4Z" fill="#BABABA"/>
    </svg>
    