<svg width="36" height="36" viewBox="0 0 36 36" fill="none" xmlns="http://www.w3.org/2000/svg">
    <circle cx="18" cy="18" r="18" fill="white"/>
    <path d="M19.6884 27H16.3119C15.8761 27 15.4989 26.7057 15.4057 26.2926L15.0281 24.597C14.5245 24.3829 14.0469 24.1152 13.6042 23.7987L11.9002 24.3252C11.4847 24.4538 11.0329 24.2841 10.8149 23.9175L9.12296 21.0816C8.90737 20.7149 8.98165 20.2522 9.30199 19.9665L10.6238 18.7965C10.5637 18.2665 10.5637 17.7317 10.6238 17.2017L9.30199 16.0344C8.98117 15.7485 8.90687 15.2853 9.12296 14.9184L10.8112 12.0807C11.0292 11.7141 11.4809 11.5444 11.8965 11.673L13.6005 12.1995C13.8269 12.0367 14.0626 11.8865 14.3064 11.7495C14.5405 11.6214 14.7814 11.5055 15.0281 11.4021L15.4066 9.7083C15.4994 9.29517 15.8761 9.00044 16.3119 9H19.6884C20.1242 9.00044 20.5009 9.29517 20.5938 9.7083L20.9759 11.403C21.2364 11.5142 21.4901 11.6398 21.7357 11.7792C21.965 11.9077 22.1868 12.0486 22.3998 12.2013L24.1048 11.6748C24.5201 11.5467 24.9713 11.7163 25.1891 12.0825L26.8774 14.9202C27.093 15.2869 27.0187 15.7496 26.6984 16.0353L25.3765 17.2053C25.4366 17.7353 25.4366 18.2701 25.3765 18.8001L26.6984 19.9701C27.0187 20.2558 27.093 20.7185 26.8774 21.0852L25.1891 23.9229C24.9713 24.2891 24.5201 24.4587 24.1048 24.3306L22.3998 23.8041C22.1841 23.9583 21.9599 24.101 21.7282 24.2316C21.485 24.3683 21.2342 24.4918 20.9769 24.6015L20.5938 26.2926C20.5006 26.7054 20.1239 26.9996 19.6884 27ZM17.9965 14.4C15.9472 14.4 14.286 16.0118 14.286 18C14.286 19.9882 15.9472 21.6 17.9965 21.6C20.0457 21.6 21.7069 19.9882 21.7069 18C21.7069 16.0118 20.0457 14.4 17.9965 14.4Z" fill="#BABABA"/>
    </svg>
    