<svg xmlns="http://www.w3.org/2000/svg" width="223" height="56" viewBox="0 0 223 56" fill="none">
  <path d="M27.3264 56C27.4884 55.8357 27.278 55.7953 27.22 55.7356C26.5807 55.0768 25.931 54.4277 25.2872 53.7764C16.9163 45.34 8.54318 36.9054 0.167841 28.4725C-0.0700528 28.2328 -0.0425428 28.1237 0.171561 27.8989C8.95875 18.6902 17.742 9.47802 26.5212 0.262363C26.8535 -0.0864543 26.8543 -0.086451 27.194 0.256391C36.1507 9.28382 45.1086 18.3093 54.0678 27.3327C54.3005 27.5665 54.3168 27.6845 54.079 27.9303C45.2472 37.1828 36.4223 46.442 27.6044 55.708C27.5412 55.7737 27.3011 55.8118 27.478 56H27.3264ZM27.1442 12.0579C25.0712 12.0518 23.0174 12.4566 21.1002 13.249C19.1831 14.0413 17.4403 15.2058 15.9717 16.6757C14.503 18.1457 13.3373 19.8922 12.5412 21.8153C11.7452 23.7384 11.3344 25.8004 11.3325 27.8832C11.3124 36.6089 18.3667 43.754 27.0186 43.7682C35.8184 43.7832 42.9099 36.7366 42.9277 27.9564C42.9455 19.1762 35.8898 12.0699 27.1442 12.0572V12.0579Z" fill="white"/>
  <path d="M27.1025 29.0089C27.3377 28.6904 27.4377 28.3631 27.5545 28.0468C28.0467 26.718 28.5038 25.3742 29.1545 24.1123C30.7946 20.9368 33.3402 19.0461 36.8278 18.4889C37.2847 18.417 37.7463 18.3789 38.2086 18.375C38.3963 18.375 38.4642 18.4271 38.4657 18.6235C38.4708 19.6756 38.4869 20.7284 38.5 21.7805C38.5 21.901 38.4817 21.9821 38.3445 22.029C35.9697 22.8393 34.2471 24.5305 32.661 26.4047C30.8026 28.5997 29.7766 31.1577 29.4378 34.02C29.3049 35.1361 29.1457 36.2522 29.015 37.3682C28.9894 37.5855 28.9084 37.6271 28.7178 37.6249C27.6955 37.613 26.6731 37.6063 25.6508 37.6115C25.4376 37.6115 25.3675 37.552 25.3397 37.3266C24.9958 34.5617 24.4839 31.834 23.5288 29.2105C22.8993 27.4843 22.1034 25.8497 20.8853 24.4635C19.6082 23.0112 18.0513 22.1138 16.103 22.0216C15.927 22.0134 15.8416 21.9732 15.838 21.7716C15.817 20.7071 15.7878 19.6429 15.7503 18.5789C15.7416 18.3207 15.9102 18.3802 16.0424 18.3825C17.2933 18.3996 18.5113 18.6057 19.6702 19.0945C22.4341 20.2574 24.3744 22.2716 25.5814 25.0469C26.0926 26.2224 26.522 27.4278 26.9543 28.6369C26.9966 28.7462 27.0426 28.8556 27.1025 29.0089Z" fill="#27D86B"/>
  <path d="M222.759 27.4951C221.751 27.4951 220.738 27.4834 219.734 27.5036C219.435 27.5036 219.299 27.4165 219.202 27.1349C218.874 26.2041 218.503 25.2893 218.178 24.3575C218.072 24.0525 217.914 23.9676 217.603 23.9697C215.814 23.9846 214.025 23.9846 212.236 23.9697C211.917 23.9697 211.774 24.0579 211.671 24.3649C211.352 25.2999 210.995 26.219 210.665 27.1498C210.587 27.3687 210.52 27.5089 210.239 27.5036C209.266 27.4834 208.292 27.4951 207.242 27.4951C207.428 27.0063 207.598 26.5569 207.774 26.1138C209.532 21.5585 211.287 17.0028 213.039 12.4467C213.174 12.0971 213.332 11.959 213.717 11.9749C214.495 12.009 215.277 12.0153 216.058 11.9749C216.49 11.9516 216.669 12.1056 216.821 12.4945C218.714 17.3183 220.62 22.1368 222.537 26.95C222.599 27.1052 222.598 27.2985 222.773 27.3963L222.759 27.4951ZM214.864 15.5949C214.189 17.4533 213.554 19.1926 212.927 20.9341C212.867 21.1009 212.67 21.3485 213.098 21.3463C214.387 21.3389 215.677 21.3463 217.025 21.3463L214.864 15.5949Z" fill="white"/>
  <path d="M106.02 20.6464C108.424 22.3893 109.509 25.0645 111.144 27.4772C110.156 27.4772 109.269 27.4222 108.394 27.4952C107.684 27.5545 107.284 27.3069 106.918 26.6889C106.109 25.3216 105.166 24.0359 104.364 22.6676C103.562 21.2994 102.388 20.9226 100.944 21.0158C100.593 21.038 100.679 21.2634 100.678 21.4528C100.678 23.3005 100.664 25.1481 100.685 26.9957C100.685 27.3883 100.595 27.5111 100.201 27.491C99.5138 27.455 98.8229 27.4571 98.1319 27.491C97.7347 27.51 97.6147 27.4032 97.6147 26.9777C97.6313 22.5258 97.6209 18.0739 97.6292 13.622C97.6292 13.1035 97.4058 12.4082 97.7326 12.1151C98.0192 11.858 98.6832 12.0273 99.1808 12.0283C101.146 12.0283 103.106 12.0283 105.068 12.0622C106.07 12.074 107.058 12.2899 107.977 12.6971C108.889 13.1077 109.459 13.8125 109.71 14.7924C109.95 15.6967 109.971 16.6473 109.771 17.5617C109.396 19.2306 108.257 20.0856 106.718 20.4962C106.508 20.547 106.288 20.5872 106.02 20.6464ZM102.975 14.6485C102.278 14.6485 101.709 14.677 101.144 14.6389C100.738 14.6125 100.654 14.7712 100.667 15.149C100.694 15.8675 100.675 16.5892 100.675 17.3099C100.675 18.5469 100.675 18.5554 101.868 18.5448C103.103 18.5332 104.351 18.6178 105.562 18.2972C106.443 18.0644 106.816 17.4718 106.764 16.4284C106.712 15.4083 106.35 14.9733 105.419 14.803C104.565 14.6485 103.704 14.6707 102.973 14.6485H102.975Z" fill="white"/>
  <path d="M191.723 19.701C191.723 17.2973 191.735 14.8946 191.711 12.492C191.711 12.0671 191.848 11.9609 192.295 11.9737C193.09 12.0055 193.889 11.9991 194.686 11.9737C195.068 11.962 195.177 12.0682 195.172 12.4176C195.152 14.149 195.172 15.8803 195.152 17.6117C195.152 18.0068 195.26 18.1162 195.699 18.1109C197.568 18.0875 199.437 18.0844 201.306 18.1109C201.789 18.1184 201.871 17.9686 201.866 17.5798C201.844 15.8665 201.866 14.1522 201.847 12.4389C201.841 12.0597 201.963 11.963 202.366 11.9758C203.202 12.0034 204.039 11.997 204.875 11.9758C205.207 11.9683 205.302 12.0661 205.301 12.3656C205.293 17.2771 205.293 22.189 205.301 27.1012C205.301 27.4443 205.174 27.5112 204.833 27.5027C203.997 27.4814 203.16 27.4761 202.324 27.5027C201.931 27.5165 201.845 27.3965 201.849 27.0576C201.865 25.1149 201.849 23.1711 201.866 21.2273C201.866 20.8428 201.783 20.7143 201.328 20.7207C199.443 20.7462 197.555 20.743 195.668 20.7207C195.246 20.7207 195.157 20.846 195.159 21.2029C195.177 23.1467 195.159 25.0905 195.178 27.0332C195.178 27.405 195.072 27.5176 194.662 27.5016C193.865 27.4729 193.065 27.4708 192.269 27.5016C191.841 27.5186 191.71 27.4209 191.714 27.012C191.734 24.5775 191.723 22.1387 191.723 19.701Z" fill="white"/>
  <path d="M174.873 11.9826C172.898 13.9335 171.04 15.7834 169.158 17.6142C168.868 17.8968 168.858 18.0774 169.08 18.4047C171.02 21.246 172.938 24.1 174.861 26.9508C174.973 27.1102 175.066 27.2695 175.209 27.4991C173.823 27.4991 172.514 27.4991 171.201 27.4991C170.898 27.4991 170.857 27.2653 170.756 27.0953C169.453 24.9585 168.149 22.8238 166.867 20.6764C166.634 20.2854 166.499 20.2068 166.154 20.5829C165.568 21.2204 164.941 21.8261 164.3 22.4147C163.99 22.6984 163.894 23.0002 163.9 23.3976C163.923 24.6344 163.9 25.8723 163.915 27.1102C163.915 27.4002 163.85 27.5118 163.521 27.5033C162.688 27.482 161.851 27.4842 161.018 27.5033C160.722 27.5107 160.647 27.4225 160.648 27.1463C160.657 22.2139 160.657 17.2816 160.648 12.3492C160.648 12.0304 160.76 11.9688 161.063 11.9752C161.86 11.9933 162.658 11.9986 163.454 11.9752C163.818 11.9635 163.92 12.0687 163.918 12.4162C163.901 14.4488 163.91 16.4825 163.91 18.5152V18.7447C164.154 18.7065 164.238 18.5322 164.356 18.4143C166.315 16.3862 168.27 14.3539 170.221 12.3173C170.318 12.2028 170.442 12.1119 170.583 12.0523C170.724 11.9926 170.878 11.9658 171.032 11.9741C172.263 11.9943 173.499 11.9826 174.873 11.9826Z" fill="white"/>
  <path d="M186.713 16.2551C186.606 16.2608 186.5 16.2551 186.393 16.2724C185.681 16.3799 185.097 16.3753 184.895 15.3578C184.764 14.7022 184.208 14.3056 183.606 14.0929C182.629 13.746 181.647 13.8027 180.682 14.1345C180.114 14.3299 179.737 14.7554 179.719 15.4364C179.702 16.0805 180.019 16.5268 180.536 16.8031C181.43 17.2807 182.402 17.5085 183.356 17.7952C184.515 18.1421 185.658 18.5352 186.728 19.1503C187.537 19.6088 188.152 20.3888 188.444 21.3276C189.493 24.4321 188.15 27.3286 185.277 28.1426C184.935 28.2418 184.586 28.3137 184.235 28.3576C182.656 28.5426 181.085 28.5657 179.566 27.9529C177.676 27.1898 176.236 25.0369 176.18 22.9244C176.18 22.7209 176.23 22.6596 176.409 22.6422C177.237 22.5625 178.067 22.4861 178.893 22.374C179.224 22.3277 179.212 22.5428 179.267 22.7717C179.579 24.0748 180.192 25.1028 181.479 25.4531C182.429 25.7164 183.43 25.6645 184.353 25.3039C184.976 25.0669 185.4 24.6102 185.56 23.8922C185.778 22.9116 185.499 22.2376 184.655 21.8248C183.683 21.3495 182.648 21.0894 181.624 20.7922C180.6 20.4951 179.627 20.1332 178.738 19.5203C177.341 18.5491 176.61 17.1905 176.729 15.3578C176.858 13.4315 177.862 12.2024 179.479 11.5722C181.501 10.786 183.56 10.8207 185.568 11.6104C187.32 12.2984 188.136 13.7934 188.295 15.7637C188.322 16.0932 188.236 16.2007 187.931 16.1938C187.525 16.1845 187.117 16.2262 186.71 16.247L186.713 16.2551Z" fill="white"/>
  <path d="M158.701 27.4916C157.67 27.4916 156.652 27.4788 155.633 27.5001C155.338 27.5001 155.284 27.3429 155.203 27.1357C154.852 26.1936 154.483 25.2579 154.138 24.3126C154.046 24.0619 153.923 23.9663 153.639 23.9685C151.797 23.9812 149.954 23.9844 148.111 23.9685C147.789 23.9685 147.682 24.0949 147.591 24.3572C147.269 25.2728 146.919 26.1777 146.603 27.0954C146.503 27.3864 146.374 27.5128 146.039 27.5032C145.092 27.4767 144.144 27.4937 143.202 27.4937C143.127 27.26 143.261 27.0933 143.329 26.9191C145.204 22.1041 147.079 17.2859 148.953 12.4645C149.099 12.0843 149.275 11.959 149.679 11.9738C150.518 12.0067 151.36 11.9897 152.201 11.9802C152.441 11.9802 152.582 12.0291 152.682 12.2797C154.685 17.3142 156.693 22.3459 158.706 27.3747C158.716 27.3875 158.708 27.4108 158.701 27.4916ZM150.816 15.5872C150.084 17.5893 149.407 19.4374 148.725 21.3025H152.988C152.272 19.4172 151.574 17.5787 150.816 15.5872Z" fill="white"/>
  <path d="M113.094 17.9653C113.094 15.9959 113.103 14.2378 113.086 12.4797C113.086 12.1016 113.171 11.9604 113.563 11.977C114.287 12.0082 115.016 12.0126 115.741 11.977C116.186 11.9548 116.319 12.0882 116.317 12.552C116.301 15.6979 116.317 18.8438 116.317 21.9897C116.317 22.1553 116.326 22.3233 116.33 22.489C116.407 25.2056 119.052 26.659 121.379 25.269C121.991 24.902 122.19 24.3004 122.312 23.6543C122.454 22.8531 122.523 22.04 122.516 21.2257C122.523 18.3345 122.53 15.4521 122.516 12.5653C122.516 12.1205 122.586 11.9459 123.061 11.9759C123.801 12.0215 124.547 11.9993 125.291 11.9826C125.575 11.9759 125.71 12.0226 125.705 12.3651C125.639 16.0092 125.782 19.6533 125.602 23.2974C125.434 26.7035 123.482 28.1669 120.688 28.4127C119.294 28.5372 117.894 28.5027 116.55 28.0335C114.637 27.3663 113.527 26.0385 113.283 23.959C113.039 21.8796 113.111 19.8246 113.094 17.9653Z" fill="white"/>
  <path d="M129.604 19.7062C129.604 17.2853 129.604 14.864 129.604 12.4424C129.604 12.2299 129.5 11.9654 129.92 11.9728C132.59 12.0164 135.26 11.9579 137.932 12.061C140.469 12.1577 142.08 14.0711 142.194 16.3171C142.253 17.4656 142.081 18.5726 141.412 19.5692C140.458 20.9769 138.983 21.4285 137.322 21.5496C136.043 21.6379 134.761 21.6645 133.48 21.6293C133.051 21.6197 132.906 21.7121 132.915 22.1435C132.945 23.769 132.915 25.3956 132.936 27.0222C132.936 27.3791 132.863 27.5194 132.449 27.5024C131.658 27.4705 130.867 27.4705 130.076 27.5024C129.666 27.5183 129.584 27.3844 129.586 27.0243C129.612 24.5849 129.604 22.1456 129.604 19.7062ZM132.935 16.7718C132.935 17.3891 132.935 18.0074 132.935 18.6258C132.935 18.7883 132.871 19.0008 133.18 18.9976C134.606 18.9806 136.043 19.0943 137.433 18.6927C138.391 18.4165 138.811 17.7854 138.782 16.7389C138.752 15.652 138.338 15.0932 137.347 14.8552C135.982 14.5269 134.584 14.6427 133.197 14.613C132.897 14.6066 132.935 14.7968 132.933 14.971C132.933 15.5713 132.935 16.1715 132.935 16.7718Z" fill="white"/>
  <path d="M81.6584 23.4414C82.088 22.1675 82.4859 20.9996 82.8773 19.8318C83.6874 17.4208 84.5127 15.0141 85.289 12.5925C85.4492 12.0956 85.688 11.9449 86.2004 11.9767C86.9267 12.0145 87.6546 12.0145 88.3809 11.9767C88.8072 11.9587 88.9031 12.0394 88.7494 12.4576C87.56 15.6723 86.3912 18.8944 85.2192 22.1186C84.6141 23.779 84.0068 25.4384 83.4192 27.1083C83.3102 27.4056 83.1706 27.5118 82.8435 27.5033C81.955 27.4799 81.0642 27.4852 80.1757 27.5033C79.8966 27.5033 79.769 27.4279 79.672 27.1604C77.8963 22.2421 76.1109 17.3267 74.3156 12.4141C74.2066 12.1031 74.224 11.9767 74.6143 11.9895C75.4669 12.0128 76.3216 12.0181 77.1731 11.9895C77.5547 11.9757 77.6986 12.1062 77.8164 12.4481C79.0157 15.9388 80.2444 19.421 81.4633 22.9064C81.5102 23.0433 81.5647 23.1856 81.6584 23.4414Z" fill="white"/>
  <path d="M93.6591 19.7846C93.6591 22.1856 93.6482 24.5877 93.6699 26.9887C93.6699 27.4137 93.5568 27.5199 93.178 27.5018C92.4893 27.47 91.8007 27.4785 91.112 27.5018C90.8287 27.5103 90.7568 27.4105 90.7578 27.113C90.7657 22.2047 90.7657 17.2957 90.7578 12.386C90.7578 12.0545 90.8493 11.961 91.1513 11.9738C91.8548 11.9961 92.5592 12.0003 93.2626 11.9738C93.5971 11.96 93.665 12.0896 93.663 12.4232C93.6541 14.8752 93.6591 17.3293 93.6591 19.7846Z" fill="white"/>
  <path d="M80.1616 39.5653C80.2367 39.5653 80.3073 39.5984 80.3734 39.6645C80.4426 39.7306 80.4771 39.7998 80.4771 39.8719C80.4771 39.9471 80.4666 40.0057 80.4456 40.0477C80.3013 40.3723 80.0954 40.6729 79.8279 40.9494C79.5634 41.2259 79.2479 41.4483 78.8812 41.6166C78.5145 41.785 78.1042 41.8691 77.6504 41.8691C77.2026 41.8691 76.7968 41.7865 76.4331 41.6212C76.0725 41.4559 75.7629 41.2274 75.5044 40.9359C75.2489 40.6413 75.0521 40.3017 74.9138 39.917C74.7786 39.5293 74.7109 39.113 74.7109 38.6682C74.7109 38.2294 74.7801 37.8206 74.9183 37.4419C75.0566 37.0602 75.2549 36.7266 75.5134 36.441C75.7719 36.1525 76.08 35.9271 76.4376 35.7648C76.7983 35.6025 77.1981 35.5213 77.6369 35.5213C78.0817 35.5213 78.4859 35.5995 78.8496 35.7558C79.2163 35.9121 79.5334 36.121 79.8009 36.3824C80.0714 36.6439 80.2818 36.934 80.4321 37.2526C80.4561 37.3006 80.4681 37.3517 80.4681 37.4058C80.4681 37.493 80.4366 37.5711 80.3734 37.6403C80.3133 37.7064 80.2502 37.7395 80.1841 37.7395C80.0038 37.7395 79.8835 37.6733 79.8234 37.5411C79.6461 37.1654 79.3681 36.8483 78.9894 36.5898C78.6107 36.3283 78.1598 36.1976 77.6369 36.1976C77.174 36.1976 76.7743 36.3088 76.4376 36.5312C76.101 36.7536 75.841 37.0527 75.6577 37.4284C75.4774 37.8011 75.3872 38.2188 75.3872 38.6817C75.3872 39.1446 75.4774 39.5668 75.6577 39.9486C75.838 40.3273 76.0965 40.6293 76.4331 40.8547C76.7728 41.0771 77.1755 41.1884 77.6414 41.1884C77.99 41.1884 78.3071 41.1237 78.5926 40.9945C78.8812 40.8622 79.1306 40.6879 79.341 40.4715C79.5544 40.2551 79.7167 40.0222 79.8279 39.7727C79.888 39.6345 79.9993 39.5653 80.1616 39.5653Z" fill="white"/>
  <path d="M81.4735 35.873C81.4735 35.7798 81.5065 35.7002 81.5727 35.634C81.6388 35.5679 81.7184 35.5349 81.8116 35.5349C81.9048 35.5349 81.9844 35.5679 82.0506 35.634C82.1167 35.7002 82.1497 35.7798 82.1497 35.873V37.9468C82.3 37.6974 82.4969 37.502 82.7403 37.3608C82.9838 37.2165 83.2257 37.1443 83.4662 37.1443C84.1364 37.1443 84.6113 37.3457 84.8908 37.7485C85.1734 38.1482 85.3146 38.6862 85.3146 39.3625V39.403L85.3101 41.531V41.5355C85.3101 41.6287 85.277 41.7083 85.2109 41.7744C85.1448 41.8406 85.0652 41.8736 84.972 41.8736C84.8788 41.8736 84.7992 41.8406 84.733 41.7744C84.6669 41.7083 84.6339 41.6287 84.6339 41.5355V41.531L84.6384 39.394C84.6384 38.9011 84.5617 38.5149 84.4084 38.2354C84.2582 37.9559 83.9621 37.8161 83.5203 37.8161C83.2408 37.8161 82.9988 37.8747 82.7944 37.9919C82.5901 38.1091 82.4323 38.2579 82.3211 38.4383C82.2129 38.6186 82.1588 38.8019 82.1588 38.9883V41.54C82.1588 41.6332 82.1257 41.7128 82.0596 41.7789C81.9935 41.8451 81.9138 41.8781 81.8206 41.8781C81.7214 41.8781 81.6388 41.8436 81.5727 41.7744C81.5065 41.7053 81.4735 41.6272 81.4735 41.54V35.873Z" fill="white"/>
  <path d="M88.5561 37.1443C88.8717 37.1443 89.1663 37.2075 89.4398 37.3337C89.7133 37.4599 89.9522 37.6343 90.1566 37.8567C90.364 38.0761 90.5248 38.327 90.639 38.6096C90.7562 38.8921 90.8148 39.1911 90.8148 39.5067C90.8148 39.9245 90.7156 40.3122 90.5173 40.6699C90.3189 41.0276 90.0499 41.3176 89.7103 41.54C89.3736 41.7594 88.9949 41.8706 88.5742 41.8736C88.1474 41.8736 87.7627 41.7639 87.42 41.5445C87.0774 41.3251 86.8054 41.0366 86.604 40.6789C86.4056 40.3182 86.3065 39.9275 86.3065 39.5067C86.3065 39.1942 86.3636 38.8966 86.4778 38.6141C86.595 38.3285 86.7558 38.0761 86.9602 37.8567C87.1645 37.6343 87.402 37.4599 87.6725 37.3337C87.946 37.2075 88.2405 37.1443 88.5561 37.1443ZM88.5561 37.8206C88.2616 37.8206 87.9956 37.8987 87.7581 38.055C87.5207 38.2113 87.3314 38.4172 87.1901 38.6727C87.0518 38.9252 86.9827 39.2002 86.9827 39.4977C86.9827 39.7983 87.0518 40.0778 87.1901 40.3363C87.3284 40.5948 87.5177 40.8036 87.7581 40.9629C87.9986 41.1192 88.2691 41.1974 88.5697 41.1974C88.8672 41.1944 89.1332 41.1147 89.3676 40.9584C89.6051 40.7991 89.7929 40.5917 89.9312 40.3363C90.0694 40.0808 90.1386 39.8043 90.1386 39.5067C90.1386 39.2092 90.0679 38.9327 89.9267 38.6772C89.7884 38.4187 89.5991 38.2113 89.3586 38.055C89.1212 37.8987 88.8537 37.8206 88.5561 37.8206Z" fill="white"/>
  <path d="M93.9662 37.1443C94.2818 37.1443 94.5763 37.2075 94.8498 37.3337C95.1233 37.4599 95.3623 37.6343 95.5666 37.8567C95.774 38.0761 95.9348 38.327 96.049 38.6096C96.1663 38.8921 96.2249 39.1911 96.2249 39.5067C96.2249 39.9245 96.1257 40.3122 95.9273 40.6699C95.7289 41.0276 95.4599 41.3176 95.1203 41.54C94.7837 41.7594 94.405 41.8706 93.9842 41.8736C93.5574 41.8736 93.1727 41.7639 92.8301 41.5445C92.4874 41.3251 92.2154 41.0366 92.014 40.6789C91.8157 40.3182 91.7165 39.9275 91.7165 39.5067C91.7165 39.1942 91.7736 38.8966 91.8878 38.6141C92.005 38.3285 92.1658 38.0761 92.3702 37.8567C92.5746 37.6343 92.812 37.4599 93.0825 37.3337C93.356 37.2075 93.6506 37.1443 93.9662 37.1443ZM93.9662 37.8206C93.6716 37.8206 93.4056 37.8987 93.1682 38.055C92.9307 38.2113 92.7414 38.4172 92.6001 38.6727C92.4619 38.9252 92.3927 39.2002 92.3927 39.4977C92.3927 39.7983 92.4619 40.0778 92.6001 40.3363C92.7384 40.5948 92.9277 40.8036 93.1682 40.9629C93.4086 41.1192 93.6791 41.1974 93.9797 41.1974C94.2772 41.1944 94.5432 41.1147 94.7777 40.9584C95.0151 40.7991 95.203 40.5917 95.3412 40.3363C95.4795 40.0808 95.5486 39.8043 95.5486 39.5067C95.5486 39.2092 95.478 38.9327 95.3367 38.6772C95.1985 38.4187 95.0091 38.2113 94.7687 38.055C94.5312 37.8987 94.2637 37.8206 93.9662 37.8206Z" fill="white"/>
  <path d="M99.3537 37.1263C99.7564 37.1263 100.123 37.2135 100.454 37.3878C100.787 37.5621 101.034 37.7996 101.193 38.1001C101.22 38.1482 101.234 38.2008 101.234 38.2579C101.234 38.3481 101.201 38.4247 101.134 38.4878C101.071 38.551 100.995 38.5825 100.905 38.5825C100.85 38.5825 100.795 38.566 100.738 38.5329C100.681 38.4969 100.64 38.4548 100.616 38.4067C100.508 38.2023 100.342 38.0475 100.12 37.9423C99.9007 37.8341 99.6437 37.78 99.3492 37.78C99.1628 37.78 98.9599 37.8056 98.7405 37.8567C98.5211 37.9048 98.3318 37.9859 98.1725 38.1001C98.0162 38.2113 97.938 38.3616 97.938 38.551C97.938 38.6982 98.0012 38.8124 98.1274 38.8936C98.2536 38.9747 98.4099 39.0349 98.5963 39.0739C98.7856 39.11 98.9765 39.1355 99.1688 39.1506C99.3642 39.1656 99.531 39.1806 99.6693 39.1957C99.9428 39.2227 100.212 39.2723 100.476 39.3444C100.741 39.4166 100.96 39.5353 101.134 39.7006C101.309 39.8659 101.396 40.1048 101.396 40.4174C101.396 40.754 101.297 41.0306 101.098 41.247C100.9 41.4604 100.646 41.6182 100.336 41.7203C100.027 41.8195 99.7053 41.8691 99.3717 41.8691C98.9028 41.8691 98.4775 41.7789 98.0958 41.5986C97.7141 41.4153 97.4331 41.1478 97.2528 40.7961C97.2287 40.754 97.2167 40.703 97.2167 40.6428C97.2167 40.5527 97.2483 40.476 97.3114 40.4129C97.3745 40.3498 97.4511 40.3182 97.5413 40.3182C97.5984 40.3182 97.6555 40.3363 97.7126 40.3723C97.7697 40.4054 97.8103 40.4475 97.8343 40.4986C97.9636 40.745 98.162 40.9269 98.4294 41.0441C98.6969 41.1583 99.011 41.2154 99.3717 41.2154C99.5791 41.2154 99.788 41.1914 99.9984 41.1433C100.212 41.0922 100.389 41.008 100.53 40.8908C100.675 40.7736 100.747 40.6158 100.747 40.4174C100.747 40.2611 100.682 40.1424 100.553 40.0613C100.424 39.9771 100.261 39.917 100.066 39.8809C99.8706 39.8449 99.6723 39.8208 99.4709 39.8088C99.2725 39.7968 99.1012 39.7817 98.9569 39.7637C98.7015 39.7337 98.4445 39.6826 98.186 39.6104C97.9305 39.5353 97.7171 39.4151 97.5458 39.2498C97.3745 39.0844 97.2888 38.8515 97.2888 38.551C97.2888 38.2985 97.3504 38.0836 97.4737 37.9063C97.5999 37.7259 97.7637 37.5787 97.9651 37.4644C98.1695 37.3472 98.3934 37.2616 98.6368 37.2075C98.8803 37.1534 99.1192 37.1263 99.3537 37.1263Z" fill="white"/>
  <path d="M104.728 41.8601C104.292 41.8601 103.897 41.7519 103.542 41.5355C103.19 41.3191 102.911 41.0306 102.703 40.6699C102.496 40.3062 102.392 39.908 102.392 39.4752C102.392 39.0634 102.49 38.6832 102.685 38.3346C102.884 37.9829 103.151 37.7004 103.488 37.487C103.824 37.2736 104.2 37.1669 104.615 37.1669C104.997 37.1669 105.347 37.2616 105.665 37.4509C105.987 37.6403 106.244 37.8957 106.436 38.2173C106.632 38.5359 106.729 38.8906 106.729 39.2813C106.729 39.4196 106.704 39.5383 106.653 39.6375C106.605 39.7367 106.514 39.7863 106.382 39.7863H103.1C103.148 40.0357 103.246 40.2671 103.393 40.4805C103.543 40.6909 103.731 40.8607 103.957 40.99C104.185 41.1192 104.439 41.1838 104.719 41.1838C104.956 41.1838 105.189 41.1312 105.417 41.0261C105.646 40.9209 105.834 40.7766 105.981 40.5932C106.047 40.5061 106.136 40.4625 106.247 40.4625C106.34 40.4625 106.42 40.4956 106.486 40.5617C106.552 40.6278 106.585 40.7075 106.585 40.8006C106.585 40.8818 106.558 40.9554 106.504 41.0215C106.288 41.286 106.022 41.4919 105.706 41.6392C105.393 41.7865 105.067 41.8601 104.728 41.8601ZM106.04 39.119C106.013 38.8846 105.933 38.6712 105.801 38.4788C105.668 38.2835 105.5 38.1287 105.296 38.0145C105.091 37.9003 104.866 37.8431 104.619 37.8431C104.364 37.8431 104.131 37.9018 103.921 38.019C103.71 38.1362 103.534 38.291 103.393 38.4833C103.255 38.6757 103.16 38.8876 103.109 39.119H106.04Z" fill="white"/>
  <path d="M113.285 35.7558C113.306 35.6927 113.346 35.6386 113.406 35.5935C113.469 35.5454 113.535 35.5213 113.605 35.5213C113.674 35.5213 113.74 35.5439 113.803 35.589C113.866 35.634 113.908 35.6896 113.929 35.7558L115.408 40.44L116.891 35.7783C116.912 35.7122 116.954 35.6566 117.017 35.6115C117.081 35.5634 117.147 35.5394 117.216 35.5394C117.309 35.5394 117.389 35.5724 117.455 35.6386C117.521 35.7047 117.554 35.7843 117.554 35.8775C117.554 35.9136 117.548 35.9496 117.536 35.9857L115.733 41.6482C115.712 41.7143 115.669 41.7699 115.606 41.815C115.543 41.8601 115.477 41.8826 115.408 41.8826C115.342 41.8826 115.277 41.8601 115.214 41.815C115.151 41.7699 115.109 41.7143 115.088 41.6482L113.605 36.9685L112.126 41.6482C112.105 41.7143 112.063 41.7699 112 41.815C111.937 41.8601 111.87 41.8826 111.801 41.8826C111.735 41.8826 111.671 41.8601 111.607 41.815C111.544 41.7699 111.502 41.7143 111.481 41.6482L109.678 35.9722C109.666 35.9361 109.66 35.9 109.66 35.864C109.66 35.7708 109.693 35.6912 109.759 35.625C109.825 35.5589 109.905 35.5258 109.998 35.5258C110.067 35.5258 110.133 35.5499 110.196 35.598C110.259 35.6461 110.301 35.7032 110.323 35.7693L111.801 40.44L113.285 35.7558Z" fill="white"/>
  <path d="M118.713 36.4636C118.583 36.4636 118.469 36.417 118.37 36.3238C118.274 36.2307 118.226 36.1179 118.226 35.9857C118.226 35.8535 118.274 35.7407 118.37 35.6476C118.469 35.5544 118.583 35.5078 118.713 35.5078C118.845 35.5078 118.959 35.5544 119.055 35.6476C119.151 35.7407 119.199 35.8535 119.199 35.9857C119.199 36.1179 119.151 36.2307 119.055 36.3238C118.959 36.417 118.845 36.4636 118.713 36.4636ZM118.383 37.4419C118.383 37.3638 118.42 37.2961 118.492 37.239C118.564 37.1789 118.631 37.1489 118.695 37.1489C118.8 37.1489 118.887 37.1804 118.956 37.2435C119.025 37.3067 119.06 37.3893 119.06 37.4915L119.069 41.5355C119.069 41.6287 119.036 41.7083 118.97 41.7744C118.903 41.8406 118.824 41.8736 118.731 41.8736C118.637 41.8736 118.558 41.8391 118.492 41.7699C118.426 41.7038 118.392 41.6242 118.392 41.531L118.383 37.4419Z" fill="white"/>
  <path d="M122.418 37.1263C122.821 37.1263 123.188 37.2135 123.519 37.3878C123.852 37.5621 124.099 37.7996 124.258 38.1001C124.285 38.1482 124.298 38.2008 124.298 38.2579C124.298 38.3481 124.265 38.4247 124.199 38.4878C124.136 38.551 124.06 38.5825 123.969 38.5825C123.915 38.5825 123.86 38.566 123.803 38.5329C123.745 38.4969 123.705 38.4548 123.681 38.4067C123.573 38.2023 123.407 38.0475 123.185 37.9423C122.965 37.8341 122.708 37.78 122.414 37.78C122.228 37.78 122.025 37.8056 121.805 37.8567C121.586 37.9048 121.397 37.9859 121.237 38.1001C121.081 38.2113 121.003 38.3616 121.003 38.551C121.003 38.6982 121.066 38.8124 121.192 38.8936C121.318 38.9747 121.475 39.0349 121.661 39.0739C121.85 39.11 122.041 39.1355 122.234 39.1506C122.429 39.1656 122.596 39.1806 122.734 39.1957C123.008 39.2227 123.277 39.2723 123.541 39.3444C123.806 39.4166 124.025 39.5353 124.199 39.7006C124.374 39.8659 124.461 40.1048 124.461 40.4174C124.461 40.754 124.362 41.0306 124.163 41.247C123.965 41.4604 123.711 41.6182 123.401 41.7203C123.092 41.8195 122.77 41.8691 122.436 41.8691C121.968 41.8691 121.542 41.7789 121.161 41.5986C120.779 41.4153 120.498 41.1478 120.318 40.7961C120.294 40.754 120.281 40.703 120.281 40.6428C120.281 40.5527 120.313 40.476 120.376 40.4129C120.439 40.3498 120.516 40.3182 120.606 40.3182C120.663 40.3182 120.72 40.3363 120.777 40.3723C120.835 40.4054 120.875 40.4475 120.899 40.4986C121.028 40.745 121.227 40.9269 121.494 41.0441C121.762 41.1583 122.076 41.2154 122.436 41.2154C122.644 41.2154 122.853 41.1914 123.063 41.1433C123.277 41.0922 123.454 41.008 123.595 40.8908C123.739 40.7736 123.812 40.6158 123.812 40.4174C123.812 40.2611 123.747 40.1424 123.618 40.0613C123.488 39.9771 123.326 39.917 123.131 39.8809C122.935 39.8449 122.737 39.8208 122.536 39.8088C122.337 39.7968 122.166 39.7817 122.022 39.7637C121.766 39.7337 121.509 39.6826 121.251 39.6104C120.995 39.5353 120.782 39.4151 120.611 39.2498C120.439 39.0844 120.354 38.8515 120.354 38.551C120.354 38.2985 120.415 38.0836 120.538 37.9063C120.665 37.7259 120.829 37.5787 121.03 37.4644C121.234 37.3472 121.458 37.2616 121.702 37.2075C121.945 37.1534 122.184 37.1263 122.418 37.1263Z" fill="white"/>
  <path d="M127.792 41.8601C127.357 41.8601 126.961 41.7519 126.607 41.5355C126.255 41.3191 125.976 41.0306 125.768 40.6699C125.561 40.3062 125.457 39.908 125.457 39.4752C125.457 39.0634 125.555 38.6832 125.75 38.3346C125.949 37.9829 126.216 37.7004 126.553 37.487C126.889 37.2736 127.265 37.1669 127.68 37.1669C128.061 37.1669 128.412 37.2616 128.73 37.4509C129.052 37.6403 129.309 37.8957 129.501 38.2173C129.696 38.5359 129.794 38.8906 129.794 39.2813C129.794 39.4196 129.769 39.5383 129.718 39.6375C129.669 39.7367 129.579 39.7863 129.447 39.7863H126.165C126.213 40.0357 126.311 40.2671 126.458 40.4805C126.608 40.6909 126.796 40.8607 127.022 40.99C127.25 41.1192 127.504 41.1838 127.783 41.1838C128.021 41.1838 128.254 41.1312 128.482 41.0261C128.711 40.9209 128.898 40.7766 129.046 40.5932C129.112 40.5061 129.201 40.4625 129.312 40.4625C129.405 40.4625 129.485 40.4956 129.551 40.5617C129.617 40.6278 129.65 40.7075 129.65 40.8006C129.65 40.8818 129.623 40.9554 129.569 41.0215C129.352 41.286 129.086 41.4919 128.771 41.6392C128.458 41.7865 128.132 41.8601 127.792 41.8601ZM129.104 39.119C129.077 38.8846 128.998 38.6712 128.865 38.4788C128.733 38.2835 128.565 38.1287 128.36 38.0145C128.156 37.9003 127.931 37.8431 127.684 37.8431C127.429 37.8431 127.196 37.9018 126.985 38.019C126.775 38.1362 126.599 38.291 126.458 38.4833C126.32 38.6757 126.225 38.8876 126.174 39.119H129.104Z" fill="white"/>
  <path d="M131.102 35.5304C131.213 35.5304 131.3 35.5679 131.363 35.6431C131.429 35.7152 131.462 35.7918 131.462 35.873V41.5986C131.462 41.6768 131.426 41.7444 131.354 41.8015C131.285 41.8586 131.217 41.8872 131.151 41.8872C131.049 41.8872 130.962 41.8556 130.89 41.7925C130.821 41.7294 130.786 41.6482 130.786 41.549V35.882C130.786 35.7948 130.818 35.7152 130.881 35.6431C130.944 35.5679 131.017 35.5304 131.102 35.5304Z" fill="white"/>
  <path d="M132.567 37.1443C132.63 37.1443 132.69 37.1639 132.747 37.203C132.807 37.242 132.849 37.2886 132.873 37.3427L134.519 40.8998L135.926 37.3653C135.95 37.3051 135.992 37.2541 136.052 37.212C136.112 37.1699 136.175 37.1489 136.241 37.1489C136.358 37.1489 136.45 37.1984 136.516 37.2976C136.585 37.3938 136.597 37.5005 136.552 37.6177L134.564 42.604C134.477 42.8204 134.36 43.0413 134.212 43.2667C134.065 43.4921 133.882 43.6815 133.662 43.8348C133.443 43.9911 133.181 44.0692 132.878 44.0692C132.785 44.0692 132.705 44.0361 132.639 43.97C132.573 43.9039 132.54 43.8242 132.54 43.7311C132.54 43.6439 132.571 43.5658 132.634 43.4966C132.698 43.4305 132.773 43.396 132.86 43.3929C133.067 43.3779 133.24 43.3163 133.378 43.2081C133.517 43.1029 133.632 42.9677 133.725 42.8023C133.822 42.64 133.903 42.4657 133.969 42.2794C134.038 42.096 134.106 41.9217 134.172 41.7564L132.26 37.6313C132.239 37.5832 132.229 37.5336 132.229 37.4825C132.229 37.3893 132.262 37.3097 132.328 37.2435C132.394 37.1774 132.474 37.1443 132.567 37.1443Z" fill="white"/>
  <path d="M137.909 41.788C137.735 41.788 137.583 41.7264 137.454 41.6031C137.325 41.4799 137.26 41.3311 137.26 41.1568C137.26 40.9825 137.325 40.8352 137.454 40.715C137.583 40.5917 137.735 40.5301 137.909 40.5301C138.087 40.5301 138.24 40.5917 138.369 40.715C138.498 40.8352 138.563 40.9825 138.563 41.1568C138.563 41.3311 138.498 41.4799 138.369 41.6031C138.24 41.7264 138.087 41.788 137.909 41.788Z" fill="white"/>
  <path d="M147.174 39.5653C147.249 39.5653 147.32 39.5984 147.386 39.6645C147.455 39.7306 147.489 39.7998 147.489 39.8719C147.489 39.9471 147.479 40.0057 147.458 40.0477C147.314 40.3723 147.108 40.6729 146.84 40.9494C146.576 41.2259 146.26 41.4483 145.894 41.6166C145.527 41.785 145.117 41.8691 144.663 41.8691C144.215 41.8691 143.809 41.7865 143.445 41.6212C143.085 41.4559 142.775 41.2274 142.517 40.9359C142.261 40.6413 142.064 40.3017 141.926 39.917C141.791 39.5293 141.723 39.113 141.723 38.6682C141.723 38.2294 141.792 37.8206 141.931 37.4419C142.069 37.0602 142.267 36.7266 142.526 36.441C142.784 36.1525 143.092 35.9271 143.45 35.7648C143.811 35.6025 144.21 35.5213 144.649 35.5213C145.094 35.5213 145.498 35.5995 145.862 35.7558C146.229 35.9121 146.546 36.121 146.813 36.3824C147.084 36.6439 147.294 36.934 147.444 37.2526C147.468 37.3006 147.48 37.3517 147.48 37.4058C147.48 37.493 147.449 37.5711 147.386 37.6403C147.326 37.7064 147.263 37.7395 147.196 37.7395C147.016 37.7395 146.896 37.6733 146.836 37.5411C146.658 37.1654 146.38 36.8483 146.002 36.5898C145.623 36.3283 145.172 36.1976 144.649 36.1976C144.186 36.1976 143.787 36.3088 143.45 36.5312C143.113 36.7536 142.853 37.0527 142.67 37.4284C142.49 37.8011 142.4 38.2188 142.4 38.6817C142.4 39.1446 142.49 39.5668 142.67 39.9486C142.85 40.3273 143.109 40.6293 143.445 40.8547C143.785 41.0771 144.188 41.1884 144.654 41.1884C145.002 41.1884 145.319 41.1237 145.605 40.9945C145.894 40.8622 146.143 40.6879 146.353 40.4715C146.567 40.2551 146.729 40.0222 146.84 39.7727C146.9 39.6345 147.012 39.5653 147.174 39.5653Z" fill="white"/>
  <path d="M148.486 35.873C148.486 35.7798 148.519 35.7002 148.585 35.634C148.651 35.5679 148.731 35.5349 148.824 35.5349C148.917 35.5349 148.997 35.5679 149.063 35.634C149.129 35.7002 149.162 35.7798 149.162 35.873V37.9468C149.312 37.6974 149.509 37.502 149.753 37.3608C149.996 37.2165 150.238 37.1443 150.479 37.1443C151.149 37.1443 151.624 37.3457 151.903 37.7485C152.186 38.1482 152.327 38.6862 152.327 39.3625V39.403L152.322 41.531V41.5355C152.322 41.6287 152.289 41.7083 152.223 41.7744C152.157 41.8406 152.077 41.8736 151.984 41.8736C151.891 41.8736 151.812 41.8406 151.745 41.7744C151.679 41.7083 151.646 41.6287 151.646 41.5355V41.531L151.651 39.394C151.651 38.9011 151.574 38.5149 151.421 38.2354C151.271 37.9559 150.974 37.8161 150.533 37.8161C150.253 37.8161 150.011 37.8747 149.807 37.9919C149.602 38.1091 149.445 38.2579 149.333 38.4383C149.225 38.6186 149.171 38.8019 149.171 38.9883V41.54C149.171 41.6332 149.138 41.7128 149.072 41.7789C149.006 41.8451 148.926 41.8781 148.833 41.8781C148.734 41.8781 148.651 41.8436 148.585 41.7744C148.519 41.7053 148.486 41.6272 148.486 41.54V35.873Z" fill="white"/>
  <path d="M155.568 37.1443C155.884 37.1443 156.179 37.2075 156.452 37.3337C156.726 37.4599 156.965 37.6343 157.169 37.8567C157.376 38.0761 157.537 38.327 157.651 38.6096C157.769 38.8921 157.827 39.1911 157.827 39.5067C157.827 39.9245 157.728 40.3122 157.53 40.6699C157.331 41.0276 157.062 41.3176 156.723 41.54C156.386 41.7594 156.007 41.8706 155.587 41.8736C155.16 41.8736 154.775 41.7639 154.432 41.5445C154.09 41.3251 153.818 41.0366 153.616 40.6789C153.418 40.3182 153.319 39.9275 153.319 39.5067C153.319 39.1942 153.376 38.8966 153.49 38.6141C153.607 38.3285 153.768 38.0761 153.973 37.8567C154.177 37.6343 154.414 37.4599 154.685 37.3337C154.958 37.2075 155.253 37.1443 155.568 37.1443ZM155.568 37.8206C155.274 37.8206 155.008 37.8987 154.77 38.055C154.533 38.2113 154.344 38.4172 154.202 38.6727C154.064 38.9252 153.995 39.2002 153.995 39.4977C153.995 39.7983 154.064 40.0778 154.202 40.3363C154.341 40.5948 154.53 40.8036 154.77 40.9629C155.011 41.1192 155.281 41.1974 155.582 41.1974C155.88 41.1944 156.146 41.1147 156.38 40.9584C156.617 40.7991 156.805 40.5917 156.944 40.3363C157.082 40.0808 157.151 39.8043 157.151 39.5067C157.151 39.2092 157.08 38.9327 156.939 38.6772C156.801 38.4187 156.611 38.2113 156.371 38.055C156.134 37.8987 155.866 37.8206 155.568 37.8206Z" fill="white"/>
  <path d="M160.979 37.1443C161.294 37.1443 161.589 37.2075 161.862 37.3337C162.136 37.4599 162.375 37.6343 162.579 37.8567C162.786 38.0761 162.947 38.327 163.061 38.6096C163.179 38.8921 163.237 39.1911 163.237 39.5067C163.237 39.9245 163.138 40.3122 162.94 40.6699C162.741 41.0276 162.472 41.3176 162.133 41.54C161.796 41.7594 161.417 41.8706 160.997 41.8736C160.57 41.8736 160.185 41.7639 159.842 41.5445C159.5 41.3251 159.228 41.0366 159.026 40.6789C158.828 40.3182 158.729 39.9275 158.729 39.5067C158.729 39.1942 158.786 38.8966 158.9 38.6141C159.017 38.3285 159.178 38.0761 159.383 37.8567C159.587 37.6343 159.824 37.4599 160.095 37.3337C160.368 37.2075 160.663 37.1443 160.979 37.1443ZM160.979 37.8206C160.684 37.8206 160.418 37.8987 160.181 38.055C159.943 38.2113 159.754 38.4172 159.612 38.6727C159.474 38.9252 159.405 39.2002 159.405 39.4977C159.405 39.7983 159.474 40.0778 159.612 40.3363C159.751 40.5948 159.94 40.8036 160.181 40.9629C160.421 41.1192 160.691 41.1974 160.992 41.1974C161.29 41.1944 161.556 41.1147 161.79 40.9584C162.027 40.7991 162.215 40.5917 162.354 40.3363C162.492 40.0808 162.561 39.8043 162.561 39.5067C162.561 39.2092 162.49 38.9327 162.349 38.6772C162.211 38.4187 162.021 38.2113 161.781 38.055C161.544 37.8987 161.276 37.8206 160.979 37.8206Z" fill="white"/>
  <path d="M166.366 37.1263C166.769 37.1263 167.135 37.2135 167.466 37.3878C167.8 37.5621 168.046 37.7996 168.205 38.1001C168.232 38.1482 168.246 38.2008 168.246 38.2579C168.246 38.3481 168.213 38.4247 168.147 38.4878C168.084 38.551 168.007 38.5825 167.917 38.5825C167.863 38.5825 167.807 38.566 167.75 38.5329C167.693 38.4969 167.652 38.4548 167.628 38.4067C167.52 38.2023 167.355 38.0475 167.132 37.9423C166.913 37.8341 166.656 37.78 166.362 37.78C166.175 37.78 165.972 37.8056 165.753 37.8567C165.533 37.9048 165.344 37.9859 165.185 38.1001C165.029 38.2113 164.95 38.3616 164.95 38.551C164.95 38.6982 165.014 38.8124 165.14 38.8936C165.266 38.9747 165.422 39.0349 165.609 39.0739C165.798 39.11 165.989 39.1355 166.181 39.1506C166.377 39.1656 166.543 39.1806 166.682 39.1957C166.955 39.2227 167.224 39.2723 167.489 39.3444C167.753 39.4166 167.972 39.5353 168.147 39.7006C168.321 39.8659 168.408 40.1048 168.408 40.4174C168.408 40.754 168.309 41.0306 168.111 41.247C167.912 41.4604 167.658 41.6182 167.349 41.7203C167.039 41.8195 166.718 41.8691 166.384 41.8691C165.915 41.8691 165.49 41.7789 165.108 41.5986C164.726 41.4153 164.445 41.1478 164.265 40.7961C164.241 40.754 164.229 40.703 164.229 40.6428C164.229 40.5527 164.261 40.476 164.324 40.4129C164.387 40.3498 164.463 40.3182 164.554 40.3182C164.611 40.3182 164.668 40.3363 164.725 40.3723C164.782 40.4054 164.823 40.4475 164.847 40.4986C164.976 40.745 165.174 40.9269 165.442 41.0441C165.709 41.1583 166.023 41.2154 166.384 41.2154C166.591 41.2154 166.8 41.1914 167.011 41.1433C167.224 41.0922 167.401 41.008 167.543 40.8908C167.687 40.7736 167.759 40.6158 167.759 40.4174C167.759 40.2611 167.694 40.1424 167.565 40.0613C167.436 39.9771 167.274 39.917 167.078 39.8809C166.883 39.8449 166.685 39.8208 166.483 39.8088C166.285 39.7968 166.114 39.7817 165.969 39.7637C165.714 39.7337 165.457 39.6826 165.198 39.6104C164.943 39.5353 164.729 39.4151 164.558 39.2498C164.387 39.0844 164.301 38.8515 164.301 38.551C164.301 38.2985 164.363 38.0836 164.486 37.9063C164.612 37.7259 164.776 37.5787 164.977 37.4644C165.182 37.3472 165.406 37.2616 165.649 37.2075C165.893 37.1534 166.132 37.1263 166.366 37.1263Z" fill="white"/>
  <path d="M171.74 41.8601C171.304 41.8601 170.909 41.7519 170.554 41.5355C170.203 41.3191 169.923 41.0306 169.716 40.6699C169.508 40.3062 169.405 39.908 169.405 39.4752C169.405 39.0634 169.502 38.6832 169.698 38.3346C169.896 37.9829 170.164 37.7004 170.5 37.487C170.837 37.2736 171.213 37.1669 171.627 37.1669C172.009 37.1669 172.359 37.2616 172.678 37.4509C172.999 37.6403 173.256 37.8957 173.449 38.2173C173.644 38.5359 173.742 38.8906 173.742 39.2813C173.742 39.4196 173.716 39.5383 173.665 39.6375C173.617 39.7367 173.527 39.7863 173.395 39.7863H170.112C170.161 40.0357 170.258 40.2671 170.406 40.4805C170.556 40.6909 170.744 40.8607 170.969 40.99C171.197 41.1192 171.451 41.1838 171.731 41.1838C171.968 41.1838 172.201 41.1312 172.43 41.0261C172.658 40.9209 172.846 40.7766 172.993 40.5932C173.059 40.5061 173.148 40.4625 173.259 40.4625C173.352 40.4625 173.432 40.4956 173.498 40.5617C173.564 40.6278 173.597 40.7075 173.597 40.8006C173.597 40.8818 173.57 40.9554 173.516 41.0215C173.3 41.286 173.034 41.4919 172.718 41.6392C172.406 41.7865 172.08 41.8601 171.74 41.8601ZM173.052 39.119C173.025 38.8846 172.945 38.6712 172.813 38.4788C172.681 38.2835 172.512 38.1287 172.308 38.0145C172.104 37.9003 171.878 37.8431 171.632 37.8431C171.376 37.8431 171.143 37.9018 170.933 38.019C170.723 38.1362 170.547 38.291 170.406 38.4833C170.267 38.6757 170.173 38.8876 170.121 39.119H173.052Z" fill="white"/>
  <path d="M176.672 35.9C176.672 35.8279 176.705 35.7588 176.771 35.6927C176.84 35.6265 176.913 35.5935 176.988 35.5935C177.153 35.5935 177.264 35.6611 177.321 35.7963L179.612 40.6969L181.667 35.7468C181.728 35.6025 181.84 35.5304 182.006 35.5304C182.084 35.5304 182.156 35.5634 182.222 35.6295C182.288 35.6927 182.321 35.7618 182.321 35.8369C182.321 35.9061 182.314 35.9602 182.299 35.9992L179.945 41.6888C179.924 41.7399 179.884 41.788 179.823 41.8331C179.763 41.8811 179.699 41.9052 179.63 41.9052C179.488 41.9052 179.386 41.8376 179.323 41.7023L176.704 36.0714C176.683 36.0293 176.672 35.9722 176.672 35.9Z" fill="white"/>
  <path d="M183.489 36.4636C183.36 36.4636 183.245 36.417 183.146 36.3238C183.05 36.2307 183.002 36.1179 183.002 35.9857C183.002 35.8535 183.05 35.7407 183.146 35.6476C183.245 35.5544 183.36 35.5078 183.489 35.5078C183.621 35.5078 183.735 35.5544 183.831 35.6476C183.928 35.7407 183.976 35.8535 183.976 35.9857C183.976 36.1179 183.928 36.2307 183.831 36.3238C183.735 36.417 183.621 36.4636 183.489 36.4636ZM183.16 37.4419C183.16 37.3638 183.196 37.2961 183.268 37.239C183.34 37.1789 183.408 37.1489 183.471 37.1489C183.576 37.1489 183.663 37.1804 183.732 37.2435C183.801 37.3067 183.836 37.3893 183.836 37.4915L183.845 41.5355C183.845 41.6287 183.812 41.7083 183.746 41.7744C183.68 41.8406 183.6 41.8736 183.507 41.8736C183.414 41.8736 183.334 41.8391 183.268 41.7699C183.202 41.7038 183.169 41.6242 183.169 41.531L183.16 37.4419Z" fill="white"/>
  <path d="M187.713 37.5817C187.713 37.6628 187.686 37.738 187.632 37.8071C187.578 37.8762 187.519 37.9108 187.456 37.9108C187.363 37.9108 187.274 37.8897 187.19 37.8477C187.109 37.8026 187.01 37.78 186.893 37.78C186.598 37.78 186.367 37.8431 186.198 37.9694C186.03 38.0956 185.91 38.2579 185.838 38.4563C185.769 38.6516 185.734 38.859 185.734 39.0784V41.5355C185.734 41.6287 185.705 41.7083 185.648 41.7744C185.594 41.8436 185.51 41.8781 185.396 41.8781C185.285 41.8781 185.2 41.8436 185.143 41.7744C185.086 41.7083 185.058 41.6287 185.058 41.5355V37.5366C185.058 37.4254 185.094 37.3352 185.166 37.2661C185.241 37.1969 185.321 37.1624 185.405 37.1624C185.492 37.1624 185.563 37.1969 185.617 37.2661C185.674 37.3322 185.702 37.4224 185.702 37.5366L185.743 38.0325C185.785 37.8942 185.863 37.7575 185.977 37.6222C186.095 37.487 186.231 37.3743 186.388 37.2841C186.547 37.1909 186.708 37.1443 186.87 37.1443C187.101 37.1443 187.3 37.1759 187.465 37.239C187.63 37.2991 187.713 37.4133 187.713 37.5817Z" fill="white"/>
  <path d="M191.784 41.8872C191.691 41.8872 191.614 41.8541 191.554 41.788C191.497 41.7218 191.469 41.6422 191.469 41.549L191.446 41.0125C191.341 41.1418 191.216 41.274 191.072 41.4093C190.928 41.5415 190.764 41.6527 190.58 41.7429C190.397 41.83 190.19 41.8736 189.958 41.8736C189.562 41.8736 189.241 41.7714 188.998 41.5671C188.755 41.3627 188.577 41.0937 188.466 40.7601C188.358 40.4264 188.304 40.0688 188.304 39.6871L188.308 37.5005C188.308 37.4073 188.341 37.3277 188.407 37.2616C188.474 37.1954 188.553 37.1624 188.646 37.1624C188.743 37.1624 188.822 37.1954 188.885 37.2616C188.951 37.3277 188.984 37.4088 188.984 37.505L188.98 39.6871C188.98 39.9516 189.007 40.1995 189.061 40.4309C189.115 40.6594 189.213 40.8442 189.354 40.9855C189.498 41.1267 189.7 41.1974 189.958 41.1974C190.448 41.1974 190.818 41.0666 191.067 40.8051C191.317 40.5437 191.442 40.1755 191.442 39.7006V37.4915C191.442 37.3983 191.475 37.3187 191.541 37.2526C191.607 37.1864 191.687 37.1534 191.78 37.1534C191.876 37.1534 191.955 37.1864 192.019 37.2526C192.085 37.3187 192.118 37.3998 192.118 37.496L192.122 41.5445C192.122 41.6377 192.089 41.7173 192.023 41.7835C191.96 41.8526 191.88 41.8872 191.784 41.8872Z" fill="white"/>
  <path d="M195.373 37.1579C195.782 37.1579 196.144 37.2661 196.459 37.4825C196.775 37.6989 197.023 37.9829 197.203 38.3346C197.384 38.6862 197.474 39.0664 197.474 39.4752C197.474 39.7817 197.421 40.0778 197.316 40.3633C197.211 40.6489 197.062 40.9043 196.87 41.1297C196.677 41.3522 196.45 41.5295 196.189 41.6617C195.93 41.794 195.645 41.8601 195.332 41.8601C195.038 41.8601 194.769 41.7865 194.525 41.6392C194.282 41.4919 194.068 41.3221 193.885 41.1297V43.1675C193.885 43.2607 193.852 43.3403 193.786 43.4065C193.72 43.4726 193.64 43.5057 193.547 43.5057C193.454 43.5057 193.374 43.4726 193.308 43.4065C193.242 43.3403 193.209 43.2607 193.209 43.1675V37.4915C193.209 37.3983 193.242 37.3187 193.308 37.2526C193.374 37.1864 193.454 37.1534 193.547 37.1534C193.64 37.1534 193.715 37.1864 193.772 37.2526C193.832 37.3187 193.863 37.3983 193.863 37.4915L193.885 37.9243C194.056 37.75 194.268 37.5787 194.521 37.4103C194.773 37.242 195.057 37.1579 195.373 37.1579ZM195.359 37.8341C195.056 37.8341 194.793 37.9168 194.57 38.0821C194.351 38.2474 194.183 38.4608 194.065 38.7223C193.948 38.9808 193.89 39.2528 193.89 39.5383C193.89 39.8178 193.947 40.0838 194.061 40.3363C194.178 40.5857 194.345 40.7901 194.561 40.9494C194.781 41.1057 195.041 41.1838 195.341 41.1838C195.633 41.1838 195.887 41.1012 196.103 40.9359C196.32 40.7676 196.488 40.5527 196.608 40.2912C196.728 40.0267 196.788 39.7502 196.788 39.4616C196.788 39.1761 196.728 38.9101 196.608 38.6637C196.491 38.4142 196.324 38.2143 196.108 38.0641C195.894 37.9108 195.645 37.8341 195.359 37.8341Z" fill="white"/>
  <path d="M200.58 37.1489C200.902 37.1489 201.19 37.242 201.446 37.4284C201.704 37.6147 201.93 37.8116 202.122 38.019L202.162 37.4509C202.162 37.3638 202.186 37.2901 202.235 37.23C202.283 37.1669 202.35 37.1353 202.437 37.1353C202.525 37.1353 202.598 37.1669 202.658 37.23C202.721 37.2901 202.753 37.3638 202.753 37.4509V41.5265C202.753 41.6136 202.721 41.6888 202.658 41.7519C202.598 41.812 202.525 41.8421 202.437 41.8421C202.35 41.8421 202.275 41.812 202.212 41.7519C202.152 41.6888 202.122 41.6136 202.122 41.5265V41.0125C201.923 41.2289 201.688 41.4243 201.414 41.5986C201.144 41.7729 200.858 41.8601 200.557 41.8601C200.248 41.8601 199.961 41.797 199.696 41.6707C199.432 41.5415 199.2 41.3672 199.002 41.1478C198.804 40.9284 198.649 40.6789 198.538 40.3994C198.43 40.1169 198.375 39.8208 198.375 39.5112C198.375 39.2047 198.43 38.9101 198.538 38.6276C198.649 38.3421 198.804 38.0896 199.002 37.8702C199.203 37.6478 199.438 37.472 199.705 37.3427C199.973 37.2135 200.264 37.1489 200.58 37.1489ZM202.144 39.4842C202.144 39.1927 202.074 38.9221 201.933 38.6727C201.794 38.4202 201.606 38.2158 201.369 38.0595C201.135 37.9033 200.873 37.8251 200.585 37.8251C200.293 37.8251 200.031 37.9048 199.8 38.0641C199.569 38.2234 199.385 38.4322 199.25 38.6907C199.118 38.9462 199.052 39.2197 199.052 39.5112C199.052 39.7998 199.118 40.0718 199.25 40.3273C199.382 40.5827 199.561 40.7901 199.787 40.9494C200.015 41.1057 200.272 41.1838 200.557 41.1838C200.846 41.1838 201.11 41.1042 201.351 40.9449C201.591 40.7826 201.784 40.5722 201.928 40.3137C202.072 40.0522 202.144 39.7757 202.144 39.4842Z" fill="white"/>
  <path d="M203.84 35.855C203.84 35.7678 203.87 35.6942 203.93 35.634C203.993 35.5709 204.068 35.5394 204.155 35.5394C204.242 35.5394 204.317 35.5709 204.381 35.634C204.444 35.6942 204.474 35.7693 204.471 35.8595V39.376C204.798 38.9973 205.138 38.6306 205.49 38.2759C205.841 37.9183 206.188 37.5576 206.531 37.1939C206.591 37.1278 206.668 37.0948 206.761 37.0948C206.848 37.0948 206.922 37.1263 206.982 37.1894C207.045 37.2495 207.077 37.3232 207.077 37.4103C207.077 37.4975 207.046 37.5711 206.986 37.6313L205.44 39.2362L207.049 41.3507C207.095 41.4078 207.117 41.4724 207.117 41.5445C207.117 41.6317 207.086 41.7068 207.022 41.7699C206.962 41.83 206.889 41.8601 206.802 41.8601C206.696 41.8601 206.612 41.818 206.549 41.7339L204.998 39.6375L204.471 40.1514V41.531C204.471 41.6182 204.439 41.6933 204.376 41.7564C204.316 41.8165 204.242 41.8466 204.155 41.8466C204.068 41.8466 203.993 41.815 203.93 41.7519C203.867 41.6888 203.837 41.6136 203.84 41.5265V35.855Z" fill="white"/>
  <path d="M210.025 37.1263C210.428 37.1263 210.794 37.2135 211.125 37.3878C211.459 37.5621 211.705 37.7996 211.864 38.1001C211.891 38.1482 211.905 38.2008 211.905 38.2579C211.905 38.3481 211.872 38.4247 211.806 38.4878C211.743 38.551 211.666 38.5825 211.576 38.5825C211.522 38.5825 211.466 38.566 211.409 38.5329C211.352 38.4969 211.311 38.4548 211.287 38.4067C211.179 38.2023 211.014 38.0475 210.791 37.9423C210.572 37.8341 210.315 37.78 210.021 37.78C209.834 37.78 209.631 37.8056 209.412 37.8567C209.192 37.9048 209.003 37.9859 208.844 38.1001C208.688 38.2113 208.609 38.3616 208.609 38.551C208.609 38.6982 208.673 38.8124 208.799 38.8936C208.925 38.9747 209.081 39.0349 209.268 39.0739C209.457 39.11 209.648 39.1355 209.84 39.1506C210.036 39.1656 210.202 39.1806 210.341 39.1957C210.614 39.2227 210.883 39.2723 211.148 39.3444C211.412 39.4166 211.632 39.5353 211.806 39.7006C211.98 39.8659 212.067 40.1048 212.067 40.4174C212.067 40.754 211.968 41.0306 211.77 41.247C211.571 41.4604 211.317 41.6182 211.008 41.7203C210.698 41.8195 210.377 41.8691 210.043 41.8691C209.574 41.8691 209.149 41.7789 208.767 41.5986C208.385 41.4153 208.104 41.1478 207.924 40.7961C207.9 40.754 207.888 40.703 207.888 40.6428C207.888 40.5527 207.92 40.476 207.983 40.4129C208.046 40.3498 208.122 40.3182 208.213 40.3182C208.27 40.3182 208.327 40.3363 208.384 40.3723C208.441 40.4054 208.482 40.4475 208.506 40.4986C208.635 40.745 208.833 40.9269 209.101 41.0441C209.368 41.1583 209.682 41.2154 210.043 41.2154C210.25 41.2154 210.459 41.1914 210.67 41.1433C210.883 41.0922 211.06 41.008 211.202 40.8908C211.346 40.7736 211.418 40.6158 211.418 40.4174C211.418 40.2611 211.353 40.1424 211.224 40.0613C211.095 39.9771 210.933 39.917 210.737 39.8809C210.542 39.8449 210.344 39.8208 210.142 39.8088C209.944 39.7968 209.773 39.7817 209.628 39.7637C209.373 39.7337 209.116 39.6826 208.857 39.6104C208.602 39.5353 208.388 39.4151 208.217 39.2498C208.046 39.0844 207.96 38.8515 207.96 38.551C207.96 38.2985 208.022 38.0836 208.145 37.9063C208.271 37.7259 208.435 37.5787 208.636 37.4644C208.841 37.3472 209.065 37.2616 209.308 37.2075C209.552 37.1534 209.791 37.1263 210.025 37.1263Z" fill="white"/>
  <path d="M213.154 35.873C213.154 35.7798 213.187 35.7002 213.253 35.634C213.319 35.5679 213.399 35.5349 213.492 35.5349C213.585 35.5349 213.665 35.5679 213.731 35.634C213.797 35.7002 213.83 35.7798 213.83 35.873V37.9468C213.98 37.6974 214.177 37.502 214.421 37.3608C214.664 37.2165 214.906 37.1443 215.147 37.1443C215.817 37.1443 216.292 37.3457 216.571 37.7485C216.854 38.1482 216.995 38.6862 216.995 39.3625V39.403L216.99 41.531V41.5355C216.99 41.6287 216.957 41.7083 216.891 41.7744C216.825 41.8406 216.745 41.8736 216.652 41.8736C216.559 41.8736 216.48 41.8406 216.413 41.7744C216.347 41.7083 216.314 41.6287 216.314 41.5355V41.531L216.319 39.394C216.319 38.9011 216.242 38.5149 216.089 38.2354C215.938 37.9559 215.642 37.8161 215.201 37.8161C214.921 37.8161 214.679 37.8747 214.475 37.9919C214.27 38.1091 214.113 38.2579 214.001 38.4383C213.893 38.6186 213.839 38.8019 213.839 38.9883V41.54C213.839 41.6332 213.806 41.7128 213.74 41.7789C213.674 41.8451 213.594 41.8781 213.501 41.8781C213.402 41.8781 213.319 41.8436 213.253 41.7744C213.187 41.7053 213.154 41.6272 213.154 41.54V35.873Z" fill="white"/>
  <path d="M220.191 37.1489C220.513 37.1489 220.802 37.242 221.057 37.4284C221.315 37.6147 221.541 37.8116 221.733 38.019L221.774 37.4509C221.774 37.3638 221.798 37.2901 221.846 37.23C221.894 37.1669 221.962 37.1353 222.049 37.1353C222.136 37.1353 222.21 37.1669 222.27 37.23C222.333 37.2901 222.364 37.3638 222.364 37.4509V41.5265C222.364 41.6136 222.333 41.6888 222.27 41.7519C222.21 41.812 222.136 41.8421 222.049 41.8421C221.962 41.8421 221.887 41.812 221.823 41.7519C221.763 41.6888 221.733 41.6136 221.733 41.5265V41.0125C221.535 41.2289 221.299 41.4243 221.025 41.5986C220.755 41.7729 220.469 41.8601 220.169 41.8601C219.859 41.8601 219.572 41.797 219.308 41.6707C219.043 41.5415 218.812 41.3672 218.613 41.1478C218.415 40.9284 218.26 40.6789 218.149 40.3994C218.041 40.1169 217.987 39.8208 217.987 39.5112C217.987 39.2047 218.041 38.9101 218.149 38.6276C218.26 38.3421 218.415 38.0896 218.613 37.8702C218.815 37.6478 219.049 37.472 219.317 37.3427C219.584 37.2135 219.876 37.1489 220.191 37.1489ZM221.756 39.4842C221.756 39.1927 221.685 38.9221 221.544 38.6727C221.406 38.4202 221.218 38.2158 220.98 38.0595C220.746 37.9033 220.484 37.8251 220.196 37.8251C219.904 37.8251 219.643 37.9048 219.411 38.0641C219.18 38.2234 218.997 38.4322 218.861 38.6907C218.729 38.9462 218.663 39.2197 218.663 39.5112C218.663 39.7998 218.729 40.0718 218.861 40.3273C218.994 40.5827 219.173 40.7901 219.398 40.9494C219.626 41.1057 219.883 41.1838 220.169 41.1838C220.457 41.1838 220.722 41.1042 220.962 40.9449C221.203 40.7826 221.395 40.5722 221.539 40.3137C221.684 40.0522 221.756 39.7757 221.756 39.4842Z" fill="white"/>
  <path d="M27.3611 29.5646C27.5884 29.2413 27.685 28.909 27.7979 28.5879C28.2735 27.2389 28.7153 25.8748 29.344 24.5938C30.929 21.3701 33.3889 19.4508 36.7591 18.8851C37.2007 18.8122 37.6467 18.7735 38.0935 18.7695C38.2749 18.7695 38.3405 18.8224 38.3419 19.0218C38.3468 20.0898 38.3624 21.1586 38.3751 22.2266C38.3751 22.349 38.3574 22.4313 38.2248 22.4789C35.93 23.3015 34.2653 25.0183 32.7326 26.921C30.9367 29.1492 29.9453 31.7459 29.6178 34.6517C29.4894 35.7846 29.3356 36.9176 29.2092 38.0506C29.1845 38.2711 29.1062 38.3134 28.922 38.3112C27.9341 38.2991 26.9462 38.2923 25.9583 38.2976C25.7522 38.2976 25.6845 38.2372 25.6577 38.0083C25.3253 35.2015 24.8306 32.4325 23.9076 29.7693C23.2994 28.0169 22.5302 26.3575 21.3531 24.9503C20.1189 23.4759 18.6145 22.565 16.7318 22.4714C16.5617 22.4631 16.4791 22.4223 16.4756 22.2176C16.4554 21.137 16.4272 20.0566 16.3909 18.9765C16.3825 18.7144 16.5455 18.7748 16.6732 18.7771C17.882 18.7945 19.059 19.0037 20.1789 19.4999C22.8498 20.6805 24.7248 22.7252 25.8912 25.5425C26.3852 26.7359 26.8001 27.9595 27.2179 29.1869C27.2588 29.2979 27.3033 29.409 27.3611 29.5646Z" fill="#27D86B"/>
</svg>