<svg width="32" height="32" viewBox="0 0 32 32" fill="none" xmlns="http://www.w3.org/2000/svg">
<path d="M15.5 10H3.5C3.22667 10 3 9.54667 3 9C3 8.45333 3.22667 8 3.5 8H15.5C15.7733 8 16 8.45333 16 9C16 9.54667 15.7733 10 15.5 10Z" fill="white"/>
<path d="M28 17H4C3.45333 17 3 16.5467 3 16C3 15.4533 3.45333 15 4 15H28C28.5467 15 29 15.4533 29 16C29 16.5467 28.5467 17 28 17Z" fill="white"/>
<path d="M28.5 24H16.5C16.2267 24 16 23.5467 16 23C16 22.4533 16.2267 22 16.5 22H28.5C28.7733 22 29 22.4533 29 23C29 23.5467 28.7733 24 28.5 24Z" fill="white"/>
</svg>
