<svg width="79" height="22" viewBox="0 0 79 22" fill="none" xmlns="http://www.w3.org/2000/svg">
<path d="M73.9647 0C71.2007 0 68.9295 2.26247 68.9295 5.06362C68.9295 7.86477 71.1793 10.1272 73.9647 10.1272C76.7288 10.1272 79 7.86477 79 5.06362C79 2.26247 76.7502 0 73.9647 0ZM73.9647 9.39462C71.5864 9.39462 69.658 7.45537 69.658 5.06362C69.658 2.67187 71.5864 0.732608 73.9647 0.732608C76.3431 0.732608 78.2715 2.67187 78.2715 5.06362C78.2715 7.45537 76.3431 9.39462 73.9647 9.39462Z" fill="white"/>
<path d="M75.5909 5.06403C75.8052 4.80546 75.9337 4.48225 75.9337 4.0944C75.9337 3.62036 75.7837 3.25405 75.4838 2.97394C75.1838 2.69382 74.7553 2.54299 74.1768 2.54299H72.3983V7.62816H73.2125V5.58116H73.7911L75.0552 7.60661H75.9766L74.6481 5.53807C75.0552 5.47343 75.3766 5.30105 75.5909 5.06403ZM73.1911 4.99939V3.23251H74.091C74.4339 3.23251 74.6696 3.3187 74.841 3.46953C74.991 3.62036 75.0767 3.83583 75.0767 4.11595C75.0767 4.69772 74.7553 4.99939 74.091 4.99939H73.1911Z" fill="white"/>
<path d="M7.60646 12.7773C7.39219 12.9497 6.94223 12.9497 6.66368 12.8635C6.32086 11.6353 5.80662 10.17 4.19962 10.17C3.23542 10.17 2.61405 10.8165 2.61405 11.8723C2.61405 12.9497 3.9425 13.9193 4.69243 14.3071C5.42094 14.695 6.47084 15.2768 7.19935 16.074C7.75644 16.6989 8.18497 17.3453 8.18497 18.3365C8.18497 19.5 7.5636 20.3619 6.89938 20.9652C6.12802 21.6548 5.20667 21.9995 4.07106 21.9995C1.47844 21.9995 1.43558 21.6117 0.364253 21.6117C0.149986 20.9222 0 19.931 0 18.5089C0.299973 18.4442 0.621372 18.3365 0.942772 18.4442C1.30702 20.168 2.61405 21.2023 3.87822 21.2023C5.01383 21.2023 5.82804 20.5558 5.82804 19.6293C5.82804 18.5735 4.99241 17.8193 4.11391 17.216C3.32113 16.6558 1.75698 16.0094 0.878492 14.8458C0.449959 14.2856 0.25712 13.3806 0.25712 12.648C0.25712 11.7215 0.771359 10.8596 1.47844 10.2993C2.27122 9.67446 3.36398 9.39435 4.22105 9.39435C5.9566 9.39435 6.36371 9.76065 7.39219 9.91148C7.52075 11.0104 7.60646 11.7861 7.60646 12.7773Z" fill="white"/>
<path d="M13.7993 20.814C12.2994 19.7151 11.528 17.6465 11.528 15.8797C11.528 11.721 14.6349 9.41547 18.2988 9.41547C20.6129 9.41547 21.4486 10.1696 22.4128 10.2558C22.5842 11.2901 22.7342 12.1951 22.8199 13.1862C22.6056 13.294 22.2413 13.3586 22.0057 13.2724C21.5128 11.6564 20.6772 10.1696 18.0846 10.1696C15.8562 10.1696 14.3563 12.5829 14.3563 15.5134C14.3563 18.4653 16.0919 21.0295 18.256 21.0295C19.563 21.0295 21.0843 20.5339 22.4128 19.0687C22.627 19.0687 22.9484 19.2841 23.0341 19.4565C21.7485 21.1372 20.0773 21.9991 18.2774 21.9991C16.4776 21.9991 14.9991 21.6974 13.7993 20.814Z" fill="white"/>
<path d="M30.2326 16.7425C30.2326 17.9707 30.2754 19.3928 31.1968 20.2762C31.7539 20.8149 32.5252 21.2243 33.4252 21.2243C36.5963 21.2243 36.8748 18.7033 36.8748 16.5916V11.959C36.8748 10.386 36.5749 10.3645 35.1393 10.2352C35.0322 10.1274 35.0322 9.69649 35.1393 9.58875C35.9963 9.6103 36.982 9.63185 37.5176 9.63185C38.0319 9.63185 38.8032 9.6103 39.5317 9.58875C39.6389 9.69649 39.6389 10.1274 39.5317 10.2352C38.4176 10.3429 38.0962 10.386 38.0962 11.959V16.2469C38.0962 19.6082 36.8748 22 33.018 22C32.1181 22 30.404 21.9785 29.2255 21.2028C28.1542 20.5132 27.5971 19.1773 27.5971 17.3458V11.959C27.5971 10.386 27.2757 10.2998 26.1615 10.2352C26.0544 10.1274 26.0544 9.69649 26.1615 9.58875C27.1043 9.6103 28.0471 9.63185 28.9041 9.63185C29.8041 9.63185 31.0468 9.6103 31.9681 9.58875C32.0753 9.69649 32.0753 10.1274 31.9681 10.2352C30.5326 10.2998 30.2326 10.386 30.2326 11.959V16.7425Z" fill="white"/>
<path d="M47.502 9.61041C51.2945 9.61041 51.9802 11.248 51.9802 12.5624C51.9802 13.532 51.1874 14.5663 50.1803 15.0188V15.0619C52.173 15.6006 52.9872 16.6779 52.9872 18.3371C52.9872 20.2548 51.7445 21.8924 47.9091 21.8924C46.7735 21.8924 45.5736 21.8493 44.8237 21.8493C44.0737 21.8493 41.9311 21.8924 41.9311 21.8924C41.7382 21.7846 41.7382 21.3537 41.9311 21.246C42.9596 21.1813 43.4952 21.1167 43.4952 19.5437V11.9591C43.4952 10.3861 42.9596 10.3215 41.9311 10.2568C41.7382 10.1491 41.7382 9.71815 41.9311 9.61041C41.9311 9.61041 44.0737 9.65351 44.8237 9.65351C45.4236 9.65351 46.5592 9.61041 47.502 9.61041ZM46.1307 14.7171H47.1806C48.5091 14.7171 49.3661 14.0923 49.3661 12.5839C49.3661 10.7309 48.3162 10.3861 47.4592 10.3861C46.2378 10.3861 46.1521 10.6447 46.1521 11.2049V14.7171H46.1307ZM46.1307 20.2332C46.1307 20.7719 46.2378 21.052 47.3735 21.052C49.8589 21.052 50.2446 19.4144 50.2446 18.2724C50.2446 16.6564 49.409 15.4928 47.4592 15.4928H46.1307V20.2332Z" fill="white"/>
<path d="M63.5081 13.7256C63.6152 13.6179 64.1937 13.6179 64.3223 13.7256C64.3009 14.2858 64.2794 14.7168 64.2794 15.3417C64.2794 15.9881 64.3009 16.3328 64.3223 17.0008C64.2152 17.1085 63.6366 17.1085 63.5081 17.0008C63.4438 16.1605 63.101 15.7941 61.794 15.7941H60.2727V20.1252C60.2727 20.6423 60.6369 21.0301 61.044 21.0301H62.9296C64.3652 21.0301 65.2008 19.9743 65.5865 18.6168C65.8222 18.5522 66.2293 18.5953 66.4221 18.703C66.2721 19.6727 66.1864 20.9009 65.9079 21.8489C65.9079 21.8489 64.2152 21.8058 63.3152 21.8058H58.9228C58.9228 21.8058 56.9301 21.8274 56.0088 21.8489C55.9016 21.7412 55.9016 21.3103 56.0088 21.2025C57.3158 21.1379 57.6372 21.0732 57.6372 19.5003V11.9587C57.6372 10.3858 57.3158 10.2996 56.0088 10.2349C55.9016 10.1272 55.9016 9.69626 56.0088 9.58852C56.9515 9.61007 58.9014 9.63162 58.9014 9.63162H64.4294C64.8794 9.63162 65.0294 9.61007 65.3508 9.54543C65.4151 9.54543 65.4365 9.56698 65.4365 9.61007C65.4793 9.7609 65.565 11.5709 65.6507 12.3466C65.4793 12.4328 65.0722 12.4759 64.8365 12.4328C64.4294 11.1399 64.0223 10.4073 62.6296 10.4073H61.0226C60.5726 10.4073 60.2512 10.8814 60.2512 11.3339V14.9107H61.7725C63.0581 14.9323 63.4438 14.7599 63.5081 13.7256Z" fill="white"/>
</svg>
