<svg width="36" height="36" viewBox="0 0 36 36" fill="none" xmlns="http://www.w3.org/2000/svg">
    <circle cx="18" cy="18" r="18" fill="white"/>
    <path fill-rule="evenodd" clip-rule="evenodd" d="M9 18C9 13.0294 13.0294 9 18 9C22.9706 9 27 13.0294 27 18C27 22.9706 22.9706 27 18 27C13.0294 27 9 22.9706 9 18ZM18 13.2C18.2326 13.2 18.4443 13.3345 18.5432 13.5451L19.705 16.0204L22.2906 16.4152C22.5129 16.4491 22.6976 16.6046 22.769 16.8178C22.8404 17.0311 22.7865 17.2664 22.6295 17.4273L20.7409 19.3629L21.1881 22.1034C21.2251 22.3302 21.1293 22.5582 20.9415 22.6905C20.7536 22.8228 20.5067 22.8363 20.3056 22.7251L18 21.4506L15.6944 22.7251C15.4933 22.8363 15.2464 22.8228 15.0586 22.6905C14.8707 22.5582 14.775 22.3302 14.812 22.1034L15.2591 19.3629L13.3706 17.4273C13.2135 17.2664 13.1597 17.0311 13.2311 16.8178C13.3025 16.6046 13.4871 16.4491 13.7095 16.4152L16.295 16.0204L17.4569 13.5451C17.5557 13.3345 17.7674 13.2 18 13.2Z" fill="#BABABA"/>
    </svg>
    