<svg width="80" height="80" viewBox="0 0 80 80" fill="none" xmlns="http://www.w3.org/2000/svg">
    <g filter="url(#filter0_d_2945_1278)">
    <circle cx="40" cy="36" r="30" fill="white"/>
    </g>
    <path d="M36.5333 23C33.1831 23 30.4667 25.7138 30.4667 29.0633C30.4667 32.4127 33.1831 35.1266 36.5333 35.1266C39.8836 35.1266 42.6 32.4127 42.6 29.0633C42.6 25.7138 39.8836 23 36.5333 23Z" fill="#14BC55"/>
    <path d="M33.0667 38.5898C29.7163 38.5898 27 41.3049 27 44.6556V48.9842H46.0667V44.6556C46.0667 41.3049 43.3503 38.5898 40 38.5898H33.0667Z" fill="#14BC55"/>
    <path d="M48.6667 40.3333H47.8V49H53V44.6667C53 42.2734 51.0599 40.3333 48.6667 40.3333Z" fill="#14BC55"/>
    <path d="M46.9333 29.9333C44.5401 29.9333 42.6 31.8734 42.6 34.2667C42.6 36.6599 44.5401 38.6 46.9333 38.6C49.3266 38.6 51.2667 36.6599 51.2667 34.2667C51.2667 31.8734 49.3266 29.9333 46.9333 29.9333Z" fill="#14BC55"/>
    <defs>
    <filter id="filter0_d_2945_1278" x="0" y="0" width="80" height="80" filterUnits="userSpaceOnUse" color-interpolation-filters="sRGB">
    <feFlood flood-opacity="0" result="BackgroundImageFix"/>
    <feColorMatrix in="SourceAlpha" type="matrix" values="0 0 0 0 0 0 0 0 0 0 0 0 0 0 0 0 0 0 127 0" result="hardAlpha"/>
    <feOffset dy="4"/>
    <feGaussianBlur stdDeviation="5"/>
    <feComposite in2="hardAlpha" operator="out"/>
    <feColorMatrix type="matrix" values="0 0 0 0 0 0 0 0 0 0 0 0 0 0 0 0 0 0 0.15 0"/>
    <feBlend mode="normal" in2="BackgroundImageFix" result="effect1_dropShadow_2945_1278"/>
    <feBlend mode="normal" in="SourceGraphic" in2="effect1_dropShadow_2945_1278" result="shape"/>
    </filter>
    </defs>
    </svg>
    