<svg width="80" height="80" viewBox="0 0 80 80" fill="none" xmlns="http://www.w3.org/2000/svg">
    <g filter="url(#filter0_d_2945_1254)">
    <circle cx="40" cy="36" r="30" fill="white"/>
    </g>
    <g clip-path="url(#clip0_2945_1254)">
    <path d="M51.8149 21H52.901C52.9874 21.0675 53.0925 21.0489 53.1894 21.0652C54.5078 21.2864 55.4082 21.9967 55.7912 23.2995C55.908 23.6768 55.908 24.0715 55.9921 24.451V25.0565C55.8858 25.3953 55.9139 25.7551 55.852 26.0974C55.5495 27.7961 54.9563 29.3982 54.2066 30.9444C52.6079 34.2441 50.4953 37.1957 48.0173 39.8899C47.8964 40.0032 47.8103 40.1483 47.769 40.3085C47.7277 40.4686 47.7328 40.6372 47.7837 40.7946C47.9227 41.2999 48.029 41.8134 48.1539 42.321C48.3606 43.1651 48.1633 43.8847 47.542 44.5029C45.2843 46.754 43.0266 49.005 40.7689 51.256C40.5143 51.5098 40.2445 51.7497 39.9818 51.9953H39.6793C39.4271 51.8277 39.3745 51.5599 39.329 51.2898C39.0643 49.6069 38.8 47.9241 38.5361 46.2413C38.4845 45.9265 38.4978 45.6046 38.575 45.2951C38.6523 44.9856 38.7921 44.6951 38.9857 44.4412C39.2858 44.0314 39.2916 43.9511 38.9413 43.5994L33.371 38.0352C33.0206 37.6859 32.9447 37.6859 32.5535 37.9758C32.0303 38.3577 31.4511 38.5509 30.7925 38.4415C29.0583 38.169 27.323 37.9036 25.5888 37.6265C25.3553 37.5892 25.089 37.5531 25.0049 37.2772C24.9209 37.0012 25.1112 36.8254 25.2747 36.6461C25.2946 36.624 25.3167 36.603 25.3378 36.5821L32.5161 29.411C32.7758 29.1332 33.1068 28.9315 33.4731 28.8277C33.8395 28.7238 34.2274 28.7218 34.5948 28.8219C35.0467 28.9278 35.508 29.007 35.9448 29.1561C36.6057 29.3808 37.0974 29.2073 37.61 28.7392C40.1733 26.4048 42.976 24.4033 46.0799 22.842C47.4145 22.1512 48.8254 21.6182 50.284 21.2538C50.799 21.1455 51.314 21.1106 51.8149 21ZM51.5872 28.7497C51.5897 28.3282 51.5085 27.9104 51.3482 27.5203C51.188 27.1302 50.9519 26.7756 50.6536 26.4769C50.3554 26.1782 50.0007 25.9413 49.6102 25.7798C49.2197 25.6184 48.8009 25.5356 48.3782 25.5362C47.9553 25.5351 47.5365 25.6171 47.1454 25.7774C46.7544 25.9377 46.3989 26.1733 46.0992 26.4706C45.7994 26.7679 45.5614 27.1212 45.3986 27.5103C45.2358 27.8993 45.1515 28.3165 45.1504 28.7381C45.1479 29.1619 45.2297 29.5821 45.3911 29.9743C45.5525 30.3665 45.7902 30.7228 46.0906 31.0229C46.391 31.3229 46.748 31.5605 47.141 31.7221C47.5341 31.8838 47.9553 31.9661 48.3805 31.9644C48.8033 31.9653 49.2222 31.8827 49.6128 31.7213C50.0034 31.5598 50.3581 31.3228 50.6563 31.0238C50.9545 30.7249 51.1903 30.37 51.3501 29.9797C51.5099 29.5893 51.5905 29.1713 51.5872 28.7497Z" fill="#14BC55"/>
    <path d="M28.0631 48.7452C28.096 48.3704 28.1744 48.0009 28.2967 47.645C29.1655 45.0835 30.3275 42.6896 32.1585 40.659C32.4949 40.2865 32.6432 40.2737 33.004 40.6311C34.1664 41.7791 35.3221 42.9341 36.4712 44.0961C36.8332 44.4617 36.7958 44.5956 36.4291 44.967C35.2938 46.1055 33.9092 46.966 32.3839 47.4808C31.0755 47.9515 29.7965 48.4997 28.5536 49.1225C28.1717 49.3169 28.0526 49.2319 28.0631 48.7452Z" fill="#14BC55"/>
    </g>
    <defs>
    <filter id="filter0_d_2945_1254" x="0" y="0" width="80" height="80" filterUnits="userSpaceOnUse" color-interpolation-filters="sRGB">
    <feFlood flood-opacity="0" result="BackgroundImageFix"/>
    <feColorMatrix in="SourceAlpha" type="matrix" values="0 0 0 0 0 0 0 0 0 0 0 0 0 0 0 0 0 0 127 0" result="hardAlpha"/>
    <feOffset dy="4"/>
    <feGaussianBlur stdDeviation="5"/>
    <feComposite in2="hardAlpha" operator="out"/>
    <feColorMatrix type="matrix" values="0 0 0 0 0 0 0 0 0 0 0 0 0 0 0 0 0 0 0.15 0"/>
    <feBlend mode="normal" in2="BackgroundImageFix" result="effect1_dropShadow_2945_1254"/>
    <feBlend mode="normal" in="SourceGraphic" in2="effect1_dropShadow_2945_1254" result="shape"/>
    </filter>
    <clipPath id="clip0_2945_1254">
    <rect width="31" height="31" fill="white" transform="translate(25 21)"/>
    </clipPath>
    </defs>
    </svg>
    