<svg width="197" height="35" viewBox="0 0 197 35" fill="none" xmlns="http://www.w3.org/2000/svg">
<path fill-rule="evenodd" clip-rule="evenodd" d="M170.609 3.27344V32.8194L194.053 18.0079L170.609 3.27344Z" fill="white"/>
<path d="M171.23 0.385388L195.856 16.2117C196.284 16.5003 196.587 16.9413 196.701 17.4449C196.816 17.9485 196.734 18.4768 196.473 18.9222C196.307 19.2035 196.073 19.4378 195.792 19.6031L171.05 34.7357C170.837 34.8645 170.599 34.9486 170.353 34.9827C170.106 35.0168 169.854 35.0003 169.614 34.9342C169.374 34.8681 169.149 34.7538 168.954 34.5982C168.76 34.4426 168.599 34.249 168.481 34.0292C168.304 33.7249 168.211 33.3792 168.211 33.0272V1.97829C168.206 1.72354 168.251 1.4703 168.344 1.233C168.437 0.995697 168.576 0.778993 168.752 0.595282C168.929 0.41157 169.14 0.264463 169.373 0.162323C169.607 0.060183 169.858 0.00503342 170.113 2.25098e-05C170.522 -0.00201045 170.92 0.133714 171.243 0.385388H171.23ZM191.18 17.8432L172.001 5.52381V29.5845L191.18 17.8432Z" fill="#F68E1D"/>
<path fill-rule="evenodd" clip-rule="evenodd" d="M155.609 3.27344V32.8194L179.053 18.0079L155.609 3.27344Z" fill="white"/>
<path d="M16.2931 16.6634H22.5105C22.405 19.5118 21.2417 22.2187 19.2476 24.2554C18.2595 25.1856 17.0968 25.9109 15.8268 26.3894C14.5568 26.8678 13.2046 27.09 11.8483 27.043C10.3183 27.1126 8.79327 26.8236 7.39482 26.1991C5.99637 25.5746 4.76325 24.6319 3.79385 23.4462C1.85409 21.0696 0.890625 17.7554 0.890625 13.529C0.890625 9.30265 1.87978 6.01405 3.87092 3.63753C4.86471 2.44706 6.12062 1.50284 7.54028 0.878811C8.95995 0.254784 10.5048 -0.0320898 12.0538 0.0406502C14.7409 -0.0961602 17.3745 0.826282 19.389 2.60986C21.3125 4.53064 22.4135 7.12422 22.4592 9.84216H16.2031C16.1383 8.70203 15.685 7.61853 14.9185 6.77197C14.556 6.40973 14.1221 6.12677 13.6445 5.94102C13.1668 5.75527 12.6558 5.67077 12.1438 5.69291C11.4343 5.66075 10.7301 5.82929 10.112 6.17922C9.49398 6.52914 8.98713 7.04624 8.64965 7.67117C7.75338 9.51052 7.35054 11.5513 7.48066 13.5932C7.36657 15.5352 7.78405 17.4716 8.68819 19.1941C9.03287 19.8024 9.53656 20.3055 10.1453 20.6495C10.754 20.9934 11.4448 21.1653 12.1438 21.1467C12.6662 21.1701 13.1877 21.0814 13.6729 20.8864C14.1582 20.6914 14.5961 20.3947 14.9571 20.0162C15.7479 19.0509 16.2271 17.8684 16.3316 16.6249L16.2931 16.6634Z" fill="#818285"/>
<path d="M156.506 0.385366L181.119 16.2117C181.553 16.4961 181.859 16.9373 181.974 17.4427C182.089 17.9481 182.004 18.4784 181.736 18.9222C181.574 19.206 181.339 19.4412 181.055 19.6031L156.326 34.7357C156.112 34.8609 155.875 34.942 155.629 34.9742C155.383 35.0064 155.133 34.9891 154.893 34.9233C154.654 34.8575 154.43 34.7445 154.235 34.5909C154.04 34.4374 153.877 34.2464 153.757 34.0292C153.59 33.7215 153.502 33.3773 153.5 33.0272V1.97826C153.495 1.72352 153.54 1.47028 153.633 1.23297C153.726 0.995674 153.865 0.778971 154.041 0.595259C154.218 0.411547 154.429 0.264441 154.662 0.162301C154.896 0.0601605 155.147 0.00501093 155.402 2.30597e-08C155.811 -6.45404e-05 156.208 0.135447 156.532 0.385366H156.506ZM176.456 17.8431L157.277 5.52379V29.5845L176.456 17.8431Z" fill="#888A8D"/>
<path d="M46.8539 26.2581V10.9071H44.1562V7.36153H46.8539V5.60163C46.7989 4.89976 46.8916 4.19414 47.1262 3.53033C47.3607 2.86653 47.7318 2.2593 48.2156 1.74781C49.4428 0.803934 50.9753 0.346472 52.519 0.463204C52.8787 0.463204 53.2513 0.463204 53.6495 0.463204C54.0477 0.463204 54.4845 0.463214 54.9341 0.553136V4.57396H53.6495C53.1343 4.51998 52.6149 4.62295 52.1593 4.86939C52.0254 5.02293 51.9253 5.20293 51.8656 5.39769C51.8058 5.59246 51.7878 5.79763 51.8125 5.99985V7.28446H54.9726V10.83H51.7611V26.181L46.8539 26.2581ZM68.0499 20.5159H73.0856C72.6521 22.3974 71.5582 24.0611 70.0025 25.2047C68.3469 26.367 66.3594 26.9618 64.3374 26.9004C63.1165 26.9546 61.8989 26.7347 60.774 26.2568C59.6492 25.7789 58.6458 25.055 57.8373 24.1385C56.1467 22.0303 55.2915 19.3734 55.4351 16.6749C55.2903 14.0258 56.1325 11.4171 57.7988 9.35269C58.6079 8.46348 59.6027 7.76316 60.7127 7.30139C61.8227 6.83963 63.0207 6.62771 64.2218 6.68069C65.4659 6.60372 66.7118 6.79954 67.8723 7.25443C69.0328 7.70931 70.0798 8.41229 70.9403 9.31415C72.6549 11.4343 73.5121 14.1204 73.3425 16.8419V17.6512C73.3558 17.8223 73.3558 17.994 73.3425 18.1651H60.7277C60.7061 19.3713 61.0856 20.5506 61.8067 21.5179C62.1643 21.9043 62.6035 22.2063 63.0923 22.4018C63.5812 22.5974 64.1074 22.6816 64.6328 22.6483C65.3814 22.6757 66.1232 22.498 66.7782 22.1345C67.3521 21.7396 67.7985 21.1861 68.0628 20.5416L68.0499 20.5159ZM60.6763 14.8123H68.1142C68.1387 13.7497 67.7782 12.714 67.0993 11.8962C66.7383 11.5521 66.3099 11.2866 65.8412 11.1164C65.3725 10.9462 64.8736 10.8749 64.3759 10.9071C63.9015 10.8856 63.4278 10.9637 62.9853 11.1362C62.5429 11.3088 62.1414 11.572 61.8067 11.909C61.1211 12.7242 60.7317 13.7475 60.702 14.8123H60.6763ZM88.9376 16.919C89.0364 15.3908 88.6595 13.8695 87.8585 12.5642C87.5048 12.0701 87.0321 11.6733 86.4841 11.4105C85.9362 11.1478 85.3308 11.0276 84.7241 11.0612C84.1299 11.0298 83.5375 11.1501 83.0027 11.4108C82.4678 11.6715 82.0081 12.064 81.6667 12.5513C80.88 13.8664 80.5125 15.3899 80.6133 16.919C80.5187 18.3816 80.9069 19.8348 81.7181 21.0554C82.0789 21.5363 82.5522 21.9213 83.0964 22.1766C83.6407 22.4319 84.2393 22.5498 84.8397 22.5199C85.4247 22.5412 86.0057 22.4147 86.5289 22.152C87.0521 21.8893 87.5005 21.4989 87.8328 21.0169C88.63 19.8043 89.0172 18.368 88.9376 16.919ZM75.6933 33.8373V7.36153H80.4977V9.93074C81.1108 8.93433 81.9517 8.0978 82.9513 7.49C83.9261 6.9685 85.019 6.70745 86.1243 6.73208C87.2192 6.70676 88.3043 6.94297 89.2895 7.42108C90.2748 7.89919 91.1318 8.6054 91.7894 9.48112C93.3206 11.5767 94.0869 14.134 93.9604 16.7263C94.0817 19.3538 93.3171 21.946 91.7894 24.0871C91.1524 24.9743 90.3105 25.6946 89.3354 26.1866C88.3602 26.6787 87.2807 26.9279 86.1885 26.9132C85.0659 26.933 83.9565 26.6678 82.9642 26.1425C82.0038 25.6144 81.1945 24.8493 80.6133 23.9201V33.8501L75.6933 33.8373ZM96.247 26.2581V7.36153H100.936V10.5859C101.466 9.46292 102.259 8.48455 103.248 7.73408C104.178 7.1119 105.277 6.79326 106.395 6.82202H106.858H107.128V11.9604H105.445C104.88 11.918 104.313 11.9919 103.778 12.1775C103.244 12.3631 102.753 12.6565 102.336 13.0395C101.584 13.9282 101.21 15.0768 101.295 16.2382V26.2324L96.247 26.2581ZM108.939 5.28047V0.668746H114V5.28047H108.939ZM108.939 26.2838V7.36153H114V26.2581L108.939 26.2838ZM116.338 20.1177H121.387C121.382 20.5332 121.474 20.9442 121.654 21.3186C121.835 21.693 122.099 22.0205 122.427 22.2758C123.312 22.7942 124.333 23.0358 125.356 22.9695C126.149 23.0169 126.939 22.8482 127.643 22.4814C127.893 22.3447 128.101 22.1417 128.244 21.8948C128.387 21.6478 128.459 21.3663 128.452 21.0811C128.452 20.2204 127.437 19.5781 125.42 19.1542C124.564 18.9744 123.909 18.8202 123.455 18.6918C121.597 18.3473 119.84 17.5876 118.317 16.4694C117.835 16.0335 117.457 15.4964 117.208 14.8966C116.959 14.2969 116.846 13.6495 116.878 13.001C116.841 12.1238 117.011 11.2503 117.375 10.4513C117.739 9.65231 118.286 8.95024 118.972 8.40206C120.61 7.19546 122.618 6.59601 124.65 6.70637C126.764 6.58809 128.858 7.18048 130.597 8.38924C131.316 8.95619 131.897 9.67812 132.297 10.5011C132.698 11.3242 132.907 12.227 132.91 13.1423H127.99C127.99 12.7815 127.906 12.4256 127.746 12.1024C127.585 11.7793 127.352 11.4977 127.065 11.2796C126.367 10.7924 125.524 10.5568 124.675 10.6116C123.938 10.559 123.2 10.7101 122.543 11.0483C122.32 11.1784 122.136 11.3667 122.012 11.5929C121.887 11.8192 121.827 12.0749 121.836 12.3329C121.836 13.078 123.121 13.746 125.6 14.3241L126.975 14.6453C128.83 14.9464 130.59 15.6766 132.113 16.7777C132.586 17.2284 132.956 17.7767 133.195 18.3846C133.435 18.9924 133.539 19.6452 133.501 20.2975C133.556 21.2383 133.379 22.1784 132.985 23.0344C132.59 23.8903 131.991 24.6358 131.24 25.2047C129.276 26.4601 126.962 27.0543 124.637 26.9004C122.454 27.0261 120.293 26.4055 118.509 25.1405C117.785 24.5644 117.208 23.8254 116.824 22.9838C116.44 22.1422 116.26 21.2218 116.3 20.2975V20.092L116.338 20.1177Z" fill="#818285"/>
<path fill-rule="evenodd" clip-rule="evenodd" d="M141.133 3.27344V32.8194L164.577 18.0079L141.133 3.27344Z" fill="white"/>
<path d="M142.28 0.385366L166.893 16.2117C167.323 16.4982 167.628 16.9393 167.742 17.4437C167.857 17.9482 167.774 18.4776 167.509 18.9222C167.347 19.206 167.112 19.4412 166.828 19.6031L142.1 34.7357C141.885 34.8609 141.648 34.942 141.402 34.9742C141.156 35.0064 140.906 34.9891 140.666 34.9233C140.427 34.8575 140.203 34.7445 140.008 34.5909C139.813 34.4374 139.651 34.2464 139.531 34.0292C139.358 33.7239 139.269 33.3781 139.274 33.0272V1.97826C139.267 1.46475 139.462 0.969187 139.818 0.598905C140.174 0.228623 140.661 0.0134679 141.175 1.3801e-09C141.588 -1.57821e-05 141.989 0.135341 142.318 0.385366H142.28ZM162.242 17.8431L143.05 5.52379V29.5845L162.242 17.8431Z" fill="#F68E1D"/>
<path d="M24.024 16.6576C24.0098 15.3121 24.2748 13.9774 24.8035 12.7313C25.3322 11.4852 26.114 10.3527 27.1033 9.39995C28.0926 8.44716 29.2696 7.69311 30.5656 7.18185C31.8616 6.67059 33.2506 6.41233 34.6516 6.42214C36.0523 6.41859 37.4399 6.68022 38.7351 7.19204C40.0304 7.70385 41.2079 8.45583 42.2004 9.40499C43.1928 10.3542 43.9807 11.4819 44.519 12.7237C45.0574 13.9655 45.3355 15.297 45.3376 16.6421C45.3366 17.9958 45.0565 19.3359 44.5135 20.5851C43.9705 21.8343 43.1754 22.968 42.1739 23.9206C41.1725 24.8732 39.9845 25.626 38.6786 26.1355C37.3727 26.6449 35.9747 26.9011 34.5652 26.8891C33.173 26.8836 31.7957 26.6143 30.512 26.0968C29.2284 25.5794 28.0637 24.8238 27.0845 23.8734C26.1053 22.923 25.331 21.7964 24.8058 20.5582C24.2807 19.32 24.015 17.9945 24.024 16.6576ZM39.5402 24.6084C39.2835 24.6647 39.0304 24.735 38.7821 24.8188C31.7439 27.6037 24.6232 22.4898 25.4658 15.2381C25.5623 14.3961 25.8519 13.5734 26.059 12.7102C25.7373 12.8106 25.7111 13.0501 25.6227 13.247C24.7839 15.1394 24.627 17.2466 25.1767 19.2343C25.7263 21.2221 26.9512 22.9768 28.6571 24.2202C31.8364 26.5376 36.6756 26.5081 39.5573 24.4089L39.5402 24.6084ZM34.6476 10.2479C33.7589 10.24 32.8774 10.4011 32.0539 10.722C31.2304 11.0429 30.4812 11.5172 29.8495 12.1176C29.2178 12.718 28.7162 13.4325 28.3735 14.22C28.0307 15.0075 27.8538 15.8523 27.8527 16.7058C27.85 18.4299 28.557 20.0852 29.8196 21.3108C31.0823 22.5364 32.7982 23.233 34.5933 23.2488C35.4911 23.2583 36.3817 23.0957 37.2132 22.7703C38.0446 22.445 38.8 21.9635 39.4351 21.3541C40.0702 20.7447 40.5723 20.0196 40.9118 19.2214C41.2513 18.4233 41.4215 17.568 41.4123 16.7058C41.4063 13.0636 38.4623 10.2517 34.6476 10.2479Z" fill="#818285"/>
<path d="M18.5578 30.7273C20.7114 28.5315 22.8832 26.3473 25.0047 24.1225C25.421 23.688 25.6201 23.6146 26.0444 24.1225C26.7795 25.0055 27.7005 25.7294 28.747 26.2468C29.2276 26.4786 29.3925 26.6717 28.924 27.1429C26.7804 29.3059 24.7011 31.5171 22.5554 33.6859C21.3087 34.9527 19.4164 35.028 18.1455 33.9195C16.8364 32.7763 16.6957 31.0227 17.9223 29.6979C20.0418 27.4268 22.2216 25.2078 24.3814 22.9715C24.5282 22.8209 24.6971 22.5447 24.9484 22.7668C25.2682 23.0546 25.0892 23.3327 24.8358 23.5953C23.2854 25.1924 21.733 26.7857 20.2107 28.4001C19.5632 29.0838 18.8031 29.6786 18.3506 30.5245C18.2501 30.6481 18.229 30.7273 18.3621 30.8322C18.4082 30.8685 18.4773 30.8315 18.5578 30.7273Z" fill="#818285"/>
<path d="M34.6921 12.7943C35.237 12.7893 35.7773 12.8903 36.2806 13.0911C36.7838 13.2919 37.2395 13.5884 37.6203 13.9628C38.0011 14.3372 38.2992 14.7816 38.4964 15.2695C38.6937 15.7574 38.7861 16.2785 38.7682 16.8016C38.7483 17.8398 38.3072 18.8295 37.5387 19.56C36.7702 20.2904 35.7351 20.7039 34.6539 20.7123C33.5543 20.7056 32.5022 20.2808 31.7281 19.5308C30.9539 18.7809 30.5208 17.7668 30.5235 16.7108C30.5211 16.1885 30.628 15.671 30.8378 15.1891C31.0476 14.7072 31.3561 14.2707 31.7449 13.9055C32.1336 13.5402 32.5948 13.2536 33.1011 13.0628C33.6074 12.8719 34.1484 12.7806 34.6921 12.7943Z" fill="#F69021"/>
</svg>
