<svg width="116" height="57" viewBox="0 0 116 57" fill="none" xmlns="http://www.w3.org/2000/svg">
<path d="M59.5042 0C51.3193 8.69609 43.0465 17.237 37.8901 28.0947L38.3493 28.5155C39.6292 27.7715 40.8914 27.0195 42.1713 26.2883C42.5737 26.0545 42.9955 25.8559 43.432 25.6947C43.8528 25.5347 44.2848 25.6051 44.5279 26.0275C44.8191 26.5331 44.408 26.8275 44.0672 27.0227C40.2803 29.2467 37.0006 32.1283 33.7081 34.994C33.2553 35.386 32.7242 35.658 32.1386 35.3572C31.6235 35.0932 31.5515 34.5572 31.5179 34.018C31.3307 31.0051 32.441 28.3379 33.7113 25.7155C34.068 24.9811 34.4952 24.2755 34.6712 23.3154C33.9432 23.901 33.2121 24.4787 32.4906 25.0755C28.9229 28.0131 25.5184 31.1555 21.7603 33.8596C21.1719 34.2864 20.5533 34.6698 19.9093 35.0068C19.119 35.4196 18.247 35.8068 17.4263 35.1668C16.6056 34.5268 16.4664 33.5668 16.5928 32.6196C16.8707 30.6133 17.5708 28.6889 18.647 26.9731C18.8666 26.6417 18.9783 26.2505 18.967 25.8531C16.8903 27.2547 14.8143 28.6558 12.7387 30.0563C10.4989 31.5651 8.2703 33.0964 6.00489 34.562C5.34959 34.981 4.64304 35.3139 3.90267 35.5524C2.33801 36.0628 1.14452 35.3924 0.669362 33.8068C-0.104971 31.2195 0.470983 28.7235 1.53329 26.4035C4.63702 19.637 9.89416 15.5586 17.3063 14.5266C19.5637 14.2066 20.0917 15.2034 19.0038 17.293C17.6535 19.8818 15.5769 21.8354 13.2827 23.5763C11.2194 25.1575 8.98927 26.5079 6.63205 27.6035C5.31056 28.2099 5.56173 28.9907 5.98249 29.9619C6.49605 31.1491 7.29758 31.1171 8.2447 30.5395C11.0813 28.8083 13.9274 27.0947 16.748 25.3379C20.0933 23.2579 23.3858 21.085 26.7551 19.0418C30.3676 16.853 34.2488 15.4546 38.5508 15.7778C39.8643 15.877 40.6467 15.3458 41.4146 14.3889C44.5279 10.4914 47.8386 6.75582 51.3337 3.19683C53.5895 0.902406 55.9189 0 59.5042 0ZM37.9333 18.109C35.8663 17.7522 34.0504 17.8002 32.2986 18.3474C27.9374 19.7106 24.9824 22.5474 23.645 26.9571C23.413 27.7251 23.1122 28.7507 23.8465 29.2675C24.5217 29.7475 25.1728 28.9011 25.7024 28.4803C28.7117 26.0931 31.6859 23.661 34.6616 21.2306C35.7703 20.3202 36.9398 19.4722 37.9333 18.1138V18.109ZM5.59214 26.3027C8.12312 24.9554 10.1581 23.6595 11.814 21.8546C12.8267 20.7522 13.7338 19.5682 14.185 18.069C14.4938 17.0338 14.0442 16.9314 13.2938 17.1714C11.9037 17.6207 10.6313 18.3745 9.56939 19.3778C7.65915 21.1682 6.30087 23.2946 5.59214 26.3075V26.3027Z" fill="#003075"/>
<path d="M54.0663 39.3224C56.7861 40.5688 58.3587 42.4072 59.8674 44.452C61.6737 46.8985 64.531 47.6376 67.4332 47.9145C68.9738 48.0617 70.5401 47.94 72.1192 48.0664C70.5561 48.9609 68.8106 49.2201 67.0892 49.5225C64.2606 50.0185 61.4257 50.1929 58.6099 49.3625C55.8758 48.5625 53.7399 47.0777 52.0761 44.6584C49.4875 40.8936 45.5167 40.028 41.213 40.1784C40.6995 40.1976 40.1891 40.26 39.25 40.3384C42.1985 38.8984 45.0479 38.7592 48.0716 38.1911C46.4814 36.8311 45.3519 35.5031 44.8335 33.7591C44.2505 31.8574 44.2768 29.821 44.9087 27.9351C47.3581 20.535 52.3161 15.7429 60.0226 14.2293C67.0988 12.8389 71.876 18.0581 69.9625 25.0214C68.1035 31.7911 63.5407 36.1223 57.0229 38.4936C56.5861 38.6536 56.1237 38.7447 55.6726 38.8679L54.0663 39.3224ZM50.5338 29.2007C50.5338 33.9895 52.852 35.8439 56.1701 34.6567C60.6065 33.0695 64.4894 27.0503 64.115 22.3366C63.8271 18.727 61.2641 17.1237 58.0132 18.7606C53.3944 21.0902 51.0858 25.0806 50.5338 29.2007Z" fill="#FFB308"/>
<path d="M83.5919 15.5687C81.7745 18.396 79.8434 20.9416 78.5316 23.8888C81.1425 21.7592 83.6415 19.516 86.5021 17.7447C88.2235 16.6791 89.9402 15.6231 91.916 15.0551C92.5114 14.8794 93.1303 14.7963 93.751 14.8087C95.5797 14.8487 96.218 15.7895 95.3765 17.4343C94.3638 19.4136 93.1975 21.316 92.1048 23.2568C91.985 23.5289 91.8814 23.8078 91.7944 24.092C93.8278 22.4584 95.6341 20.9576 97.4915 19.532C99.5405 17.9379 101.741 16.5483 104.061 15.3831C104.33 15.2301 104.608 15.0913 104.892 14.9671C106.212 14.4871 107.684 13.8135 108.826 14.9943C109.993 16.1991 108.887 17.4375 108.276 18.5144C106.617 21.452 105.024 24.4168 103.878 27.5993C103.71 28.0633 103.579 28.5401 103.333 29.3257C106.788 26.9753 110.052 24.9592 113.365 23.0456C113.854 22.7565 114.37 22.5154 114.906 22.3256C115.234 22.2136 115.656 22.1928 115.829 22.6456C115.902 22.8134 115.914 23.0016 115.862 23.1771C115.81 23.3526 115.698 23.5043 115.546 23.6056C115.294 23.7896 115.032 23.9574 114.759 24.108C109.249 27.2024 104.278 31.0313 99.5873 35.2425C99.3593 35.4554 99.1171 35.6526 98.8626 35.8329C97.5747 36.7145 96.5412 36.2266 96.4084 34.6585C96.2484 32.8473 96.8883 31.1881 97.5011 29.5385C98.6722 26.4313 100.309 23.5432 101.781 20.5784C101.974 20.1896 102.473 19.7176 102.113 19.348C101.722 18.9464 101.154 19.2744 100.674 19.4872C98.1138 20.6216 96.034 22.428 94.0614 24.3608C90.948 27.4225 88.1998 30.8346 85.8717 34.5289C85.3438 35.3641 84.8494 36.6938 83.5871 36.1754C82.2768 35.6394 82.5648 34.2361 82.8064 33.1353C83.7919 28.6905 85.7309 24.6376 88.0203 20.7336C88.2619 20.3192 88.8954 19.8488 88.4571 19.3815C87.9915 18.8839 87.3708 19.3512 86.9004 19.6296C80.8289 23.2248 76.0662 28.1305 72.4345 34.1577C72.1246 34.6968 71.7832 35.2172 71.4122 35.7161C71.0922 36.1433 70.6315 36.4505 70.0571 36.2217C69.5323 36.0137 69.2972 35.5945 69.2572 35.0073C69.1244 33.3705 69.4348 31.7929 69.9723 30.2793C71.5191 25.9266 73.705 21.8283 76.4581 18.1192C78.306 15.6215 79.7874 15.1319 83.5919 15.5687Z" fill="#003075"/>
<path d="M22.6763 38.8008L23.5834 40.6376L25.6105 40.9336L24.1434 42.3624L24.4906 44.3832L22.6763 43.4296L20.8637 44.3832L21.2093 42.3624L19.7422 40.9336L21.7692 40.6376L22.6763 38.8008Z" fill="#FFB308"/>
<path d="M35.4425 41.1406L36.5432 43.3695L39.0022 43.7279L37.2215 45.4623L37.6423 47.9119L35.4425 46.7551L33.2427 47.9119L33.6635 45.4623L31.8828 43.7279L34.3434 43.3695L35.4425 41.1406Z" fill="#FFB308"/>
<path d="M46.1593 48.4805L47.5432 51.2853L50.6389 51.7349L48.3991 53.9173L48.9271 57.0006L46.1593 55.5445L43.3899 57.0006L43.9195 53.9173L41.6797 51.7349L44.7754 51.2853L46.1593 48.4805Z" fill="#FFB308"/>
</svg>
