<svg width="108" height="44" viewBox="0 0 108 44" fill="none" xmlns="http://www.w3.org/2000/svg">
<path d="M65.418 16.997C65.5346 16.8217 65.6146 16.7076 65.6886 16.5893C69.0682 11.1934 72.4439 5.7956 75.8155 0.395766C75.9976 0.104696 76.1874 0.00255906 76.5235 0.00596339C78.0681 0.022985 79.6127 0.012782 81.1572 0.0161864C81.2917 0.0161864 81.4372 -0.0289169 81.5632 0.063C81.5819 0.194918 81.4917 0.278314 81.4372 0.371933C75.7355 10.2275 70.0653 20.1051 64.207 29.8713C62.3714 32.9352 60.2873 35.7974 57.5982 38.1821C54.6197 40.8205 51.225 42.6162 47.279 43.309C46.0216 43.5236 44.7479 43.6273 43.4724 43.6188C38.3279 43.6154 33.1836 43.618 28.0396 43.6265C27.6566 43.6265 27.5511 43.5354 27.5519 43.1431C27.5639 34.8025 27.5639 26.4641 27.5519 18.1281C27.5519 17.7408 27.649 17.6302 28.0404 17.637C29.4293 17.6614 30.8192 17.6614 32.2103 17.637C32.589 17.631 32.6767 17.7374 32.6758 18.1085C32.6639 24.6771 32.6758 31.2458 32.6562 37.8144C32.6562 38.2561 32.766 38.3685 33.2077 38.3659C36.6117 38.3464 40.0157 38.3047 43.4112 38.3659C46.622 38.4272 49.5775 37.6 52.333 36.028C56.5472 33.6271 59.3529 30.1224 60.3282 25.3231C61.2498 20.7843 60.7537 16.4353 58.0969 12.5135C55.9302 9.3151 52.8666 7.2742 49.2703 5.98056C47.5883 5.37847 45.8137 5.07629 44.0273 5.08777C31.1874 5.1099 18.3478 5.11445 5.50852 5.1014C4.84644 5.1014 4.9443 5.03501 4.9443 5.6631C4.9443 18.1349 4.9443 30.6069 4.9443 43.0792C4.9443 43.6861 5.0294 43.6112 4.39625 43.6129C3.06444 43.6129 1.73263 43.6026 0.396558 43.6222C0.0697745 43.6273 0.00254593 43.5261 0.00339693 43.2171C0.0136089 39.423 0.0158849 35.6289 0.0102116 31.8347C0.0102116 21.4016 0.00680799 10.9682 0 0.534482C0 0.108941 0.0953086 0 0.528467 0C14.7997 0.0130499 29.0707 0.0158952 43.3414 0.00851913C47.1462 0.00851913 50.814 0.640031 54.2401 2.35837C59.0457 4.76863 62.2591 8.62574 64.2964 13.5297C64.5236 14.0769 64.7219 14.6361 64.9015 15.2037C65.081 15.7714 65.2299 16.3416 65.418 16.997Z" fill="black"/>
<path d="M26.1047 6.9845C32.2412 6.9845 38.3812 6.83641 44.5118 7.02706C50.5845 7.21514 55.2174 10.0697 57.6674 15.7081C61.5139 24.567 56.4896 33.8362 47.6656 35.9945C46.6994 36.2215 45.7093 36.3304 44.7169 36.3188C41.5001 36.3148 38.2833 36.3171 35.0665 36.3256C34.7176 36.3256 34.6181 36.2405 34.6189 35.8822C34.6303 29.9507 34.6303 24.0195 34.6189 18.0886C34.6189 17.7328 34.7185 17.6392 35.07 17.6435C36.545 17.6627 38.0201 17.6627 39.4952 17.6435C39.8424 17.6392 39.9113 17.7575 39.9104 18.0784C39.9011 22.2963 39.9104 26.5151 39.896 30.7331C39.896 31.1093 39.9743 31.2438 40.3776 31.231C41.638 31.2029 42.9017 31.174 44.1603 31.231C46.7754 31.3493 48.9089 30.3025 50.7266 28.5467C55.9177 23.5312 54.1911 15.3677 47.4077 12.7651C46.2166 12.3053 44.9503 12.0712 43.6735 12.0748C33.1728 12.0799 22.672 12.0782 12.1713 12.0697C11.8036 12.0697 11.7339 12.1821 11.7373 12.5225C11.756 14.0791 11.7594 15.6366 11.7373 17.1941C11.7322 17.5728 11.8385 17.6613 12.2079 17.6596C16.5301 17.6469 20.8523 17.6596 25.1745 17.6409C25.6094 17.6409 25.7132 17.7524 25.7056 18.1779C25.6766 19.6358 25.6885 21.0938 25.6996 22.5525C25.6996 22.8249 25.6298 22.9151 25.3464 22.9151C19.2244 22.9071 13.1025 22.9071 6.98102 22.9151C6.72572 22.9151 6.64062 22.8512 6.64062 22.5848C6.648 17.4886 6.648 12.3926 6.64062 7.29686C6.64062 6.92834 6.83976 6.96919 7.06612 6.96919H26.1115L26.1047 6.9845Z" fill="black"/>
<path d="M101.747 36.1017H101.202C92.7142 36.1017 84.2261 36.1048 75.7377 36.1111C75.319 36.1111 75.1896 36.026 75.1998 35.5843C75.233 34.2115 75.2262 32.8378 75.1998 31.465C75.1939 31.0922 75.29 30.9952 75.6679 30.9961C81.0382 31.0091 86.4089 31.012 91.7798 31.0046H92.3858C89.0864 25.6428 85.8271 20.3405 82.5635 15.0357C82.3857 15.1421 82.344 15.3013 82.2691 15.4315C77.0241 24.6039 71.7842 33.7785 66.5494 42.9555C66.3537 43.2959 66.1418 43.41 65.7571 43.4065C63.7309 43.387 61.7038 43.3972 59.6776 43.3972H59.1406L82.5261 4.87891L101.747 36.1017Z" fill="black"/>
<path d="M104.402 38.315C104.435 38.1533 104.309 38.0597 104.241 37.9414C96.8312 25.4946 89.4199 13.0487 82.0071 0.60357C81.9075 0.433354 81.8148 0.263148 81.7109 0.0827186C81.8607 -0.0236667 82.0045 0.0154789 82.1364 0.0146278C83.7091 0.0146278 85.2851 0.0188766 86.8552 0.0078125C87.1378 0.0078125 87.3105 0.0784598 87.4688 0.334636C94.1344 11.1337 100.808 21.928 107.49 32.7175C107.655 32.9813 107.66 33.1694 107.49 33.4358C106.554 34.9388 105.649 36.4554 104.727 37.9644C104.642 38.1006 104.609 38.298 104.387 38.3048L104.402 38.315Z" fill="black"/>
<path d="M16.1327 25.1209C19.1648 25.1209 22.1977 25.1269 25.2298 25.1133C25.5907 25.1133 25.7149 25.1839 25.7073 25.5737C25.6809 26.9746 25.6843 28.3763 25.7073 29.7772C25.7132 30.1364 25.6068 30.2198 25.2579 30.2181C20.9178 30.2062 16.5863 30.2181 12.2504 30.2002C11.8351 30.2002 11.7398 30.3091 11.7398 30.7151C11.756 34.8624 11.7449 39.0098 11.7585 43.1571C11.7585 43.5256 11.6794 43.6337 11.2964 43.6269C9.86591 43.6022 8.43453 43.6107 7.00315 43.6269C6.73594 43.6269 6.64062 43.5664 6.64062 43.2788C6.64913 37.3473 6.64913 31.4164 6.64062 25.4861C6.64062 25.115 6.81678 25.1218 7.07974 25.1227C10.0974 25.1244 13.115 25.1238 16.1327 25.1209Z" fill="black"/>
<path d="M104.4 38.3047C104.495 38.4655 104.367 38.5728 104.298 38.6868C103.362 40.2358 102.415 41.7805 101.484 43.3338C101.439 43.4269 101.366 43.504 101.276 43.5551C101.186 43.6062 101.083 43.6287 100.98 43.6197C92.2227 43.614 83.4647 43.614 74.7063 43.6197C74.4042 43.6197 74.3301 43.5346 74.3327 43.2384C74.3472 41.7669 74.3557 40.2937 74.3284 38.8222C74.3208 38.4153 74.4544 38.343 74.8271 38.343C84.52 38.3532 94.2131 38.3552 103.907 38.3489C104.077 38.3489 104.247 38.3864 104.409 38.3124L104.4 38.3047Z" fill="black"/>
</svg>
