<svg width="90" height="89" viewBox="0 0 90 89" fill="none" xmlns="http://www.w3.org/2000/svg">
<g clip-path="url(#clip0_3112_4059)">
<path d="M45.0899 5.25081e-05C20.1716 -0.0371919 0 19.7436 0 44.1571C0.0251482 68.5477 20.093 88.268 44.9042 88.3178C69.8165 88.3681 89.947 68.624 90 44.2608C90.0535 19.8029 69.9235 0.0372969 45.0899 5.25081e-05ZM44.9033 87.7533C20.4263 87.703 0.524455 68.1681 0.581153 44.0494C0.637393 20.0313 20.5461 0.515641 45.126 0.560065C69.5582 0.60404 89.4216 20.1264 89.4216 44.1558C89.4385 68.2372 69.49 87.8036 44.9033 87.7533Z" fill="#0D7D40"/>
<path d="M34.1592 77.9309C34.033 78.3712 33.9059 78.8109 33.781 79.2511C33.3562 80.7499 32.9274 82.2473 32.5131 83.7487C32.4623 83.9331 32.4015 83.9475 32.2356 83.8959C31.8958 83.7904 31.5506 83.7011 31.2045 83.6186C31.0358 83.5782 30.9823 83.5221 31.0353 83.3381C31.4903 81.7626 31.9342 80.1845 32.3805 78.6067C32.7129 77.4306 33.0472 76.255 33.3723 75.0766C33.4225 74.8949 33.4829 74.8477 33.6809 74.907C34.3192 75.0977 34.9639 75.2682 35.6091 75.4351C35.7449 75.4706 35.7892 75.5114 35.7764 75.659C35.6671 76.9245 35.5693 78.1903 35.4678 79.4562C35.4047 80.2455 35.3411 81.0348 35.2785 81.8241C35.2757 81.8596 35.2785 81.895 35.2785 81.9498C35.3695 81.8825 35.3873 81.7923 35.4243 81.7169C36.3077 79.9197 37.192 78.123 38.0667 76.3218C38.1417 76.1674 38.2108 76.1369 38.3694 76.1818C39.0178 76.3658 39.668 76.543 40.32 76.7136C40.4682 76.7521 40.4983 76.8069 40.4563 76.9532C39.6657 79.7268 38.8788 82.5017 38.0992 85.2784C38.053 85.4436 38.0027 85.4718 37.839 85.422C37.4408 85.3009 37.037 85.1968 36.6328 85.0962C36.4778 85.0577 36.46 84.9944 36.5021 84.8472C37.0549 82.9123 37.5994 80.9751 38.1458 79.0384C38.1577 78.9967 38.1646 78.9536 38.1413 78.8971C38.1047 78.9684 38.0672 79.0393 38.032 79.1116C37.15 80.9177 36.2666 82.7229 35.3905 84.5317C35.3174 84.6825 35.2543 84.7238 35.0842 84.6713C34.6795 84.5461 34.2671 84.4447 33.8565 84.337C33.749 84.3087 33.7006 84.2742 33.7115 84.1413C33.8482 82.4887 33.9744 80.8351 34.1043 79.1816C34.1368 78.7674 34.1733 78.3532 34.2076 77.939C34.1912 77.9359 34.1747 77.9332 34.1582 77.9301L34.1592 77.9309Z" fill="#0D7D40"/>
<path d="M65.744 75.5858C65.3398 74.9279 64.8771 74.3082 64.4432 73.6697C63.916 72.8934 63.3851 72.1198 62.8446 71.3525C62.7482 71.2156 62.7738 71.1627 62.9023 71.081C63.279 70.8423 63.6476 70.591 64.0294 70.3379C64.5995 71.1653 65.1661 71.987 65.7321 72.8081C66.8396 74.4155 67.9442 76.0246 69.0576 77.6279C69.1596 77.7747 69.1756 77.8438 69.0041 77.9479C68.6164 78.1834 68.2392 78.4365 67.8688 78.6981C67.738 78.7906 67.6608 78.7825 67.5364 78.6865C65.8341 77.3668 64.1267 76.0533 62.4203 74.739C62.3732 74.7027 62.3193 74.6753 62.269 74.6434C62.2635 74.621 62.2516 74.6031 62.2274 74.6179C62.2223 74.621 62.2342 74.6515 62.2388 74.669C63.413 76.376 64.5849 78.0847 65.765 79.7877C65.8771 79.9492 65.8876 80.0313 65.7015 80.1404C65.3823 80.3279 65.0737 80.5352 64.7751 80.7533C64.632 80.8579 64.5744 80.8309 64.4816 80.6954C62.8927 78.3809 61.2983 76.0695 59.7052 73.7576C59.5312 73.5052 59.5763 73.2916 59.8406 73.1169C60.2626 72.8369 60.6874 72.5604 61.1035 72.2724C61.2242 72.1889 61.2969 72.1992 61.4121 72.289C62.8442 73.4018 64.2818 74.5079 65.7179 75.6154C65.7358 75.6208 65.7673 75.6338 65.7701 75.6297C65.7847 75.606 65.7692 75.592 65.7445 75.5858H65.744Z" fill="#0D7D40"/>
<path d="M24.8651 80.1837C24.0749 80.1379 23.3383 79.7121 22.6986 79.1104C21.8061 78.2699 21.6978 77.3042 22.3777 76.287C23.2652 74.9587 24.1668 73.639 25.0635 72.3162C25.1732 72.1542 25.3003 72.0048 25.4444 71.8706C26.0498 71.3056 26.7621 71.1845 27.5372 71.4272C28.277 71.6588 28.9034 72.0774 29.399 72.6671C30.0241 73.4111 30.0607 74.2825 29.4914 75.1553C28.9715 75.9531 28.4279 76.7361 27.8943 77.525C27.5157 78.0841 27.1421 78.6464 26.7553 79.2001C26.3319 79.8063 25.7722 80.1891 24.8655 80.1837H24.8651ZM27.2743 72.7828C26.9208 72.7914 26.7178 72.9762 26.5555 73.2136C26.144 73.814 25.737 74.4171 25.3292 75.0198C24.8202 75.7714 24.3109 76.523 23.8038 77.276C23.641 77.5178 23.5025 77.7781 23.6369 78.0711C23.8093 78.4476 24.1385 78.6531 24.5409 78.7096C24.8724 78.7563 25.0982 78.5485 25.2711 78.2964C25.8253 77.4846 26.3749 76.6697 26.9258 75.8562C27.3003 75.3033 27.6775 74.7523 28.0479 74.1968C28.2057 73.9603 28.3154 73.7081 28.1951 73.4178C28.0653 73.1041 27.5824 72.7851 27.2743 72.7837V72.7828Z" fill="#0D7D40"/>
<path d="M72.1315 24.4973C71.4296 24.4995 70.9578 24.2276 70.5458 23.8426C70.0094 23.3418 69.5751 22.7513 69.0858 22.2092C68.9144 22.0189 68.7539 21.8192 68.5819 21.6299C68.4932 21.5321 68.4685 21.4751 68.5957 21.3701C70.4813 19.8098 72.3606 18.2429 74.2412 16.6773C74.4968 16.4646 74.7556 16.2559 75.0057 16.0378C75.0962 15.9589 75.1493 15.9405 75.2384 16.0459C75.8228 16.7347 76.42 17.4132 77.0006 18.1051C77.2883 18.4475 77.499 18.837 77.58 19.2803C77.7043 19.9611 77.446 20.5161 76.9467 20.9653C76.4757 21.3889 75.9805 21.7874 75.4936 22.1939C74.8155 22.7602 74.1351 23.3243 73.4552 23.8888C73.0409 24.233 72.5919 24.4995 72.132 24.4977L72.1315 24.4973ZM71.7264 22.9698C71.9198 22.972 72.0853 22.8818 72.2339 22.7607C72.5618 22.4937 72.8869 22.2231 73.212 21.9525C74.0652 21.2426 74.9229 20.5372 75.7693 19.8193C76.2105 19.445 76.2279 19.1237 75.8621 18.6777C75.7048 18.4856 75.5283 18.3079 75.3797 18.1101C75.2782 17.975 75.2179 17.9979 75.1017 18.0957C74.1479 18.8976 73.1877 19.6914 72.2298 20.4883C71.6957 20.9326 71.1608 21.3763 70.6304 21.8242C70.5824 21.8646 70.4516 21.891 70.5549 22.005C70.7872 22.2617 71.0117 22.5255 71.2495 22.7773C71.3716 22.907 71.5325 22.9765 71.7273 22.9698H71.7264Z" fill="#0D7D40"/>
<path d="M34.483 9.20967C35.3641 9.22717 35.8067 9.72346 36.0678 10.4271C36.2598 10.9444 36.4317 11.469 36.6155 11.9891C36.7129 12.2655 36.835 12.5294 37.049 12.743C37.0037 12.821 36.9201 12.817 36.8542 12.8394C36.5104 12.9565 36.1652 13.0683 35.8199 13.1818C35.4144 13.3151 35.3956 13.3137 35.2132 12.922C34.9603 12.379 34.8072 11.8006 34.6014 11.2406C34.5731 11.1634 34.5474 11.0858 34.5182 11.0091C34.2594 10.3261 33.889 10.1448 33.1881 10.3705C33.0038 10.4298 32.7313 10.4316 32.6654 10.5828C32.6092 10.7116 32.7537 10.9261 32.8136 11.1015C33.1071 11.9626 33.3966 12.8251 33.7011 13.6821C33.7569 13.8383 33.7203 13.8881 33.5758 13.9334C33.1716 14.06 32.7688 14.1928 32.3696 14.3337C32.2247 14.3848 32.1735 14.3566 32.1227 14.208C31.3984 12.0842 30.6659 9.96263 29.9353 7.84105C29.7702 7.36181 29.6024 6.88301 29.4401 6.40287C29.4181 6.33736 29.3532 6.26063 29.4963 6.21575C30.4643 5.91331 31.4094 5.54132 32.3961 5.29631C32.6997 5.22092 33.0148 5.20432 33.3262 5.24964C33.8593 5.32682 34.2589 5.60728 34.5063 6.07261C34.7706 6.5698 34.9457 7.10154 35.0596 7.65034C35.1766 8.21529 35.0106 8.69677 34.5881 9.09524C34.5621 9.11992 34.5388 9.14774 34.4821 9.20922L34.483 9.20967ZM33.5484 8.31087C33.4309 7.87336 33.3047 7.3286 33.0097 6.84577C32.8497 6.58371 32.5749 6.52897 32.2868 6.6039C32.0166 6.67435 31.7542 6.77263 31.4862 6.8534C31.3939 6.88122 31.3701 6.92519 31.4012 7.01404C31.6623 7.76611 31.9211 8.51907 32.1794 9.27204C32.205 9.34653 32.2411 9.39095 32.3271 9.3573C32.622 9.24287 32.9402 9.18589 33.2109 9.01178C33.4295 8.87133 33.5557 8.68107 33.5484 8.31087Z" fill="#0D7D40"/>
<path d="M52.802 76.0015C52.7792 75.9149 52.8349 75.8826 52.9186 75.857C53.642 75.6353 54.3662 75.4159 55.0855 75.183C55.2492 75.1301 55.2762 75.2265 55.3301 75.3239C56.3443 77.1646 57.3593 79.0048 58.3744 80.8455C58.7791 81.5792 59.1778 82.3155 59.593 83.0434C59.6917 83.2166 59.641 83.2597 59.4754 83.3077C59.0392 83.4338 58.6062 83.5702 58.1746 83.7111C58.0534 83.7506 57.9908 83.7367 57.93 83.616C57.7274 83.2161 57.5047 82.8257 57.3022 82.4259C57.2414 82.3057 57.1787 82.29 57.0576 82.329C56.4883 82.5112 55.9172 82.6871 55.3452 82.8607C55.2272 82.8966 55.1833 82.9379 55.2057 83.0779C55.2789 83.5271 55.3228 83.9803 55.3882 84.4308C55.4033 84.5358 55.3749 84.578 55.2771 84.6072C54.8569 84.7337 54.4376 84.863 54.0192 84.9962C53.9026 85.0335 53.8615 85.011 53.8468 84.8841C53.6351 83.0304 53.4193 81.1776 53.2017 79.3248C53.0736 78.2353 52.9397 77.1466 52.8084 76.0576C52.8066 76.0428 52.8048 76.028 52.8011 76.0028L52.802 76.0015ZM54.4111 77.1013C54.6058 78.5691 54.8015 80.0261 54.9899 81.484C55.0091 81.6344 55.0434 81.6743 55.2016 81.6209C55.6031 81.4849 56.0087 81.3611 56.417 81.2462C56.5802 81.2004 56.6127 81.1578 56.5253 80.9958C55.8541 79.7515 55.1948 78.5009 54.5304 77.2534C54.5034 77.2027 54.4924 77.1377 54.4111 77.1013Z" fill="#0D7D40"/>
<path d="M20.5295 65.5709C20.8935 65.5602 21.2638 65.6876 21.5995 65.9052C22.235 66.3176 22.7256 66.8615 23.043 67.5436C23.4165 68.3459 23.2885 69.0831 22.7019 69.7446C22.4307 70.0501 22.0919 70.2848 21.7901 70.5581C21.7174 70.6241 21.6781 70.5989 21.626 70.5388C21.3246 70.1919 21.0247 69.8442 20.7161 69.5036C20.6255 69.4035 20.6708 69.3564 20.7504 69.2905C20.9771 69.1024 21.2044 68.9149 21.423 68.7174C21.6648 68.4993 21.8368 68.2409 21.7069 67.9057C21.5661 67.5418 21.3214 67.2528 20.9159 67.1653C20.6123 67.0998 20.3768 67.2761 20.1596 67.4587C19.5816 67.9452 19.0064 68.4343 18.4299 68.9225C17.8016 69.4542 17.1729 69.986 16.5442 70.5173C16.5213 70.5366 16.4976 70.5559 16.4747 70.5756C15.8771 71.0948 16.0001 71.828 16.7372 72.1556C17.0238 72.283 17.2781 72.204 17.5021 72.0286C17.829 71.7724 18.1459 71.5031 18.4564 71.2281C18.5739 71.124 18.6379 71.1249 18.7399 71.2474C19.0142 71.5772 19.3004 71.8976 19.588 72.2162C19.6612 72.2974 19.6845 72.3431 19.5826 72.4253C19.2529 72.6905 18.9424 72.979 18.6073 73.2366C17.733 73.9088 16.7833 73.9034 15.91 73.2366C15.4848 72.9117 15.1364 72.5173 14.862 72.064C14.2493 71.0513 14.4194 70.0587 15.3339 69.2779C15.8853 68.8072 16.4399 68.34 16.9937 67.872C17.6338 67.3304 18.2744 66.7901 18.9141 66.2476C19.3667 65.8635 19.8583 65.5687 20.53 65.5718L20.5295 65.5709Z" fill="#0D7D40"/>
<path d="M45.4133 76.9343C45.9679 76.8665 46.523 76.7979 47.0777 76.8777C48.3291 77.0586 48.8902 77.6015 49.0209 78.836C49.0822 79.4126 49.1343 80.0004 49.0639 80.5806C48.9354 81.6414 48.3373 82.2297 47.2578 82.4106C46.8207 82.4837 46.3799 82.5043 45.9387 82.4994C45.785 82.4976 45.7485 82.5479 45.7544 82.6928C45.7955 83.6935 45.8216 84.6946 45.8692 85.6948C45.8783 85.8833 45.8212 85.9124 45.6501 85.9138C45.2011 85.9174 44.7517 85.9367 44.3031 85.96C44.1655 85.9672 44.1202 85.9308 44.1152 85.7908C44.0571 84.0655 43.9936 82.3401 43.9291 80.6152C43.8861 79.4651 43.8431 78.315 43.7901 77.1654C43.7814 76.9814 43.8253 76.9231 44.0201 76.9293C44.4837 76.9442 44.9483 76.9343 45.4128 76.9343H45.4133ZM45.5848 79.6576C45.6213 79.6576 45.6575 79.6576 45.694 79.6576C45.694 80.1274 45.6954 80.5968 45.6931 81.0666C45.6927 81.1766 45.7233 81.2241 45.8504 81.2147C46.0928 81.1968 46.3374 81.2066 46.5797 81.19C47.0749 81.1555 47.3186 80.9612 47.3305 80.4954C47.346 79.8927 47.3396 79.2852 47.2551 78.6857C47.2075 78.3473 46.956 78.1557 46.6012 78.1467C46.3278 78.14 46.0534 78.1584 45.78 78.1535C45.6241 78.1508 45.5747 78.1988 45.5797 78.359C45.5934 78.7911 45.5843 79.2241 45.5843 79.6567L45.5848 79.6576Z" fill="#0D7D40"/>
<path d="M22.9132 19.5593C22.9246 19.7953 22.8679 20.0515 22.7508 20.288C22.3649 21.0666 21.7787 21.662 20.9703 22.012C20.1382 22.3719 19.4034 22.1404 18.782 21.5404C17.9187 20.7067 17.0737 19.855 16.2224 19.01C15.9439 18.7336 15.6609 18.4613 15.3929 18.1754C14.6902 17.426 14.6147 16.5524 15.1794 15.698C15.52 15.1824 15.9608 14.7628 16.5081 14.4604C17.274 14.0372 18.0559 14.1014 18.7395 14.6381C19.0316 14.8674 19.274 15.1487 19.5424 15.4027C19.6078 15.4646 19.6027 15.501 19.5392 15.5611C19.2228 15.8636 18.9077 16.1678 18.5996 16.4783C18.5136 16.5649 18.4679 16.5322 18.4002 16.4635C18.2104 16.2692 18.0184 16.0767 17.8209 15.8905C17.5909 15.6742 17.3293 15.5113 17.0015 15.6531C16.6526 15.8043 16.387 16.0543 16.328 16.4411C16.2864 16.7153 16.4569 16.9221 16.6426 17.107C17.365 17.825 18.0884 18.5425 18.8113 19.26C19.1862 19.632 19.5575 20.0076 19.937 20.3755C20.4619 20.8844 21.2323 20.6735 21.4349 19.9681C21.5163 19.6849 21.4034 19.4547 21.2095 19.2564C20.9511 18.9921 20.691 18.7296 20.4217 18.4756C20.3147 18.3746 20.2845 18.3136 20.4121 18.1983C20.7143 17.925 21.0005 17.6342 21.2922 17.3498C21.354 17.2896 21.3992 17.234 21.4898 17.33C21.8044 17.6652 22.1605 17.9623 22.4513 18.319C22.7385 18.6717 22.9214 19.0661 22.9136 19.5593H22.9132Z" fill="#0D7D40"/>
<path d="M25.737 9.26517C25.7229 9.34773 25.6465 9.36254 25.5926 9.3953C24.903 9.818 24.2144 10.2416 23.5194 10.6553C23.3772 10.7401 23.3333 10.7958 23.438 10.9537C23.802 11.5039 24.1541 12.0621 24.4956 12.6257C24.5921 12.785 24.6625 12.7769 24.8056 12.6867C25.3232 12.36 25.8527 12.0518 26.3708 11.7264C26.4993 11.6457 26.5669 11.6358 26.6483 11.7807C26.7878 12.0284 26.9364 12.273 27.1056 12.5018C27.2167 12.6526 27.16 12.7033 27.0269 12.7823C26.4869 13.1018 25.957 13.4374 25.4165 13.756C25.2922 13.8292 25.288 13.8794 25.3612 13.9925C25.7553 14.6032 26.1444 15.2175 26.5272 15.8354C26.5994 15.9521 26.6479 15.9674 26.7686 15.8924C27.4682 15.4576 28.1769 15.0372 28.8751 14.6001C29.0232 14.5072 29.084 14.5261 29.1654 14.671C29.3086 14.925 29.4672 15.1718 29.6346 15.4114C29.7128 15.5231 29.6835 15.5653 29.5792 15.6286C28.3895 16.3488 27.2007 17.0703 26.0183 17.8013C25.8523 17.9041 25.8207 17.8067 25.7567 17.7048C24.5286 15.7592 23.299 13.8144 22.0691 11.8696C21.8286 11.4895 21.5912 11.1076 21.343 10.7325C21.2671 10.6176 21.284 10.5651 21.4006 10.4951C22.5844 9.77986 23.7654 9.0601 24.9451 8.33854C25.0535 8.27213 25.1166 8.25284 25.1929 8.38656C25.3447 8.6531 25.5185 8.90753 25.6826 9.16734C25.7023 9.19876 25.7192 9.23196 25.737 9.26472V9.26517Z" fill="#0D7D40"/>
<path d="M71.6484 12.7624C71.6127 12.8122 71.5835 12.8548 71.5524 12.8956C71.3804 13.1236 71.1989 13.3453 71.0393 13.5817C70.9452 13.7213 70.8793 13.7303 70.7421 13.628C70.0883 13.1397 69.4235 12.6659 68.7678 12.1799C68.6539 12.0956 68.5981 12.0812 68.503 12.2113C68.0988 12.7628 67.6837 13.3067 67.2648 13.8474C67.1789 13.9582 67.1889 14.0103 67.3032 14.0915C67.8268 14.4639 68.3403 14.8498 68.8638 15.2223C68.9708 15.2981 68.9776 15.3443 68.8967 15.444C68.7028 15.6836 68.5149 15.9286 68.3393 16.1812C68.2612 16.2939 68.2081 16.2862 68.108 16.2122C67.5982 15.8344 67.081 15.466 66.5721 15.0868C66.4615 15.0047 66.4029 14.9813 66.3069 15.1119C65.8748 15.6988 65.4345 16.2799 64.9873 16.8557C64.8954 16.9741 64.9279 17.019 65.0335 17.0953C65.7084 17.5808 66.3759 18.0758 67.0518 18.5604C67.1615 18.6394 67.1839 18.6856 67.092 18.7969C66.8963 19.0347 66.7134 19.2833 66.5332 19.5332C66.4683 19.623 66.4253 19.6454 66.3238 19.5705C65.1972 18.743 64.0673 17.9191 62.9348 17.1002C62.8255 17.0212 62.8328 16.9692 62.905 16.8736C64.5808 14.6641 66.2552 12.4532 67.9255 10.2392C68.0129 10.1234 68.0659 10.1333 68.172 10.2109C69.2808 11.0244 70.3933 11.8331 71.5048 12.6435C71.5524 12.678 71.5954 12.7184 71.6484 12.7628V12.7624Z" fill="#0D7D40"/>
<path d="M66.079 68.5613C66.4325 68.1458 66.7928 67.7307 67.1412 67.3066C67.2304 67.1981 67.3008 67.2389 67.395 67.2766C68.6153 67.7693 69.8362 68.2606 71.0584 68.7493C71.1238 68.7753 71.186 68.8346 71.2719 68.8027C71.2623 68.7143 71.1983 68.6564 71.1549 68.59C70.4471 67.5113 69.7397 66.4321 69.0241 65.3578C68.9418 65.234 68.9487 65.1608 69.0442 65.0536C69.3245 64.7386 69.6012 64.4191 69.8622 64.0888C69.982 63.9372 70.02 63.9834 70.1 64.1171C71.132 65.8398 72.1695 67.5588 73.2033 69.2802C73.2819 69.4112 73.3798 69.5193 73.4987 69.6158C74.1685 70.1574 74.8338 70.7049 75.5055 71.2442C75.6248 71.3398 75.6665 71.3955 75.5407 71.5319C75.2348 71.8644 74.9449 72.2121 74.6637 72.5653C74.5627 72.6923 74.5037 72.6676 74.3981 72.5805C73.7401 72.0367 73.0757 71.5 72.4164 70.9575C72.2751 70.8413 72.1233 70.7547 71.9477 70.6923C70.0442 70.0152 68.143 69.3322 66.2414 68.6506C66.1856 68.6304 66.1206 68.6264 66.0781 68.5613H66.079Z" fill="#0D7D40"/>
<path d="M58.3233 5.46062C58.2154 5.83934 58.1203 6.18397 58.0179 6.5268C57.9777 6.66141 57.8794 6.57526 57.8131 6.55776C57.0952 6.36929 56.3782 6.17589 55.6613 5.98294C55.3718 5.90486 55.3718 5.90351 55.2891 6.19698C55.1012 6.86424 54.9192 7.53329 54.7216 8.19741C54.6723 8.36299 54.7212 8.4128 54.8762 8.45229C55.4487 8.59812 56.0175 8.75922 56.5895 8.90685C56.7006 8.93557 56.7408 8.95935 56.7006 9.08499C56.6055 9.38295 56.5287 9.68674 56.4514 9.99008C56.4198 10.1148 56.3673 10.1265 56.2438 10.0915C55.6681 9.9286 55.087 9.78501 54.5109 9.62302C54.3769 9.58533 54.3353 9.60013 54.2973 9.74014C54.0175 10.7686 53.7235 11.7931 53.4405 12.8207C53.4048 12.9508 53.3751 13.0046 53.2164 12.9557C52.8044 12.8287 52.3874 12.713 51.9663 12.6196C51.7683 12.5757 51.8049 12.4828 51.841 12.3544C52.5036 9.99322 53.1638 7.63156 53.825 5.27036C53.9032 4.99035 53.9878 4.71214 54.0605 4.43079C54.087 4.32803 54.1044 4.28271 54.2379 4.31905C55.5529 4.67849 56.8711 5.02715 58.1871 5.38389C58.2351 5.3969 58.343 5.37985 58.3238 5.45927L58.3233 5.46062Z" fill="#0D7D40"/>
<path d="M43.5128 4.11308C43.5434 4.54207 43.5425 4.53578 43.232 4.56136C42.8077 4.59681 42.3848 4.64707 41.9605 4.68252C41.8475 4.69194 41.8274 4.73053 41.8384 4.83598C42.0322 6.69955 42.222 8.56357 42.4118 10.4276C42.4593 10.8956 42.5037 11.3636 42.554 11.8312C42.5668 11.9501 42.5572 12.0215 42.404 12.0331C41.9417 12.0681 41.4799 12.1139 41.019 12.166C40.8837 12.1812 40.912 12.096 40.9047 12.03C40.8452 11.4659 40.7867 10.9014 40.7291 10.3374C40.6276 9.34211 40.527 8.34728 40.426 7.352C40.3469 6.57211 40.2636 5.79267 40.1919 5.01233C40.1795 4.87906 40.1333 4.85707 40.0108 4.87054C39.5801 4.91855 39.1475 4.94996 38.7173 5.00201C38.5302 5.02445 38.426 5.01727 38.4278 4.78214C38.4296 4.50751 38.383 4.232 38.3473 3.95827C38.3309 3.83397 38.3693 3.79224 38.4969 3.78058C39.1932 3.71686 39.8892 3.64371 40.5855 3.57551C41.4634 3.48935 42.3418 3.40993 43.2188 3.3148C43.3889 3.2964 43.446 3.33409 43.4538 3.50012C43.4657 3.74602 43.5 3.99058 43.5123 4.11308H43.5128Z" fill="#0D7D40"/>
<path d="M48.4184 12.1029C47.9721 12.0683 47.5629 12.032 47.1532 12.0069C47.0256 11.9992 46.9822 11.9575 46.9941 11.8301C47.0489 11.2503 47.0969 10.6701 47.1472 10.0899C47.2327 9.10808 47.3183 8.12672 47.4038 7.1449C47.5071 5.9625 47.6118 4.7801 47.711 3.59726C47.7206 3.48014 47.7426 3.42405 47.8797 3.43751C48.326 3.48238 48.7732 3.52142 49.2208 3.55283C49.353 3.56226 49.3804 3.61431 49.3699 3.73367C49.2853 4.67061 49.2053 5.60756 49.1239 6.54495C49.0384 7.52677 48.9524 8.50813 48.8678 9.48995C48.8002 10.2784 48.7316 11.0668 48.6689 11.8556C48.6543 12.0401 48.6314 12.1926 48.4184 12.1029Z" fill="#0D7D40"/>
<path d="M63.8527 7.81955C63.8308 7.86397 63.8107 7.90391 63.7905 7.9443C62.5766 10.4042 61.3612 12.8637 60.1509 15.3254C60.0823 15.465 60.027 15.5031 59.8734 15.4237C59.4975 15.2294 59.1125 15.0517 58.7271 14.8771C58.5999 14.8197 58.5684 14.7739 58.637 14.6357C59.8638 12.1655 61.0846 9.69254 62.3022 7.2178C62.3607 7.09889 62.4019 7.06793 62.5313 7.133C62.93 7.33313 63.337 7.51711 63.738 7.71275C63.7823 7.73429 63.8692 7.73384 63.8536 7.82L63.8527 7.81955Z" fill="#0D7D40"/>
<path d="M60.1623 40.0996C60.16 40.8517 60.1706 41.5679 60.0741 42.2823C59.9488 43.2089 59.4454 43.7429 58.4984 43.9076C57.9264 44.0072 57.3663 43.9565 56.808 43.7994C56.1199 43.6056 55.707 43.1555 55.5927 42.4873C55.3316 40.9621 55.3037 39.4319 55.568 37.8986C55.7097 37.0775 56.2177 36.6561 57.0028 36.4833C57.6009 36.3519 58.198 36.3631 58.7865 36.5179C59.6264 36.7391 60.0407 37.3068 60.1152 38.2311C60.1664 38.8661 60.1445 39.5006 60.1619 40.0996H60.1623Z" fill="#0D7D40"/>
<path d="M45.4003 51.7115C45.4003 51.1883 45.4026 50.665 45.3985 50.1423C45.3975 50.0117 45.435 49.9614 45.5809 49.965C46.671 49.9937 47.7496 50.1109 48.8159 50.3375C48.9485 50.3657 48.9924 50.4088 48.916 50.5466C48.3349 51.5993 47.6449 52.5807 46.8991 53.5252C46.8516 53.5858 46.7994 53.606 46.7258 53.6056C46.3125 53.6042 45.9179 53.4669 45.5064 53.4494C45.3857 53.4445 45.4058 53.3354 45.4053 53.2578C45.403 52.7422 45.4039 52.2266 45.4039 51.711C45.4026 51.711 45.4017 51.711 45.4003 51.711V51.7115Z" fill="#0D7D40"/>
<path d="M44.7738 51.6962C44.7738 52.2037 44.7656 52.7116 44.7784 53.2192C44.7825 53.3816 44.7286 53.4467 44.5731 53.4655C44.2265 53.5077 43.8804 53.5539 43.5352 53.6046C43.4401 53.6185 43.3824 53.5885 43.3225 53.5176C42.5393 52.5909 41.8704 51.5894 41.2796 50.5353C41.1895 50.3742 41.2741 50.345 41.4058 50.3195C42.1214 50.1799 42.842 50.0749 43.569 50.0166C43.9096 49.9892 44.2526 49.9888 44.5941 49.9659C44.729 49.9569 44.7569 50.0063 44.7555 50.1283C44.7496 50.6511 44.7528 51.1734 44.7528 51.6962H44.7734H44.7738Z" fill="#0D7D40"/>
<path d="M40.4703 50.5469C40.5568 50.5334 40.5901 50.5922 40.6235 50.6532C41.2065 51.7118 41.9084 52.6949 42.6162 53.6736C42.7108 53.8046 42.6701 53.841 42.5494 53.8899C42.3116 53.9868 42.0734 54.0846 41.8434 54.1977C41.7561 54.2408 41.6989 54.2098 41.6336 54.1771C40.2824 53.5004 39.0662 52.6415 37.9916 51.5888C37.8856 51.4847 37.8805 51.4398 38.025 51.3752C38.7863 51.0355 39.5746 50.7735 40.3812 50.5612C40.4104 50.5536 40.4411 50.5514 40.4713 50.5469H40.4703Z" fill="#0D7D40"/>
<path d="M52.2377 51.4182C51.6333 52.0819 50.9529 52.6199 50.2442 53.127C49.7083 53.5102 49.1322 53.827 48.5542 54.1429C48.4426 54.2039 48.348 54.2026 48.2341 54.1478C48.0508 54.059 47.8629 53.9746 47.6694 53.9118C47.4678 53.8463 47.5058 53.7529 47.5999 53.6264C47.8148 53.337 48.0293 53.0466 48.2369 52.7518C48.6822 52.1196 49.1024 51.4707 49.4659 50.7895C49.5707 50.5939 49.6699 50.5288 49.904 50.5912C50.6964 50.8012 51.4728 51.0489 52.2373 51.4187L52.2377 51.4182Z" fill="#0D7D40"/>
<path d="M45.2089 55.5508C43.9282 55.5553 42.7961 55.4467 41.6809 55.1932C41.6251 55.1806 41.5222 55.2129 41.5158 55.1178C41.5112 55.0518 41.5949 55.0348 41.6443 55.0038C42.8706 54.2414 44.2176 53.9771 45.6502 54.0768C46.6337 54.1454 47.5592 54.4061 48.4055 54.9127C48.438 54.932 48.4732 54.9486 48.5011 54.9729C48.5559 55.0204 48.6716 55.0393 48.657 55.1169C48.6396 55.2062 48.5203 55.1963 48.4453 55.2111C47.3328 55.4355 46.2094 55.5567 45.2094 55.5504L45.2089 55.5508Z" fill="#0D7D40"/>
<path d="M54.5088 52.5831C53.5646 53.3128 52.5358 53.8328 51.4617 54.2753C50.8952 54.5086 50.3177 54.7105 49.7283 54.8797C49.5541 54.9295 49.1979 54.7927 49.1225 54.6352C49.0708 54.5275 49.1847 54.518 49.2391 54.4857C49.7992 54.1546 50.3429 53.8001 50.865 53.4142C51.5285 52.9242 52.1567 52.3942 52.753 51.827C52.8143 51.7687 52.8591 51.6893 52.9812 51.7418C53.5106 51.9688 54.0131 52.2403 54.5088 52.5831Z" fill="#0D7D40"/>
<path d="M41.0438 54.6088C40.8321 54.8879 40.598 54.9386 40.2628 54.8408C38.6717 54.3745 37.1984 53.6763 35.834 52.7519C35.6269 52.6115 35.6273 52.6101 35.8409 52.4818C36.2483 52.2372 36.6525 51.9864 37.0887 51.7908C37.171 51.754 37.2359 51.7127 37.3264 51.7997C38.4385 52.8713 39.6918 53.7629 41.0072 54.5756C41.02 54.5832 41.0296 54.5958 41.0443 54.6088H41.0438Z" fill="#0D7D40"/>
<path d="M41.0864 29.7917C41.6977 28.6793 42.3868 27.6473 43.1988 26.6955C43.2473 26.6385 43.2908 26.5833 43.3859 26.5981C43.7608 26.6556 44.1362 26.7117 44.5134 26.7556C44.6382 26.77 44.6524 26.8288 44.6556 26.9302C44.6867 27.9681 44.6616 29.0056 44.6638 30.0435C44.6638 30.1664 44.6126 30.1893 44.5088 30.2041C44.1956 30.249 43.8861 30.21 43.5761 30.1808C42.7677 30.1045 41.9584 30.0332 41.1705 29.8223C41.1495 29.8164 41.1294 29.8074 41.0859 29.7913L41.0864 29.7917Z" fill="#0D7D40"/>
<path d="M45.3267 28.4815C45.3267 27.9735 45.3299 27.4656 45.3244 26.9581C45.3231 26.8288 45.3592 26.779 45.5005 26.7655C45.8329 26.7341 46.1635 26.6816 46.4936 26.6318C46.5937 26.6166 46.6614 26.635 46.7277 26.718C47.4611 27.6329 48.1744 28.5609 48.7263 29.5979C48.8063 29.7478 48.8159 29.8034 48.6115 29.8479C47.5832 30.0695 46.5439 30.1853 45.4923 30.2131C45.361 30.2167 45.3194 30.1732 45.3203 30.0502C45.324 29.5275 45.3217 29.0047 45.3217 28.4819H45.3258L45.3267 28.4815Z" fill="#0D7D40"/>
<path d="M49.5939 29.613C49.5001 29.6475 49.4795 29.5833 49.4489 29.5326C48.8129 28.497 48.1403 27.4851 47.3973 26.5199C47.3259 26.4274 47.3625 26.396 47.4471 26.3592C47.71 26.2439 47.9725 26.1277 48.2331 26.0065C48.309 25.9715 48.3616 26.0079 48.421 26.0379C49.7589 26.7097 50.9505 27.5802 52.0287 28.6038C52.1091 28.6801 52.1782 28.7406 52.0145 28.8084C51.2445 29.1256 50.469 29.4245 49.6501 29.6004C49.6277 29.6053 49.6057 29.6103 49.5948 29.613H49.5939Z" fill="#0D7D40"/>
<path d="M40.3773 29.6556C39.8003 29.5089 39.2854 29.3559 38.7783 29.1795C38.5214 29.0902 38.274 28.9749 38.0157 28.8901C37.8117 28.8232 37.8227 28.7433 37.9603 28.6195C38.3636 28.256 38.7751 27.9015 39.2059 27.569C39.9237 27.0148 40.6805 26.5199 41.4843 26.0932C41.5949 26.0344 41.6873 26.0263 41.8007 26.0739C41.9813 26.1501 42.1688 26.2107 42.3517 26.2825C42.6146 26.3862 42.6246 26.4207 42.4518 26.6357C42.1267 27.04 41.8204 27.4577 41.541 27.893C41.1971 28.4283 40.8629 28.97 40.5259 29.5098C40.4774 29.5874 40.4404 29.674 40.3773 29.6561V29.6556Z" fill="#0D7D40"/>
<path d="M41.3906 25.074C43.7884 24.5634 46.1519 24.5203 48.5254 25.0673C47.3965 26.4745 42.7532 26.4947 41.3906 25.074Z" fill="#0D7D40"/>
<path d="M40.9989 25.6217C40.0748 26.1844 39.223 26.7722 38.42 27.4264C38.0511 27.7275 37.6839 28.0313 37.3496 28.3692C37.2312 28.4886 37.1343 28.4917 36.9916 28.4316C36.5431 28.2427 36.1261 28.0008 35.7173 27.7415C35.5669 27.6459 35.5998 27.5992 35.7246 27.5121C36.9656 26.647 38.3117 25.9851 39.7575 25.5234C39.9262 25.4695 40.051 25.2927 40.2687 25.3551C40.3437 25.3767 40.4415 25.3179 40.5302 25.3013C40.5485 25.2977 40.5732 25.3147 40.5915 25.3273C40.7191 25.4184 40.8462 25.5113 40.9989 25.6221V25.6217Z" fill="#0D7D40"/>
<path d="M54.3477 27.5814C54.34 27.6496 54.2856 27.6689 54.2407 27.6931C53.81 27.9287 53.3775 28.1612 52.9477 28.3985C52.8384 28.4591 52.7543 28.4488 52.6637 28.3608C51.5938 27.3207 50.3963 26.4434 49.1004 25.6945C48.9903 25.6308 48.9761 25.5801 49.0703 25.4975C49.2326 25.3557 49.3853 25.2637 49.6359 25.3355C51.2819 25.8053 52.8123 26.5094 54.2188 27.4706C54.2659 27.5024 54.3326 27.5186 54.3473 27.5814H54.3477Z" fill="#0D7D40"/>
<path d="M45.0171 14.1192C28.1339 14.0923 14.4098 27.5478 14.3906 44.1467C14.3714 60.72 28.0877 74.1895 44.9933 74.1976C61.8815 74.2057 75.5722 60.7828 75.6087 44.1813C75.6449 27.6178 61.9359 14.1461 45.0171 14.1192ZM31.9738 30.0943C34.5353 27.0574 37.8004 25.1749 41.7313 24.4058C43.1849 24.1213 44.66 24.0136 46.1391 24.1316C51.4921 24.5588 55.7421 26.9147 58.8756 31.1996C58.9195 31.2592 59.0219 31.3171 58.9693 31.4028C58.9282 31.4701 58.8285 31.4356 58.7544 31.4432C58.4746 31.4719 58.2898 31.3719 58.1161 31.1327C57.2885 29.9934 56.2899 29.0116 55.1756 28.1397C55.0192 28.0176 54.8944 28.0078 54.7289 28.1042C54.3041 28.3515 53.8775 28.5956 53.4431 28.8262C53.2607 28.9236 53.2597 28.9959 53.3951 29.1408C53.9922 29.7807 54.5318 30.4654 55.0037 31.2005C55.0471 31.2687 55.1052 31.3315 55.1097 31.4208C55.0864 31.4271 55.0649 31.4338 55.0434 31.4387C54.6923 31.52 54.444 31.4401 54.2282 31.1116C53.8112 30.4785 53.3164 29.8974 52.7943 29.3414C52.7056 29.2471 52.6352 29.2193 52.5021 29.2723C51.6658 29.6052 50.8277 29.9355 49.9525 30.1603C49.8163 30.1953 49.8039 30.2442 49.8611 30.3631C50.0069 30.6656 50.1336 30.9774 50.2799 31.2803C50.3425 31.41 50.2959 31.4437 50.1747 31.4648C49.8588 31.5209 49.7431 31.4697 49.5945 31.1937C49.4701 30.9631 49.3439 30.7338 49.2232 30.5013C49.1711 30.4008 49.1085 30.3649 48.9873 30.3927C47.8574 30.6503 46.7084 30.7724 45.553 30.8334C45.3486 30.8442 45.2878 30.9254 45.3001 31.1049C45.3051 31.1794 45.2969 31.2548 45.301 31.3292C45.3065 31.428 45.2589 31.4634 45.1643 31.4562C45.1263 31.4535 45.0884 31.4562 45.05 31.4562C44.8198 31.4571 44.7025 31.3455 44.6979 31.1215C44.6929 30.8567 44.6517 30.8204 44.3765 30.8114C43.2411 30.7742 42.1154 30.6544 41.0043 30.4183C40.8219 30.3797 40.7112 30.4094 40.6358 30.5888C40.5343 30.8294 40.4113 31.0614 40.2947 31.2956C40.217 31.4517 39.8064 31.563 39.6578 31.4697C39.58 31.4208 39.6335 31.3656 39.6559 31.3153C39.7885 31.0147 39.9152 30.7113 40.0592 30.4161C40.1333 30.264 40.0885 30.2038 39.9367 30.1625C39.0949 29.9341 38.2801 29.6281 37.4644 29.3252C37.3313 29.2759 37.2623 29.3055 37.1731 29.3984C36.6016 29.9925 36.1013 30.6409 35.6249 31.3086C35.5188 31.4571 35.1018 31.568 34.9505 31.4787C34.838 31.4123 34.9463 31.3445 34.9756 31.2956C35.3249 30.7158 35.7383 30.1801 36.1667 29.655C36.3094 29.48 36.4511 29.3041 36.6002 29.1345C36.6802 29.043 36.6962 28.9891 36.5682 28.9196C36.0766 28.6517 35.5897 28.3766 35.1055 28.0962C34.9985 28.0342 34.9363 28.0872 34.8618 28.1383C34.2641 28.5449 33.7369 29.0313 33.2335 29.542C32.7461 30.036 32.2733 30.5494 31.8874 31.1228C31.6496 31.4764 31.3739 31.5446 30.9807 31.4244C31.2816 30.9568 31.6172 30.5175 31.9738 30.0948V30.0943ZM38.9701 46.9638C38.9723 47.1218 38.9294 47.1918 38.7396 47.19C37.8105 47.1815 36.8805 47.1882 35.9514 47.1985C35.8105 47.1999 35.7721 47.1599 35.7662 47.0253C35.7195 45.9712 35.7397 44.9172 35.7415 43.8627C35.7429 43.3022 35.7657 42.7417 35.7689 42.1808C35.7698 42.0377 35.8105 41.9892 35.9628 41.9901C36.8087 41.9933 37.6546 41.987 38.5 41.9802C38.6002 41.9794 38.6665 42.0018 38.7245 42.0906C39.7593 43.6773 41.3367 44.1786 43.1456 44.1988C43.6335 44.2041 44.1154 44.127 44.5886 44.0058C44.7112 43.9744 44.815 43.9179 44.9055 43.8375C45.061 43.6998 45.0747 43.5189 44.9425 43.3592C44.8342 43.2286 44.6924 43.1496 44.5283 43.0958C42.8594 42.5465 41.1552 42.1117 39.4813 41.5795C38.5915 41.2968 37.7593 40.9208 37.0355 40.3244C36.0277 39.4943 35.6071 38.4227 35.6331 37.1578C35.6569 35.9843 36.0433 34.9581 36.9655 34.1778C37.6646 33.5863 38.5 33.2458 39.3948 33.0568C41.2471 32.6656 43.0546 32.8491 44.8113 33.5249C45.1273 33.6465 45.4213 33.8251 45.7203 33.9871C45.8666 34.0665 45.9457 34.0629 45.9402 33.8744C45.9389 33.8224 45.9448 33.7699 45.9457 33.7178C45.9521 33.2386 45.9521 33.2422 46.4523 33.2269C47.2521 33.2018 48.0518 33.1883 48.8515 33.2166C48.9914 33.2215 49.0472 33.2453 49.0486 33.4001C49.0604 34.8728 49.1112 36.3451 49.0934 37.8187C49.0911 38.0108 49.0563 38.0866 48.8364 38.0839C47.9681 38.0732 47.0993 38.0844 46.231 38.0862C46.1437 38.0862 46.0536 38.1077 45.9869 38.0117C45.3509 37.0918 44.4254 36.596 43.3641 36.3083C42.5384 36.0844 41.7002 35.9552 40.8402 36.0593C40.6564 36.0813 40.4886 36.1504 40.3441 36.267C40.0217 36.5273 40.0638 36.8957 40.4319 37.099C40.8415 37.3256 41.3015 37.405 41.7441 37.5329C43.1703 37.9448 44.6097 38.3146 46.0267 38.7552C47.6654 39.2641 48.8844 40.285 49.3956 41.9224C50.0051 43.8748 49.0348 46.0821 46.8684 46.9553C45.6691 47.4386 44.4185 47.5736 43.1328 47.47C42.1483 47.3906 41.1991 47.1738 40.2787 46.827C39.9156 46.6905 39.5924 46.4765 39.2412 46.3163C39.1676 46.2827 39.1013 46.227 38.9687 46.2315C38.9687 46.4765 38.9659 46.7202 38.9701 46.9638ZM25.5039 46.9692C25.4943 45.9901 25.4929 45.011 25.5052 44.0314C25.5075 43.8716 25.5437 43.8155 25.7202 43.8155C26.2912 43.8155 26.8623 43.7859 27.4334 43.7846C27.6012 43.7841 27.6474 43.7213 27.6415 43.5777C27.6392 43.518 27.6451 43.4584 27.6451 43.3987C27.6451 41.1856 27.6424 38.9724 27.6497 36.7593C27.6506 36.5708 27.588 36.5147 27.4087 36.5121C26.8454 36.504 26.2821 36.4811 25.7183 36.4748C25.5807 36.4735 25.5382 36.4389 25.5391 36.2998C25.545 35.261 25.5441 34.2217 25.5395 33.1825C25.5391 33.051 25.5674 33.0052 25.7142 33.0057C28.7082 33.0106 31.7022 33.0106 34.6958 33.0061C34.8435 33.0061 34.8691 33.0586 34.8741 33.1879C34.9153 34.2343 34.913 35.2803 34.8837 36.3267C34.8796 36.4851 34.8192 36.5053 34.6825 36.5044C34.1265 36.5008 33.5701 36.5201 33.0145 36.5044C32.7717 36.4977 32.7274 36.5816 32.7278 36.7992C32.7319 38.9751 32.726 41.1506 32.7228 43.3264C32.7223 43.7635 32.7223 43.7707 33.1695 43.7868C33.6716 43.8048 34.1745 43.8142 34.677 43.8146C34.8302 43.8146 34.8819 43.8483 34.8805 44.0112C34.8723 45.0051 34.8714 46 34.881 46.9939C34.8828 47.1671 34.8311 47.2003 34.6651 47.1994C33.1723 47.1931 31.6789 47.1958 30.1856 47.1958C28.6922 47.1958 27.2295 47.1927 25.7517 47.1999C25.5688 47.2007 25.5057 47.1599 25.5039 46.9697V46.9692ZM30.2413 63.8293C29.9313 64.2138 29.5075 64.4063 28.9702 64.4063C28.5299 64.4063 28.171 64.2852 27.8925 64.0433C27.614 63.8014 27.4549 63.4806 27.4151 63.0808L28.0393 63.0292C28.0855 63.3271 28.1929 63.5511 28.3612 63.7014C28.5294 63.8517 28.7324 63.9266 28.9702 63.9266C29.2564 63.9266 29.4988 63.8207 29.6968 63.6089C29.8948 63.3971 29.994 63.1167 29.994 62.7667C29.994 62.4167 29.8984 62.1717 29.7082 61.9792C29.518 61.7871 29.2688 61.6906 28.9606 61.6906C28.769 61.6906 28.5962 61.7333 28.4421 61.819C28.288 61.9042 28.1668 62.0146 28.0791 62.151L27.5208 62.0797L27.9899 59.6395H30.3968V60.1968H28.4654L28.2043 61.4739C28.4947 61.2751 28.7997 61.1755 29.1188 61.1755C29.5418 61.1755 29.898 61.3191 30.1888 61.6067C30.4791 61.8939 30.6245 62.2632 30.6245 62.7146C30.6245 63.166 30.4969 63.5161 30.2413 63.8293ZM34.1571 63.3321C34.0406 63.6745 33.8663 63.9392 33.6341 64.1259C33.4018 64.3125 33.1087 64.4063 32.7543 64.4063C32.2875 64.4063 31.9208 64.2421 31.6547 63.9136C31.3355 63.5183 31.1759 62.8744 31.1759 61.9823C31.1759 61.4209 31.2349 60.9686 31.3524 60.6262C31.4704 60.2839 31.6451 60.02 31.8773 59.8342C32.1096 59.6485 32.4018 59.5556 32.7543 59.5556C33.0136 59.5556 33.2418 59.6067 33.4375 59.7095C33.6336 59.8118 33.795 59.9599 33.923 60.1533C34.0506 60.3467 34.1507 60.5823 34.2234 60.8596C34.2962 61.1373 34.3323 61.5116 34.3323 61.9823C34.3323 62.5396 34.2737 62.9897 34.1571 63.3321ZM37.918 63.3321C37.8247 63.6058 37.6944 63.8302 37.527 64.0043C37.4854 64.0478 37.4415 64.0886 37.3949 64.1259C37.169 64.3072 36.8855 64.4009 36.5444 64.4059C36.5348 64.4063 36.5247 64.4063 36.5147 64.4063C36.0483 64.4063 35.6816 64.2421 35.4155 63.9136C35.0963 63.5183 34.9367 62.8744 34.9367 61.9823C34.9367 61.4209 34.9953 60.9686 35.1132 60.6262C35.2308 60.2839 35.4059 60.02 35.6382 59.8342C35.8704 59.6485 36.1626 59.5556 36.5147 59.5556C36.7744 59.5556 37.0021 59.6067 37.1983 59.7095C37.394 59.8118 37.5558 59.9599 37.6834 60.1533C37.8114 60.3467 37.9116 60.5823 37.9838 60.8596C38.0565 61.1373 38.0931 61.5116 38.0931 61.9823C38.0931 62.5396 38.0345 62.9897 37.918 63.3321ZM41.6788 63.3321C41.5622 63.6745 41.3875 63.9392 41.1552 64.1259C41.1035 64.1676 41.0487 64.2044 40.9911 64.2363C40.7894 64.3498 40.5507 64.4063 40.2755 64.4063C40.1795 64.4063 40.0876 64.3991 39.9998 64.3852C39.6619 64.3318 39.3875 64.1743 39.1758 63.9136C38.8567 63.5183 38.6971 62.8744 38.6971 61.9823C38.6971 61.4209 38.7561 60.9686 38.8736 60.6262C38.9916 60.2839 39.1667 60.02 39.399 59.8342C39.6308 59.6485 39.9234 59.5556 40.2755 59.5556C40.5352 59.5556 40.7629 59.6067 40.9591 59.7095C41.1548 59.8118 41.3166 59.9599 41.4442 60.1533C41.5718 60.3467 41.6719 60.5823 41.7446 60.8596C41.8173 61.1373 41.8534 61.5116 41.8534 61.9823C41.8534 62.5396 41.7954 62.9897 41.6788 63.3321ZM44.6965 64.3251H44.1021V60.6087C43.959 60.7425 43.7715 60.8766 43.5393 61.0104C43.307 61.1441 43.0985 61.2446 42.9133 61.3119V60.7479C43.2457 60.5944 43.5365 60.4086 43.7853 60.1905C44.034 59.9724 44.21 59.7606 44.3134 59.5556H44.6965V64.3251ZM47.2255 64.3251H46.5488V63.661H47.2255V64.3251ZM47.2255 61.5484H46.5488V60.8838H47.2255V61.5484ZM51.2205 64.3251H48.0211C48.0166 64.1847 48.0399 64.0496 48.0906 63.9199C48.172 63.7063 48.3023 63.4954 48.4816 63.2881C48.6613 63.0808 48.9205 62.8412 49.2593 62.5688C49.7856 62.1456 50.1409 61.81 50.3256 61.5627C50.5108 61.3155 50.6032 61.0817 50.6032 60.8614C50.6032 60.6303 50.519 60.4351 50.3508 60.2762C50.1821 60.1178 49.9626 60.0384 49.6919 60.0384C49.4057 60.0384 49.177 60.1223 49.0051 60.291C48.8332 60.4598 48.7463 60.6927 48.7445 60.9911L48.1336 60.9291C48.1752 60.4822 48.3325 60.1416 48.6055 59.9069C48.8785 59.6727 49.2452 59.5556 49.7052 59.5556C50.1651 59.5556 50.5373 59.6817 50.808 59.9348C51.0787 60.1874 51.2141 60.5006 51.2141 60.8744C51.2141 61.0642 51.1743 61.2513 51.0952 61.4349C51.0161 61.6184 50.8844 61.8118 50.7006 62.0146C50.5168 62.2179 50.2113 62.4965 49.7843 62.8506C49.4276 63.1445 49.199 63.3437 49.0975 63.4487C48.9964 63.5533 48.9128 63.6587 48.8465 63.7646H51.2205V64.3251ZM54.8391 63.3321C54.7225 63.6745 54.5482 63.9392 54.316 64.1259C54.0837 64.3125 53.7906 64.4063 53.4362 64.4063C53.2748 64.4063 53.1258 64.3866 52.9886 64.3475C52.728 64.2735 52.5108 64.1286 52.3366 63.9136C52.1967 63.7404 52.0874 63.5187 52.0087 63.2495C51.9081 62.9053 51.8578 62.4831 51.8578 61.9823C51.8578 61.4209 51.9168 60.9686 52.0343 60.6262C52.1523 60.2839 52.327 60.02 52.5593 59.8342C52.7915 59.6485 53.0837 59.5556 53.4362 59.5556C53.6959 59.5556 53.9237 59.6067 54.1194 59.7095C54.3155 59.8118 54.4769 59.9599 54.6049 60.1533C54.7325 60.3467 54.8326 60.5823 54.9053 60.8596C54.9781 61.1373 55.0142 61.5116 55.0142 61.9823C55.0142 62.5396 54.9557 62.9897 54.8391 63.3321ZM57.8568 64.3251H57.2624V60.6087C57.1198 60.7425 56.9318 60.8766 56.6996 61.0104C56.4673 61.1441 56.2588 61.2446 56.0741 61.3119V60.7479C56.4065 60.5944 56.6968 60.4086 56.9456 60.1905C57.1943 59.9724 57.3703 59.7606 57.4741 59.5556H57.8568V64.3251ZM58.1957 49.9829C55.6273 53.0957 52.3411 55.0503 48.3394 55.8311C46.6636 56.1578 44.9713 56.2036 43.2704 56.0358C41.2924 55.8401 39.409 55.3102 37.6317 54.4513C34.9816 53.1706 32.7987 51.3425 31.1325 48.9373C31.0923 48.8794 31.0008 48.8193 31.0429 48.7475C31.0808 48.6816 31.1819 48.7242 31.2541 48.7125C31.5385 48.6667 31.7178 48.7744 31.8897 49.0136C32.7278 50.1821 33.7319 51.1994 34.8787 52.0807C34.993 52.1686 35.078 52.1771 35.2024 52.1143C35.6962 51.8653 36.1649 51.5736 36.6468 51.3048C36.7749 51.2335 36.7291 51.1864 36.6637 51.1069C36.1754 50.5146 35.6811 49.9272 35.2568 49.2873C35.1379 49.1078 35.0287 48.9225 34.9061 48.7264C35.0611 48.7121 35.1878 48.6946 35.3149 48.6905C35.4671 48.6856 35.5751 48.7363 35.6674 48.8803C36.1269 49.5965 36.677 50.2454 37.2568 50.8704C37.3267 50.9458 37.3912 50.9624 37.4959 50.9207C38.3455 50.5801 39.2097 50.2781 40.0912 50.0273C40.2384 49.9856 40.2449 49.9259 40.1882 49.802C40.0277 49.4507 39.8786 49.0944 39.7222 48.7336C39.9005 48.6842 40.0597 48.717 40.2174 48.7089C40.3157 48.7044 40.3459 48.7664 40.3816 48.835C40.5261 49.1137 40.6765 49.3901 40.8182 49.6701C40.8649 49.763 40.9156 49.8007 41.0281 49.7773C42.1694 49.5409 43.3257 49.4188 44.489 49.3614C44.7391 49.3493 44.7807 49.2375 44.7674 49.0419C44.7638 48.9898 44.7619 48.9373 44.7551 48.8857C44.7368 48.748 44.7962 48.6905 44.9357 48.7116C44.943 48.713 44.9508 48.7121 44.9581 48.7121C45.3573 48.7067 45.365 48.7067 45.3637 49.0989C45.3627 49.2766 45.4158 49.3349 45.6074 49.3461C46.7619 49.4152 47.9114 49.5373 49.0444 49.7724C49.2379 49.8123 49.3307 49.7742 49.4093 49.5996C49.5287 49.3344 49.6727 49.0791 49.8089 48.8211C49.856 48.7327 50.359 48.6524 50.4088 48.7282C50.4427 48.7798 50.4061 48.8417 50.3869 48.8992C50.2904 49.1909 50.14 49.4592 50.0056 49.7338C49.921 49.9066 49.9603 49.9806 50.1505 50.0313C50.9717 50.249 51.7696 50.5357 52.551 50.8628C52.7325 50.9387 52.835 50.8951 52.9584 50.7645C53.487 50.2032 53.9497 49.592 54.3772 48.9557C54.4989 48.7749 54.6219 48.673 54.8496 48.7089C54.9579 48.726 55.0713 48.7121 55.2122 48.7121C54.952 49.1774 54.6644 49.5871 54.3557 49.9824C54.0686 50.3499 53.7737 50.7116 53.4714 51.067C53.3823 51.1715 53.3937 51.2137 53.508 51.2774C54.0101 51.557 54.5098 51.8401 55.0059 52.1296C55.112 52.1915 55.1701 52.1444 55.246 52.0869C55.9511 51.5476 56.588 50.9373 57.1847 50.2858C57.5971 49.8352 57.9858 49.3654 58.336 48.8664C58.4133 48.7565 58.5038 48.7062 58.6396 48.7139C58.7837 48.7219 58.9286 48.7157 59.127 48.7157C58.8257 49.185 58.5194 49.5907 58.1957 49.9829ZM62.1229 63.9913C61.8303 64.2677 61.4448 64.4063 60.967 64.4063C60.4892 64.4063 60.1042 64.2672 59.8115 63.9899C59.5189 63.7121 59.3726 63.3662 59.3726 62.9511C59.3726 62.6424 59.4522 62.3839 59.6117 62.1753C59.7713 61.9666 59.9986 61.8248 60.2935 61.749C60.047 61.6606 59.8646 61.534 59.7457 61.3698C59.6268 61.206 59.5674 61.0095 59.5674 60.7802C59.5674 60.4346 59.694 60.1443 59.9469 59.9087C60.2002 59.6731 60.5367 59.5556 60.9574 59.5556C61.378 59.5556 61.7201 59.6758 61.9775 59.9168C62.2349 60.1578 62.3639 60.4508 62.3639 60.7963C62.3639 61.0166 62.3049 61.2087 62.1874 61.3716C62.0694 61.5349 61.8906 61.6606 61.6506 61.749C61.9478 61.8441 62.1741 61.9976 62.3291 62.2094C62.4846 62.4212 62.5618 62.6738 62.5618 62.9673C62.5618 63.3734 62.4155 63.7148 62.1229 63.9913ZM65.0968 43.4023C64.5389 44.9603 63.4553 46.0264 61.9432 46.6959C60.4649 47.3511 58.9007 47.566 57.294 47.4987C55.326 47.4157 53.5309 46.8373 52.0014 45.588C51.0824 44.8373 50.552 43.8357 50.2388 42.7206C49.8871 41.4705 49.8688 40.2001 50.0376 38.9217C50.1427 38.1293 50.2886 37.3462 50.616 36.6072C51.3133 35.0321 52.5501 34.044 54.161 33.4558C55.315 33.0344 56.5089 32.8531 57.7348 32.841C59.3365 32.8612 60.8778 33.1524 62.3099 33.8812C63.8293 34.6548 64.8636 35.8201 65.2911 37.4773C65.8064 39.4737 65.7973 41.4449 65.0968 43.4023Z" fill="#0D7D40"/>
<path d="M33.7236 61.983C33.7236 62.7606 33.6308 63.2793 33.4447 63.5382C33.2586 63.7976 33.0291 63.9273 32.7566 63.9273C32.4841 63.9273 32.2541 63.7981 32.068 63.54C31.8819 63.282 31.7891 62.7628 31.7891 61.983C31.7891 61.2031 31.8915 60.6686 32.0959 60.3792C32.2591 60.1521 32.4768 60.0391 32.7497 60.0391C33.0227 60.0391 33.2586 60.1674 33.4447 60.4245C33.6308 60.6816 33.7236 61.2013 33.7236 61.983Z" fill="#0D7D40"/>
<path d="M37.4819 61.983C37.4819 62.7606 37.3891 63.2793 37.203 63.5382C37.0219 63.7904 36.8002 63.9201 36.5368 63.9268C36.5295 63.9273 36.5217 63.9273 36.5144 63.9273C36.2414 63.9273 36.0119 63.7981 35.8262 63.54C35.6402 63.282 35.5469 62.7628 35.5469 61.983C35.5469 61.2031 35.6493 60.6686 35.8541 60.3792C36.0169 60.1521 36.235 60.0391 36.508 60.0391C36.781 60.0391 37.0169 60.1674 37.203 60.4245C37.3306 60.6004 37.4142 60.8997 37.454 61.3215C37.4728 61.5158 37.4819 61.7362 37.4819 61.983Z" fill="#0D7D40"/>
<path d="M41.2475 61.983C41.2475 62.7139 41.1652 63.2165 41.0006 63.4889C40.9901 63.5064 40.9791 63.523 40.9682 63.5382C40.7821 63.7976 40.553 63.9273 40.28 63.9273C40.1799 63.9273 40.0857 63.9098 39.9974 63.8752C39.8447 63.8151 39.7094 63.7034 39.5914 63.54C39.4053 63.282 39.3125 62.7628 39.3125 61.983C39.3125 61.2031 39.4149 60.6686 39.6198 60.3792C39.7825 60.1521 40.0002 60.0391 40.2732 60.0391C40.5461 60.0391 40.7821 60.1674 40.9682 60.4245C41.1543 60.6816 41.2475 61.2013 41.2475 61.983Z" fill="#0D7D40"/>
<path d="M54.4033 61.983C54.4033 62.7606 54.3105 63.2793 54.1244 63.5382C53.9383 63.7976 53.7088 63.9273 53.4363 63.9273C53.2726 63.9273 53.1244 63.8806 52.9923 63.7877C52.9036 63.7258 52.8222 63.6437 52.7477 63.54C52.5616 63.282 52.4688 62.7628 52.4688 61.983C52.4688 61.6603 52.4861 61.3794 52.5218 61.1407C52.5712 60.8028 52.6558 60.5488 52.7756 60.3792C52.9388 60.1521 53.1564 60.0391 53.4294 60.0391C53.7024 60.0391 53.9383 60.1674 54.1244 60.4245C54.3105 60.6816 54.4033 61.2013 54.4033 61.983Z" fill="#0D7D40"/>
<path d="M61.9555 62.9739C61.9555 63.2503 61.8627 63.4783 61.678 63.6573C61.4933 63.8368 61.2587 63.9265 60.9748 63.9265C60.7919 63.9265 60.6213 63.8839 60.4631 63.7987C60.3044 63.7134 60.1851 63.5927 60.1046 63.437C60.0242 63.2817 59.9844 63.1206 59.9844 62.9542C59.9844 62.6822 60.0763 62.4552 60.2601 62.2739C60.4434 62.0926 60.6753 62.002 60.9551 62.002C61.2349 62.002 61.4796 62.0935 61.6698 62.277C61.86 62.461 61.9555 62.693 61.9555 62.9739Z" fill="#0D7D40"/>
<path d="M61.7581 60.7935C61.7581 60.999 61.6849 61.1722 61.5386 61.3136C61.3923 61.4549 61.2044 61.5258 60.9757 61.5258C60.7471 61.5258 60.5487 61.4545 60.401 61.3122C60.2538 61.1695 60.1797 60.986 60.1797 60.7612C60.1797 60.5624 60.2547 60.3919 60.4042 60.2492C60.5542 60.1065 60.7421 60.0352 60.9689 60.0352C61.1957 60.0352 61.3813 60.1083 61.5318 60.2541C61.6826 60.4 61.7581 60.5799 61.7581 60.7935Z" fill="#0D7D40"/>
</g>
<defs>
<clipPath id="clip0_3112_4059">
<rect width="90" height="88.3178" fill="white"/>
</clipPath>
</defs>
</svg>
