<svg width="88" height="89" viewBox="0 0 88 89" fill="none" xmlns="http://www.w3.org/2000/svg">
<path d="M44.4563 0.0022324C20.1814 -0.242776 0 19.7118 0 43.9675C0 62.8604 11.9297 78.9696 28.6715 85.1901V69.8873C19.8068 64.6435 13.8675 54.9895 13.8709 43.9505C13.8811 27.5758 27.1833 14.0936 43.5709 13.8656C60.4081 13.6308 74.1291 27.1981 74.1291 43.9675C74.1291 54.9997 68.1898 64.6469 59.3285 69.8873V85.1901C76.0703 78.9696 88 62.8638 88 43.9675C88.0034 19.8377 68.5474 0.250643 44.4563 0.0022324Z" fill="#3462A6"/>
<path d="M56.9453 85.8347V64.4918C56.9453 62.9884 55.7255 61.7695 54.2209 61.7695H33.7772C32.2725 61.7695 31.0527 62.9884 31.0527 64.4918V85.8347C31.0527 87.3382 32.2725 88.5571 33.7772 88.5571H54.2209C55.7255 88.5571 56.9453 87.3382 56.9453 85.8347Z" fill="#3462A6"/>
<path d="M35.1719 32.826V23.7471C35.1719 23.6246 35.2536 23.543 35.3762 23.543H36.2719C36.3945 23.543 36.4762 23.6246 36.4762 23.7471V32.826C36.4762 32.9486 36.3945 33.0302 36.2719 33.0302H35.3762C35.2536 33.0302 35.1719 32.9486 35.1719 32.826Z" fill="black"/>
<path d="M38.2656 30.4907V30.164C38.2656 30.0415 38.3474 29.9598 38.47 29.9598H39.3384C39.461 29.9598 39.5427 30.0415 39.5427 30.164V30.4226C39.5427 31.3176 40.3703 32.0084 41.7257 32.0084C43.0811 32.0084 43.6124 31.3993 43.6124 30.586C43.6124 29.7318 42.8802 29.3541 41.2932 28.7144C39.747 28.1189 38.3916 27.5744 38.3916 25.924C38.3916 24.2736 39.5972 23.4297 41.4839 23.4297C43.517 23.4297 44.835 24.5152 44.835 26.1282V26.3324C44.835 26.4549 44.7532 26.5365 44.6306 26.5365H43.7486C43.626 26.5365 43.5443 26.4685 43.5443 26.3596V26.1962C43.5443 25.2877 42.7984 24.556 41.4294 24.556C40.3022 24.556 39.6653 25.029 39.6653 25.8968C39.6653 26.7645 40.3703 27.1014 41.9709 27.7139C43.4761 28.2958 44.9133 28.8913 44.9133 30.5451C44.9133 32.09 43.6805 33.1347 41.6303 33.1347C39.5802 33.1347 38.2656 32.09 38.2656 30.4907Z" fill="black"/>
<path d="M46.4375 29.8952V26.6692C46.4375 24.733 47.7793 23.4297 49.7886 23.4297C51.7979 23.4297 53.1533 24.7296 53.1533 26.6692V29.8952C53.1533 31.845 51.8115 33.1483 49.7886 33.1483C47.7657 33.1483 46.4375 31.8484 46.4375 29.8952ZM51.849 29.9496V26.6556C51.849 25.3966 51.0214 24.556 49.7886 24.556C48.5558 24.556 47.7418 25.3966 47.7418 26.6556V29.9496C47.7418 31.1951 48.5694 32.022 49.7886 32.022C51.0078 32.022 51.849 31.1951 51.849 29.9496Z" fill="black"/>
<path d="M35.1719 32.826V23.7471C35.1719 23.6246 35.2536 23.543 35.3762 23.543H36.2719C36.3945 23.543 36.4762 23.6246 36.4762 23.7471V32.826C36.4762 32.9486 36.3945 33.0302 36.2719 33.0302H35.3762C35.2536 33.0302 35.1719 32.9486 35.1719 32.826Z" fill="#2E343D"/>
<path d="M38.2656 30.4907V30.164C38.2656 30.0415 38.3474 29.9598 38.47 29.9598H39.3384C39.461 29.9598 39.5427 30.0415 39.5427 30.164V30.4226C39.5427 31.3176 40.3703 32.0084 41.7257 32.0084C43.0811 32.0084 43.6124 31.3993 43.6124 30.586C43.6124 29.7318 42.8802 29.3541 41.2932 28.7144C39.747 28.1189 38.3916 27.5744 38.3916 25.924C38.3916 24.2736 39.5972 23.4297 41.4839 23.4297C43.517 23.4297 44.835 24.5152 44.835 26.1282V26.3324C44.835 26.4549 44.7532 26.5365 44.6306 26.5365H43.7486C43.626 26.5365 43.5443 26.4685 43.5443 26.3596V26.1962C43.5443 25.2877 42.7984 24.556 41.4294 24.556C40.3022 24.556 39.6653 25.029 39.6653 25.8968C39.6653 26.7645 40.3703 27.1014 41.9709 27.7139C43.4761 28.2958 44.9133 28.8913 44.9133 30.5451C44.9133 32.09 43.6805 33.1347 41.6303 33.1347C39.5802 33.1347 38.2656 32.09 38.2656 30.4907Z" fill="#2E343D"/>
<path d="M46.4375 29.8952V26.6692C46.4375 24.733 47.7793 23.4297 49.7886 23.4297C51.7979 23.4297 53.1533 24.7296 53.1533 26.6692V29.8952C53.1533 31.845 51.8115 33.1483 49.7886 33.1483C47.7657 33.1483 46.4375 31.8484 46.4375 29.8952ZM51.849 29.9496V26.6556C51.849 25.3966 51.0214 24.556 49.7886 24.556C48.5558 24.556 47.7418 25.3966 47.7418 26.6556V29.9496C47.7418 31.1951 48.5694 32.022 49.7886 32.022C51.0078 32.022 51.849 31.1951 51.849 29.9496Z" fill="#2E343D"/>
<path d="M33.5883 40.657V46.4385C33.5883 48.5517 31.8208 49.9367 29.2632 49.9367C26.7056 49.9367 25.0335 48.5551 25.0335 46.4964V46.054C25.0335 45.843 25.1493 45.7273 25.3604 45.7273H27.4174C27.6285 45.7273 27.7443 45.8056 27.7443 45.9179V46.1288C27.7443 46.9728 28.3607 47.6091 29.2632 47.6091C30.1657 47.6091 30.8774 46.9762 30.8774 46.071V44.3049C30.8774 44.2096 30.8195 44.1688 30.7412 44.247C30.1248 44.7473 29.396 44.9004 28.6638 44.9004C27.1449 44.9004 25.8576 44.1892 25.1629 42.8451C24.8359 42.2291 24.7031 41.4805 24.7031 40.6366C24.7031 39.8675 24.8359 39.1972 25.0675 38.6391C25.7214 37.1418 27.1824 36.1992 29.1236 36.1992C31.0647 36.1992 32.6041 37.1588 33.2375 38.7752C33.4691 39.3333 33.5849 39.9866 33.5849 40.657H33.5883ZM30.857 40.5617C30.857 40.1193 30.7787 39.7178 30.6084 39.3911C30.3394 38.8535 29.8592 38.5472 29.1474 38.5472C28.4356 38.5472 27.9759 38.8739 27.7068 39.3911C27.5161 39.7178 27.4174 40.1398 27.4174 40.6026C27.4174 41.0653 27.5127 41.5247 27.7239 41.8718C28.0304 42.3721 28.4935 42.6409 29.127 42.6409C29.8183 42.6409 30.2985 42.3721 30.5675 41.8548C30.7787 41.4907 30.857 40.9905 30.857 40.5685V40.5617Z" fill="#2E343D"/>
<path d="M35.3047 45.596V40.5257C35.3047 37.8544 37.0552 36.1836 39.8818 36.1836C42.7084 36.1836 44.4759 37.8544 44.4759 40.5257V45.596C44.4759 48.3047 42.7084 49.9959 39.8818 49.9959C37.0552 49.9959 35.3047 48.3047 35.3047 45.596ZM41.7651 45.7287V40.444C41.7651 39.253 41.0329 38.5044 39.8818 38.5044C38.7307 38.5044 38.0155 39.253 38.0155 40.444V45.7287C38.0155 46.9197 38.7477 47.6683 39.8818 47.6683C41.0158 47.6683 41.7651 46.9197 41.7651 45.7287Z" fill="#2E343D"/>
<path d="M46.25 45.596V40.5257C46.25 37.8544 48.0005 36.1836 50.8271 36.1836C53.6537 36.1836 55.4212 37.8544 55.4212 40.5257V45.596C55.4212 48.3047 53.6537 49.9959 50.8271 49.9959C48.0005 49.9959 46.25 48.3047 46.25 45.596ZM52.7104 45.7287V40.444C52.7104 39.253 51.9782 38.5044 50.8271 38.5044C49.676 38.5044 48.9608 39.253 48.9608 40.444V45.7287C48.9608 46.9197 49.693 47.6683 50.8271 47.6683C51.9611 47.6683 52.7104 46.9197 52.7104 45.7287Z" fill="#2E343D"/>
<path d="M59.0728 36.3516H61.2456C61.4567 36.3516 61.5725 36.4673 61.5725 36.6782V49.4731C61.5725 49.6841 61.4567 49.7998 61.2456 49.7998H59.1886C58.9774 49.7998 58.8617 49.6841 58.8617 49.4731V39.0024C58.8617 38.9241 58.8038 38.8663 58.7288 38.8867L57.0363 39.2338C56.8251 39.2712 56.6719 39.1555 56.6719 38.9446V37.4847C56.6719 37.3112 56.7502 37.1785 56.9205 37.1206L58.6709 36.4298C58.8072 36.372 58.9196 36.3516 59.0762 36.3516H59.0728Z" fill="#2E343D"/>
<path d="M42.5083 82.1797C42.0485 82.1797 41.6909 81.8088 41.4628 81.5297C39.5625 79.2124 38.2445 78.4331 37.4544 77.9703C36.8584 77.6198 36.0241 77.3442 36.1943 76.6262C36.2284 76.4866 36.2454 76.3471 36.2829 76.2212C36.5451 75.3501 37.1173 74.4721 37.8529 74.5504C38.1594 74.5844 38.568 74.7171 39.0346 74.9587C40.4956 75.7176 41.1835 76.633 41.6978 77.2863C42.0485 76.6976 42.7807 75.5815 44.1464 73.8562C47.4668 69.6707 50.7395 67.9148 51.3628 67.6051C51.4581 67.5575 51.5671 67.5268 51.6761 67.5234H51.7272C52.0609 67.5234 52.0541 67.7242 52.1835 68.0339C52.3095 68.3435 52.5411 68.694 52.2993 68.9254C51.6114 69.5992 50.3786 70.9093 48.4272 73.322C46.4826 75.7244 45.369 77.9669 44.555 79.6037C43.7309 81.2609 43.6389 82.1763 42.8693 82.1763H42.5049L42.5083 82.1797Z" fill="white"/>
<path d="M15.9245 68.1076C16.2685 67.7707 16.6227 67.5359 16.9803 67.3964C17.3413 67.2603 17.6886 67.2161 18.0292 67.2671L17.9066 66.168L18.6762 66.219L18.8193 67.5904C18.9385 67.672 19.0577 67.7707 19.17 67.8864C19.388 68.1076 19.5447 68.3526 19.6434 68.6146C19.7422 68.8801 19.7796 69.1523 19.7592 69.4347C19.7388 69.7172 19.6536 70.003 19.5072 70.2923C19.3608 70.5815 19.1496 70.8606 18.8704 71.1294L18.6865 71.3097C18.4106 71.5786 18.1245 71.7861 17.8317 71.9257C17.5388 72.0652 17.2527 72.1434 16.97 72.1605C16.6874 72.1775 16.4149 72.1332 16.1527 72.0277C15.8905 71.9223 15.6521 71.7589 15.4341 71.5377C15.2128 71.3097 15.0527 71.0647 14.9505 70.7993C14.8518 70.5339 14.8109 70.2582 14.8348 69.9758C14.8586 69.6934 14.9471 69.4075 15.0936 69.1217C15.2434 68.8358 15.4546 68.5568 15.7338 68.288L15.9177 68.1076H15.9245ZM16.3536 68.9277C15.945 69.3258 15.7066 69.707 15.6453 70.0677C15.584 70.4284 15.6896 70.7483 15.962 71.0273C16.0948 71.1634 16.2379 71.2587 16.3979 71.3131C16.558 71.3676 16.7248 71.3812 16.9053 71.354C17.0858 71.3267 17.2731 71.2587 17.4673 71.1464C17.6648 71.0341 17.8623 70.881 18.0666 70.6836L18.2574 70.4998C18.4617 70.3025 18.6218 70.1051 18.7375 69.9111C18.8533 69.7172 18.9283 69.53 18.9589 69.3497C18.9896 69.1693 18.9793 68.9992 18.9283 68.8392C18.8772 68.6793 18.7852 68.5296 18.6524 68.3935C18.3766 68.111 18.0598 67.9987 17.6988 68.0566C17.3379 68.1144 16.953 68.3424 16.5409 68.7406L16.3502 68.9243L16.3536 68.9277Z" fill="white"/>
<path d="M10.5547 65.4176L13.3166 63.4303C13.5516 63.2602 13.79 63.1513 14.025 63.1037C14.26 63.056 14.4881 63.0594 14.7095 63.1139C14.9309 63.1683 15.1352 63.267 15.3293 63.4099C15.5234 63.5528 15.6971 63.7332 15.8504 63.9476C16.0104 64.1688 16.1262 64.3934 16.2045 64.6248C16.2795 64.8561 16.3101 65.0841 16.2897 65.3053C16.2692 65.5299 16.1977 65.7443 16.0785 65.9485C15.9559 66.1526 15.7788 66.3432 15.5404 66.5099L12.7785 68.4972L12.2643 67.7826L15.0262 65.7953C15.1726 65.6899 15.2884 65.5776 15.3668 65.4619C15.4451 65.3462 15.4928 65.2271 15.5132 65.1046C15.5302 64.9821 15.52 64.8595 15.4791 64.7336C15.4383 64.6077 15.3736 64.4818 15.2816 64.3559C15.1897 64.23 15.0909 64.1279 14.9853 64.0463C14.8798 63.968 14.764 63.9169 14.6414 63.8965C14.5188 63.8761 14.3928 63.8863 14.2565 63.9238C14.1203 63.9612 13.9807 64.0326 13.8343 64.1415L11.0723 66.1288L10.5581 65.4142L10.5547 65.4176Z" fill="white"/>
<path d="M11.6832 59.4464L12.5925 61.1921L13.8355 61.0117L14.2612 61.825L8.85999 62.4682L8.49219 61.7638L12.1191 57.7109L12.5448 58.5276L11.6866 59.443L11.6832 59.4464ZM11.8467 61.301L11.1656 59.9943L9.63305 61.6209L11.8467 61.301Z" fill="white"/>
<path d="M10.7838 56.2017L10.0073 54.0273L10.6714 53.7891L11.7442 56.7938L6.95254 58.5021L6.65625 57.6684L10.7838 56.1949V56.2017Z" fill="white"/>
<path d="M10.1725 51.793L10.3836 52.6471L5.44552 53.8721L5.23438 53.018L10.1725 51.793Z" fill="white"/>
<path d="M5.03308 47.3589L5.25444 48.9276L9.58633 48.3151L9.70893 49.1828L5.37704 49.7953L5.5984 51.3505L4.89345 51.4491L4.32812 47.4542L5.03308 47.3555V47.3589Z" fill="white"/>
<path d="M6.62048 44.0165L4.1889 42.8868L4.17188 41.9102L7.41398 43.5606L9.28704 43.5299L9.30067 44.4181L7.4276 44.4487L4.23999 46.208L4.22296 45.228L6.61367 44.0199L6.62048 44.0165Z" fill="white"/>
<path d="M9.07687 35.6003L8.67501 37.5297L9.75117 38.1762L9.56387 39.0746L4.97656 36.1549L5.14003 35.3791L10.514 34.5352L10.3267 35.4369L9.08028 35.6003H9.07687ZM8.02455 37.1384L8.32764 35.6955L6.11062 35.9848L8.02455 37.1384Z" fill="white"/>
<path d="M10.4974 30.6882C10.4021 30.6542 10.3101 30.6371 10.225 30.6371C10.1398 30.6371 10.0513 30.6644 9.95935 30.7154C9.8674 30.7665 9.76864 30.8481 9.66307 30.9604C9.55749 31.0727 9.43489 31.219 9.29526 31.4028C9.14542 31.607 8.98876 31.7873 8.83211 31.9473C8.67545 32.1072 8.51198 32.2365 8.34511 32.3318C8.17824 32.4271 8.00455 32.4883 7.82406 32.5121C7.64356 32.536 7.45626 32.5121 7.26214 32.4407C7.06802 32.3692 6.90796 32.2637 6.77514 32.1242C6.64232 31.9847 6.54356 31.8179 6.48226 31.624C6.41756 31.4334 6.39031 31.219 6.40053 30.9876C6.41074 30.7562 6.46183 30.5146 6.55378 30.2628C6.65254 29.994 6.77855 29.766 6.9352 29.5788C7.09186 29.3917 7.26214 29.2488 7.44944 29.1501C7.63675 29.0514 7.83427 28.9935 8.03861 28.9799C8.24294 28.9663 8.44728 28.9935 8.6448 29.0684L8.3417 29.8953C8.22591 29.8545 8.11353 29.8307 8.00115 29.8341C7.89217 29.8341 7.7866 29.8579 7.68783 29.9089C7.58907 29.9566 7.50053 30.0314 7.41879 30.1301C7.33706 30.2288 7.26895 30.3581 7.21105 30.5112C7.15656 30.6576 7.12932 30.7903 7.12251 30.9094C7.1157 31.0285 7.12932 31.134 7.16338 31.2258C7.19743 31.3177 7.24852 31.396 7.31663 31.4606C7.38474 31.5253 7.46647 31.5729 7.56183 31.607C7.73892 31.6716 7.91601 31.641 8.0965 31.5185C8.277 31.3926 8.47793 31.1782 8.70269 30.8719C8.87978 30.6303 9.05347 30.4296 9.22034 30.2696C9.38722 30.1063 9.55749 29.9838 9.72437 29.8987C9.89465 29.8136 10.0649 29.766 10.242 29.7592C10.4157 29.7524 10.5996 29.783 10.7903 29.8511C10.9912 29.9259 11.1581 30.0314 11.2909 30.1675C11.4237 30.3071 11.5191 30.4704 11.577 30.6576C11.6349 30.8447 11.6587 31.0557 11.6417 31.2871C11.6247 31.5185 11.5702 31.7635 11.4748 32.0221C11.3897 32.2501 11.2773 32.4679 11.1343 32.6687C10.9912 32.8694 10.8244 33.0362 10.6337 33.1655C10.4429 33.2982 10.2352 33.3833 10.007 33.4207C9.77886 33.4615 9.53706 33.4343 9.28505 33.3424L9.58814 32.5121C9.73799 32.5666 9.87762 32.587 10.007 32.5734C10.1364 32.5598 10.2488 32.5189 10.3544 32.4509C10.4566 32.3828 10.5485 32.2909 10.6268 32.1752C10.7052 32.0595 10.7699 31.9302 10.8244 31.7839C10.9299 31.4947 10.9504 31.2565 10.8857 31.0693C10.821 30.8822 10.6915 30.7528 10.5008 30.6814L10.4974 30.6882Z" fill="white"/>
<path d="M12.6064 26.3258C12.5144 26.2781 12.4293 26.2475 12.3441 26.2373C12.259 26.2271 12.1671 26.2407 12.0717 26.2815C11.9729 26.3224 11.864 26.387 11.7448 26.4857C11.6256 26.581 11.4825 26.7103 11.3191 26.8736C11.142 27.054 10.9649 27.2139 10.7878 27.35C10.6107 27.4861 10.4302 27.5916 10.2531 27.6665C10.076 27.738 9.89553 27.7754 9.71504 27.7754C9.53454 27.7754 9.35064 27.7243 9.16674 27.6291C8.98625 27.5338 8.83981 27.4079 8.72742 27.2479C8.61504 27.0914 8.54012 26.911 8.50265 26.7137C8.46519 26.5163 8.4686 26.3019 8.50947 26.0739C8.55033 25.8459 8.63547 25.6145 8.75807 25.3763C8.89089 25.1245 9.04755 24.9136 9.22804 24.7502C9.40854 24.5869 9.59584 24.4678 9.79677 24.3963C9.9943 24.3249 10.1986 24.2942 10.403 24.3078C10.6073 24.3215 10.8048 24.3759 10.9921 24.478L10.5801 25.2572C10.4711 25.1994 10.3621 25.162 10.2531 25.1484C10.1441 25.1347 10.0352 25.145 9.933 25.179C9.82742 25.213 9.72866 25.2743 9.63671 25.3627C9.54136 25.4512 9.45622 25.5669 9.38129 25.7132C9.30978 25.8528 9.2621 25.9787 9.23826 26.0944C9.21442 26.2101 9.21442 26.3189 9.23826 26.4142C9.25869 26.5095 9.29956 26.5946 9.35745 26.666C9.41535 26.7375 9.49027 26.7988 9.57882 26.843C9.74569 26.9315 9.92618 26.9247 10.1203 26.826C10.3144 26.7273 10.546 26.5401 10.8116 26.2679C11.0194 26.0535 11.2169 25.8766 11.4076 25.7405C11.5949 25.6043 11.7788 25.5023 11.9593 25.441C12.1398 25.3798 12.3169 25.3559 12.4906 25.3729C12.6643 25.39 12.8414 25.4444 13.0219 25.5397C13.2126 25.6384 13.3624 25.7677 13.4748 25.9208C13.5872 26.0773 13.6587 26.2509 13.6927 26.4449C13.7268 26.6388 13.7166 26.8498 13.6689 27.0778C13.6212 27.3058 13.5327 27.5406 13.4033 27.7822C13.2875 28 13.1479 28.1973 12.9776 28.3743C12.8073 28.5546 12.62 28.6942 12.4123 28.7997C12.2045 28.9051 11.9866 28.9596 11.755 28.9698C11.5234 28.9766 11.2884 28.9188 11.05 28.7928L11.4621 28.0102C11.6051 28.085 11.7379 28.1259 11.8674 28.1293C11.9968 28.1293 12.116 28.1089 12.2284 28.0544C12.3407 28 12.4429 27.9217 12.5349 27.8196C12.6268 27.7175 12.7119 27.595 12.7835 27.4589C12.9265 27.1867 12.981 26.9553 12.9435 26.7579C12.9061 26.564 12.7971 26.4176 12.6132 26.3224L12.6064 26.3258Z" fill="white"/>
<path d="M12.8557 19.2031L15.6142 21.1972C15.8492 21.3674 16.0262 21.5579 16.1454 21.7655C16.2646 21.9731 16.3327 22.1909 16.3498 22.4154C16.3668 22.64 16.3396 22.868 16.2612 23.0994C16.1863 23.3274 16.0705 23.552 15.9173 23.763C15.7572 23.9842 15.5801 24.1679 15.386 24.3109C15.1919 24.4538 14.9841 24.5525 14.7662 24.6035C14.5482 24.6545 14.32 24.6545 14.0885 24.6035C13.8535 24.5525 13.6219 24.4402 13.3835 24.27L10.625 22.2759L11.1426 21.5647L13.9012 23.5588C14.0476 23.6643 14.1906 23.7392 14.3235 23.7766C14.4597 23.814 14.5857 23.8242 14.7083 23.8038C14.8309 23.7834 14.9433 23.7324 15.0522 23.6541C15.1578 23.5758 15.2566 23.4737 15.3485 23.3478C15.4405 23.2219 15.5052 23.096 15.5495 22.9667C15.5903 22.8408 15.604 22.7149 15.5835 22.5958C15.5665 22.4733 15.5154 22.3576 15.4371 22.2419C15.3587 22.1262 15.2464 22.0139 15.0999 21.9084L12.3414 19.9143L12.8591 19.2031H12.8557Z" fill="white"/>
<path d="M17.6892 18.4749L17.0047 19.1827L18.4146 20.5438L17.7982 21.1802L14.1406 17.6446L15.3837 16.3583C15.5846 16.1507 15.7889 15.9873 15.9967 15.8682C16.2044 15.7491 16.4087 15.6811 16.6097 15.6573C16.8106 15.6334 17.0115 15.6573 17.2056 15.7355C17.3998 15.8104 17.5871 15.9329 17.7676 16.1099C18.0128 16.3447 18.1592 16.6033 18.2103 16.8789C18.2614 17.1579 18.2273 17.4438 18.1149 17.7398L20.4341 18.3932L20.4682 18.4238L19.8109 19.1044L17.6926 18.4749H17.6892ZM16.4939 18.6892L17.1273 18.0359C17.2363 17.9236 17.318 17.8079 17.3725 17.6922C17.4236 17.5765 17.4508 17.4676 17.4542 17.3587C17.4542 17.2498 17.4338 17.1443 17.3861 17.0456C17.3385 16.947 17.2738 16.8517 17.1852 16.7666C17.0899 16.6747 16.9945 16.6067 16.8923 16.559C16.7902 16.5114 16.6846 16.491 16.579 16.4944C16.47 16.4944 16.3611 16.5284 16.2487 16.5863C16.1363 16.6441 16.0205 16.7326 15.9047 16.8551L15.2747 17.505L16.5007 18.6892H16.4939Z" fill="white"/>
<path d="M22.7305 15.1197L21.1707 16.3244L21.5692 17.512L20.8438 18.0734L19.25 12.8772L19.8766 12.3906L24.515 15.232L23.7862 15.7969L22.7305 15.1163V15.1197ZM20.9324 15.6098L22.0971 14.708L20.2206 13.4898L20.9289 15.6098H20.9324Z" fill="white"/>
<path d="M28.8209 12.7723L28.0479 13.2011L24.312 11.1457L26.0624 14.3002L25.2894 14.729L22.8203 10.2848L23.5934 9.85602L27.3429 11.9182L25.5856 8.75349L26.3519 8.32812L28.8209 12.7723Z" fill="white"/>
<path d="M33.1433 9.32224C33.208 9.56385 33.2319 9.79865 33.2182 10.03C33.2046 10.2614 33.1467 10.4758 33.0446 10.6766C32.9424 10.8774 32.7959 11.0611 32.6018 11.2245C32.4077 11.3878 32.1659 11.5239 31.873 11.6328C31.5802 11.7417 31.2941 11.7859 31.0182 11.7689C30.7424 11.7519 30.4836 11.6736 30.2452 11.5409C30.0068 11.4082 29.7888 11.2177 29.5981 10.976C29.4074 10.731 29.2473 10.4384 29.1179 10.0913L28.9749 9.70337C28.8489 9.35967 28.7774 9.033 28.7672 8.71993C28.7569 8.40687 28.7978 8.12102 28.8966 7.8624C28.9953 7.60378 29.1452 7.37579 29.3461 7.17842C29.547 6.98105 29.799 6.82792 30.0987 6.71903C30.3814 6.61354 30.6504 6.5625 30.899 6.5625C31.1476 6.5625 31.3758 6.61014 31.5802 6.69862C31.7845 6.78709 31.9684 6.9164 32.1285 7.08654C32.2885 7.25669 32.4247 7.45406 32.5371 7.68205L31.713 7.98831C31.6381 7.84539 31.5597 7.71948 31.4712 7.61399C31.3826 7.5085 31.2839 7.43024 31.1749 7.37579C31.0659 7.32134 30.9433 7.29412 30.8071 7.29412C30.6709 7.29412 30.5176 7.32815 30.3473 7.3894C30.16 7.45746 30.0068 7.55614 29.8944 7.67865C29.7786 7.80115 29.7003 7.94748 29.656 8.11762C29.6117 8.28776 29.6015 8.47833 29.6288 8.69271C29.656 8.90709 29.7139 9.13849 29.8058 9.3903L29.9523 9.78163C30.0408 10.0198 30.143 10.2274 30.2554 10.4078C30.3678 10.5881 30.4938 10.7276 30.6334 10.8365C30.773 10.942 30.9229 11.0101 31.0898 11.0339C31.2566 11.0577 31.4337 11.0339 31.6278 10.9658C31.8083 10.9012 31.9514 10.8229 32.0603 10.7344C32.1693 10.646 32.2476 10.5473 32.2987 10.4384C32.3498 10.3295 32.3771 10.2036 32.3771 10.0709C32.3771 9.93476 32.36 9.78844 32.3226 9.6285L33.1501 9.32224H33.1433Z" fill="white"/>
<path d="M37.27 7.72334L35.23 8.17252L35.5672 9.70042L37.9545 9.17637L38.1077 9.86375L34.8588 10.5784L33.7656 5.61355L36.9907 4.90234L37.144 5.59653L34.7805 6.11717L35.0836 7.48854L37.1235 7.03936L37.2734 7.71993L37.27 7.72334Z" fill="white"/>
<path d="M42.6503 4.34854L44.0534 8.26867L45.5791 4.39618L46.7234 4.4132L46.6416 9.49711L45.7596 9.4835L45.7868 7.80588L45.9094 5.56678L44.3429 9.45968L43.7094 9.44947L42.2723 5.51233L42.3233 7.75143L42.2961 9.42565L41.4141 9.41204L41.4958 4.32812L42.6435 4.34514L42.6503 4.34854Z" fill="white"/>
<path d="M51.0807 8.99753L49.1395 8.65043L48.5231 9.74276L47.6172 9.57942L50.4064 4.91406L51.1862 5.05358L52.1841 10.3995L51.2748 10.2362L51.0738 8.99753H51.0807ZM49.5107 7.99368L50.9615 8.2523L50.6073 6.04722L49.5073 7.99368H49.5107Z" fill="white"/>
<path d="M56.888 11.9822L56.0502 11.6963L55.0796 7.54821L53.9081 10.9613L53.0703 10.6755L54.722 5.86719L55.5598 6.15303L56.5338 10.3182L57.7121 6.89486L58.5431 7.1807L56.8914 11.989L56.888 11.9822Z" fill="white"/>
<path d="M61.2427 12.832L59.4991 11.9132L58.5796 12.7673L57.7656 12.3385L61.8421 8.73828L62.5436 9.1092L61.8693 14.5028L61.052 14.0706L61.2359 12.8286L61.2427 12.832ZM60.0508 11.3993L61.3551 12.0867L61.6888 9.87825L60.0508 11.3993Z" fill="white"/>
<path d="M66.1037 16.7462C66.0186 16.77 65.913 16.7904 65.787 16.8006C65.661 16.8142 65.5145 16.8006 65.3477 16.7734C65.1842 16.7428 65.0003 16.6883 64.8028 16.6033C64.6018 16.5182 64.3873 16.3923 64.1591 16.2255C63.9003 16.0384 63.6994 15.8206 63.5495 15.5722C63.3997 15.3272 63.3077 15.0617 63.2771 14.7827C63.2464 14.5037 63.2771 14.211 63.3724 13.9014C63.4678 13.5951 63.6278 13.2854 63.8594 12.9724L64.0569 12.7035C64.2851 12.3939 64.5303 12.1421 64.7857 11.9549C65.0412 11.7678 65.3068 11.6418 65.5758 11.5772C65.8449 11.5159 66.1139 11.5159 66.3898 11.5772C66.6622 11.6418 66.9312 11.7712 67.1969 11.9651C67.4455 12.1489 67.6396 12.3394 67.7792 12.5402C67.9189 12.741 68.0074 12.9486 68.0517 13.1561C68.0925 13.3671 68.0925 13.5781 68.0483 13.7925C68.004 14.0069 67.9223 14.2178 67.8065 14.4288L67.1083 13.915C67.1696 13.7959 67.2139 13.6768 67.2412 13.5577C67.2684 13.4386 67.2718 13.3195 67.2514 13.2038C67.2309 13.0881 67.1833 12.9758 67.1117 12.8635C67.0402 12.7512 66.9347 12.6457 66.795 12.5436C66.6282 12.4211 66.4613 12.3462 66.291 12.3156C66.1241 12.2884 65.9538 12.302 65.7836 12.3633C65.6133 12.4211 65.4464 12.5232 65.2795 12.6695C65.1127 12.8124 64.9458 12.9962 64.7823 13.2174L64.578 13.493C64.4111 13.7176 64.2919 13.9354 64.2102 14.1464C64.1319 14.3573 64.0944 14.5513 64.0978 14.7385C64.1012 14.9222 64.1455 15.0958 64.2306 15.2523C64.3158 15.4088 64.4418 15.5484 64.6052 15.6709C64.7278 15.7593 64.8368 15.8308 64.9356 15.8784C65.0343 15.9261 65.1229 15.9601 65.2012 15.9805C65.2795 16.0009 65.3477 16.0112 65.409 16.0077C65.4703 16.0077 65.5213 16.0009 65.5656 15.9941L66.1548 15.1911L65.3102 14.5717L65.7086 14.0307L67.265 15.1706L66.1105 16.7428L66.1037 16.7462Z" fill="white"/>
<path d="M70.4454 18.6137L68.947 17.1573L67.8538 18.2768L69.6043 19.9817L69.1105 20.4853L66.7266 18.1645L70.2786 14.5234L72.6454 16.8272L72.1482 17.3376L70.4148 15.6498L69.434 16.6536L70.9324 18.1101L70.4454 18.6103V18.6137Z" fill="white"/>
<path d="M74.5959 19.1297L72.3448 22.6347L76.3464 21.4777L77.0309 22.3931L72.951 25.4319L72.4232 24.7275L73.7684 23.727L75.621 22.4577L71.5786 23.5943L71.2006 23.0873L73.4448 19.5449L71.7012 20.9537L70.356 21.9541L69.8281 21.2497L73.908 18.2109L74.5925 19.1297H74.5959Z" fill="white"/>
<path d="M77.0326 28.1905L76.062 26.3394L74.6759 27.0642L75.81 29.2284L75.1833 29.5551L73.6406 26.6082L78.1496 24.25L79.6821 27.1731L79.0521 27.5032L77.9316 25.3627L76.6886 26.0127L77.6592 27.8639L77.0394 28.1871L77.0326 28.1905Z" fill="white"/>
<path d="M76.9321 34.3594L76.6393 33.5257L79.2922 30.1909L75.8866 31.3887L75.5938 30.555L80.3922 28.8672L80.6851 29.7009L78.0219 33.0493L81.4411 31.8447L81.734 32.6716L76.9355 34.3594H76.9321Z" fill="white"/>
<path d="M82.24 38.371L81.9335 36.8159L77.639 37.6564L77.4688 36.7955L81.7632 35.955L81.4601 34.4135L82.1582 34.2773L82.9347 38.2349L82.2366 38.371H82.24Z" fill="white"/>
<path d="M79.5144 45.015C79.6165 45.015 79.7085 45.0014 79.7902 44.9742C79.8719 44.9469 79.9469 44.8925 80.015 44.8108C80.0831 44.7326 80.1512 44.6237 80.2159 44.4807C80.2806 44.3412 80.3487 44.1609 80.4202 43.9397C80.4952 43.6981 80.5837 43.4769 80.6791 43.2727C80.7744 43.0685 80.8868 42.895 81.0128 42.7487C81.1388 42.6024 81.2818 42.4901 81.4453 42.4084C81.6088 42.3267 81.7927 42.2893 82.0004 42.2927C82.2048 42.2927 82.3921 42.3437 82.5657 42.4322C82.736 42.5207 82.8825 42.6466 83.0085 42.8065C83.1311 42.9665 83.2264 43.157 83.2911 43.3816C83.3558 43.6028 83.3899 43.8478 83.3831 44.1166C83.3797 44.4025 83.332 44.6611 83.2469 44.8857C83.1617 45.1137 83.0459 45.3042 82.8995 45.4574C82.7565 45.6105 82.5896 45.7296 82.3989 45.8113C82.2082 45.8929 82.0106 45.9304 81.7961 45.927L81.8097 45.0456C81.9323 45.0456 82.0481 45.032 82.1503 44.9946C82.2558 44.9572 82.3444 44.8993 82.4227 44.821C82.501 44.7428 82.5589 44.6441 82.6032 44.525C82.6475 44.4059 82.6713 44.263 82.6747 44.0962C82.6747 43.9397 82.6611 43.8036 82.6305 43.6913C82.5964 43.5756 82.5487 43.4803 82.4874 43.4054C82.4261 43.3272 82.3512 43.2727 82.2661 43.2353C82.1809 43.1979 82.089 43.1774 81.9868 43.1774C81.7995 43.1774 81.6394 43.2625 81.51 43.4361C81.3806 43.613 81.2614 43.8818 81.149 44.2459C81.0605 44.5318 80.9617 44.7768 80.8561 44.9844C80.7506 45.192 80.6314 45.3655 80.4986 45.5016C80.3657 45.6377 80.2193 45.7398 80.0558 45.8045C79.8924 45.8691 79.7085 45.8998 79.5075 45.8964C79.293 45.8929 79.1023 45.8487 78.932 45.7602C78.7617 45.6718 78.6187 45.5493 78.4995 45.3893C78.3803 45.2294 78.2918 45.0388 78.2339 44.8142C78.1726 44.5896 78.1453 44.3412 78.1487 44.0656C78.1521 43.8206 78.1896 43.5824 78.2611 43.3442C78.3326 43.1094 78.4348 42.895 78.571 42.7112C78.7072 42.5241 78.8775 42.3744 79.0784 42.2621C79.2794 42.1498 79.5178 42.0953 79.7868 42.1021L79.7732 42.9869C79.6131 42.9869 79.4735 43.0107 79.3577 43.0651C79.2419 43.1196 79.1466 43.1979 79.0716 43.2931C78.9967 43.3918 78.9422 43.5075 78.9048 43.6402C78.8673 43.7729 78.8503 43.9193 78.8469 44.0758C78.8435 44.3821 78.9013 44.6169 79.0239 44.7734C79.1466 44.9299 79.31 45.0116 79.5144 45.015Z" fill="white"/>
<path d="M80.5346 49.0746L82.7618 50.5684L82.6256 51.5383L79.6763 49.4047L77.8203 49.146L77.9429 48.2681L79.799 48.5267L83.2216 47.2812L83.0853 48.2545L80.5346 49.078V49.0746Z" fill="white"/>
<path d="M77.8951 54.593C77.9938 54.6203 78.0858 54.6305 78.1709 54.6237C78.2561 54.6169 78.3412 54.5828 78.4297 54.525C78.5183 54.4671 78.6102 54.3786 78.7056 54.2595C78.8044 54.1404 78.9133 53.9839 79.0393 53.79C79.1756 53.5756 79.3152 53.385 79.4616 53.2115C79.6081 53.0379 79.7579 52.8984 79.918 52.7895C80.078 52.6806 80.2449 52.6091 80.422 52.5717C80.5991 52.5343 80.7864 52.5445 80.9873 52.5989C81.1849 52.6534 81.3551 52.7487 81.4982 52.878C81.6412 53.0073 81.7502 53.1672 81.8285 53.3544C81.9068 53.5415 81.9477 53.7491 81.9579 53.9805C81.9647 54.2119 81.9307 54.4569 81.8592 54.7155C81.7808 54.9912 81.6719 55.226 81.5288 55.4233C81.3858 55.6207 81.2257 55.7738 81.0486 55.8895C80.8681 56.0018 80.6774 56.0733 80.4731 56.1039C80.2688 56.1345 80.0678 56.1209 79.8635 56.0631L80.1019 55.2158C80.2211 55.2498 80.3369 55.26 80.4459 55.2532C80.5548 55.2464 80.657 55.2124 80.7524 55.1579C80.8477 55.1035 80.9294 55.0218 81.0044 54.9163C81.0759 54.8108 81.1372 54.6781 81.1815 54.5216C81.2223 54.3718 81.2428 54.2357 81.2393 54.1166C81.2393 53.9975 81.2155 53.892 81.1746 53.8036C81.1338 53.7151 81.0793 53.6402 81.0044 53.5824C80.9328 53.5245 80.8477 53.4803 80.7489 53.4531C80.5685 53.402 80.3914 53.4463 80.2211 53.5824C80.0508 53.7185 79.8669 53.9499 79.6626 54.2732C79.5025 54.525 79.3458 54.7394 79.1926 54.9129C79.0359 55.0864 78.8793 55.2226 78.7158 55.3212C78.5524 55.4199 78.3855 55.4778 78.2118 55.5016C78.0381 55.522 77.8542 55.505 77.6567 55.4506C77.4489 55.3927 77.2753 55.3008 77.1356 55.1715C76.9926 55.0422 76.887 54.8891 76.8155 54.7019C76.744 54.5182 76.7065 54.3106 76.7031 54.0792C76.7031 53.8478 76.7372 53.5994 76.8121 53.334C76.8768 53.0992 76.9756 52.8746 77.105 52.6636C77.2344 52.4526 77.3876 52.2757 77.5681 52.1293C77.7486 51.983 77.9496 51.8843 78.1743 51.8265C78.3991 51.7686 78.6409 51.7788 78.8997 51.8503L78.6613 52.701C78.5081 52.6568 78.365 52.6466 78.239 52.6704C78.113 52.6942 78.0006 52.7419 77.9019 52.8201C77.8031 52.895 77.7214 52.9937 77.6533 53.1128C77.5852 53.2319 77.5273 53.368 77.4864 53.5177C77.4013 53.8138 77.4013 54.052 77.4796 54.2357C77.5579 54.4195 77.6941 54.5386 77.8917 54.593H77.8951Z" fill="white"/>
<path d="M78.5746 61.2899L79.2115 59.8368L75.2031 58.0843L75.5539 57.2812L79.5623 59.0337L80.1923 57.5943L80.8462 57.8802L79.2285 61.5757L78.5746 61.2899Z" fill="white"/>
<path d="M74.4454 64.1686L75.5284 62.3821L74.19 61.5722L72.9231 63.6581L72.3203 63.2906L74.0469 60.4492L78.3959 63.0865L76.6829 65.9075L76.0733 65.5365L77.3265 63.471L76.1243 62.7428L75.0414 64.5293L74.4454 64.1686Z" fill="white"/>
<path d="M74.9133 68.3341L70.9901 66.9321L73.0164 70.5698L72.2774 71.4409L68.3984 68.1538L68.9672 67.4834L70.2477 68.5689L71.9028 70.0866L69.8833 66.4081L70.2919 65.9249L74.2492 67.3132L72.4851 65.9317L71.2046 64.8461L71.7734 64.1758L75.6523 67.463L74.9099 68.3375L74.9133 68.3341Z" fill="white"/>
<path d="M33.058 56.1286C33.041 56.3464 32.9933 56.5472 32.9116 56.7309C32.8298 56.9147 32.7141 57.0712 32.5676 57.2039C32.4212 57.3366 32.2441 57.4387 32.0364 57.5102C31.8286 57.585 31.5902 57.6225 31.3246 57.6225C31.0589 57.6225 30.8001 57.5748 30.5788 57.4795C30.3574 57.3843 30.1735 57.2448 30.0202 57.0678C29.867 56.8874 29.7512 56.6697 29.6695 56.4144C29.5877 56.1592 29.5469 55.8734 29.5469 55.5535V55.2711C29.5469 54.9546 29.5877 54.6654 29.6729 54.4101C29.758 54.1549 29.8772 53.9371 30.0339 53.7568C30.1871 53.5764 30.3778 53.4403 30.5992 53.3416C30.8206 53.2464 31.0658 53.1953 31.3382 53.1953C31.6107 53.1953 31.8422 53.2327 32.05 53.311C32.2577 53.3859 32.4314 53.4914 32.5744 53.6275C32.7175 53.7636 32.8298 53.9235 32.9116 54.1107C32.9933 54.2978 33.0444 54.4986 33.0648 54.7198H32.176C32.1658 54.5905 32.1453 54.4782 32.1079 54.3795C32.0738 54.2808 32.0227 54.1992 31.958 54.1311C31.8933 54.063 31.8082 54.012 31.706 53.978C31.6038 53.9439 31.4778 53.9269 31.3314 53.9269C31.0317 53.9269 30.8069 54.0358 30.6605 54.2536C30.5141 54.4714 30.4391 54.8083 30.4391 55.2677V55.5569C30.4391 55.7815 30.4562 55.9755 30.4868 56.1422C30.5209 56.309 30.572 56.4485 30.6401 56.5608C30.7116 56.6731 30.8001 56.7581 30.9125 56.8126C31.0249 56.867 31.1577 56.8977 31.3178 56.8977C31.4574 56.8977 31.58 56.8806 31.6822 56.85C31.7843 56.8194 31.8695 56.7718 31.9376 56.7071C32.0057 56.6424 32.0568 56.5642 32.0977 56.4655C32.1351 56.3702 32.159 56.2579 32.1692 56.1286H33.058Z" fill="#2E343D"/>
<path d="M36.2357 55.7016H34.5295V56.8552H36.532V57.5698H33.6406V53.2617H36.5251V53.9797H34.5295V55.0074H36.2357V55.7016Z" fill="#2E343D"/>
<path d="M38.6207 55.9864H37.9123V57.562H37.0234V53.2539H38.6241C38.8727 53.2539 39.0974 53.2811 39.295 53.339C39.4925 53.3934 39.6594 53.4785 39.7956 53.5874C39.9318 53.6963 40.0374 53.8324 40.1089 53.9957C40.1804 54.1591 40.2179 54.3462 40.2179 54.5572C40.2179 54.7137 40.2008 54.8567 40.1634 54.9826C40.1293 55.1085 40.0748 55.2208 40.0101 55.3161C39.942 55.4147 39.8637 55.4998 39.7683 55.5713C39.673 55.6427 39.5674 55.7074 39.4482 55.7618L40.3813 57.5211V57.562H39.4278L38.6207 55.9864ZM37.9123 55.2684H38.6275C38.7433 55.2684 38.8454 55.2548 38.934 55.2242C39.0225 55.1936 39.094 55.1493 39.1519 55.0949C39.2098 55.0404 39.2541 54.9724 39.2847 54.8941C39.3154 54.8158 39.329 54.7274 39.329 54.6321C39.329 54.4279 39.2711 54.268 39.1553 54.1523C39.0395 54.0366 38.8624 53.9787 38.6241 53.9787H37.9089V55.2718L37.9123 55.2684Z" fill="#2E343D"/>
<path d="M44.0146 53.9797H42.6932V57.5698H41.8043V53.9797H40.5V53.2617H44.0111V53.9797H44.0146Z" fill="#2E343D"/>
<path d="M45.4748 57.5698H44.5859V53.2617H45.4748V57.5698Z" fill="#2E343D"/>
<path d="M48.9075 55.8027H47.2014V57.562H46.3125V53.2539H49.1187V53.9719H47.2014V55.0847H48.9075V55.7993V55.8027Z" fill="#2E343D"/>
<path d="M50.5842 57.5698H49.6953V53.2617H50.5842V57.5698Z" fill="#2E343D"/>
<path d="M53.9544 55.7016H52.2482V56.8552H54.2507V57.5698H51.3594V53.2617H54.2439V53.9797H52.2482V55.0074H53.9544V55.7016Z" fill="#2E343D"/>
<path d="M54.7734 57.5698V53.2617H56.0982C56.3877 53.2617 56.6533 53.3128 56.8951 53.4114C57.1369 53.5101 57.3446 53.6496 57.5183 53.83C57.692 54.0104 57.8248 54.2281 57.9236 54.48C58.0189 54.7318 58.07 55.0142 58.07 55.3205V55.5144C58.07 55.8207 58.0224 56.1031 57.927 56.3515C57.8316 56.6034 57.6954 56.8177 57.5217 56.9981C57.348 57.1784 57.1369 57.318 56.8951 57.4166C56.6533 57.5153 56.3843 57.563 56.0914 57.563H54.7734V57.5698ZM55.6623 53.9797V56.8552H56.0914C56.4422 56.8552 56.7112 56.7395 56.8951 56.5081C57.079 56.2767 57.171 55.9466 57.171 55.5144V55.3137C57.171 54.8747 57.079 54.5446 56.8985 54.3166C56.718 54.092 56.4524 53.9763 56.1016 53.9763H55.6623V53.9797Z" fill="#2E343D"/>
</svg>
