<svg width="88" height="89" viewBox="0 0 88 89" fill="none" xmlns="http://www.w3.org/2000/svg">
<path d="M44.4563 0.00229451C20.1814 -0.246116 -0.00340514 19.7084 4.30877e-07 43.9676C4.30877e-07 62.8604 11.9297 78.9697 28.6715 85.1902V69.8874C19.8068 64.6435 13.8675 54.9896 13.8709 43.9506C13.8811 27.5759 27.1833 14.0937 43.5709 13.8657C60.4081 13.6309 74.1291 27.1982 74.1291 43.9676C74.1291 54.9998 68.1898 64.6469 59.3285 69.8874V85.1902C76.0703 78.9697 88 62.8638 88 43.9676C88 19.8377 68.5474 0.250705 44.4563 0.00229451Z" fill="#41AC49"/>
<path d="M56.9453 85.8347V64.4918C56.9453 62.9884 55.7255 61.7695 54.2209 61.7695H33.7772C32.2725 61.7695 31.0527 62.9884 31.0527 64.4918V85.8347C31.0527 87.3382 32.2725 88.5571 33.7772 88.5571H54.2209C55.7255 88.5571 56.9453 87.3382 56.9453 85.8347Z" fill="#41AC49"/>
<path d="M35.1719 32.826V23.7471C35.1719 23.6246 35.2536 23.543 35.3762 23.543H36.2719C36.3945 23.543 36.4762 23.6246 36.4762 23.7471V32.826C36.4762 32.9486 36.3945 33.0302 36.2719 33.0302H35.3762C35.2536 33.0302 35.1719 32.9486 35.1719 32.826Z" fill="black"/>
<path d="M38.2656 30.4907V30.164C38.2656 30.0415 38.3474 29.9598 38.47 29.9598H39.3384C39.461 29.9598 39.5427 30.0415 39.5427 30.164V30.4226C39.5427 31.3176 40.3703 32.0084 41.7257 32.0084C43.0811 32.0084 43.6124 31.3993 43.6124 30.586C43.6124 29.7318 42.8802 29.3541 41.2932 28.7144C39.7471 28.1189 38.3916 27.5744 38.3916 25.924C38.3916 24.2736 39.5972 23.4297 41.4839 23.4297C43.517 23.4297 44.835 24.5152 44.835 26.1282V26.3324C44.835 26.4549 44.7532 26.5365 44.6306 26.5365H43.7486C43.626 26.5365 43.5443 26.4685 43.5443 26.3596V26.1962C43.5443 25.2877 42.7984 24.556 41.4294 24.556C40.3022 24.556 39.6653 25.029 39.6653 25.8968C39.6653 26.7645 40.3703 27.1014 41.9709 27.7139C43.4762 28.2958 44.9133 28.8913 44.9133 30.5451C44.9133 32.09 43.6805 33.1347 41.6303 33.1347C39.5802 33.1347 38.2656 32.09 38.2656 30.4907Z" fill="black"/>
<path d="M46.4375 29.8952V26.6692C46.4375 24.733 47.7793 23.4297 49.7886 23.4297C51.7979 23.4297 53.1533 24.7296 53.1533 26.6692V29.8952C53.1533 31.845 51.8115 33.1483 49.7886 33.1483C47.7657 33.1483 46.4375 31.8484 46.4375 29.8952ZM51.849 29.9496V26.6556C51.849 25.3966 51.0214 24.556 49.7886 24.556C48.5558 24.556 47.7418 25.3966 47.7418 26.6556V29.9496C47.7418 31.1951 48.5694 32.022 49.7886 32.022C51.0078 32.022 51.849 31.1951 51.849 29.9496Z" fill="black"/>
<path d="M35.1719 32.826V23.7471C35.1719 23.6246 35.2536 23.543 35.3762 23.543H36.2719C36.3945 23.543 36.4762 23.6246 36.4762 23.7471V32.826C36.4762 32.9486 36.3945 33.0302 36.2719 33.0302H35.3762C35.2536 33.0302 35.1719 32.9486 35.1719 32.826Z" fill="#2E343D"/>
<path d="M38.2656 30.4907V30.164C38.2656 30.0415 38.3474 29.9598 38.47 29.9598H39.3384C39.461 29.9598 39.5427 30.0415 39.5427 30.164V30.4226C39.5427 31.3176 40.3703 32.0084 41.7257 32.0084C43.0811 32.0084 43.6124 31.3993 43.6124 30.586C43.6124 29.7318 42.8802 29.3541 41.2932 28.7144C39.7471 28.1189 38.3916 27.5744 38.3916 25.924C38.3916 24.2736 39.5972 23.4297 41.4839 23.4297C43.517 23.4297 44.835 24.5152 44.835 26.1282V26.3324C44.835 26.4549 44.7532 26.5365 44.6306 26.5365H43.7486C43.626 26.5365 43.5443 26.4685 43.5443 26.3596V26.1962C43.5443 25.2877 42.7984 24.556 41.4294 24.556C40.3022 24.556 39.6653 25.029 39.6653 25.8968C39.6653 26.7645 40.3703 27.1014 41.9709 27.7139C43.4762 28.2958 44.9133 28.8913 44.9133 30.5451C44.9133 32.09 43.6805 33.1347 41.6303 33.1347C39.5802 33.1347 38.2656 32.09 38.2656 30.4907Z" fill="#2E343D"/>
<path d="M46.4375 29.8952V26.6692C46.4375 24.733 47.7793 23.4297 49.7886 23.4297C51.7979 23.4297 53.1533 24.7296 53.1533 26.6692V29.8952C53.1533 31.845 51.8115 33.1483 49.7886 33.1483C47.7657 33.1483 46.4375 31.8484 46.4375 29.8952ZM51.849 29.9496V26.6556C51.849 25.3966 51.0214 24.556 49.7886 24.556C48.5558 24.556 47.7418 25.3966 47.7418 26.6556V29.9496C47.7418 31.1951 48.5694 32.022 49.7886 32.022C51.0078 32.022 51.849 31.1951 51.849 29.9496Z" fill="#2E343D"/>
<path d="M23.545 36.3516H25.7177C25.9289 36.3516 26.0446 36.4673 26.0446 36.6782V49.4731C26.0446 49.6841 25.9289 49.7998 25.7177 49.7998H23.6607C23.4496 49.7998 23.3338 49.6841 23.3338 49.4731V39.0024C23.3338 38.9241 23.2759 38.8663 23.1976 38.8867L21.505 39.2338C21.2939 39.2712 21.1406 39.1555 21.1406 38.9446V37.4847C21.1406 37.3112 21.219 37.1785 21.3892 37.1206L23.1397 36.4298C23.2759 36.372 23.3883 36.3516 23.545 36.3516Z" fill="#2E343D"/>
<path d="M37.7972 44.9156V46.6647C37.7972 46.8757 37.6814 46.9914 37.4703 46.9914H36.779C36.7006 46.9914 36.6632 47.0288 36.6632 47.1071V49.4721C36.6632 49.6831 36.5474 49.7988 36.3362 49.7988H34.2793C34.0681 49.7988 33.9523 49.6831 33.9523 49.4721V47.1071C33.9523 47.0288 33.9149 46.9914 33.8366 46.9914H28.0301C27.8189 46.9914 27.7031 46.8757 27.7031 46.6647V45.2831C27.7031 45.13 27.7236 45.0347 27.7814 44.8782L31.2041 37.2523C31.2824 37.0992 31.4152 37.0039 31.5889 37.0039H33.7821C34.0307 37.0039 34.1294 37.1775 34.0307 37.3884L30.8771 44.4596C30.8396 44.5549 30.8975 44.5958 30.9725 44.5958H33.8366C33.9149 44.5958 33.9523 44.5583 33.9523 44.48V40.9138C33.9523 40.7028 34.0681 40.5871 34.2793 40.5871H36.3362C36.5474 40.5871 36.6632 40.7028 36.6632 40.9138V44.48C36.6632 44.5379 36.7006 44.5958 36.779 44.5958H37.4703C37.6814 44.5958 37.7972 44.7114 37.7972 44.9224V44.9156Z" fill="#2E343D"/>
<path d="M39.6172 45.596V40.5257C39.6172 37.8544 41.3677 36.1836 44.1943 36.1836C47.0209 36.1836 48.7884 37.8544 48.7884 40.5257V45.596C48.7884 48.3047 47.0209 49.9959 44.1943 49.9959C41.3677 49.9959 39.6172 48.3047 39.6172 45.596ZM46.0776 45.7321V40.4474C46.0776 39.2564 45.3454 38.5078 44.1943 38.5078C43.0432 38.5078 42.328 39.2564 42.328 40.4474V45.7321C42.328 46.9231 43.0602 47.6717 44.1943 47.6717C45.3283 47.6717 46.0776 46.9231 46.0776 45.7321Z" fill="#2E343D"/>
<path d="M50.5625 45.596V40.5257C50.5625 37.8544 52.313 36.1836 55.1396 36.1836C57.9662 36.1836 59.7337 37.8544 59.7337 40.5257V45.596C59.7337 48.3047 57.9662 49.9959 55.1396 49.9959C52.313 49.9959 50.5625 48.3047 50.5625 45.596ZM57.0229 45.7321V40.4474C57.0229 39.2564 56.2941 38.5078 55.1396 38.5078C53.9851 38.5078 53.2733 39.2564 53.2733 40.4474V45.7321C53.2733 46.9231 54.0021 47.6717 55.1396 47.6717C56.2771 47.6717 57.0229 46.9231 57.0229 45.7321Z" fill="#2E343D"/>
<path d="M63.3887 36.3516H65.5615C65.7726 36.3516 65.8884 36.4673 65.8884 36.6782V49.4731C65.8884 49.6841 65.7726 49.7998 65.5615 49.7998H63.5045C63.2934 49.7998 63.1776 49.6841 63.1776 49.4731V39.0024C63.1776 38.9241 63.1197 38.8663 63.0413 38.8867L61.3488 39.2338C61.1376 39.2712 60.9844 39.1555 60.9844 38.9446V37.4847C60.9844 37.3112 61.0627 37.1785 61.233 37.1206L62.9834 36.4298C63.1163 36.372 63.2321 36.3516 63.3887 36.3516Z" fill="#2E343D"/>
<path d="M42.5083 82.1797C42.0485 82.1797 41.6909 81.8088 41.4628 81.5297C39.5625 79.2124 38.2445 78.4331 37.4544 77.9703C36.8584 77.6198 36.0241 77.3442 36.1943 76.6262C36.2284 76.4866 36.2454 76.3471 36.2829 76.2212C36.5451 75.3501 37.1173 74.4721 37.8529 74.5504C38.1594 74.5844 38.568 74.7171 39.0346 74.9587C40.4956 75.7176 41.1835 76.633 41.6978 77.2863C42.0485 76.6976 42.7807 75.5815 44.1464 73.8562C47.4668 69.6707 50.7395 67.9148 51.3628 67.6051C51.4581 67.5575 51.5671 67.5268 51.6795 67.5234H51.7306C52.0643 67.5234 52.0575 67.7242 52.1869 68.0339C52.3129 68.3435 52.5445 68.694 52.3027 68.9254C51.6148 69.5992 50.382 70.9093 48.4306 73.322C46.486 75.7244 45.3724 77.9669 44.5584 79.6037C43.7343 81.2609 43.6423 82.1763 42.8727 82.1763H42.5083V82.1797Z" fill="white"/>
<path d="M15.2435 67.0786L16.6261 68.6439L17.8011 67.6094L16.1834 65.7787L16.7113 65.3125L18.9147 67.8034L15.1004 71.1689L12.9141 68.695L13.4487 68.222L15.0494 70.0323L16.1017 69.1033L14.719 67.538L15.2435 67.0752V67.0786Z" fill="white"/>
<path d="M13.668 60.793L14.1448 61.5348L12.3364 65.3937L15.3742 63.4438L15.851 64.1856L11.5702 66.9352L11.0934 66.1933L12.912 62.3209L9.864 64.2809L9.39062 63.5425L13.6714 60.793H13.668Z" fill="white"/>
<path d="M11.1236 58.0905L6.95855 58.4955L6.57031 57.6039L11.9681 57.25L12.3087 58.0327L8.37527 61.735L7.98703 60.8469L11.1236 58.0837V58.0905Z" fill="white"/>
<path d="M10.6468 53.3594L10.8988 54.2033L6.02546 55.6631L5.77344 54.8192L10.6468 53.3594Z" fill="white"/>
<path d="M7.88374 50.09L8.05402 51.0599L9.98499 50.7196L10.1382 51.5907L5.12524 52.4721L4.81533 50.7094C4.76424 50.4235 4.75402 50.1615 4.77786 49.9267C4.80511 49.6919 4.86641 49.4843 4.96517 49.3074C5.06394 49.1304 5.20356 48.9841 5.37725 48.8718C5.55093 48.7595 5.76207 48.6812 6.01068 48.637C6.34442 48.5792 6.64071 48.6098 6.89613 48.7323C7.15155 48.8548 7.36269 49.0488 7.53638 49.3176L9.42648 47.8271L9.47074 47.8203L9.63421 48.7527L7.88035 50.0968L7.88374 50.09ZM7.35588 51.1824L7.19923 50.2874C7.17199 50.1309 7.12771 49.9982 7.06641 49.8893C7.00511 49.7804 6.93018 49.6919 6.84164 49.6272C6.75309 49.5626 6.65774 49.5184 6.54876 49.4979C6.43979 49.4775 6.3274 49.4775 6.2048 49.4979C6.07539 49.5218 5.963 49.5592 5.86424 49.6136C5.76548 49.6681 5.68716 49.7395 5.62586 49.828C5.56456 49.9165 5.52369 50.0254 5.50666 50.1479C5.48623 50.2738 5.49304 50.4167 5.52028 50.5835L5.67694 51.475L7.35588 51.179V51.1824Z" fill="white"/>
<path d="M6.87209 42.4733C7.26032 42.4665 7.60769 42.5108 7.91419 42.606C8.2241 42.7013 8.48633 42.8408 8.70088 43.0178C8.91883 43.1982 9.08571 43.4159 9.20491 43.6712C9.3241 43.9264 9.3854 44.2122 9.39221 44.5253C9.39902 44.8383 9.34453 45.1242 9.23556 45.3828C9.12658 45.6448 8.96651 45.8694 8.75537 46.06C8.54422 46.2505 8.28881 46.4003 7.98572 46.5126C7.68262 46.6215 7.33525 46.6793 6.95042 46.6861H6.69159C6.30336 46.6997 5.95599 46.6521 5.64608 46.5534C5.33617 46.4547 5.07395 46.3152 4.85599 46.1348C4.63804 45.9545 4.47116 45.7367 4.35197 45.4781C4.23277 45.2229 4.17147 44.937 4.16466 44.6274C4.15785 44.3143 4.20893 44.0251 4.32132 43.763C4.43029 43.501 4.59036 43.2764 4.8015 43.0859C5.01265 42.8953 5.27147 42.749 5.57456 42.6435C5.88107 42.538 6.22504 42.4801 6.61327 42.4733H6.87209ZM6.62349 43.3615C6.34082 43.3683 6.0888 43.3989 5.87085 43.4568C5.65289 43.5146 5.4724 43.5997 5.32936 43.7052C5.18292 43.8141 5.07735 43.9434 5.00243 44.0965C4.93091 44.2496 4.89345 44.4232 4.89686 44.6172C4.90026 44.8043 4.94113 44.9745 5.01945 45.1242C5.09778 45.2739 5.21017 45.3998 5.36001 45.5053C5.50986 45.6074 5.69376 45.6857 5.91171 45.7401C6.12967 45.7946 6.38168 45.8184 6.66775 45.8116H6.93338C7.21605 45.8014 7.46807 45.7673 7.68602 45.7061C7.90398 45.6448 8.08448 45.5598 8.23092 45.4509C8.37736 45.342 8.48633 45.2093 8.55785 45.0561C8.62937 44.903 8.66683 44.7295 8.66342 44.5423C8.65661 44.151 8.49995 43.8549 8.20026 43.6473C7.89716 43.4432 7.46126 43.3445 6.88912 43.3547H6.62349V43.3615Z" fill="white"/>
<path d="M9.98298 36.8879L9.85697 37.7624L5.95759 39.4877L9.53004 40.0049L9.40403 40.8795L4.36719 40.1478L4.49319 39.2733L8.4062 37.5446L4.82013 37.024L4.94614 36.1562L9.98298 36.8879Z" fill="white"/>
<path d="M5.82433 32.5508L9.98935 32.4147L6.76768 29.7774L7.13548 28.6953L11.9544 30.3321L11.6717 31.1658L10.0847 30.6282L7.98687 29.8251L11.2154 32.5065L11.011 33.1055L6.81876 33.2654L8.96768 33.9017L10.5547 34.4394L10.272 35.2731L5.45312 33.6363L5.82093 32.5508H5.82433Z" fill="white"/>
<path d="M12.1538 25.1065L11.156 26.9407L12.5318 27.6859L13.6965 25.5387L14.3163 25.8756L12.7293 28.7987L8.25781 26.3758L9.83119 23.4766L10.4578 23.8169L9.30333 25.9403L10.5396 26.6106L11.5374 24.7765L12.1504 25.1099L12.1538 25.1065Z" fill="white"/>
<path d="M17.5223 21.4796L16.9876 22.184L12.7409 21.8096L15.6186 23.9909L15.0839 24.6953L11.0312 21.6225L11.5659 20.9181L15.8297 21.2958L12.9418 19.1077L13.473 18.4102L17.5257 21.483L17.5223 21.4796Z" fill="white"/>
<path d="M18.2225 14.6003L17.0816 15.7028L20.1228 18.8437L19.4928 19.4528L16.4482 16.3119L15.3175 17.4043L14.8203 16.8938L17.7219 14.0898L18.2191 14.6003H18.2225Z" fill="white"/>
<path d="M23.6546 14.4915L22.0608 15.6519L22.4252 16.8531L21.6827 17.3941L20.2422 12.1537L20.8824 11.6875L25.4323 14.665L24.6865 15.2061L23.6546 14.4949V14.4915ZM21.8428 14.927L23.0348 14.0593L21.1957 12.7866L21.8428 14.927Z" fill="white"/>
<path d="M26.9961 12.9931L29.0428 11.9212L29.3698 12.5473L26.5432 14.031L24.1797 9.52894L24.963 9.11719L26.9995 12.9931H26.9961Z" fill="white"/>
<path d="M32.9998 5.83461L35.3463 9.27493L35.8469 5.14383L36.9571 4.875L38.1593 9.81599L37.3045 10.0236L36.9094 8.39358L36.4633 6.19532L35.9286 10.3571L35.3156 10.5068L32.9317 7.05625L33.5447 9.21028L33.9398 10.8403L33.085 11.0478L31.8828 6.10685L32.9964 5.83461H32.9998Z" fill="white"/>
<path d="M42.6548 8.26462L40.6863 8.38032L40.3458 9.58494L39.4297 9.63939L41.0473 4.44998L41.8408 4.40234L44.0613 9.36375L43.1418 9.4182L42.6582 8.26122L42.6548 8.26462ZM40.8941 7.6555L42.3653 7.56703L41.5037 5.50488L40.8907 7.6555H40.8941Z" fill="white"/>
<path d="M49.3042 9.82441L48.4256 9.73594L46.5321 5.9179L46.1677 9.50794L45.2891 9.41947L45.8033 4.35938L46.6819 4.44785L48.5788 8.2795L48.9432 4.67584L49.8151 4.76432L49.3008 9.82441H49.3042Z" fill="white"/>
<path d="M54.0801 9.7488L52.1797 9.23156L51.4714 10.266L50.5859 10.0244L53.777 5.62109L54.5432 5.82867L55.0677 11.2393L54.1788 10.9977L54.0869 9.74539L54.0801 9.7488ZM52.6054 8.60883L54.029 8.99676L53.8723 6.76787L52.6054 8.60883Z" fill="white"/>
<path d="M60.03 12.701C59.9516 12.7419 59.8529 12.7827 59.7303 12.8201C59.6077 12.8575 59.4646 12.8814 59.2978 12.8848C59.1309 12.8882 58.9402 12.8712 58.729 12.8303C58.5179 12.7895 58.2795 12.7112 58.0207 12.5921C57.7312 12.4594 57.486 12.2893 57.2885 12.0817C57.091 11.8707 56.9479 11.6325 56.8594 11.3671C56.7708 11.0983 56.7402 10.8056 56.7674 10.4857C56.7947 10.1659 56.89 9.82898 57.0501 9.47508L57.1897 9.16882C57.3498 8.81492 57.5337 8.52227 57.7448 8.28407C57.956 8.04587 58.1876 7.86892 58.4362 7.75322C58.6848 7.63752 58.9504 7.57967 59.2331 7.58648C59.5123 7.59328 59.8052 7.66474 60.1049 7.79745C60.3876 7.92336 60.6157 8.07309 60.7928 8.23983C60.9699 8.40657 61.1027 8.59033 61.1879 8.78769C61.273 8.98506 61.3173 9.19264 61.3173 9.41042C61.3173 9.62821 61.2832 9.8528 61.2151 10.0808L60.425 9.72349C60.4591 9.59418 60.4795 9.46827 60.4795 9.34577C60.4795 9.22326 60.4591 9.10757 60.4148 8.99867C60.3705 8.88978 60.3024 8.7877 60.2071 8.69582C60.1117 8.60394 59.9857 8.51887 59.829 8.45081C59.6383 8.36574 59.4612 8.3283 59.291 8.33511C59.1207 8.34192 58.9572 8.39296 58.804 8.48484C58.6507 8.57672 58.5077 8.71283 58.3715 8.88978C58.2386 9.06673 58.1126 9.27771 58.0003 9.52952L57.8606 9.84259C57.7448 10.0978 57.6699 10.336 57.6393 10.5572C57.6052 10.7784 57.612 10.9792 57.6529 11.1595C57.6937 11.3399 57.7755 11.4964 57.8913 11.6359C58.0071 11.772 58.1603 11.8843 58.3442 11.966C58.4838 12.0272 58.603 12.0715 58.712 12.0987C58.8176 12.1259 58.9129 12.1395 58.9947 12.1429C59.0764 12.1429 59.1445 12.1429 59.2024 12.1293C59.2603 12.1157 59.3114 12.1021 59.3523 12.0851L59.7609 11.1765L58.804 10.7444L59.0798 10.1318L60.8371 10.9247L60.0368 12.701H60.03Z" fill="white"/>
<path d="M64.9166 13.8178L63.1627 12.6847L62.3113 13.9982L64.3649 15.3219L63.9835 15.914L61.1875 14.1105L63.9494 9.83984L66.725 11.6298L66.3367 12.2287L64.307 10.9186L63.5442 12.0994L65.3014 13.2325L64.9234 13.8178H64.9166Z" fill="white"/>
<path d="M69.3701 13.7412L67.8206 17.6069L71.5327 15.7217L72.3739 16.4941L68.9376 20.2441L68.2872 19.6486L69.4212 18.4134L71.0014 16.8174L67.2451 18.6924L66.7785 18.267L68.3178 14.3673L66.8704 16.079L65.7364 17.3142L65.0859 16.7187L68.5222 12.9688L69.3667 13.7412H69.3701Z" fill="white"/>
<path d="M73.667 22.4834L72.3831 20.8364L71.1469 21.7994L72.6487 23.7255L72.0936 24.1576L70.0469 21.5374L74.0586 18.4102L76.0884 21.0134L75.5264 21.4523L74.0382 19.5467L72.9314 20.4111L74.2153 22.0581L73.6636 22.4868L73.667 22.4834Z" fill="white"/>
<path d="M74.8546 28.8459L74.4221 28.0735L76.4655 24.3337L73.3153 26.0964L72.8828 25.324L77.3237 22.8398L77.7562 23.6123L75.7026 27.3657L78.8664 25.5962L79.2955 26.3618L74.8546 28.8459Z" fill="white"/>
<path d="M80.9351 32.279L80.3834 30.792L76.2831 32.313L75.9766 31.493L80.0769 29.9719L79.5286 28.4984L80.1961 28.25L81.6026 32.0306L80.9351 32.279Z" fill="white"/>
<path d="M79.3575 39.958C79.4597 39.9444 79.5482 39.9171 79.6232 39.8763C79.6981 39.8355 79.7628 39.7708 79.8207 39.6823C79.8752 39.5939 79.9262 39.4748 79.9671 39.3284C80.008 39.1821 80.0489 38.9916 80.0863 38.7636C80.1238 38.5152 80.1749 38.2804 80.2396 38.066C80.3043 37.8516 80.386 37.661 80.4882 37.4977C80.5903 37.3343 80.7163 37.2016 80.8628 37.0961C81.0092 36.9907 81.1863 36.926 81.3941 36.8954C81.5984 36.8682 81.7891 36.8852 81.973 36.9464C82.1569 37.0111 82.3204 37.1098 82.4668 37.2493C82.6133 37.3888 82.7359 37.5623 82.8346 37.7733C82.9334 37.9843 83.0015 38.2191 83.0389 38.4845C83.0764 38.767 83.073 39.029 83.0219 39.2672C82.9708 39.5054 82.8857 39.7096 82.7665 39.8865C82.6473 40.0601 82.5009 40.203 82.3272 40.3119C82.1535 40.4208 81.9594 40.4888 81.7517 40.5194L81.6324 39.6483C81.755 39.6313 81.864 39.5973 81.9628 39.5462C82.0616 39.4952 82.1399 39.4237 82.2046 39.3352C82.2693 39.2468 82.3136 39.1379 82.3374 39.012C82.3612 38.8861 82.3646 38.7431 82.3408 38.5764C82.3204 38.4233 82.2829 38.2906 82.2352 38.1817C82.1842 38.0728 82.1228 37.9877 82.0513 37.9196C81.9798 37.855 81.8981 37.8074 81.8061 37.7835C81.7176 37.7597 81.6222 37.7529 81.5235 37.7665C81.3362 37.7937 81.1931 37.9026 81.0944 38.0966C80.9956 38.2906 80.9173 38.5764 80.8594 38.9507C80.8151 39.2468 80.7572 39.5054 80.6823 39.7266C80.6108 39.9478 80.5188 40.1349 80.4099 40.2915C80.3009 40.4446 80.1715 40.5671 80.0182 40.6556C79.8684 40.744 79.6913 40.8019 79.4903 40.8291C79.2792 40.8597 79.0817 40.8427 78.9012 40.7815C78.7207 40.7202 78.5606 40.6215 78.4176 40.482C78.278 40.3425 78.1588 40.1656 78.0668 39.9546C77.9715 39.7436 77.9068 39.4986 77.8693 39.2264C77.8352 38.9847 77.8352 38.7397 77.8693 38.4981C77.9033 38.2531 77.9715 38.0285 78.0804 37.8244C78.186 37.6202 78.3325 37.4466 78.5164 37.3037C78.7003 37.1608 78.925 37.0723 79.1907 37.0349L79.3098 37.9094C79.1498 37.9299 79.017 37.9775 78.9114 38.049C78.8058 38.1204 78.7207 38.2123 78.6628 38.3178C78.6049 38.4267 78.5674 38.5492 78.5504 38.6887C78.5368 38.8282 78.5368 38.9745 78.5606 39.1277C78.6015 39.4305 78.6968 39.6517 78.8399 39.7878C78.9829 39.9239 79.1566 39.9784 79.3609 39.9512L79.3575 39.958Z" fill="white"/>
<path d="M80.8979 44.1718L83.2886 45.3798L83.2716 46.3564L80.084 44.6006L78.2109 44.5699L78.2246 43.6818L80.0976 43.7124L83.3397 42.0586L83.3227 43.0386L80.8911 44.1684L80.8979 44.1718Z" fill="white"/>
<path d="M78.991 50.3451C79.0932 50.3621 79.1852 50.3587 79.2703 50.3417C79.3554 50.3247 79.4372 50.2804 79.5155 50.2124C79.5938 50.1443 79.6756 50.0422 79.7573 49.9129C79.839 49.7836 79.931 49.6135 80.0297 49.4059C80.1387 49.1779 80.2545 48.9703 80.3771 48.7797C80.4997 48.5926 80.6325 48.4327 80.779 48.3067C80.922 48.1774 81.0821 48.0856 81.2524 48.0277C81.4226 47.9699 81.6133 47.9562 81.8177 47.9869C82.0186 48.0175 82.1991 48.089 82.3558 48.2013C82.5124 48.3135 82.6418 48.4565 82.7406 48.6334C82.8393 48.8104 82.9109 49.0111 82.9449 49.2391C82.979 49.4671 82.979 49.7155 82.9381 49.981C82.8938 50.2634 82.8155 50.5118 82.6997 50.7262C82.5839 50.9406 82.4443 51.1141 82.2774 51.2468C82.114 51.3796 81.9335 51.4748 81.7325 51.5293C81.535 51.5837 81.3307 51.5939 81.1195 51.5633L81.2524 50.6922C81.375 50.7092 81.4907 50.7092 81.5963 50.6854C81.7053 50.6615 81.8006 50.6173 81.8892 50.5526C81.9777 50.488 82.0493 50.3961 82.1106 50.2838C82.1719 50.1715 82.2127 50.032 82.2366 49.8687C82.2604 49.7155 82.2638 49.5794 82.2468 49.4603C82.2297 49.3412 82.1957 49.2425 82.1446 49.1575C82.0935 49.0724 82.0288 49.0077 81.9471 48.9567C81.8688 48.9091 81.7768 48.875 81.678 48.8614C81.4907 48.8342 81.3239 48.8954 81.1706 49.0554C81.0208 49.2119 80.8641 49.4637 80.7007 49.8074C80.5746 50.0796 80.4452 50.3076 80.3124 50.5016C80.1796 50.6922 80.04 50.8487 79.8901 50.9644C79.7403 51.0801 79.5802 51.1618 79.4099 51.2026C79.2397 51.2434 79.0558 51.2502 78.8548 51.2196C78.6437 51.1856 78.4598 51.1175 78.3031 51.0052C78.1465 50.8963 78.0205 50.7534 77.9251 50.5799C77.8297 50.4063 77.7684 50.2056 77.7378 49.9742C77.7071 49.7428 77.714 49.4909 77.7548 49.2221C77.7923 48.9805 77.8604 48.7457 77.9626 48.5211C78.0647 48.2965 78.1941 48.1026 78.3576 47.9358C78.5211 47.7691 78.7084 47.6432 78.9229 47.5615C79.1375 47.4764 79.3793 47.456 79.6483 47.4969L79.5155 48.3714C79.3555 48.3476 79.2158 48.3544 79.0932 48.3918C78.9706 48.4292 78.865 48.4939 78.7765 48.579C78.688 48.664 78.6198 48.7729 78.5654 48.9022C78.5109 49.0316 78.4734 49.1711 78.4496 49.3276C78.4019 49.6305 78.4291 49.8687 78.5279 50.0422C78.6267 50.2124 78.7799 50.3144 78.9808 50.3451H78.991Z" fill="white"/>
<path d="M80.3327 57.2349L80.7992 55.7206L76.6172 54.4343L76.876 53.5972L81.058 54.8835L81.5212 53.3828L82.2023 53.5938L81.0138 57.4493L80.3327 57.2383V57.2349Z" fill="white"/>
<path d="M76.3787 60.8881L77.2709 58.9995L75.8542 58.3291L74.8087 60.5342L74.1719 60.2313L75.5954 57.2266L80.1963 59.401L78.783 62.3853L78.1394 62.0791L79.1747 59.8944L77.9044 59.2955L77.0121 61.1841L76.3787 60.8847V60.8881Z" fill="white"/>
<path d="M77.0168 65.3203L72.9813 64.2858L75.3379 67.7193L74.684 68.6551L70.5156 65.7389L71.0196 65.0175L72.3955 65.9771L74.1834 67.3348L71.8336 63.8571L72.1946 63.3398L76.2642 64.3573L74.3775 63.1459L73.0017 62.1863L73.5057 61.4648L77.6741 64.3811L77.0168 65.3203Z" fill="white"/>
<path d="M33.058 56.1286C33.041 56.3464 32.9933 56.5472 32.9116 56.7309C32.8298 56.9147 32.7141 57.0712 32.5676 57.2039C32.4212 57.3366 32.2441 57.4387 32.0363 57.5102C31.8286 57.585 31.5902 57.6225 31.3246 57.6225C31.0589 57.6225 30.8001 57.5748 30.5788 57.4795C30.3574 57.3843 30.1735 57.2448 30.0203 57.0678C29.867 56.8874 29.7512 56.6697 29.6695 56.4144C29.5877 56.1592 29.5469 55.8734 29.5469 55.5535V55.2711C29.5469 54.9546 29.5877 54.6654 29.6729 54.4101C29.758 54.1549 29.8772 53.9371 30.0339 53.7568C30.1871 53.5764 30.3778 53.4403 30.5992 53.3416C30.8206 53.2464 31.0658 53.1953 31.3382 53.1953C31.6107 53.1953 31.8422 53.2327 32.05 53.311C32.2577 53.3859 32.4314 53.4914 32.5744 53.6275C32.7175 53.7636 32.8298 53.9235 32.9116 54.1107C32.9933 54.2978 33.0444 54.4986 33.0648 54.7198H32.176C32.1658 54.5905 32.1453 54.4782 32.1079 54.3795C32.0738 54.2808 32.0227 54.1992 31.958 54.1311C31.8933 54.063 31.8082 54.012 31.706 53.978C31.6038 53.9439 31.4778 53.9269 31.3314 53.9269C31.0317 53.9269 30.8069 54.0358 30.6605 54.2536C30.5141 54.4714 30.4391 54.8083 30.4391 55.2677V55.5569C30.4391 55.7815 30.4562 55.9755 30.4868 56.1422C30.5209 56.309 30.572 56.4485 30.6401 56.5608C30.7116 56.6731 30.8001 56.7581 30.9125 56.8126C31.0249 56.867 31.1577 56.8977 31.3178 56.8977C31.4574 56.8977 31.58 56.8806 31.6822 56.85C31.7843 56.8194 31.8695 56.7718 31.9376 56.7071C32.0057 56.6424 32.0568 56.5642 32.0977 56.4655C32.1351 56.3702 32.159 56.2579 32.1692 56.1286H33.058Z" fill="#2E343D"/>
<path d="M36.2357 55.7016H34.5295V56.8552H36.532V57.5698H33.6406V53.2617H36.5251V53.9797H34.5295V55.0074H36.2357V55.7016Z" fill="#2E343D"/>
<path d="M38.6285 55.9864H37.9201V57.562H37.0312V53.2539H38.6319C38.8805 53.2539 39.1052 53.2811 39.3028 53.339C39.5003 53.3934 39.6672 53.4785 39.8034 53.5874C39.9396 53.6963 40.0452 53.8324 40.1167 53.9957C40.1882 54.1591 40.2257 54.3462 40.2257 54.5572C40.2257 54.7137 40.2086 54.8567 40.1712 54.9826C40.1371 55.1085 40.0826 55.2208 40.0179 55.3161C39.9498 55.4147 39.8715 55.4998 39.7761 55.5713C39.6808 55.6427 39.5752 55.7074 39.456 55.7618L40.3891 57.5211V57.562H39.4356L38.6285 55.9864ZM37.9201 55.2684H38.6353C38.7511 55.2684 38.8532 55.2548 38.9418 55.2242C39.0303 55.1936 39.1018 55.1493 39.1597 55.0949C39.2176 55.0404 39.2619 54.9724 39.2926 54.8941C39.3232 54.8158 39.3368 54.7274 39.3368 54.6321C39.3368 54.4279 39.2789 54.268 39.1631 54.1523C39.0474 54.0366 38.8703 53.9787 38.6319 53.9787H37.9167V55.2718L37.9201 55.2684Z" fill="#2E343D"/>
<path d="M44.0145 53.9797H42.6932V57.5698H41.8043V53.9797H40.5V53.2617H44.0111V53.9797H44.0145Z" fill="#2E343D"/>
<path d="M45.4748 57.5698H44.5859V53.2617H45.4748V57.5698Z" fill="#2E343D"/>
<path d="M48.9075 55.8027H47.2013V57.562H46.3125V53.2539H49.1187V53.9719H47.2013V55.0847H48.9075V55.7993V55.8027Z" fill="#2E343D"/>
<path d="M50.5842 57.5698H49.6953V53.2617H50.5842V57.5698Z" fill="#2E343D"/>
<path d="M53.9544 55.7016H52.2482V56.8552H54.2507V57.5698H51.3594V53.2617H54.2439V53.9797H52.2482V55.0074H53.9544V55.7016Z" fill="#2E343D"/>
<path d="M54.7734 57.5698V53.2617H56.1016C56.3911 53.2617 56.6567 53.3128 56.8985 53.4114C57.1403 53.5101 57.3481 53.6496 57.5217 53.83C57.6954 54.0104 57.8282 54.2281 57.927 54.48C58.0223 54.7318 58.0734 55.0142 58.0734 55.3205V55.5144C58.0734 55.8207 58.0258 56.1031 57.9304 56.3515C57.835 56.6034 57.6988 56.8177 57.5251 56.9981C57.3515 57.1784 57.1403 57.318 56.8985 57.4166C56.6567 57.5153 56.3877 57.563 56.0948 57.563H54.7768L54.7734 57.5698ZM55.6623 53.9797V56.8552H56.0914C56.4422 56.8552 56.7112 56.7395 56.8951 56.5081C57.079 56.2767 57.171 55.9466 57.171 55.5144V55.3137C57.171 54.8747 57.079 54.5446 56.8985 54.3166C56.718 54.092 56.4524 53.9763 56.1016 53.9763H55.6623V53.9797Z" fill="#2E343D"/>
</svg>
