<svg width="88" height="89" viewBox="0 0 88 89" fill="none" xmlns="http://www.w3.org/2000/svg">
<path d="M44.4563 0.00229451C20.1814 -0.246116 -0.00340514 19.7084 4.30877e-07 43.9676C4.30877e-07 62.8604 11.9297 78.9697 28.6715 85.1902V69.8874C19.8068 64.6436 13.8675 54.9896 13.8709 43.9506C13.8811 27.5759 27.1833 14.0937 43.5709 13.8657C60.4081 13.6309 74.1291 27.1982 74.1291 43.9676C74.1291 54.9998 68.1898 64.647 59.3285 69.8874V85.1902C76.0703 78.9697 88 62.8638 88 43.9676C88.0034 19.8377 68.5474 0.250705 44.4563 0.00229451Z" fill="#CE2B4B"/>
<path d="M56.9453 85.8348V64.4918C56.9453 62.9884 55.7255 61.7695 54.2209 61.7695H33.7772C32.2725 61.7695 31.0527 62.9884 31.0527 64.4918V85.8348C31.0527 87.3382 32.2725 88.5571 33.7772 88.5571H54.2209C55.7255 88.5571 56.9453 87.3382 56.9453 85.8348Z" fill="#CE2B4B"/>
<path d="M35.1719 32.826V23.7471C35.1719 23.6246 35.2536 23.543 35.3762 23.543H36.2719C36.3945 23.543 36.4762 23.6246 36.4762 23.7471V32.826C36.4762 32.9486 36.3945 33.0302 36.2719 33.0302H35.3762C35.2536 33.0302 35.1719 32.9486 35.1719 32.826Z" fill="black"/>
<path d="M38.2656 30.4907V30.164C38.2656 30.0415 38.3474 29.9598 38.47 29.9598H39.3384C39.461 29.9598 39.5427 30.0415 39.5427 30.164V30.4226C39.5427 31.3176 40.3703 32.0084 41.7257 32.0084C43.0811 32.0084 43.6124 31.3993 43.6124 30.586C43.6124 29.7318 42.8802 29.3541 41.2932 28.7144C39.7471 28.1189 38.3916 27.5744 38.3916 25.924C38.3916 24.2736 39.5972 23.4297 41.4839 23.4297C43.517 23.4297 44.835 24.5152 44.835 26.1282V26.3324C44.835 26.4549 44.7532 26.5365 44.6306 26.5365H43.7486C43.626 26.5365 43.5443 26.4685 43.5443 26.3596V26.1962C43.5443 25.2877 42.7984 24.556 41.4294 24.556C40.3022 24.556 39.6653 25.029 39.6653 25.8968C39.6653 26.7645 40.3703 27.1014 41.9709 27.7139C43.4762 28.2958 44.9133 28.8913 44.9133 30.5451C44.9133 32.09 43.6805 33.1347 41.6303 33.1347C39.5802 33.1347 38.2656 32.09 38.2656 30.4907Z" fill="black"/>
<path d="M46.4375 29.8952V26.6692C46.4375 24.733 47.7793 23.4297 49.7886 23.4297C51.7979 23.4297 53.1533 24.7296 53.1533 26.6692V29.8952C53.1533 31.845 51.8115 33.1483 49.7886 33.1483C47.7657 33.1483 46.4375 31.8484 46.4375 29.8952ZM51.849 29.9496V26.6556C51.849 25.3966 51.0214 24.556 49.7886 24.556C48.5558 24.556 47.7418 25.3966 47.7418 26.6556V29.9496C47.7418 31.1951 48.5694 32.022 49.7886 32.022C51.0078 32.022 51.849 31.1951 51.849 29.9496Z" fill="black"/>
<path d="M35.1719 32.826V23.7471C35.1719 23.6246 35.2536 23.543 35.3762 23.543H36.2719C36.3945 23.543 36.4762 23.6246 36.4762 23.7471V32.826C36.4762 32.9486 36.3945 33.0302 36.2719 33.0302H35.3762C35.2536 33.0302 35.1719 32.9486 35.1719 32.826Z" fill="#2E343D"/>
<path d="M38.2656 30.4907V30.164C38.2656 30.0415 38.3474 29.9598 38.47 29.9598H39.3384C39.461 29.9598 39.5427 30.0415 39.5427 30.164V30.4226C39.5427 31.3176 40.3703 32.0084 41.7257 32.0084C43.0811 32.0084 43.6124 31.3993 43.6124 30.586C43.6124 29.7318 42.8802 29.3541 41.2932 28.7144C39.7471 28.1189 38.3916 27.5744 38.3916 25.924C38.3916 24.2736 39.5972 23.4297 41.4839 23.4297C43.517 23.4297 44.835 24.5152 44.835 26.1282V26.3324C44.835 26.4549 44.7532 26.5365 44.6306 26.5365H43.7486C43.626 26.5365 43.5443 26.4685 43.5443 26.3596V26.1962C43.5443 25.2877 42.7984 24.556 41.4294 24.556C40.3022 24.556 39.6653 25.029 39.6653 25.8968C39.6653 26.7645 40.3703 27.1014 41.9709 27.7139C43.4762 28.2958 44.9133 28.8913 44.9133 30.5451C44.9133 32.09 43.6805 33.1347 41.6303 33.1347C39.5802 33.1347 38.2656 32.09 38.2656 30.4907Z" fill="#2E343D"/>
<path d="M46.4375 29.8952V26.6692C46.4375 24.733 47.7793 23.4297 49.7886 23.4297C51.7979 23.4297 53.1533 24.7296 53.1533 26.6692V29.8952C53.1533 31.845 51.8115 33.1483 49.7886 33.1483C47.7657 33.1483 46.4375 31.8484 46.4375 29.8952ZM51.849 29.9496V26.6556C51.849 25.3966 51.0214 24.556 49.7886 24.556C48.5558 24.556 47.7418 25.3966 47.7418 26.6556V29.9496C47.7418 31.1951 48.5694 32.022 49.7886 32.022C51.0078 32.022 51.849 31.1951 51.849 29.9496Z" fill="#2E343D"/>
<path d="M29.7504 44.2672V46.0163C29.7504 46.2272 29.6346 46.3429 29.4234 46.3429H28.7321C28.6538 46.3429 28.6163 46.3804 28.6163 46.4586V49.4736C28.6163 49.6846 28.5005 49.8003 28.2894 49.8003H26.2324C26.0213 49.8003 25.9055 49.6846 25.9055 49.4736V46.4586C25.9055 46.3804 25.868 46.3429 25.7897 46.3429H19.9832C19.772 46.3429 19.6562 46.2272 19.6562 46.0163V44.6347C19.6562 44.4816 19.6767 44.3863 19.7346 44.2298L23.1572 36.6039C23.2355 36.4508 23.3683 36.3555 23.542 36.3555H25.7352C25.9838 36.3555 26.0826 36.529 25.9838 36.74L22.8302 43.8112C22.7928 43.9065 22.8507 43.9439 22.9256 43.9439H25.7897C25.868 43.9439 25.9055 43.9065 25.9055 43.8282V41.5619C25.9055 41.3509 26.0213 41.2352 26.2324 41.2352H28.2894C28.5005 41.2352 28.6163 41.3509 28.6163 41.5619V43.8282C28.6163 43.8861 28.6538 43.9439 28.7321 43.9439H29.4234C29.6346 43.9439 29.7504 44.0596 29.7504 44.2706V44.2672Z" fill="#2E343D"/>
<path d="M40.3099 45.4907C40.3099 46.1237 40.2146 46.7192 40.0034 47.2568C39.4279 48.8698 37.8511 49.9281 35.8316 49.9281C33.8121 49.9281 32.3136 48.9106 31.6972 47.3147C31.561 47.0084 31.4861 46.6817 31.4282 46.355C31.3907 46.1441 31.5235 46.008 31.7347 46.008H33.87C34.0607 46.008 34.1765 46.1032 34.2344 46.2768C34.2548 46.3721 34.2923 46.4503 34.3297 46.5456C34.5613 47.199 35.0994 47.5835 35.8282 47.5835C36.5025 47.5835 36.9997 47.2364 37.2517 46.6987C37.3096 46.5626 37.3675 46.4673 37.405 46.3346C37.5003 46.0658 37.5412 45.7595 37.5412 45.5486C37.5616 45.2219 37.5037 44.8374 37.3675 44.4903C37.1938 43.8165 36.6183 43.4524 35.8282 43.4524C35.2322 43.4524 34.6567 43.6634 34.3468 44.1636C34.2514 44.3371 34.1356 44.412 33.9619 44.412H31.7517C31.5406 44.412 31.4248 44.2963 31.4248 44.0853V36.6704C31.4248 36.4594 31.5406 36.3438 31.7517 36.3438H39.4994C39.7105 36.3438 39.8263 36.4594 39.8263 36.6704V38.3412C39.8263 38.5522 39.7105 38.6679 39.4994 38.6679H34.2514C34.1935 38.6679 34.1356 38.7258 34.1356 38.7836L34.1152 41.5706C34.1152 41.6659 34.1731 41.7067 34.2514 41.6489C34.8474 41.2847 35.5387 41.1112 36.2335 41.1112C38.0214 41.1112 39.4619 42.0912 40.0205 43.6668C40.2112 44.2997 40.3099 44.9156 40.3099 45.4907Z" fill="#2E343D"/>
<path d="M41.7266 45.596V40.5257C41.7266 37.8544 43.477 36.1836 46.3037 36.1836C49.1303 36.1836 50.8978 37.8544 50.8978 40.5257V45.596C50.8978 48.3047 49.1303 49.9959 46.3037 49.9959C43.477 49.9959 41.7266 48.3047 41.7266 45.596ZM48.1869 45.7287V40.444C48.1869 39.253 47.4547 38.5044 46.3037 38.5044C45.1526 38.5044 44.4374 39.253 44.4374 40.444V45.7287C44.4374 46.9197 45.1696 47.6683 46.3037 47.6683C47.4377 47.6683 48.1869 46.9197 48.1869 45.7287Z" fill="#2E343D"/>
<path d="M52.5703 45.596V40.5257C52.5703 37.8544 54.3208 36.1836 57.1474 36.1836C59.974 36.1836 61.7415 37.8544 61.7415 40.5257V45.596C61.7415 48.3047 59.974 49.9959 57.1474 49.9959C54.3208 49.9959 52.5703 48.3047 52.5703 45.596ZM59.0307 45.7287V40.444C59.0307 39.253 58.3019 38.5044 57.1474 38.5044C55.9929 38.5044 55.2812 39.253 55.2812 40.444V45.7287C55.2812 46.9197 56.0133 47.6683 57.1474 47.6683C58.2815 47.6683 59.0307 46.9197 59.0307 45.7287Z" fill="#2E343D"/>
<path d="M65.2837 36.3516H67.4565C67.6676 36.3516 67.7834 36.4673 67.7834 36.6782V49.4731C67.7834 49.6841 67.6676 49.7998 67.4565 49.7998H65.3995C65.1884 49.7998 65.0726 49.6841 65.0726 49.4731V39.0024C65.0726 38.9241 65.0147 38.8663 64.9398 38.8867L63.2472 39.2338C63.0361 39.2712 62.8828 39.1555 62.8828 38.9446V37.4847C62.8828 37.3112 62.9611 37.1785 63.1314 37.1206L64.8819 36.4298C65.0181 36.372 65.1305 36.3516 65.2871 36.3516H65.2837Z" fill="#2E343D"/>
<path d="M42.5083 82.1797C42.0485 82.1797 41.6909 81.8088 41.4628 81.5297C39.5625 79.2124 38.2445 78.4331 37.4544 77.9703C36.8584 77.6198 36.0241 77.3442 36.1943 76.6262C36.2284 76.4866 36.2454 76.3471 36.2829 76.2212C36.5451 75.3501 37.1173 74.4721 37.8529 74.5504C38.1594 74.5844 38.568 74.7171 39.0346 74.9587C40.4956 75.7176 41.1835 76.633 41.6978 77.2863C42.0485 76.6976 42.7807 75.5815 44.1464 73.8562C47.4668 69.6707 50.7396 67.9148 51.3628 67.6051C51.4581 67.5575 51.5671 67.5268 51.6761 67.5234H51.7272C52.0609 67.5234 52.0541 67.7242 52.1835 68.0339C52.3095 68.3435 52.5411 68.694 52.2993 68.9254C51.6114 69.5992 50.3785 70.9093 48.4272 73.322C46.4826 75.7244 45.369 77.9669 44.555 79.6037C43.7309 81.2609 43.6389 82.1763 42.8693 82.1763H42.5049L42.5083 82.1797Z" fill="white"/>
<path d="M11.4309 61.7239C11.7579 61.5164 12.078 61.3768 12.3913 61.2986C12.7046 61.2203 13.0009 61.2033 13.2802 61.2441C13.5594 61.285 13.8148 61.387 14.0498 61.5436C14.2848 61.7001 14.4857 61.9145 14.6526 62.1799C14.8195 62.4453 14.9217 62.7142 14.9625 62.9966C15.0034 63.2756 14.983 63.5513 14.9046 63.8235C14.8229 64.0957 14.6833 64.3578 14.4789 64.6096C14.2746 64.8614 14.009 65.0894 13.682 65.2936L13.4641 65.4297C13.1371 65.6339 12.817 65.7768 12.5003 65.8516C12.1836 65.9265 11.8873 65.9435 11.608 65.9027C11.3288 65.8618 11.07 65.7598 10.835 65.6032C10.6 65.4467 10.3991 65.2357 10.2322 64.9703C10.0653 64.7049 9.95974 64.4326 9.91887 64.1502C9.878 63.8712 9.89844 63.5955 9.98017 63.3233C10.0619 63.0511 10.2083 62.7924 10.4127 62.544C10.6204 62.2956 10.8861 62.0676 11.213 61.86L11.4309 61.7239ZM11.6761 62.6121C11.4343 62.7618 11.2368 62.9217 11.0836 63.0817C10.9269 63.245 10.8179 63.4084 10.7498 63.5751C10.6817 63.7418 10.6545 63.9086 10.6749 64.0787C10.6919 64.2489 10.7532 64.4156 10.8554 64.579C10.9576 64.7389 11.0802 64.8614 11.2232 64.9499C11.3662 65.0383 11.5297 65.086 11.7102 65.0996C11.8907 65.1098 12.0882 65.0826 12.3028 65.0145C12.5173 64.9465 12.7455 64.8376 12.9873 64.6844L13.2121 64.5415C13.4539 64.3884 13.6514 64.2319 13.8046 64.0685C13.9613 63.9052 14.0703 63.735 14.1384 63.5683C14.2065 63.3982 14.2303 63.228 14.2133 63.0613C14.1963 62.8911 14.1384 62.7278 14.0362 62.5678C13.8285 62.2378 13.5424 62.0608 13.1746 62.0438C12.8102 62.0234 12.3845 62.1663 11.9009 62.4726L11.6761 62.6155V62.6121Z" fill="white"/>
<path d="M9.59689 55.7904C9.83528 55.7156 10.0703 55.6815 10.3018 55.6884C10.5334 55.6952 10.7514 55.7428 10.9557 55.8381C11.1601 55.9334 11.3508 56.0729 11.521 56.26C11.6913 56.4472 11.8378 56.6854 11.957 56.9746C12.0762 57.2639 12.1341 57.5463 12.1238 57.822C12.117 58.0976 12.0489 58.3596 11.9263 58.6046C11.8003 58.8496 11.6198 59.0708 11.3848 59.2716C11.1498 59.4724 10.8604 59.6425 10.5198 59.7854L10.1384 59.942C9.80123 60.0815 9.4743 60.1631 9.16439 60.187C8.85108 60.2108 8.565 60.1768 8.30277 60.0917C8.04055 60.0032 7.80556 59.8637 7.60123 59.6697C7.39689 59.4758 7.23342 59.2308 7.11082 58.9381C6.99503 58.6591 6.93374 58.3936 6.92352 58.1452C6.9133 57.8968 6.95077 57.6688 7.0325 57.4579C7.11424 57.2503 7.23684 57.0597 7.3969 56.893C7.56037 56.7262 7.75447 56.5833 7.97924 56.4608L8.31641 57.2741C8.17678 57.3524 8.05418 57.4374 7.95201 57.5293C7.84984 57.6212 7.77491 57.7199 7.72382 57.8322C7.67274 57.9445 7.65232 58.067 7.65573 58.2031C7.66254 58.3392 7.69999 58.4923 7.7681 58.6591C7.84642 58.8428 7.9486 58.9926 8.07461 59.1014C8.20061 59.2103 8.35046 59.2852 8.52074 59.3226C8.69101 59.3601 8.88173 59.3635 9.09628 59.3294C9.31083 59.2954 9.53899 59.2274 9.7876 59.1253L10.1758 58.9653C10.4108 58.8666 10.6152 58.7578 10.7888 58.6387C10.9625 58.5196 11.1022 58.3868 11.2009 58.2439C11.3031 58.101 11.361 57.9479 11.3814 57.7811C11.4019 57.6144 11.3712 57.4374 11.2929 57.2469C11.2214 57.0699 11.1362 56.9304 11.0477 56.8249C10.9557 56.7194 10.8536 56.6446 10.7412 56.5969C10.6288 56.5493 10.5062 56.5289 10.37 56.5323C10.2337 56.5357 10.0873 56.5595 9.93065 56.6037L9.5935 55.7904H9.59689Z" fill="white"/>
<path d="M8.11694 50.0296C8.36555 49.9956 8.60395 50.0024 8.82872 50.0432C9.05689 50.0874 9.26123 50.1725 9.44853 50.2984C9.63584 50.4243 9.7993 50.5945 9.93553 50.8089C10.0718 51.0232 10.1773 51.2819 10.2488 51.5847C10.3204 51.8876 10.3272 52.1768 10.2727 52.4491C10.2182 52.7213 10.1126 52.9663 9.94914 53.1875C9.78567 53.4087 9.57114 53.5992 9.3055 53.7558C9.03987 53.9157 8.72656 54.0348 8.36897 54.1199L7.9671 54.2117C7.60951 54.2934 7.27576 54.3206 6.96586 54.2934C6.65595 54.2662 6.37671 54.1845 6.13151 54.0552C5.8863 53.9259 5.67856 53.749 5.50828 53.5244C5.338 53.2998 5.21881 53.031 5.14729 52.7213C5.07918 52.4252 5.06214 52.1564 5.09279 51.908C5.12684 51.663 5.19837 51.4418 5.31416 51.2512C5.42995 51.0573 5.5798 50.8939 5.76711 50.7544C5.95441 50.6183 6.16897 50.506 6.41077 50.4243L6.60827 51.2819C6.45502 51.3363 6.32221 51.401 6.20642 51.4724C6.09063 51.5439 5.99868 51.6324 5.93057 51.7344C5.86246 51.8365 5.81818 51.9556 5.80115 52.0884C5.78413 52.2245 5.79774 52.381 5.83861 52.5579C5.88288 52.7519 5.96123 52.9153 6.0668 53.0446C6.17578 53.1739 6.3086 53.2726 6.47206 53.3372C6.63553 53.4019 6.82283 53.4359 7.03738 53.4393C7.25193 53.4393 7.49031 53.4121 7.75254 53.3508L8.16122 53.2555C8.40982 53.1977 8.62778 53.1262 8.8219 53.0344C9.01261 52.9459 9.17268 52.837 9.29528 52.7145C9.41788 52.592 9.50302 52.4491 9.5507 52.2857C9.59837 52.1258 9.59837 51.9454 9.5507 51.7447C9.50642 51.5575 9.44853 51.4078 9.37701 51.2887C9.30549 51.1696 9.21696 51.0777 9.11138 51.013C9.00922 50.9484 8.89001 50.9075 8.75719 50.8905C8.62437 50.8735 8.47453 50.8701 8.31106 50.8905L8.11355 50.033L8.11694 50.0296Z" fill="white"/>
<path d="M4.17528 44.4652L7.57404 44.2543C7.86351 44.2372 8.12234 44.2713 8.34711 44.3563C8.57188 44.4414 8.76259 44.5673 8.91925 44.7273C9.0759 44.8906 9.19851 45.0846 9.28705 45.3092C9.3756 45.5337 9.42669 45.7787 9.44372 46.0408C9.46075 46.313 9.44031 46.5648 9.37901 46.803C9.32112 47.0378 9.22234 47.2454 9.08612 47.4257C8.94989 47.6027 8.77622 47.749 8.56167 47.8579C8.35052 47.9668 8.09852 48.0315 7.80564 48.0485L4.40686 48.2595L4.35238 47.3815L7.75114 47.1705C7.93163 47.1603 8.08829 47.1263 8.2177 47.0684C8.34711 47.014 8.44929 46.9391 8.53103 46.8439C8.61276 46.752 8.66725 46.6397 8.70131 46.5104C8.73536 46.3811 8.74557 46.2415 8.73535 46.085C8.72514 45.9285 8.69789 45.789 8.6468 45.6665C8.59913 45.544 8.52761 45.4385 8.43566 45.3568C8.34371 45.2751 8.23133 45.2139 8.09851 45.1764C7.96569 45.1356 7.80563 45.122 7.62513 45.1356L4.22638 45.3466L4.17188 44.4686L4.17528 44.4652Z" fill="white"/>
<path d="M7.52277 41.1074L9.40263 41.2946L9.31408 42.1725L4.25 41.6655L4.44412 39.7293C4.47477 39.4366 4.53948 39.178 4.64165 38.9568C4.74382 38.7356 4.87662 38.5553 5.03669 38.4124C5.19675 38.2694 5.37726 38.1673 5.585 38.1027C5.78933 38.0414 6.01069 38.021 6.24227 38.0448C6.48747 38.0687 6.70542 38.1333 6.88932 38.2354C7.07663 38.3375 7.22989 38.4736 7.34567 38.6437C7.46487 38.8139 7.5466 39.0181 7.59768 39.2529C7.64536 39.4877 7.65559 39.7531 7.62834 40.0457L7.52277 41.1006V41.1074ZM6.81782 41.036L6.92339 39.9811C6.94041 39.8109 6.9336 39.6646 6.90295 39.5387C6.8723 39.4128 6.82463 39.3073 6.75652 39.2188C6.68841 39.1338 6.60327 39.0657 6.5011 39.0181C6.39893 38.9704 6.28655 38.9432 6.16054 38.9296C6.04135 38.9194 5.92555 38.9228 5.81317 38.95C5.70078 38.9738 5.59861 39.0215 5.50666 39.0929C5.41471 39.1644 5.33638 39.2563 5.27508 39.372C5.21378 39.4877 5.17292 39.6306 5.15589 39.8007L5.05032 40.8556L6.81782 41.0326V41.036Z" fill="white"/>
<path d="M9.44105 34.164L8.95746 36.073L10.0064 36.7638L9.7816 37.6554L5.32031 34.5451L5.51443 33.7761L10.9191 33.1602L10.6943 34.0551L9.44446 34.1674L9.44105 34.164ZM8.32744 35.6579L8.68843 34.2287L6.46117 34.426L8.32744 35.6579Z" fill="white"/>
<path d="M8.78195 26.9392L8.16554 28.399L12.1977 30.1005L11.8572 30.907L7.82498 29.2055L7.21198 30.6517L6.55469 30.3761L8.12467 26.6602L8.78195 26.9358V26.9392Z" fill="white"/>
<path d="M14.1743 26.2875L13.7315 27.0498L9.32812 24.5044L9.77085 23.7422L14.1743 26.2875Z" fill="white"/>
<path d="M15.8576 19.7429C16.1641 19.9777 16.4059 20.2296 16.5864 20.4984C16.7669 20.7672 16.8861 21.036 16.9406 21.3117C16.9985 21.5873 16.9917 21.8629 16.9236 22.1352C16.8554 22.4108 16.726 22.6694 16.5353 22.9212C16.3446 23.1697 16.1232 23.3602 15.878 23.4929C15.6294 23.629 15.3638 23.7039 15.0811 23.7243C14.7985 23.7447 14.5022 23.7005 14.1991 23.595C13.8926 23.4895 13.5861 23.3194 13.2796 23.0846L13.0753 22.9281C12.7688 22.6933 12.527 22.438 12.3465 22.1692C12.166 21.9004 12.0468 21.6247 11.9923 21.3491C11.9344 21.0735 11.9412 20.7944 12.0093 20.5222C12.0774 20.2466 12.2068 19.988 12.3976 19.7395C12.5883 19.4911 12.8096 19.2972 13.0582 19.1611C13.3068 19.0249 13.5725 18.9501 13.8551 18.9331C14.1378 18.916 14.4307 18.9637 14.7372 19.0692C15.0437 19.1781 15.3468 19.3482 15.6533 19.583L15.8576 19.7395V19.7429ZM15.1084 20.2806C14.8836 20.1071 14.6691 19.9743 14.4613 19.8859C14.257 19.7974 14.0629 19.7498 13.8824 19.7429C13.7019 19.7361 13.535 19.7702 13.3817 19.845C13.2285 19.9199 13.0923 20.0322 12.9731 20.1853C12.8573 20.3351 12.7824 20.4916 12.7517 20.6583C12.7177 20.8251 12.7279 20.9952 12.779 21.1688C12.8301 21.3423 12.9254 21.5193 13.0616 21.6962C13.1978 21.8732 13.3818 22.0501 13.6065 22.2237L13.8177 22.387C14.0424 22.5605 14.2604 22.6933 14.4681 22.7783C14.6759 22.8668 14.8734 22.9144 15.0539 22.9178C15.2378 22.9246 15.4047 22.8872 15.5579 22.8158C15.7112 22.7409 15.844 22.6286 15.9598 22.4789C16.1982 22.1692 16.2663 21.8391 16.1573 21.492C16.0517 21.1449 15.7691 20.7944 15.3161 20.4439L15.105 20.2806H15.1084Z" fill="white"/>
<path d="M21.9786 17.1128L21.3247 17.7083L17.2142 16.5751L19.6492 19.2362L18.9953 19.8317L15.5625 16.0783L16.2164 15.4828L20.3405 16.6227L17.8953 13.9515L18.5424 13.3594L21.9752 17.1128H21.9786Z" fill="white"/>
<path d="M25.4534 13.3101L23.7915 14.3684L24.081 15.5866L23.3045 16.08L22.1875 10.7613L22.855 10.3359L27.2141 13.5891L26.4376 14.0859L25.45 13.3101H25.4534ZM23.6178 13.6367L24.8609 12.8439L23.1036 11.4623L23.6178 13.6367Z" fill="white"/>
<path d="M29.2016 11.8909L31.3199 10.9653L31.6025 11.6119L28.6772 12.8914L26.6406 8.23281L27.4512 7.87891L29.205 11.8909H29.2016Z" fill="white"/>
<path d="M40.1202 9.57445L39.2517 9.71737L38.8839 7.48848L36.6397 7.8594L37.0075 10.0883L36.1356 10.2312L35.3047 5.21535L36.1765 5.07243L36.5205 7.1618L38.7647 6.79089L38.4208 4.70152L39.2892 4.55859L40.1202 9.57445Z" fill="white"/>
<path d="M45.1413 7.15303L43.0503 7.18705L43.0742 8.75238L45.5159 8.71155L45.5262 9.41595L42.1989 9.47039L42.1172 4.38648L45.4206 4.33203L45.4308 5.04323L43.0129 5.08407L43.0367 6.48606L45.1277 6.45203L45.1379 7.14962L45.1413 7.15303Z" fill="white"/>
<path d="M50.2277 8.8443L48.2797 8.54484L47.6905 9.65078L46.7812 9.51126L49.458 4.78125L50.2413 4.90375L51.3652 10.2225L50.4525 10.0829L50.2209 8.8511L50.2277 8.8443ZM48.6339 7.87788L50.0915 8.10247L49.6862 5.9042L48.6339 7.87448V7.87788Z" fill="white"/>
<path d="M57.3439 7.44279L55.8318 6.96638L54.5207 11.1383L53.6829 10.8763L54.9941 6.70436L53.4922 6.23136L53.7067 5.55078L57.5584 6.76221L57.3439 7.44279Z" fill="white"/>
<path d="M61.1822 14.0934L60.3989 13.6918L61.4274 11.6807L59.4011 10.6462L58.3726 12.6573L57.5859 12.2558L59.8983 7.72656L60.685 8.1281L59.7212 10.0133L61.7475 11.0478L62.7113 9.16258L63.4946 9.56412L61.1822 14.0934Z" fill="white"/>
<path d="M68.2645 17.9655L66.7967 16.652L65.7001 17.2611L65.0156 16.6486L69.8413 14.1406L70.4339 14.6681L68.4757 19.7418L67.7878 19.1259L68.2679 17.9655H68.2645ZM67.4574 16.2878L68.5574 17.2713L69.4156 15.2091L67.4574 16.2912V16.2878Z" fill="white"/>
<path d="M72.0768 24.097L71.5285 23.4062L72.9486 19.3908L70.1186 21.6299L69.5703 20.9391L73.5582 17.7812L74.1065 18.472L72.6796 22.5045L75.5199 20.2551L76.0647 20.9425L72.0768 24.1004V24.097Z" fill="white"/>
<path d="M73.1875 25.8115L77.6522 23.375L78.3742 24.6919C78.5376 24.9914 78.6364 25.2908 78.6705 25.5903C78.7045 25.8897 78.6773 26.179 78.5887 26.458C78.5002 26.7371 78.3503 26.9957 78.1426 27.2373C77.9349 27.4789 77.6692 27.6865 77.3457 27.8634L77.1243 27.9825C76.8008 28.1595 76.4841 28.2684 76.1708 28.316C75.8575 28.3602 75.5578 28.3432 75.2785 28.265C74.9959 28.1867 74.737 28.0472 74.4986 27.8498C74.2602 27.6524 74.0559 27.4006 73.889 27.091L73.1875 25.8115ZM77.4513 24.4911L74.2296 26.247L74.5055 26.7541C74.6212 26.965 74.7575 27.1318 74.9107 27.2543C75.0674 27.3768 75.2377 27.4551 75.425 27.4891C75.6123 27.5231 75.8132 27.5163 76.0277 27.4687C76.2423 27.421 76.4671 27.3326 76.6986 27.2067L76.9268 27.0841C77.4104 26.8187 77.7237 26.5125 77.8633 26.162C78.003 25.8115 77.9655 25.4372 77.7476 25.0356L77.4513 24.4946V24.4911Z" fill="white"/>
<path d="M78.6676 35.9513C78.7664 35.9241 78.8515 35.8867 78.923 35.8391C78.9945 35.7914 79.0524 35.7165 79.0967 35.6247C79.141 35.5294 79.1784 35.4069 79.2023 35.2538C79.2261 35.1006 79.2431 34.9101 79.2534 34.6787C79.2636 34.4269 79.2874 34.1887 79.3283 33.9675C79.3692 33.7463 79.427 33.5489 79.5122 33.3754C79.5939 33.2018 79.7029 33.0555 79.8391 32.933C79.9753 32.8105 80.1422 32.7254 80.3431 32.6744C80.5407 32.6233 80.7348 32.6199 80.9255 32.6608C81.1128 32.7016 81.2899 32.7833 81.45 32.9058C81.61 33.0283 81.753 33.1882 81.8756 33.3856C81.9983 33.5829 82.0936 33.8109 82.1583 34.0696C82.2298 34.3452 82.2537 34.6072 82.2298 34.8488C82.206 35.0904 82.1447 35.3048 82.0459 35.492C81.9472 35.6791 81.8178 35.8357 81.6577 35.965C81.4976 36.0943 81.3137 36.1827 81.1094 36.2372L80.8915 35.3865C81.0106 35.3558 81.1162 35.3082 81.2082 35.247C81.3001 35.1823 81.3716 35.104 81.4261 35.0087C81.4806 34.9135 81.5113 34.8012 81.5215 34.6753C81.5317 34.546 81.5181 34.403 81.4772 34.2431C81.4397 34.0934 81.3887 33.9641 81.3239 33.8654C81.2626 33.7633 81.1911 33.685 81.1094 33.6272C81.0311 33.5693 80.9425 33.5353 80.8506 33.5217C80.7586 33.5081 80.6633 33.5149 80.5679 33.5387C80.384 33.5863 80.2546 33.7122 80.1763 33.9164C80.0979 34.1206 80.0537 34.4132 80.0401 34.7944C80.0298 35.0938 80.0026 35.3558 79.9549 35.5838C79.9072 35.8118 79.8391 36.0092 79.7472 36.1759C79.6552 36.3427 79.5394 36.4788 79.3998 36.5843C79.2602 36.6898 79.0899 36.768 78.8958 36.8191C78.688 36.8735 78.4905 36.8803 78.3032 36.8395C78.1159 36.7987 77.9456 36.7204 77.789 36.5979C77.6323 36.4754 77.4961 36.3155 77.3803 36.1147C77.2611 35.9139 77.1692 35.6825 77.101 35.4137C77.0397 35.1755 77.0125 34.9339 77.0159 34.6889C77.0227 34.4439 77.0636 34.2125 77.1487 33.9947C77.2304 33.7803 77.3565 33.5897 77.5199 33.4298C77.6868 33.2699 77.8979 33.1542 78.1602 33.0861L78.3815 33.9402C78.2249 33.9811 78.0989 34.0423 78.0001 34.1274C77.9013 34.2125 77.8298 34.3112 77.7856 34.4235C77.7379 34.5392 77.7175 34.6651 77.7175 34.8046C77.7175 34.9441 77.7379 35.0904 77.7753 35.2401C77.8503 35.5362 77.9695 35.7472 78.1295 35.8663C78.2896 35.9854 78.4667 36.0194 78.6676 35.9684V35.9513Z" fill="white"/>
<path d="M79.3731 41.647L79.196 39.687L77.9802 39.3841L77.8984 38.4688L83.1396 39.9252L83.2111 40.7147L78.3139 43.0865L78.2322 42.1677L79.3765 41.647H79.3731ZM79.9282 39.8673L80.061 41.334L82.0975 40.4118L79.9282 39.8673Z" fill="white"/>
<path d="M80.207 47.7735L80.3398 45.7318L78.1875 45.5923L78.2454 44.7109L83.3231 45.0376L83.1154 48.2601L82.4036 48.2159L82.5534 45.8747L81.0448 45.776L80.912 47.8178L80.207 47.7735Z" fill="white"/>
<path d="M79.3925 53.0431L79.8284 51.0014L78.2959 50.6747L77.7851 53.0601L77.0938 52.9138L77.7885 49.6641L82.764 50.7292L82.0727 53.9551L81.3746 53.8054L81.882 51.4438L80.5095 51.1511L80.0736 53.1929L79.3891 53.0465L79.3925 53.0431Z" fill="white"/>
<path d="M79.3304 59.6469L79.8992 58.1667L75.8125 56.6013L76.1258 55.7812L80.2125 57.3466L80.7744 55.8799L81.4419 56.1352L79.9979 59.9021L79.3304 59.6469Z" fill="white"/>
<path d="M75.9278 62.4445L77.4296 64.6632L76.9392 65.5105L75.0117 62.4275L73.3906 61.4917L73.8368 60.7227L75.4578 61.6585L79.0983 61.7878L78.6079 62.6385L75.9346 62.4445H75.9278Z" fill="white"/>
<path d="M33.0614 56.1286C33.0444 56.3464 32.9967 56.5472 32.915 56.7309C32.8333 56.9147 32.7175 57.0712 32.571 57.2039C32.4246 57.3366 32.2475 57.4387 32.0398 57.5102C31.832 57.585 31.5936 57.6225 31.328 57.6225C31.0623 57.6225 30.8035 57.5748 30.5822 57.4795C30.3608 57.3843 30.1769 57.2448 30.0237 57.0678C29.8704 56.8874 29.7546 56.6697 29.6695 56.4144C29.5877 56.1592 29.5469 55.8734 29.5469 55.5535V55.2711C29.5469 54.9546 29.5877 54.6654 29.6729 54.4101C29.758 54.1549 29.8772 53.9371 30.0339 53.7568C30.1871 53.5764 30.3778 53.4403 30.5992 53.3416C30.8206 53.2464 31.0658 53.1953 31.3382 53.1953C31.6107 53.1953 31.8456 53.2327 32.05 53.311C32.2577 53.3859 32.4314 53.4914 32.5744 53.6275C32.7175 53.7636 32.8298 53.9235 32.9116 54.1107C32.9933 54.2978 33.0444 54.4986 33.0648 54.7198H32.176C32.1658 54.5905 32.1453 54.4782 32.1079 54.3795C32.0738 54.2808 32.0227 54.1992 31.958 54.1311C31.8933 54.063 31.8082 54.012 31.706 53.978C31.6039 53.9439 31.4778 53.9269 31.3314 53.9269C31.0317 53.9269 30.8069 54.0358 30.6605 54.2536C30.5141 54.4714 30.4391 54.8083 30.4391 55.2677V55.5569C30.4391 55.7815 30.4562 55.9755 30.4868 56.1422C30.5209 56.309 30.572 56.4485 30.6401 56.5608C30.7116 56.6731 30.8001 56.7581 30.9125 56.8126C31.0249 56.867 31.1577 56.8977 31.3178 56.8977C31.4574 56.8977 31.58 56.8806 31.6788 56.85C31.7809 56.8194 31.8661 56.7718 31.9342 56.7071C32.0023 56.6424 32.0568 56.5642 32.0908 56.4655C32.1283 56.3702 32.1521 56.2579 32.1624 56.1286H33.0512H33.0614Z" fill="#2E343D"/>
<path d="M36.2357 55.7016H34.5295V56.8552H36.532V57.5698H33.6406V53.2617H36.5251V53.9797H34.5295V55.0074H36.2357V55.7016Z" fill="#2E343D"/>
<path d="M38.6285 55.9864H37.9201V57.562H37.0312V53.2539H38.6319C38.8805 53.2539 39.1053 53.2811 39.2994 53.339C39.4969 53.3934 39.6638 53.4785 39.8 53.5874C39.9362 53.6963 40.0418 53.8324 40.1133 53.9957C40.1848 54.1591 40.2223 54.3462 40.2223 54.5572C40.2223 54.7137 40.2053 54.8567 40.1678 54.9826C40.1337 55.1085 40.0826 55.2208 40.0145 55.3161C39.9464 55.4147 39.8681 55.4998 39.7728 55.5713C39.6774 55.6427 39.5718 55.7074 39.4526 55.7618L40.3858 57.5211V57.562H39.4322L38.6251 55.9864H38.6285ZM37.9201 55.2684H38.6353C38.7511 55.2684 38.8532 55.2548 38.9418 55.2242C39.0303 55.1936 39.1018 55.1493 39.1597 55.0949C39.2176 55.0404 39.2619 54.9724 39.2926 54.8941C39.3232 54.8158 39.3368 54.7274 39.3368 54.6321C39.3368 54.4279 39.2789 54.268 39.1631 54.1523C39.0474 54.0366 38.8703 53.9787 38.6319 53.9787H37.9167V55.2718L37.9201 55.2684Z" fill="#2E343D"/>
<path d="M44.0224 53.9797H42.701V57.5698H41.8122V53.9797H40.5078V53.2617H44.019V53.9797H44.0224Z" fill="#2E343D"/>
<path d="M45.4748 57.5698H44.5859V53.2617H45.4748V57.5698Z" fill="#2E343D"/>
<path d="M48.9075 55.8027H47.2013V57.562H46.3125V53.2539H49.1187V53.9719H47.2013V55.0847H48.9075V55.7993V55.8027Z" fill="#2E343D"/>
<path d="M50.5842 57.5698H49.6953V53.2617H50.5842V57.5698Z" fill="#2E343D"/>
<path d="M53.9622 55.7016H52.256V56.8552H54.2585V57.5698H51.3672V53.2617H54.2517V53.9797H52.256V55.0074H53.9622V55.7016Z" fill="#2E343D"/>
<path d="M54.7734 57.5698V53.2617H56.1016C56.3911 53.2617 56.6567 53.3128 56.8985 53.4114C57.1403 53.5101 57.3481 53.6496 57.5217 53.83C57.6954 54.0104 57.8282 54.2281 57.927 54.48C58.0224 54.7318 58.0734 55.0142 58.0734 55.3205V55.5144C58.0734 55.8207 58.0257 56.1031 57.9304 56.3515C57.835 56.6034 57.6988 56.8177 57.5251 56.9981C57.3514 57.1784 57.1403 57.318 56.8985 57.4166C56.6567 57.5153 56.3877 57.563 56.0948 57.563H54.7768L54.7734 57.5698ZM55.6623 53.9797V56.8552H56.0914C56.4422 56.8552 56.7112 56.7395 56.8951 56.5081C57.079 56.2767 57.171 55.9466 57.171 55.5144V55.3137C57.171 54.8747 57.079 54.5446 56.8985 54.3166C56.718 54.092 56.4524 53.9763 56.1016 53.9763H55.6623V53.9797Z" fill="#2E343D"/>
</svg>
