<svg width="88" height="89" viewBox="0 0 88 89" fill="none" xmlns="http://www.w3.org/2000/svg">
<g clip-path="url(#clip0_3112_4998)">
<path d="M44.4546 0.000278432C20.1806 -0.244636 0 19.7023 0 43.9489C0 62.8346 11.9293 78.9377 28.6704 85.1558V69.8589C19.806 64.617 13.867 54.9667 13.8704 43.9319C13.8806 27.5634 27.1822 14.0863 43.5692 13.8584C60.4057 13.6237 74.1262 27.1858 74.1262 43.9489C74.1262 54.9769 68.1871 64.6204 59.3262 69.8589V85.1558C76.0673 78.9377 87.9966 62.838 87.9966 43.9489C88 19.8282 68.5447 0.248595 44.4546 0.000278432Z" fill="#266AA9"/>
<path d="M56.9453 85.8119V64.4771C56.9453 62.9742 55.7256 61.7559 54.221 61.7559H33.7781C32.2735 61.7559 31.0537 62.9742 31.0537 64.4771V85.8119C31.0537 87.3149 32.2735 88.5332 33.7781 88.5332H54.221C55.7256 88.5332 56.9453 87.3149 56.9453 85.8119Z" fill="#266AA9"/>
<path d="M35.1484 32.8186V23.7432C35.1484 23.6207 35.2302 23.5391 35.3528 23.5391H36.2484C36.371 23.5391 36.4527 23.6207 36.4527 23.7432V32.8186C36.4527 32.9411 36.371 33.0227 36.2484 33.0227H35.3528C35.2302 33.0227 35.1484 32.9411 35.1484 32.8186Z" fill="black"/>
<path d="M38.2422 30.488V30.1614C38.2422 30.039 38.3239 29.9574 38.4465 29.9574H39.3149C39.4375 29.9574 39.5192 30.039 39.5192 30.1614V30.42C39.5192 31.3146 40.3467 32.0051 41.7021 32.0051C43.0575 32.0051 43.5887 31.3962 43.5887 30.5832C43.5887 29.7294 42.8566 29.3519 41.2696 28.7124C39.7236 28.1171 38.3682 27.5728 38.3682 25.9231C38.3682 24.2733 39.5737 23.4297 41.4603 23.4297C43.4934 23.4297 44.8113 24.5148 44.8113 26.1272V26.3313C44.8113 26.4537 44.7296 26.5353 44.607 26.5353H43.7249C43.6023 26.5353 43.5206 26.4673 43.5206 26.3585V26.1952C43.5206 25.287 42.7748 24.5556 41.4058 24.5556C40.2786 24.5556 39.6418 25.0284 39.6418 25.8958C39.6418 26.7633 40.3467 27.1 41.9473 27.7123C43.4525 28.294 44.8896 28.8893 44.8896 30.5424C44.8896 32.0868 43.6568 33.131 41.6068 33.131C39.5567 33.131 38.2422 32.0867 38.2422 30.488Z" fill="black"/>
<path d="M46.3906 29.8927V26.668C46.3906 24.7325 47.7324 23.4297 49.7416 23.4297C51.7508 23.4297 53.1062 24.7291 53.1062 26.668V29.8927C53.1062 31.8418 51.7644 33.1446 49.7416 33.1446C47.7187 33.1446 46.3906 31.8452 46.3906 29.8927ZM51.8019 29.9471V26.6544C51.8019 25.3958 50.9743 24.5556 49.7416 24.5556C48.5088 24.5556 47.6949 25.3958 47.6949 26.6544V29.9471C47.6949 31.1921 48.5224 32.0187 49.7416 32.0187C50.9607 32.0187 51.8019 31.1921 51.8019 29.9471Z" fill="black"/>
<path d="M35.1484 32.8186V23.7432C35.1484 23.6207 35.2302 23.5391 35.3528 23.5391H36.2484C36.371 23.5391 36.4527 23.6207 36.4527 23.7432V32.8186C36.4527 32.9411 36.371 33.0227 36.2484 33.0227H35.3528C35.2302 33.0227 35.1484 32.9411 35.1484 32.8186Z" fill="#2E343D"/>
<path d="M38.2422 30.488V30.1614C38.2422 30.039 38.3239 29.9574 38.4465 29.9574H39.3149C39.4375 29.9574 39.5192 30.039 39.5192 30.1614V30.42C39.5192 31.3146 40.3467 32.0051 41.7021 32.0051C43.0575 32.0051 43.5887 31.3962 43.5887 30.5832C43.5887 29.7294 42.8566 29.3519 41.2696 28.7124C39.7236 28.1171 38.3682 27.5728 38.3682 25.9231C38.3682 24.2733 39.5737 23.4297 41.4603 23.4297C43.4934 23.4297 44.8113 24.5148 44.8113 26.1272V26.3313C44.8113 26.4537 44.7296 26.5353 44.607 26.5353H43.7249C43.6023 26.5353 43.5206 26.4673 43.5206 26.3585V26.1952C43.5206 25.287 42.7748 24.5556 41.4058 24.5556C40.2786 24.5556 39.6418 25.0284 39.6418 25.8958C39.6418 26.7633 40.3467 27.1 41.9473 27.7123C43.4525 28.294 44.8896 28.8893 44.8896 30.5424C44.8896 32.0868 43.6568 33.131 41.6068 33.131C39.5567 33.131 38.2422 32.0867 38.2422 30.488Z" fill="#2E343D"/>
<path d="M46.3906 29.8927V26.668C46.3906 24.7325 47.7324 23.4297 49.7416 23.4297C51.7508 23.4297 53.1062 24.7291 53.1062 26.668V29.8927C53.1062 31.8418 51.7644 33.1446 49.7416 33.1446C47.7187 33.1446 46.3906 31.8452 46.3906 29.8927ZM51.8019 29.9471V26.6544C51.8019 25.3958 50.9743 24.5556 49.7416 24.5556C48.5088 24.5556 47.6949 25.3958 47.6949 26.6544V29.9471C47.6949 31.1921 48.5224 32.0187 49.7416 32.0187C50.9607 32.0187 51.8019 31.1921 51.8019 29.9471Z" fill="#2E343D"/>
<path d="M21.1452 49.4586V47.8462C21.1452 47.6931 21.2031 47.5775 21.3189 47.4414C22.8582 45.9039 24.2238 44.312 25.511 42.9275C26.5497 41.7744 27.2614 40.7573 27.2614 40.0464C27.2614 39.1449 26.5701 38.5088 25.5314 38.5088C24.4928 38.5088 23.8015 39.1415 23.8015 40.0838V40.4682C23.8015 40.6791 23.6857 40.7947 23.4746 40.7947H21.3972C21.1861 40.7947 21.0703 40.6791 21.0703 40.4682V39.662C21.1861 37.5292 23.0693 36.1855 25.5314 36.1855C28.3205 36.1855 30.0096 37.8931 30.0096 39.9885C30.0096 41.1009 29.4136 42.2166 28.3954 43.465C27.4146 44.6759 26.1649 45.9243 24.8401 47.3258C24.7618 47.3836 24.8027 47.4618 24.898 47.4618H29.9347C30.1458 47.4618 30.2616 47.5775 30.2616 47.7884V49.4586C30.2616 49.6695 30.1458 49.7851 29.9347 49.7851H21.4756C21.2644 49.7851 21.1486 49.6695 21.1486 49.4586H21.1452Z" fill="#2E343D"/>
<path d="M33.1987 49.4005L37.2955 38.8012C37.3159 38.7229 37.2955 38.6651 37.2171 38.6651H33.6619C33.604 38.6651 33.5461 38.7025 33.5461 38.7807V39.5495C33.5461 39.7604 33.4303 39.8761 33.2191 39.8761H31.6629C31.4517 39.8761 31.3359 39.7604 31.3359 39.5495L31.3564 36.6684C31.3564 36.4575 31.4722 36.3418 31.6833 36.3418H39.8938C40.1049 36.3418 40.2207 36.4575 40.2207 36.6684V38.4542C40.2207 38.5903 40.2003 38.7025 40.1424 38.859L36.0286 49.5366C35.9707 49.7101 35.8379 49.7849 35.6643 49.7849H33.4541C33.2226 49.7849 33.1272 49.6114 33.2055 49.4005H33.1987Z" fill="#2E343D"/>
<path d="M41.2734 45.5983V40.5299C41.2734 37.8596 43.0238 36.1895 45.8504 36.1895C48.6769 36.1895 50.4443 37.8596 50.4443 40.5299V45.5983C50.4443 48.3059 48.6769 49.9965 45.8504 49.9965C43.0238 49.9965 41.2734 48.3059 41.2734 45.5983ZM47.7336 45.7343V40.4517C47.7336 39.2611 47.0014 38.5127 45.8504 38.5127C44.6993 38.5127 43.9842 39.2611 43.9842 40.4517V45.7343C43.9842 46.9249 44.7163 47.6732 45.8504 47.6732C46.9844 47.6732 47.7336 46.9249 47.7336 45.7343Z" fill="#2E343D"/>
<path d="M52.1328 45.5983V40.5299C52.1328 37.8596 53.8832 36.1895 56.7097 36.1895C59.5362 36.1895 61.3037 37.8596 61.3037 40.5299V45.5983C61.3037 48.3059 59.5362 49.9965 56.7097 49.9965C53.8832 49.9965 52.1328 48.3059 52.1328 45.5983ZM58.5929 45.7343V40.4517C58.5929 39.2611 57.8608 38.5127 56.7097 38.5127C55.5587 38.5127 54.8435 39.2611 54.8435 40.4517V45.7343C54.8435 46.9249 55.5757 47.6732 56.7097 47.6732C57.8437 47.6732 58.5929 46.9249 58.5929 45.7343Z" fill="#2E343D"/>
<path d="M64.8618 36.3418H67.0344C67.2456 36.3418 67.3614 36.4575 67.3614 36.6684V49.4583C67.3614 49.6692 67.2456 49.7849 67.0344 49.7849H64.9776C64.7664 49.7849 64.6506 49.6692 64.6506 49.4583V38.9916C64.6506 38.9134 64.5927 38.8556 64.5178 38.876L62.8253 39.2229C62.6142 39.2604 62.4609 39.1447 62.4609 38.9338V37.4745C62.4609 37.301 62.5393 37.1684 62.7095 37.1106L64.4599 36.42C64.5961 36.3622 64.7085 36.3418 64.8652 36.3418H64.8618Z" fill="#2E343D"/>
<path d="M42.5315 82.1311C42.0717 82.1311 41.7142 81.7604 41.486 81.4814C39.5858 79.1649 38.2679 78.386 37.4778 77.9234C36.8818 77.573 36.0475 77.2975 36.2178 76.5797C36.2518 76.4403 36.2689 76.3008 36.3063 76.1749C36.5685 75.3041 37.1407 74.4265 37.8762 74.5048C38.1827 74.5388 38.5914 74.6714 39.0579 74.913C40.5189 75.6715 41.2068 76.5865 41.721 77.2396C42.0717 76.6512 42.8039 75.5354 44.1695 73.8108C47.4898 69.6269 50.7624 67.8716 51.3856 67.5621C51.481 67.5145 51.5899 67.4839 51.6989 67.4805H51.75C52.0837 67.4805 52.0769 67.6812 52.2063 67.9907C52.3323 68.3003 52.5639 68.6506 52.3221 68.8819C51.6342 69.5554 50.4014 70.8651 48.4501 73.2768C46.5056 75.6783 45.392 77.92 44.5781 79.5561C43.754 81.2127 43.6621 82.1277 42.8924 82.1277H42.5281L42.5315 82.1311Z" fill="white"/>
<path d="M19.4669 68.2422L20.1004 68.8545L16.5553 72.501L15.9219 71.8887L19.4635 68.2422H19.4669Z" fill="white"/>
<path d="M16.0232 64.3438L16.5885 65.0207L15.2706 69.072L18.0427 66.7623L18.608 67.4392L14.7019 70.6979L14.1366 70.021L15.4613 65.9561L12.6791 68.276L12.1172 67.6025L16.0232 64.3438Z" fill="white"/>
<path d="M12.0264 62.1304L13.123 63.8584L14.9449 62.7052L15.4183 63.4502L11.1206 66.1681L9.39062 63.44L9.99339 63.059L11.25 65.0421L12.527 64.2325L11.4305 62.5045L12.0264 62.127V62.1304Z" fill="white"/>
<path d="M9.42942 57.423C9.78018 57.2597 10.1173 57.161 10.4374 57.1236C10.7575 57.0862 11.0538 57.1066 11.3228 57.1849C11.5953 57.2631 11.8337 57.3924 12.0482 57.5794C12.2593 57.7665 12.433 58.0012 12.5658 58.287C12.6986 58.5693 12.7668 58.8516 12.7702 59.134C12.777 59.4163 12.7225 59.6884 12.6067 59.947C12.4909 60.2055 12.3172 60.447 12.0823 60.6715C11.8473 60.896 11.5544 61.0865 11.2037 61.2498L10.9687 61.3586C10.6179 61.5219 10.2808 61.6205 9.95726 61.6546C9.63375 61.6886 9.33747 61.6682 9.06504 61.5899C8.7926 61.5117 8.55082 61.379 8.33968 61.1953C8.12854 61.0082 7.95486 60.7735 7.82546 60.4912C7.69265 60.2055 7.62454 59.9231 7.61773 59.6374C7.61092 59.3551 7.66881 59.0829 7.78459 58.8244C7.90038 58.5659 8.07746 58.3278 8.31244 58.1067C8.54741 57.8856 8.84368 57.6951 9.19444 57.5318L9.42942 57.423ZM9.55883 58.3346C9.30001 58.4537 9.08547 58.5829 8.91179 58.7258C8.73812 58.8686 8.6053 59.0149 8.51676 59.1714C8.42822 59.3279 8.38054 59.4911 8.37714 59.6612C8.37373 59.8313 8.41119 60.0048 8.49292 60.1783C8.57125 60.3483 8.67682 60.4878 8.80963 60.5933C8.94244 60.6987 9.09569 60.7701 9.27618 60.8042C9.45326 60.8382 9.65418 60.8348 9.87553 60.7974C10.0969 60.7565 10.3353 60.6783 10.5941 60.5592L10.8359 60.447C11.0947 60.3279 11.3092 60.1953 11.4829 60.0524C11.6566 59.9095 11.7894 59.7565 11.8779 59.5966C11.9665 59.4367 12.0141 59.2734 12.0176 59.1034C12.021 58.9333 11.9835 58.7632 11.9052 58.5931C11.7417 58.2394 11.4795 58.0285 11.1185 57.9638C10.7609 57.8992 10.3182 57.9842 9.80061 58.2257L9.55883 58.338V58.3346Z" fill="white"/>
<path d="M8.89923 54.3534L9.18869 55.2957L11.0617 54.7242L11.3205 55.5678L6.45413 57.0543L5.92969 55.3467C5.84455 55.0678 5.80028 54.8093 5.79688 54.5746C5.79688 54.3364 5.83093 54.1255 5.90925 53.935C5.98758 53.748 6.10677 53.5847 6.26342 53.452C6.42348 53.3194 6.62099 53.2139 6.86278 53.1425C7.1897 53.0438 7.48597 53.037 7.7516 53.1289C8.02063 53.2173 8.2556 53.384 8.45993 53.6289L10.1558 51.9179L10.2001 51.9043L10.476 52.8091L8.89923 54.3568V54.3534ZM8.50761 55.5032L8.24198 54.6358C8.19431 54.4827 8.13641 54.3568 8.06149 54.2582C7.98657 54.1562 7.90144 54.0779 7.80609 54.0269C7.71073 53.9725 7.60857 53.9419 7.4996 53.935C7.39062 53.9282 7.27484 53.9419 7.15905 53.9759C7.03305 54.0133 6.92748 54.0677 6.83553 54.1323C6.74359 54.2004 6.67548 54.2786 6.6244 54.3739C6.57332 54.4691 6.54607 54.5814 6.54267 54.7072C6.53926 54.8331 6.55969 54.9759 6.61078 55.1358L6.8764 55.9998L8.50761 55.4998V55.5032Z" fill="white"/>
<path d="M4.82993 50.9093L8.48396 48.9091L4.41787 48.0111L4.25781 46.8818L9.29446 46.1641L9.42046 47.0349L7.75861 47.2696L5.52464 47.4975L9.61798 48.4329L9.70652 49.0588L6.03886 51.093L8.24558 50.6916L9.90744 50.4569L10.03 51.3277L4.99339 52.0454L4.83333 50.9127L4.82993 50.9093Z" fill="white"/>
<path d="M8.15304 42.2271L8.11898 44.1966L9.29726 44.6286L9.28024 45.547L4.22656 43.5401L4.24018 42.7475L9.36197 40.9141L9.34494 41.8359L8.15304 42.2305V42.2271ZM7.41065 43.9347L7.43789 42.4618L5.3129 43.1625L7.41065 43.9347Z" fill="white"/>
<path d="M5.59255 36.4653L5.3746 38.0335L9.70972 38.6355L9.59053 39.503L5.25541 38.9009L5.04086 40.4554L4.33594 40.3568L4.89102 36.3633L5.59595 36.4619L5.59255 36.4653Z" fill="white"/>
<path d="M10.359 35.4035L10.1546 36.2607L5.20312 35.0838L5.40745 34.2266L10.359 35.4035Z" fill="white"/>
<path d="M9.68639 29.6242C10.0508 29.7535 10.3607 29.9168 10.6161 30.1107C10.8715 30.3079 11.069 30.5291 11.2086 30.774C11.3482 31.0189 11.43 31.2808 11.4504 31.5631C11.4708 31.8455 11.43 32.1346 11.3278 32.4305C11.2256 32.7231 11.0758 32.9748 10.8817 33.1789C10.6876 33.383 10.4594 33.5395 10.1972 33.6483C9.93499 33.7572 9.64212 33.8048 9.3186 33.8014C8.99509 33.798 8.65114 33.73 8.28675 33.6041L8.04156 33.5191C7.67718 33.3898 7.36728 33.2265 7.11188 33.0258C6.85647 32.8251 6.65895 32.604 6.51592 32.3591C6.3763 32.1142 6.29457 31.8489 6.27073 31.5699C6.2503 31.2876 6.29117 31.0019 6.39333 30.7059C6.4989 30.41 6.64874 30.1583 6.83944 29.9508C7.03355 29.7433 7.26172 29.5902 7.52734 29.4848C7.78956 29.3827 8.08583 29.3317 8.40935 29.3385C8.73287 29.3453 9.07682 29.4133 9.4412 29.5392L9.68639 29.6242ZM9.14152 30.3692C8.87249 30.2739 8.6273 30.2161 8.40254 30.1957C8.17778 30.1753 7.98026 30.1889 7.80659 30.2399C7.63291 30.2909 7.48648 30.376 7.36388 30.4916C7.24128 30.6107 7.14934 30.7604 7.08463 30.944C7.02334 31.1209 7.0029 31.2944 7.02334 31.4611C7.04377 31.6278 7.10847 31.7876 7.21063 31.9373C7.3128 32.087 7.45923 32.223 7.64653 32.3489C7.83383 32.4748 8.062 32.5836 8.32762 32.6789L8.57962 32.7673C8.84865 32.8625 9.09384 32.917 9.3186 32.9374C9.54336 32.9578 9.74428 32.9374 9.91796 32.8864C10.0916 32.8353 10.2415 32.7503 10.3641 32.6312C10.4867 32.5122 10.5786 32.3659 10.6399 32.1856C10.7693 31.8183 10.7285 31.4849 10.5173 31.1856C10.3062 30.8862 9.93158 30.6447 9.39012 30.4542L9.13811 30.3658L9.14152 30.3692Z" fill="white"/>
<path d="M14.1943 26.0555L13.7822 26.8379L9.53225 27.1644L12.7266 28.8448L12.3145 29.6272L7.8125 27.2597L8.22456 26.4773L12.4916 26.1508L9.28365 24.467L9.6923 23.6914L14.1943 26.0589V26.0555Z" fill="white"/>
<path d="M16.5613 20.6334C16.483 20.5688 16.4012 20.5246 16.3195 20.4973C16.2378 20.4701 16.1458 20.4667 16.0437 20.4871C15.9415 20.5075 15.8223 20.5518 15.6861 20.6232C15.5499 20.6946 15.3864 20.7933 15.1923 20.9225C14.9846 21.0654 14.7802 21.1879 14.5793 21.2899C14.3784 21.392 14.1843 21.46 13.9936 21.4974C13.8063 21.5348 13.6224 21.5348 13.4419 21.4974C13.2648 21.4634 13.0945 21.3784 12.9345 21.2491C12.7744 21.1198 12.6552 20.9668 12.5769 20.7933C12.4986 20.6164 12.4577 20.4293 12.4611 20.2252C12.4611 20.0245 12.5054 19.8136 12.5905 19.5993C12.6757 19.385 12.8017 19.1707 12.9685 18.9632C13.149 18.7387 13.3431 18.5652 13.5509 18.4394C13.7586 18.3135 13.9663 18.2353 14.1775 18.2013C14.3886 18.1672 14.5895 18.1775 14.7905 18.2319C14.988 18.2829 15.1719 18.3781 15.3353 18.5108L14.7836 19.1945C14.6883 19.1163 14.5861 19.0619 14.484 19.0245C14.3784 18.9904 14.2728 18.9802 14.1639 18.9938C14.0549 19.0074 13.9459 19.0483 13.8369 19.1163C13.728 19.1843 13.6224 19.283 13.5168 19.4122C13.4181 19.5347 13.3465 19.6503 13.3023 19.7592C13.258 19.8714 13.2376 19.9735 13.2376 20.0721C13.2376 20.1708 13.2614 20.2592 13.3057 20.3443C13.35 20.4259 13.4113 20.4973 13.4896 20.562C13.636 20.681 13.8165 20.7082 14.0242 20.6504C14.2354 20.5892 14.4942 20.4531 14.8075 20.2354C15.0527 20.0653 15.2808 19.9293 15.492 19.8306C15.7031 19.732 15.904 19.6708 16.0913 19.6435C16.2786 19.6163 16.4557 19.6265 16.626 19.6776C16.7963 19.7252 16.9563 19.8136 17.1164 19.9429C17.2832 20.0789 17.4058 20.232 17.4876 20.4055C17.5659 20.579 17.6033 20.7661 17.5999 20.9634C17.5931 21.1607 17.5455 21.3682 17.4569 21.5791C17.365 21.7934 17.2356 22.0077 17.0619 22.222C16.9086 22.4124 16.7316 22.5791 16.5306 22.722C16.3297 22.8649 16.1186 22.9669 15.8938 23.0315C15.6725 23.0928 15.4443 23.1064 15.2161 23.0724C14.988 23.0349 14.77 22.9329 14.5589 22.7628L15.114 22.0757C15.24 22.1777 15.366 22.2424 15.4886 22.2696C15.6146 22.2968 15.7372 22.2968 15.8564 22.2662C15.9755 22.2356 16.0913 22.1777 16.2003 22.0927C16.3127 22.0077 16.4149 21.9056 16.5136 21.7831C16.7077 21.545 16.8031 21.3239 16.8031 21.1266C16.8031 20.9293 16.7247 20.7661 16.5647 20.6368L16.5613 20.6334Z" fill="white"/>
<path d="M19.2608 16.4809L17.759 17.9334L18.8487 19.0559L20.6026 17.3585L21.0929 17.8653L18.7057 20.1784L15.1641 16.5285L17.5342 14.2324L18.0314 14.7427L16.2947 16.423L17.272 17.4299L18.7738 15.9774L19.2608 16.4775V16.4809Z" fill="white"/>
<path d="M23.7826 13.7223C23.912 13.9366 24.0039 14.1543 24.0584 14.3788C24.1095 14.6033 24.1163 14.8279 24.0754 15.049C24.0346 15.2701 23.946 15.4878 23.8064 15.6987C23.6668 15.9096 23.4727 16.1103 23.2241 16.2973C22.9755 16.4844 22.7132 16.6069 22.4442 16.6715C22.1752 16.7327 21.9062 16.7327 21.6371 16.6715C21.3681 16.6103 21.1093 16.4912 20.8539 16.3143C20.5985 16.1341 20.3635 15.8994 20.1421 15.6034L19.8935 15.2735C19.6756 14.9809 19.5155 14.6884 19.4134 14.3924C19.3146 14.0965 19.2738 13.8108 19.2942 13.5352C19.3146 13.2597 19.3929 12.9978 19.5292 12.7529C19.6654 12.508 19.8629 12.2903 20.1183 12.0964C20.3601 11.9161 20.6019 11.7902 20.8403 11.7188C21.0786 11.6474 21.3102 11.6269 21.5316 11.6542C21.7529 11.6814 21.9675 11.7528 22.1684 11.8685C22.3693 11.9841 22.5566 12.1372 22.7303 12.3243L22.0253 12.8515C21.913 12.7359 21.8006 12.6372 21.6882 12.5624C21.5758 12.4876 21.4566 12.4399 21.3375 12.4161C21.2183 12.3957 21.0923 12.4025 20.9594 12.4433C20.83 12.4842 20.6904 12.5556 20.5474 12.6644C20.3873 12.7835 20.2681 12.9196 20.1932 13.0692C20.1183 13.2189 20.0842 13.3822 20.0911 13.5557C20.0979 13.7291 20.1421 13.9162 20.2273 14.1135C20.3124 14.3108 20.435 14.5183 20.5985 14.7326L20.8505 15.066C21.0037 15.2701 21.1604 15.4401 21.317 15.5796C21.4771 15.7191 21.6371 15.8211 21.8006 15.8823C21.9641 15.9436 22.1275 15.964 22.2944 15.9402C22.4612 15.9164 22.6247 15.8449 22.7916 15.7225C22.9448 15.6068 23.0606 15.4946 23.1389 15.3789C23.2173 15.2633 23.2649 15.1476 23.282 15.0251C23.299 14.9061 23.2888 14.7802 23.2513 14.651C23.2138 14.5217 23.156 14.3856 23.0742 14.2428L23.7792 13.7155L23.7826 13.7223Z" fill="white"/>
<path d="M26.2456 8.37059L27.9006 11.3402C28.0437 11.5953 28.122 11.8402 28.1424 12.0817C28.1628 12.3232 28.1322 12.5477 28.0539 12.7586C27.9755 12.9695 27.853 13.1634 27.6861 13.3403C27.5192 13.5172 27.3217 13.6669 27.0935 13.7961C26.8552 13.9288 26.6168 14.0206 26.3784 14.0683C26.14 14.1159 25.9119 14.1193 25.6905 14.0717C25.4691 14.0274 25.2648 13.9322 25.0741 13.7859C24.8834 13.6397 24.7199 13.4424 24.5769 13.1872L22.9219 10.2177L23.6915 9.78905L25.3465 12.7586C25.4351 12.9185 25.5304 13.041 25.636 13.1328C25.7416 13.2247 25.854 13.2859 25.9731 13.3199C26.0923 13.3505 26.2183 13.3539 26.3477 13.3301C26.4772 13.3063 26.61 13.2553 26.7462 13.177C26.8824 13.1022 26.9948 13.0138 27.0867 12.9185C27.1787 12.8199 27.24 12.7144 27.274 12.5954C27.3081 12.4763 27.3149 12.3505 27.2911 12.211C27.2672 12.0715 27.2127 11.9253 27.1242 11.7654L25.4691 8.79579L26.2388 8.36719L26.2456 8.37059Z" fill="white"/>
<path d="M30.6188 9.90597L29.7027 10.2665L30.4179 12.0898L29.5937 12.4129L27.7344 7.68133L29.3996 7.02822C29.6721 6.92277 29.9241 6.85814 30.1625 6.83773C30.4008 6.81732 30.6154 6.83773 30.8095 6.89896C31.0036 6.96359 31.1739 7.06564 31.3203 7.21531C31.4667 7.36498 31.5859 7.55547 31.6779 7.78678C31.8039 8.10313 31.8311 8.39906 31.7596 8.67119C31.6915 8.94332 31.5417 9.19164 31.3135 9.41274L33.1524 10.9673L33.1695 11.0081L32.2874 11.3551L30.6222 9.90597H30.6188ZM29.4405 9.60663L30.285 9.27327C30.4315 9.21545 30.5541 9.14401 30.6494 9.06238C30.7448 8.98074 30.8163 8.88889 30.8606 8.79025C30.9082 8.6916 30.9287 8.58955 30.9287 8.4773C30.9287 8.36845 30.9048 8.2562 30.8606 8.14054C30.8129 8.01809 30.7516 7.91604 30.6801 7.831C30.6052 7.74596 30.52 7.68133 30.4213 7.64051C30.3225 7.59969 30.2101 7.57928 30.0841 7.58608C29.9581 7.59289 29.8151 7.6269 29.6584 7.68813L28.8173 8.01809L29.4405 9.60323V9.60663Z" fill="white"/>
<path d="M34.7965 10.5966L33.9485 10.8347L32.5625 5.94319L33.4105 5.70508L34.7965 10.5966Z" fill="white"/>
<path d="M38.6827 5.32623L37.123 5.61537L37.9165 9.91159L37.0549 10.0715L36.2614 5.77524L34.7153 6.06098L34.5859 5.36025L38.5567 4.62891L38.6861 5.32964L38.6827 5.32623Z" fill="white"/>
<path d="M41.7392 6.79988L42.7778 4.33032L43.7552 4.2793L42.2262 7.57885L42.3283 9.44632L41.4429 9.49394L41.3407 7.62647L39.4609 4.51061L40.4417 4.45618L41.7426 6.79988H41.7392Z" fill="white"/>
<path d="M48.4808 4.58458L49.3287 8.65969L51.3788 5.03699L52.5094 5.21388L51.7227 10.2346L50.8544 10.0986L51.1132 8.44199L51.5457 6.24116L49.4547 9.87746L48.8315 9.77882L47.9563 5.6799L47.6975 7.90454L47.4387 9.56112L46.5703 9.42505L47.357 4.4043L48.491 4.58118L48.4808 4.58458Z" fill="white"/>
<path d="M55.8167 10.3009L53.9437 9.68862L53.1843 10.6853L52.3125 10.3996L55.7213 6.16797L56.4739 6.41629L56.7191 11.8452L55.8439 11.5595L55.8167 10.3043V10.3009ZM54.4 9.08994L55.8031 9.54916L55.7588 7.31771L54.4 9.09334V9.08994Z" fill="white"/>
<path d="M60.8622 13.8694L60.0687 13.4782L59.6396 9.23979L58.0357 12.4713L57.2422 12.0801L59.5 7.52539L60.2935 7.91657L60.7225 12.1686L62.3333 8.92345L63.12 9.31123L60.8622 13.866V13.8694Z" fill="white"/>
<path d="M64.8259 15.0794L63.2049 13.9603L62.1935 14.6984L61.4375 14.178L65.9122 11.0859L66.5661 11.5349L65.2584 16.8108L64.499 16.287L64.8293 15.076L64.8259 15.0794ZM63.8145 13.5147L65.0268 14.3515L65.6194 12.1983L63.8145 13.5147Z" fill="white"/>
<path d="M68.9611 19.3068C68.876 19.3204 68.767 19.3272 68.6376 19.3272C68.5082 19.3272 68.3652 19.3 68.2051 19.2523C68.0451 19.2047 67.8714 19.1299 67.6807 19.0244C67.49 18.919 67.2925 18.7693 67.0813 18.5788C66.8464 18.3645 66.6659 18.1264 66.5433 17.8645C66.4207 17.6026 66.3594 17.3338 66.3594 17.0515C66.3594 16.7692 66.4207 16.4834 66.5467 16.1875C66.6727 15.8916 66.8668 15.6024 67.129 15.3167L67.3572 15.0684C67.6194 14.7826 67.8884 14.5615 68.1643 14.4017C68.4401 14.2418 68.7159 14.1465 68.9884 14.1125C69.2608 14.0785 69.5298 14.1125 69.7955 14.2044C70.0611 14.2996 70.3131 14.4561 70.5549 14.6772C70.783 14.8847 70.9567 15.099 71.0725 15.3133C71.1883 15.5276 71.2564 15.7419 71.2734 15.9562C71.2939 16.1705 71.27 16.3814 71.2019 16.5889C71.1338 16.7964 71.0316 16.9971 70.892 17.1944L70.2518 16.6093C70.3267 16.497 70.3846 16.3848 70.4221 16.2691C70.4629 16.1535 70.4766 16.0378 70.4697 15.9188C70.4629 15.7997 70.4289 15.6841 70.3676 15.565C70.3063 15.446 70.2143 15.3303 70.0849 15.2112C69.9317 15.0718 69.775 14.9765 69.6082 14.9323C69.4447 14.8847 69.2744 14.8847 69.1008 14.9221C68.9271 14.9629 68.7466 15.0446 68.5661 15.1704C68.3822 15.2963 68.1983 15.4596 68.0144 15.6603L67.7829 15.912C67.5956 16.1161 67.4491 16.3202 67.347 16.5209C67.2448 16.7216 67.1869 16.912 67.1733 17.0957C67.1562 17.2794 67.1835 17.4563 67.2516 17.6196C67.3197 17.7863 67.4287 17.9359 67.5785 18.0754C67.6909 18.1774 67.7931 18.2591 67.885 18.3169C67.977 18.3747 68.0621 18.4189 68.137 18.4462C68.2119 18.4734 68.28 18.4904 68.3379 18.4972C68.3958 18.504 68.4503 18.504 68.4946 18.4972L69.1689 17.7624L68.3958 17.0549L68.8488 16.5617L70.2722 17.8645L68.9543 19.3L68.9611 19.3068Z" fill="white"/>
<path d="M72.8415 21.3475L71.4964 19.7488L70.2977 20.7557L71.871 22.6231L71.3295 23.079L69.1875 20.538L73.0799 17.2656L75.2083 19.7896L74.6634 20.2488L73.1072 18.4018L72.031 19.3066L73.3762 20.9019L72.8415 21.3509V21.3475Z" fill="white"/>
<path d="M76.728 21.9274L74.1739 25.2168L78.2638 24.4208L78.8632 25.3937L74.528 28.0571L74.0683 27.3088L75.4986 26.4311L77.4567 25.3324L73.3293 26.1046L72.999 25.5671L75.5497 22.2404L73.6869 23.4854L72.2566 24.363L71.7969 23.6146L76.132 20.9512L76.7314 21.9274H76.728Z" fill="white"/>
<path d="M78.1775 30.8551L77.3602 28.9332L75.9197 29.5455L76.8732 31.7905L76.2228 32.066L74.9219 29.008L79.6044 27.0215L80.895 30.0591L80.2378 30.338L79.2911 28.1134L77.997 28.6611L78.8143 30.583L78.1707 30.8551H78.1775Z" fill="white"/>
<path d="M77.5459 36.6496L77.3109 35.7992L80.1919 32.6596L76.7115 33.612L76.4766 32.7616L81.3838 31.418L81.6188 32.2684L78.7242 35.4182L82.2181 34.459L82.4497 35.3026L77.5425 36.6462L77.5459 36.6496Z" fill="white"/>
<path d="M82.5449 40.6624L82.3337 39.0909L77.9986 39.6692L77.8828 38.8018L82.2213 38.2235L82.0136 36.6656L82.7219 36.5703L83.2566 40.5672L82.5483 40.6624H82.5449Z" fill="white"/>
<path d="M79.4752 46.462C79.5774 46.4654 79.6693 46.4552 79.7511 46.428C79.8328 46.4008 79.9077 46.3498 79.9792 46.2715C80.0508 46.1933 80.1189 46.0878 80.187 45.9484C80.2551 45.8089 80.3266 45.632 80.4049 45.4143C80.4867 45.1762 80.5786 44.9551 80.6808 44.7544C80.7829 44.5537 80.8987 44.3836 81.0281 44.2408C81.1575 44.0979 81.304 43.989 81.4674 43.9142C81.6309 43.836 81.8182 43.8054 82.0259 43.8122C82.2302 43.8224 82.4175 43.8734 82.5844 43.9686C82.7513 44.0639 82.8977 44.1931 83.0135 44.3564C83.1327 44.5197 83.2212 44.7136 83.2825 44.9381C83.3438 45.1626 83.3677 45.4075 83.354 45.6762C83.3404 45.962 83.2893 46.2171 83.1974 46.4416C83.1054 46.6661 82.9828 46.8532 82.8364 47.0029C82.6866 47.1525 82.5163 47.2682 82.3256 47.343C82.1349 47.4179 81.934 47.4519 81.7228 47.4417L81.7603 46.5641C81.8829 46.5709 81.9987 46.5539 82.1042 46.5232C82.2098 46.4892 82.3018 46.4348 82.3801 46.36C82.4584 46.2851 82.5231 46.1865 82.5708 46.0674C82.6185 45.9484 82.6457 45.8055 82.6525 45.6422C82.6593 45.4857 82.6491 45.3497 82.6185 45.234C82.5878 45.1184 82.5435 45.0231 82.4856 44.9415C82.4278 44.8633 82.3528 44.8054 82.2711 44.7646C82.186 44.7238 82.094 44.7034 81.9953 44.7C81.808 44.6932 81.6445 44.7748 81.5117 44.9449C81.3789 45.1184 81.2495 45.3837 81.1269 45.7443C81.0315 46.0266 80.926 46.2715 80.8136 46.4756C80.7012 46.6797 80.5786 46.8498 80.4424 46.9825C80.3062 47.1151 80.1563 47.2104 79.9929 47.2716C79.8294 47.3328 79.6455 47.3566 79.4412 47.3498C79.2266 47.3396 79.0359 47.2886 78.8691 47.1968C78.7022 47.1049 78.5626 46.9757 78.4502 46.8158C78.3378 46.6525 78.2527 46.4586 78.1982 46.2341C78.1437 46.0096 78.1233 45.7579 78.1369 45.4824C78.1471 45.2374 78.1914 44.9993 78.2697 44.7646C78.348 44.5299 78.457 44.3224 78.5966 44.1387C78.7397 43.955 78.9133 43.8122 79.1177 43.7067C79.322 43.6013 79.5604 43.5536 79.8294 43.5639L79.7919 44.4449C79.6319 44.4381 79.4923 44.4585 79.3731 44.5129C79.2539 44.5639 79.1585 44.6388 79.0802 44.734C79.0019 44.8292 78.944 44.9449 78.9031 45.0776C78.8623 45.2102 78.8418 45.3565 78.8316 45.5096C78.818 45.8157 78.8691 46.0504 78.9883 46.2103C79.1075 46.3702 79.2675 46.4552 79.4718 46.4654L79.4752 46.462Z" fill="white"/>
<path d="M80.3782 50.1837L82.5543 51.745L82.3874 52.7076L79.5098 50.483L77.6641 50.1666L77.8139 49.2924L79.6597 49.6088L83.1196 48.4727L82.9527 49.4387L80.3782 50.1837Z" fill="white"/>
<path d="M77.6978 55.282C77.7965 55.3127 77.8885 55.3229 77.9736 55.3195C78.0587 55.3127 78.1473 55.282 78.2358 55.2242C78.3244 55.1664 78.4197 55.0813 78.5185 54.9623C78.6172 54.8466 78.733 54.6902 78.8624 54.4997C79.0021 54.2888 79.1451 54.0983 79.2949 53.9316C79.4448 53.7615 79.598 53.6255 79.7615 53.52C79.9215 53.4146 80.0918 53.3465 80.2723 53.3125C80.4494 53.2785 80.6401 53.2921 80.8376 53.3533C81.0351 53.4146 81.202 53.5098 81.3416 53.6425C81.4812 53.7751 81.5868 53.9384 81.6617 54.1255C81.7366 54.3126 81.7741 54.5235 81.7741 54.7548C81.7741 54.9861 81.7366 55.231 81.6583 55.4861C81.5732 55.7583 81.4608 55.993 81.3143 56.1869C81.1679 56.3808 81.0045 56.5304 80.824 56.6393C80.6435 56.7481 80.4494 56.8162 80.245 56.84C80.0407 56.8638 79.8364 56.8468 79.6355 56.7855L79.8943 55.9453C80.0135 55.9828 80.1258 55.9964 80.2382 55.9896C80.3472 55.9828 80.4528 55.9522 80.5481 55.9011C80.6435 55.8467 80.7286 55.7685 80.8035 55.6664C80.8785 55.5644 80.9397 55.4317 80.9908 55.2752C81.0351 55.1256 81.0589 54.9929 81.0589 54.8738C81.0589 54.7548 81.0385 54.6493 81.001 54.5575C80.9636 54.4657 80.9091 54.3908 80.8376 54.333C80.7661 54.2718 80.6809 54.2275 80.5856 54.2003C80.4051 54.1459 80.228 54.1833 80.0577 54.3194C79.8841 54.452 79.6934 54.68 79.4856 54.9963C79.3222 55.2446 79.1587 55.4555 79.002 55.6256C78.8454 55.7957 78.6819 55.9283 78.5185 56.0236C78.355 56.1188 78.1847 56.1733 78.0111 56.1903C77.8374 56.2073 77.6535 56.1869 77.4594 56.129C77.2551 56.0678 77.0814 55.9692 76.9452 55.8365C76.8055 55.7038 76.7034 55.5474 76.6353 55.3603C76.5672 55.1766 76.5331 54.9657 76.5399 54.7344C76.5433 54.5031 76.5876 54.2548 76.6659 53.9928C76.7374 53.7581 76.8396 53.537 76.9724 53.3295C77.1052 53.122 77.2619 52.9485 77.4458 52.8057C77.6297 52.6662 77.834 52.5676 78.0587 52.5165C78.2835 52.4655 78.5253 52.4791 78.7841 52.5574L78.5253 53.401C78.372 53.3533 78.2324 53.3397 78.103 53.3601C77.977 53.3805 77.8646 53.4282 77.7625 53.4996C77.6637 53.571 77.5786 53.6697 77.5071 53.7887C77.4355 53.9078 77.3777 54.0439 77.33 54.1901C77.2414 54.4827 77.2312 54.7242 77.3061 54.9079C77.3811 55.0915 77.5139 55.214 77.7114 55.2752L77.6978 55.282Z" fill="white"/>
<path d="M78.3496 61.648L79.0034 60.2023L75.0156 58.4029L75.3766 57.6035L79.3644 59.403L80.0114 57.9709L80.6618 58.2634L79 61.9372L78.3496 61.6446V61.648Z" fill="white"/>
<path d="M74.395 64.1789L75.4848 62.3964L74.1498 61.5835L72.8762 63.6652L72.2734 63.2979L74.0068 60.4609L78.3487 63.1074L76.629 65.9239L76.0194 65.5531L77.2794 63.4918L76.0807 62.7604L74.991 64.5429L74.395 64.1789Z" fill="white"/>
<path d="M75.0771 68.0392L71.1438 66.6649L73.1973 70.2842L72.4651 71.1619L68.5625 67.9031L69.1278 67.2296L70.4151 68.3045L72.0803 69.808L70.0371 66.1445L70.4423 65.6615L74.4096 67.0221L72.6354 65.6547L71.3482 64.5798L71.9135 63.9062L75.8161 67.165L75.0805 68.0426L75.0771 68.0392Z" fill="white"/>
<path d="M33.0535 56.1133C33.0365 56.331 32.9888 56.5317 32.907 56.7154C32.8253 56.8991 32.7095 57.0556 32.5631 57.1882C32.4167 57.3209 32.2396 57.4229 32.0318 57.4944C31.8241 57.5692 31.5857 57.6066 31.3201 57.6066C31.0545 57.6066 30.7957 57.559 30.5743 57.4637C30.353 57.3685 30.1691 57.229 30.0158 57.0522C29.8626 56.8719 29.7468 56.6542 29.6617 56.399C29.5799 56.1439 29.5391 55.8582 29.5391 55.5384V55.2527C29.5391 54.9364 29.5799 54.6472 29.6651 54.3921C29.7502 54.137 29.8694 53.9193 30.026 53.739C30.1793 53.5587 30.37 53.4226 30.5913 53.324C30.8127 53.2288 31.0579 53.1777 31.3303 53.1777C31.6028 53.1777 31.8377 53.2152 32.0421 53.29C32.2498 53.3648 32.4235 53.4703 32.5665 53.6063C32.7095 53.7424 32.8219 53.9023 32.9036 54.0894C32.9854 54.2764 33.0364 54.4771 33.0569 54.6982H32.1681C32.1578 54.569 32.1374 54.4567 32.1 54.3581C32.0659 54.2594 32.0148 54.1778 31.9501 54.1098C31.8854 54.0417 31.8003 53.9907 31.6981 53.9567C31.5959 53.9227 31.4699 53.9057 31.3235 53.9057C31.0238 53.9057 30.7991 54.0145 30.6526 54.2322C30.5062 54.4499 30.4313 54.7867 30.4313 55.2459V55.535C30.4313 55.7561 30.4483 55.9534 30.479 56.1201C30.513 56.2868 30.5641 56.4263 30.6322 56.5419C30.7037 56.6542 30.7923 56.7392 30.9046 56.7936C31.017 56.8481 31.1498 56.8787 31.3099 56.8787C31.4495 56.8787 31.5721 56.8617 31.6709 56.8311C31.773 56.8004 31.8582 56.7528 31.9263 56.6882C31.9944 56.6235 32.0489 56.5453 32.0829 56.4467C32.1204 56.3514 32.1442 56.2392 32.1544 56.1099H33.0433L33.0535 56.1133Z" fill="#2E343D"/>
<path d="M36.2278 55.6811H34.5216V56.8343H36.524V57.5486H33.6328V53.2422H36.5172V53.9599H34.5216V54.9872H36.2278V55.6811Z" fill="#2E343D"/>
<path d="M38.644 55.9698H37.9357V57.5447H37.0469V53.2383H38.6474C38.896 53.2383 39.1208 53.2655 39.3149 53.3233C39.5124 53.3811 39.6793 53.4628 39.8155 53.5716C39.9517 53.6805 40.0573 53.8166 40.1288 53.9798C40.2003 54.1431 40.2378 54.3302 40.2378 54.5411C40.2378 54.6976 40.2207 54.8404 40.1833 54.9663C40.1492 55.0922 40.0982 55.2044 40.03 55.2997C39.9619 55.3983 39.8836 55.4833 39.7883 55.5548C39.6929 55.6262 39.5873 55.6908 39.4681 55.7453L40.4012 57.5039V57.5447H39.4477L38.6406 55.9698H38.644ZM37.9357 55.252H38.6508C38.7666 55.252 38.8688 55.2384 38.9573 55.2078C39.0459 55.1772 39.1174 55.133 39.1753 55.0785C39.2332 55.0207 39.2774 54.9561 39.3081 54.8779C39.3387 54.7996 39.3524 54.7112 39.3524 54.6159C39.3524 54.4118 39.2945 54.252 39.1787 54.1363C39.0629 54.0206 38.8858 53.9628 38.6474 53.9628H37.9323V55.2554L37.9357 55.252Z" fill="#2E343D"/>
<path d="M44.0144 53.9599H42.6931V57.5486H41.8043V53.9599H40.5V53.2422H44.011V53.9599H44.0144Z" fill="#2E343D"/>
<path d="M45.4669 57.5486H44.5781V53.2422H45.4669V57.5486Z" fill="#2E343D"/>
<path d="M48.884 55.7861H47.1779V57.5447H46.2891V53.2383H49.0951V53.956H47.1779V55.0683H48.884V55.7827V55.7861Z" fill="#2E343D"/>
<path d="M50.5529 57.5486H49.6641V53.2422H50.5529V57.5486Z" fill="#2E343D"/>
<path d="M53.9699 55.6811H52.2638V56.8343H54.2662V57.5486H51.375V53.2422H54.2594V53.9599H52.2638V54.9872H53.9699V55.6811Z" fill="#2E343D"/>
<path d="M54.7891 57.5486V53.2422H56.1172C56.4066 53.2422 56.6723 53.2932 56.9141 53.3919C57.1558 53.4905 57.3636 53.63 57.5373 53.8137C57.7109 53.9939 57.8437 54.2116 57.9425 54.4634C58.0379 54.7151 58.0889 54.994 58.0889 55.3036V55.4974C58.0889 55.8036 58.0413 56.0859 57.9459 56.3342C57.8506 56.586 57.7143 56.8003 57.5407 56.9805C57.367 57.1608 57.1558 57.3003 56.9141 57.3989C56.6723 57.4976 56.4032 57.5452 56.1104 57.5452H54.7925L54.7891 57.5486ZM55.6779 53.9599V56.8343H56.107C56.4577 56.8343 56.7268 56.7186 56.9107 56.4873C57.0945 56.256 57.1865 55.926 57.1865 55.494V55.2933C57.1865 54.8545 57.0945 54.5246 56.9141 54.2967C56.7336 54.0722 56.4679 53.9565 56.1172 53.9565H55.6779V53.9599Z" fill="#2E343D"/>
</g>
<defs>
<clipPath id="clip0_3112_4998">
<rect width="88" height="88.5333" fill="white"/>
</clipPath>
</defs>
</svg>
