<svg width="96" height="46" viewBox="0 0 96 46" fill="none" xmlns="http://www.w3.org/2000/svg">
<path d="M28.1562 29.4708C28.1609 23.8343 28.1652 18.1977 28.1693 12.5612C28.1693 9.38395 28.1762 6.20673 28.158 3.02952C28.158 2.61648 28.2646 2.50656 28.6848 2.50742C38.159 2.51944 47.6312 2.51944 57.1013 2.50742C57.5242 2.50742 57.8768 2.66456 58.2555 2.7762C59.4784 3.13789 60.6672 3.60451 61.8083 4.17074C62.8482 4.68596 63.849 5.27589 64.7433 6.01781C65.5856 6.71594 66.4079 7.42867 67.0977 8.29683C67.6921 9.0439 68.2346 9.81416 68.6488 10.6634C68.8689 11.1142 69.154 11.5462 69.2485 12.0562C69.2658 12.1507 69.3143 12.2786 69.4651 12.2864C69.6159 12.2941 69.6904 12.1885 69.7502 12.0691C70.1401 11.2903 70.5301 10.514 70.92 9.73258C71.816 7.91498 72.7114 6.09538 73.6063 4.27378C74.2417 2.97713 74.8772 1.68049 75.5127 0.383839C75.5724 0.261903 75.5993 0.115925 75.7839 0L95.3131 39.7744H94.8365C92.4535 39.7744 90.0705 39.7701 87.6893 39.7805C87.4137 39.7805 87.256 39.7195 87.1252 39.4541C85.0489 35.243 82.9646 31.0354 80.8722 26.8312L77.0941 19.2333C76.7596 18.5575 76.452 17.8671 75.9953 17.2068C75.7354 17.722 75.4754 18.2218 75.2154 18.7258C74.6635 19.8215 74.069 20.9001 73.5794 22.0224C73.2163 22.8571 72.9624 23.7398 72.6176 24.5856C71.8424 26.4998 70.8958 28.3414 69.7892 30.0882C69.031 31.2793 68.1549 32.3887 67.2528 33.4647C66.7701 34.0391 66.1653 34.5535 65.5899 35.0696C64.4409 36.1 63.1636 36.939 61.8404 37.7204C60.8959 38.2794 59.8777 38.6933 58.8578 39.1012C57.5632 39.6164 56.2044 39.8981 54.85 40.1995C54.7351 40.2148 54.619 40.218 54.5034 40.209C51.7027 40.209 48.9012 40.2021 46.098 40.2184C45.734 40.2184 45.65 40.1205 45.6508 39.7676C45.6638 35.3186 45.6508 30.8688 45.669 26.4198C45.669 26.0429 45.5824 25.9467 45.1959 25.9493C42.4386 25.9676 39.6807 25.9676 36.9222 25.9493C36.5686 25.9493 36.4646 26.0265 36.4664 26.3915C36.4785 29.166 36.4664 31.9413 36.462 34.7167C35.9421 34.6308 35.5331 34.332 35.1033 34.0469C33.4205 32.9305 31.7099 31.8597 30.0289 30.7434C29.4049 30.3244 28.7152 29.9912 28.1562 29.4708ZM45.9342 10.4032V10.4075C42.9316 10.4075 39.9291 10.4135 36.9222 10.4007C36.566 10.4007 36.4646 10.4917 36.4681 10.8515C36.4872 12.811 36.4872 14.7706 36.4681 16.7302C36.4629 17.1595 36.5487 17.2987 37.0192 17.2969C42.663 17.2789 48.3077 17.2901 53.9523 17.2755C54.3431 17.2755 54.4228 17.3785 54.4211 17.7486C54.4078 22.3685 54.4049 26.9886 54.4124 31.609C54.4124 31.7232 54.4185 31.8383 54.4124 31.9525C54.4011 32.1929 54.532 32.241 54.7417 32.2101C55.9826 32.0384 57.0918 31.5231 58.1741 30.9349C58.982 30.4849 59.7376 29.9481 60.4271 29.3343C61.2503 28.6233 61.9972 27.8891 62.4886 26.8981C63.057 25.7526 63.6766 24.6028 63.739 23.3251C63.8412 21.2358 63.8941 19.132 63.0518 17.1278C62.5614 15.9599 61.947 14.8814 61.1064 13.9231C59.8933 12.5371 58.3751 11.5745 56.6966 10.8558C56.0224 10.5664 55.3309 10.3646 54.5467 10.3792C51.6811 10.435 48.8094 10.4032 45.9342 10.4032Z" fill="#3AB1C1"/>
<path d="M28.1519 29.467C28.7108 29.9873 29.4006 30.3205 30.0306 30.7378C31.7117 31.8542 33.4222 32.9267 35.105 34.0413C35.5383 34.3264 35.9421 34.6243 36.4638 34.7111C36.4684 38.0583 36.4721 41.4056 36.475 44.7528C36.475 45.0233 36.1475 45.116 35.8494 44.9374C34.7662 44.29 33.7532 43.5343 32.677 42.8765C31.7299 42.2995 30.8191 41.6683 29.8746 41.087C29.1996 40.6722 28.5479 40.2051 27.8703 39.7895C26.6571 39.0441 25.4856 38.2438 24.2863 37.4787C23.2308 36.808 22.1927 36.1048 21.1329 35.4401C20.5948 35.1026 20.0706 34.7394 19.535 34.4002C19.0247 34.0765 18.49 33.7725 18.0073 33.393C17.5741 33.0495 17.081 32.779 16.6113 32.481C15.8921 32.023 15.1714 31.5699 14.4493 31.1217C13.8609 30.7516 13.263 30.3866 12.6955 29.9959C11.9156 29.4601 11.1175 28.956 10.3307 28.4348C9.98857 28.1972 9.58722 28.0573 9.17037 28.0303C8.89568 28.0166 8.82376 28.105 8.82376 28.3609C8.83502 29.4627 8.82894 30.5644 8.82894 31.6661C8.82894 34.0121 8.81682 36.3581 8.83761 38.7075C8.83761 39.1016 8.71889 39.1755 8.35234 39.1729C6.02828 39.1566 3.70336 39.1523 1.3793 39.1729C0.96076 39.1772 0.859375 39.0767 0.859375 38.6577C0.871507 30.5893 0.873534 22.5209 0.865447 14.4525C0.865447 10.4037 0.873246 6.35572 0.865447 2.30692C0.865447 1.9205 0.963362 1.81402 1.36024 1.81745C3.68545 1.83806 6.01009 1.83806 8.33415 1.81745C8.68077 1.81745 8.75876 1.92393 8.75703 2.24681C8.74577 4.43565 8.7501 6.62621 8.75703 8.81334C8.75703 8.96619 8.65564 9.19203 8.87834 9.26416C9.07158 9.32685 9.24575 9.19546 9.37486 9.06236C10.7544 7.64607 12.1313 6.22691 13.5057 4.8049C14.4346 3.84916 15.3722 2.90114 16.2925 1.93681C16.3537 1.86941 16.4298 1.81692 16.5149 1.78341C16.6 1.7499 16.6917 1.73627 16.7829 1.7436C20.1618 1.74704 23.5413 1.75047 26.9214 1.75391C27.0713 1.75391 27.2871 1.63799 27.3729 1.85266C27.4526 2.05188 27.3097 2.19615 27.1719 2.33096C25.009 4.51379 22.8478 6.69806 20.6884 8.88375L12.783 16.8697C12.4303 17.2261 12.0793 17.5842 11.7345 17.9483C11.3896 18.3124 11.4251 18.6352 11.8315 18.9014C13.7419 20.1528 15.6564 21.3991 17.5749 22.6402C20.5789 24.5866 23.583 26.533 26.587 28.4794C27.1017 28.8195 27.6285 29.1406 28.1519 29.467Z" fill="#1D337E"/>
<path d="M75.7086 38.8323C72.7147 38.7996 70.3681 36.4476 70.3594 33.5435C70.3516 30.5457 72.7216 28.174 75.7701 28.1955C76.4757 28.1981 77.1738 28.3394 77.824 28.6112C78.4742 28.8829 79.0636 29.2798 79.558 29.7787C80.0524 30.2777 80.442 30.8689 80.7043 31.518C80.9667 32.1672 81.0965 32.8615 81.0863 33.5607C81.0646 36.4579 78.7033 38.8117 75.7086 38.8323Z" fill="#3AB1C1"/>
</svg>
