<svg width="109" height="46" viewBox="0 0 109 46" fill="none" xmlns="http://www.w3.org/2000/svg">
<circle cx="23.503" cy="16.7218" r="11.4405" fill="#F29600"/>
<circle cx="74.5403" cy="35.2044" r="7.04032" fill="#F29600"/>
<circle cx="97.4231" cy="35.2044" r="7.04032" fill="#F29600"/>
<path d="M62.6472 37.2878C62.5243 37.5002 62.569 37.6943 62.569 37.8721C62.5649 40.1362 62.5649 42.4005 62.569 44.6652C62.569 45.3186 62.5375 45.3501 61.878 45.3501C60.0491 45.3501 58.2219 45.3501 56.3964 45.3501C55.7766 45.3501 55.7379 45.3125 55.7369 44.6825C55.7369 40.88 55.7369 37.0778 55.7369 33.276C55.7369 32.2944 55.4524 31.4469 54.5898 30.8738C53.021 29.8373 50.9004 30.8626 50.7988 32.7344C50.6738 35.0472 50.7683 37.363 50.7511 39.6779C50.7389 41.3332 50.7511 42.9896 50.7511 44.6459C50.7511 45.2963 50.6931 45.3501 50.0622 45.3501C48.2529 45.3501 46.4426 45.3501 44.6313 45.3501C44.0216 45.3501 43.983 45.3095 43.983 44.6734C43.983 40.8038 43.983 36.9342 43.983 33.0646C43.983 31.5851 42.9223 30.4582 41.5302 30.4521C40.1382 30.446 39.0388 31.578 39.0348 33.0443C39.0256 36.8976 39.0348 40.7499 39.0348 44.6032C39.0348 45.339 39.0226 45.3501 38.3042 45.3501C36.5109 45.3501 34.7175 45.34 32.919 45.3583C32.4588 45.3633 32.2932 45.2089 32.2952 44.7425C32.3084 40.6026 32.2799 36.4627 32.3206 32.3228C32.3348 30.9205 32.7951 29.6056 33.4982 28.3842C33.5795 28.2429 33.7146 28.121 33.7014 27.8995C33.4921 27.871 33.3692 28.0306 33.233 28.1271C30.9401 29.7692 28.2255 30.7212 25.4093 30.8708C22.5013 31.0374 19.5923 30.9033 16.6843 30.949C15.9964 30.9592 15.9934 30.949 15.9934 31.6491C15.9934 35.9746 15.9934 40.3004 15.9934 44.6266C15.9934 45.3288 15.973 45.3491 15.2882 45.3491H9.70592C8.97232 45.3491 8.9591 45.3359 8.9591 44.6165C8.9591 40.3066 8.9591 35.9973 8.9591 31.6887C8.9591 30.95 8.95911 30.949 8.20112 30.949H1.28269C0.662891 30.949 0.626316 30.9114 0.626316 30.2793C0.626316 28.3364 0.637509 26.3925 0.617188 24.4496C0.617188 23.9598 0.786861 23.7982 1.26746 23.8013C3.53431 23.8175 5.80116 23.8094 8.06801 23.8074C8.84733 23.8074 8.84837 23.8013 8.84837 23.0168C8.84837 20.4479 8.84837 17.88 8.84837 15.3112C8.86462 7.86773 14.4428 1.36425 21.8063 0.196672C29.9867 -1.09996 37.7047 4.14042 39.3914 12.2088C40.3059 16.5895 39.4473 20.6542 36.8848 24.3429C36.77 24.5095 36.6531 24.6752 36.5403 24.8438C36.5241 24.8682 36.5291 24.9079 36.519 24.9749C36.7415 25.0105 36.8898 24.856 37.0565 24.7717C40.4867 23.0442 43.7961 23.2312 46.9642 25.417C47.2944 25.6456 47.5017 25.6659 47.8431 25.422C53.4802 21.3899 61.243 24.5492 62.4511 31.3534C62.4907 31.576 62.4115 31.8351 62.6391 32.017C62.7986 31.9082 62.7925 31.7274 62.8423 31.578C64.278 27.0987 67.3475 24.4648 71.9554 23.659C74.2517 23.2596 76.4566 23.7515 78.5457 24.7636C79.1055 25.0349 79.1492 25.0125 79.1502 24.3713C79.1556 21.3797 79.1573 18.3885 79.1553 15.3975C79.1553 14.5968 79.1726 14.5846 79.9905 14.5846C81.7158 14.5846 83.4414 14.5846 85.1674 14.5846C85.8949 14.5846 85.9152 14.607 85.9152 15.3213C85.9152 20.4753 85.9152 25.6293 85.9152 30.7834C85.9152 30.9764 85.8563 31.1837 85.9884 31.3758C86.1916 31.2742 86.1916 31.0709 86.2505 30.9094C87.8366 26.8071 90.8086 24.3754 95.1391 23.661C97.4222 23.285 99.6098 23.7322 101.676 24.7646C102.228 25.04 102.25 25.039 102.233 24.4099C102.222 23.974 102.381 23.8002 102.822 23.8063C104.651 23.8185 106.477 23.8185 108.302 23.8063C108.721 23.8063 108.863 23.9771 108.862 24.3856C108.855 31.179 108.855 37.9721 108.862 44.7648C108.862 45.2048 108.707 45.3603 108.268 45.3562C106.424 45.341 104.579 45.3379 102.735 45.3562C102.266 45.3613 102.108 45.1896 102.117 44.7323C102.131 44.0891 102.088 44.0779 101.508 44.3695C95.513 47.3652 88.4086 44.5402 86.1062 38.2451C86.0453 38.0794 86.0422 37.8772 85.8329 37.7573C85.6693 37.927 85.7262 38.1374 85.7262 38.3233C85.7262 40.4359 85.7262 42.5475 85.7262 44.6602C85.7262 45.3176 85.6947 45.3481 85.0373 45.3481C83.2277 45.3481 81.4171 45.3379 79.6064 45.3562C79.139 45.3613 78.9765 45.1947 78.9897 44.7343C79.008 44.0891 78.9724 44.0809 78.3882 44.3685C72.1637 47.4282 64.9811 44.3756 62.8789 37.7766C62.823 37.6201 62.8006 37.4525 62.6472 37.2878ZM20.7384 23.8185C21.9231 23.8185 23.1068 23.8185 24.2946 23.8185C29.5447 23.7982 33.4078 19.1686 32.4893 14.0024C31.7689 9.95393 28.0775 6.99586 23.9543 7.16455C19.8971 7.3312 16.4353 10.5677 16.1021 14.6364C15.8653 17.5173 16.0523 20.4113 16.0177 23.2993C16.0177 23.6946 16.1976 23.8267 16.5786 23.8226C17.9645 23.8084 19.3515 23.8155 20.7384 23.8175V23.8185ZM96.6297 30.4409C95.5363 30.4375 94.4854 30.8641 93.7038 31.6287C92.9221 32.3933 92.4724 33.4347 92.4516 34.5279C92.4262 36.7737 94.3516 38.7105 96.6083 38.7085C98.865 38.7064 100.745 36.8153 100.743 34.5665C100.747 34.0245 100.644 33.4869 100.439 32.985C100.234 32.4831 99.9317 32.027 99.549 31.643C99.1664 31.2591 98.7112 30.955 98.2101 30.7485C97.7089 30.5419 97.1717 30.4371 96.6297 30.4399V30.4409ZM73.4775 38.7105C75.721 38.7105 77.6251 36.8113 77.6312 34.5696C77.6373 32.3279 75.7647 30.449 73.4846 30.4429C71.2218 30.4368 69.3269 32.3167 69.3309 34.5645C69.335 36.8123 71.2371 38.7105 73.4775 38.7105Z" fill="#00418F"/>
</svg>
