<svg width="76" height="76" viewBox="0 0 76 76" fill="none" xmlns="http://www.w3.org/2000/svg">
    <path d="M45.1289 76H30.8726C29.0322 76 27.4399 74.7574 27.0461 73.0132L25.452 65.854C23.3255 64.95 21.3092 63.8196 19.4401 62.4834L12.2454 64.7064C10.4907 65.2493 8.58333 64.5328 7.66298 62.985L0.519161 51.0112C-0.391097 49.4628 -0.0774943 47.5095 1.27506 46.303L6.85617 41.363C6.60237 39.1252 6.60237 36.8672 6.85617 34.6294L1.27506 29.7008C-0.0794866 28.4938 -0.393213 26.5381 0.519161 24.9888L7.64732 13.0074C8.56766 11.4597 10.4751 10.7431 12.2297 11.286L19.4244 13.509C20.3803 12.8218 21.3754 12.1875 22.405 11.609C23.3933 11.0682 24.4104 10.5786 25.452 10.1422L27.05 2.9906C27.4419 1.24628 29.0325 0.00187869 30.8726 0H45.1289C46.9689 0.00187869 48.5595 1.24628 48.9515 2.9906L50.5651 10.146C51.6648 10.6154 52.7358 11.1457 53.7728 11.7344C54.7412 12.277 55.6775 12.872 56.577 13.5166L63.7757 11.2936C65.5291 10.7527 67.4342 11.469 68.3541 13.015L75.4823 24.9964C76.3926 26.5448 76.079 28.4981 74.7264 29.7046L69.1453 34.6446C69.3991 36.8824 69.3991 39.1404 69.1453 41.3782L74.7264 46.3182C76.079 47.5247 76.3926 49.478 75.4823 51.0264L68.3541 63.0078C67.4342 64.5538 65.5291 65.2701 63.7757 64.7292L56.577 62.5062C55.6661 63.1571 54.7195 63.7597 53.7414 64.3112C52.7146 64.8884 51.6555 65.4099 50.569 65.873L48.9515 73.0132C48.5579 74.756 46.9678 75.9985 45.1289 76ZM37.9851 22.8C29.3328 22.8 22.3188 29.6053 22.3188 38C22.3188 46.3947 29.3328 53.2 37.9851 53.2C46.6373 53.2 53.6513 46.3947 53.6513 38C53.6513 29.6053 46.6373 22.8 37.9851 22.8Z" fill="#4EE287"/>
    </svg>
    