<svg width="76" height="76" viewBox="0 0 76 76" fill="none" xmlns="http://www.w3.org/2000/svg">
    <path fill-rule="evenodd" clip-rule="evenodd" d="M0 38C0 17.0132 17.0132 0 38 0C58.9868 0 76 17.0132 76 38C76 58.9868 58.9868 76 38 76C17.0132 76 0 58.9868 0 38ZM38.0001 17.7333C38.9823 17.7333 39.876 18.3011 40.2933 19.1902L45.1991 29.6418L56.1158 31.3086C57.0545 31.4519 57.8342 32.1081 58.1357 33.0086C58.4371 33.909 58.2098 34.9024 57.5466 35.5821L49.5729 43.7544L51.4607 55.3254C51.6169 56.2829 51.2126 57.2455 50.4195 57.8043C49.6264 58.3631 48.5839 58.4198 47.7348 57.9505L38.0001 52.5691L28.2653 57.9505C27.4163 58.4198 26.3737 58.3631 25.5806 57.8043C24.7875 57.2455 24.3832 56.2829 24.5394 55.3254L26.4272 43.7544L18.4535 35.5821C17.7904 34.9024 17.563 33.909 17.8645 33.0086C18.166 32.1081 18.9457 31.4519 19.8844 31.3086L30.8011 29.6418L35.7068 19.1902C36.1241 18.3011 37.0178 17.7333 38.0001 17.7333Z" fill="#4EE287"/>
    </svg>
    