<svg width="42" height="42" viewBox="0 0 42 42" fill="none" xmlns="http://www.w3.org/2000/svg">
    <circle cx="21" cy="21" r="21" fill="white"/>
    <g clip-path="url(#clip0_3014_3327)">
    <path d="M20.7395 10.2043C20.997 10.0204 21.3429 10.0204 21.6003 10.2043L31.9673 17.6093C32.1619 17.7483 32.2774 17.9727 32.2774 18.2119V31.5408C32.2774 31.9498 31.9458 32.2813 31.5369 32.2813H29.3154V20.4333H13.0245V32.2813H10.803C10.394 32.2813 10.0625 31.9498 10.0625 31.5408V18.2119C10.0625 17.9727 10.178 17.7483 10.3726 17.6093L20.7395 10.2043Z" fill="#1C3F67"/>
    <path fill-rule="evenodd" clip-rule="evenodd" d="M14.5055 32.2813H27.8344V26.3573H14.5055V32.2813ZM23.3914 29.3193H18.9485V27.8383H23.3914V29.3193Z" fill="#1C3F67"/>
    <path d="M27.8344 24.8763V21.9143H14.5055V24.8763H27.8344Z" fill="#1C3F67"/>
    </g>
    <defs>
    <clipPath id="clip0_3014_3327">
    <rect width="22.2149" height="22.2149" fill="white" transform="translate(10.0625 10.0664)"/>
    </clipPath>
    </defs>
    </svg>
    