<svg width="42" height="42" viewBox="0 0 42 42" fill="none" xmlns="http://www.w3.org/2000/svg">
    <circle cx="21" cy="21" r="21" fill="white"/>
    <g clip-path="url(#clip0_3014_3317)">
    <path d="M17.2428 9.37109C15.5047 9.37109 14.0957 10.7801 14.0957 12.5182V14.0918C14.0957 15.8299 15.5047 17.2389 17.2428 17.2389C18.9809 17.2389 20.3899 15.8299 20.3899 14.0918V12.5182C20.3899 10.7801 18.9809 9.37109 17.2428 9.37109Z" fill="#1C3F67"/>
    <path d="M25.1105 9.37109C23.3724 9.37109 21.9634 10.7801 21.9634 12.5182V14.0918C21.9634 15.8299 23.3724 17.2389 25.1105 17.2389C26.8486 17.2389 28.2576 15.8299 28.2576 14.0918V12.5182C28.2576 10.7801 26.8486 9.37109 25.1105 9.37109Z" fill="#1C3F67"/>
    <path d="M12.5221 17.2389C10.784 17.2389 9.375 18.6479 9.375 20.386V21.1727C9.375 22.9108 10.784 24.3199 12.5221 24.3199C14.2602 24.3199 15.6692 22.9108 15.6692 21.1727V20.386C15.6692 18.6479 14.2602 17.2389 12.5221 17.2389Z" fill="#1C3F67"/>
    <path d="M29.8312 17.2389C28.0931 17.2389 26.6841 18.6479 26.6841 20.386V21.1727C26.6841 22.9108 28.0931 24.3199 29.8312 24.3199C31.5693 24.3199 32.9783 22.9108 32.9783 21.1727V20.386C32.9783 18.6479 31.5693 17.2389 29.8312 17.2389Z" fill="#1C3F67"/>
    <path d="M24.5011 21.6117C22.7784 19.5198 19.5749 19.5198 17.8522 21.6117L13.2608 27.1869C11.3599 29.4951 13.0018 32.9744 15.992 32.9744C16.4193 32.9744 16.8407 32.8749 17.2228 32.6839L17.7888 32.4009C19.9215 31.3345 22.4318 31.3345 24.5645 32.4009L25.1305 32.6839C25.5126 32.8749 25.934 32.9744 26.3613 32.9744C29.3515 32.9744 30.9934 29.4951 29.0925 27.1869L24.5011 21.6117Z" fill="#1C3F67"/>
    </g>
    <defs>
    <clipPath id="clip0_3014_3317">
    <rect width="23.6033" height="23.6033" fill="white" transform="translate(9.375 9.37109)"/>
    </clipPath>
    </defs>
    </svg>
    