<svg xmlns="http://www.w3.org/2000/svg" width="42" height="42" viewBox="0 0 42 42" fill="none">
  <circle cx="21" cy="21" r="21" fill="white"/>
  <path d="M23.3917 32.9726H18.9564C18.3838 32.9726 17.8884 32.586 17.7659 32.0433L17.27 29.816C16.6084 29.5348 15.9811 29.1831 15.3996 28.7674L13.1612 29.459C12.6154 29.6279 12.0219 29.405 11.7356 28.9235L9.51308 25.1983C9.22989 24.7165 9.32745 24.1088 9.74825 23.7335L11.4846 22.1966C11.4056 21.5004 11.4056 20.7979 11.4846 20.1017L9.74825 18.5684C9.32683 18.1929 9.22923 17.5844 9.51308 17.1024L11.7307 13.3749C12.0171 12.8933 12.6105 12.6704 13.1564 12.8393L15.3947 13.5309C15.6921 13.3171 16.0017 13.1198 16.322 12.9398C16.6295 12.7716 16.9459 12.6192 17.27 12.4835L17.7671 10.2585C17.8891 9.71586 18.3839 9.32871 18.9564 9.32812H23.3917C23.9641 9.32871 24.459 9.71586 24.5809 10.2585L25.0829 12.4847C25.4251 12.6307 25.7583 12.7957 26.0809 12.9788C26.3822 13.1476 26.6734 13.3327 26.9533 13.5333L29.1929 12.8417C29.7384 12.6734 30.3311 12.8963 30.6173 13.3772L32.8349 17.1048C33.1181 17.5865 33.0206 18.1942 32.5998 18.5696L30.8634 20.1064C30.9424 20.8026 30.9424 21.5051 30.8634 22.2013L32.5998 23.7382C33.0206 24.1136 33.1181 24.7213 32.8349 25.203L30.6173 28.9305C30.3311 29.4115 29.7384 29.6344 29.1929 29.4661L26.9533 28.7745C26.6699 28.977 26.3754 29.1645 26.0711 29.3361C25.7517 29.5156 25.4222 29.6779 25.0841 29.8219L24.5809 32.0433C24.4585 32.5855 23.9638 32.9721 23.3917 32.9726ZM21.1691 16.4215C18.4773 16.4215 16.2952 18.5387 16.2952 21.1503C16.2952 23.762 18.4773 25.8792 21.1691 25.8792C23.8609 25.8792 26.0431 23.762 26.0431 21.1503C26.0431 18.5387 23.8609 16.4215 21.1691 16.4215Z" fill="#1C3F67"/>
</svg>