<svg width="42" height="42" viewBox="0 0 42 42" fill="none" xmlns="http://www.w3.org/2000/svg">
    <circle cx="21" cy="21" r="21" fill="white"/>
    <g clip-path="url(#clip0_3014_3322)">
    <path fill-rule="evenodd" clip-rule="evenodd" d="M9.375 21.1727C9.375 14.6549 14.6588 9.37109 21.1767 9.37109C27.6945 9.37109 32.9783 14.6549 32.9783 21.1727C32.9783 27.6906 27.6945 32.9744 21.1767 32.9744C14.6588 32.9744 9.375 27.6906 9.375 21.1727ZM21.1767 14.8785C21.4817 14.8785 21.7593 15.0549 21.8889 15.331L23.4125 18.5769L26.8029 19.0946C27.0944 19.1391 27.3365 19.3429 27.4302 19.6226C27.5238 19.9022 27.4532 20.2107 27.2472 20.4218L24.7708 22.9599L25.3571 26.5535C25.4057 26.8509 25.2801 27.1498 25.0338 27.3234C24.7875 27.4969 24.4637 27.5145 24.2 27.3688L21.1767 25.6975L18.1534 27.3688C17.8897 27.5145 17.5659 27.4969 17.3196 27.3234C17.0733 27.1498 16.9477 26.8509 16.9962 26.5535L17.5825 22.9599L15.1061 20.4218C14.9002 20.2107 14.8295 19.9022 14.9232 19.6226C15.0168 19.3429 15.259 19.1391 15.5505 19.0946L18.9409 18.5769L20.4645 15.331C20.5941 15.0549 20.8716 14.8785 21.1767 14.8785Z" fill="#1C3F67"/>
    </g>
    <defs>
    <clipPath id="clip0_3014_3322">
    <rect width="23.6033" height="23.6033" fill="white" transform="translate(9.375 9.37109)"/>
    </clipPath>
    </defs>
    </svg>
    